<svg width="13" height="12" viewBox="0 0 13 12" fill="none" xmlns="http://www.w3.org/2000/svg">
<path d="M6.5 11.5658C6.31493 11.5658 6.1365 11.4988 5.99744 11.377C5.47227 10.9178 4.96595 10.4862 4.51923 10.1056L4.51695 10.1036C3.20725 8.98749 2.07628 8.02364 1.28937 7.07417C0.409721 6.01272 0 5.00632 0 3.90688C0 2.83869 0.36628 1.85322 1.0313 1.13187C1.70425 0.401985 2.62763 0 3.63165 0C4.38206 0 5.0693 0.237244 5.67421 0.705086C5.97949 0.941238 6.25621 1.23026 6.5 1.56738C6.74389 1.23026 7.02051 0.941238 7.32589 0.705086C7.9308 0.237244 8.61803 0 9.36845 0C10.3724 0 11.2959 0.401985 11.9688 1.13187C12.6338 1.85322 13 2.83869 13 3.90688C13 5.00632 12.5904 6.01272 11.7107 7.07407C10.9238 8.02364 9.79295 8.98739 8.48344 10.1034C8.03593 10.4846 7.52882 10.9169 7.00246 11.3772C6.8635 11.4988 6.68497 11.5658 6.5 11.5658ZM3.63165 0.76152C2.84286 0.76152 2.11823 1.07632 1.59108 1.64801C1.05609 2.22832 0.761421 3.03051 0.761421 3.90688C0.761421 4.83156 1.10509 5.65854 1.87563 6.58827C2.62039 7.48696 3.72816 8.43098 5.01078 9.52406L5.01316 9.52605C5.46156 9.9082 5.96987 10.3414 6.49891 10.804C7.03112 10.3405 7.54022 9.90661 7.98952 9.52386C9.27204 8.43078 10.3797 7.48696 11.1245 6.58827C11.8949 5.65854 12.2386 4.83156 12.2386 3.90688C12.2386 3.03051 11.9439 2.22832 11.4089 1.64801C10.8819 1.07632 10.1571 0.76152 9.36845 0.76152C8.79061 0.76152 8.26009 0.945206 7.79165 1.30742C7.37419 1.63036 7.08339 2.03859 6.9129 2.32423C6.82522 2.47112 6.67089 2.5588 6.5 2.5588C6.32911 2.5588 6.17478 2.47112 6.0871 2.32423C5.91671 2.03859 5.62591 1.63036 5.20835 1.30742C4.73991 0.945206 4.20939 0.76152 3.63165 0.76152Z" fill="#303030"/>
</svg>
