<svg width="19" height="19" viewBox="0 0 19 19" fill="none" xmlns="http://www.w3.org/2000/svg">
<path d="M17.5754 15.0927H9.40863C9.1307 14.0236 8.16624 13.2284 7.01116 13.2284C5.85608 13.2284 4.89162 14.0236 4.61369 15.0927H1.4183C1.07481 15.0927 0.796875 15.3709 0.796875 15.7141C0.796875 16.0573 1.07481 16.3355 1.4183 16.3355H4.61369C4.89162 17.4045 5.85608 18.1998 7.01116 18.1998C8.16624 18.1998 9.1307 17.4045 9.40863 16.3355H17.5754C17.9189 16.3355 18.1969 16.0573 18.1969 15.7141C18.1969 15.3709 17.9189 15.0927 17.5754 15.0927ZM7.01116 16.9569C6.32604 16.9569 5.7683 16.3995 5.7683 15.7141C5.7683 15.0287 6.32604 14.4712 7.01116 14.4712C7.69629 14.4712 8.25402 15.0287 8.25402 15.7141C8.25402 16.3995 7.69629 16.9569 7.01116 16.9569ZM17.5754 8.87838H14.3801C14.1021 7.80936 13.1377 7.01409 11.9826 7.01409C10.8275 7.01409 9.86305 7.80936 9.58512 8.87838H1.4183C1.07481 8.87838 0.796875 9.15662 0.796875 9.4998C0.796875 9.84299 1.07481 10.1212 1.4183 10.1212H9.58512C9.86305 11.1902 10.8275 11.9855 11.9826 11.9855C13.1377 11.9855 14.1021 11.1902 14.3801 10.1212H17.5754C17.9189 10.1212 18.1969 9.84299 18.1969 9.4998C18.1969 9.15662 17.9189 8.87838 17.5754 8.87838ZM11.9826 10.7427C11.2975 10.7427 10.7397 10.1852 10.7397 9.4998C10.7397 8.81437 11.2975 8.25695 11.9826 8.25695C12.6677 8.25695 13.2254 8.81437 13.2254 9.4998C13.2254 10.1852 12.6677 10.7427 11.9826 10.7427ZM1.4183 3.90695H4.61369C4.89162 4.97596 5.85608 5.77123 7.01116 5.77123C8.16624 5.77123 9.1307 4.97596 9.40863 3.90695H17.5754C17.9189 3.90695 18.1969 3.6287 18.1969 3.28552C18.1969 2.94233 17.9189 2.66409 17.5754 2.66409H9.40863C9.1307 1.59508 8.16624 0.799805 7.01116 0.799805C5.85608 0.799805 4.89162 1.59508 4.61369 2.66409H1.4183C1.07481 2.66409 0.796875 2.94233 0.796875 3.28552C0.796875 3.6287 1.07481 3.90695 1.4183 3.90695ZM7.01116 2.04266C7.69629 2.04266 8.25402 2.60008 8.25402 3.28552C8.25402 3.97095 7.69629 4.52838 7.01116 4.52838C6.32604 4.52838 5.7683 3.97095 5.7683 3.28552C5.7683 2.60008 6.32604 2.04266 7.01116 2.04266Z" fill="#303030"/>
</svg>
