<svg width="15" height="14" viewBox="0 0 15 14" fill="none" xmlns="http://www.w3.org/2000/svg">
<path d="M14.659 5.31782C14.609 5.16449 14.4735 5.05508 14.3133 5.038L9.6161 4.56133L7.71144 0.242403C7.64637 0.0959851 7.50036 0 7.3393 0C7.17824 0 7.03223 0.0951717 6.96715 0.243217L5.06209 4.56173L0.365736 5.038C0.205489 5.05427 0.0696459 5.1649 0.0200265 5.31782C-0.0299996 5.47115 0.0155526 5.63953 0.135941 5.74691L3.65485 8.89408L2.65718 13.5075C2.62342 13.6649 2.68524 13.8276 2.8158 13.9223C2.88697 13.974 2.97076 14 3.05495 14C3.12531 14 3.19608 13.9817 3.25952 13.9443L7.33971 11.5691L11.4191 13.9443C11.5582 14.0244 11.7322 14.0167 11.8628 13.9203C11.993 13.8271 12.0556 13.6628 12.0218 13.5054L11.0242 8.89164L14.5435 5.74487C14.663 5.63913 14.709 5.47075 14.659 5.31782ZM10.3047 8.44506C10.1957 8.54268 10.1473 8.69113 10.1782 8.83429L11.0311 12.7774L7.54388 10.7479C7.41739 10.6739 7.26121 10.6739 7.13472 10.7479L3.64672 12.7774L4.4996 8.83429C4.53051 8.69113 4.48211 8.54268 4.37311 8.44506L1.36504 5.75545L5.37933 5.34792C5.52494 5.33368 5.65102 5.24054 5.7104 5.10714L7.33889 1.41537L8.96698 5.10714C9.02636 5.24054 9.15244 5.33368 9.29805 5.34792L13.3123 5.75545L10.3047 8.44506Z" fill="#F2B918"/>
</svg>
