<svg width="16" height="13" viewBox="0 0 16 13" fill="none" xmlns="http://www.w3.org/2000/svg">
<path d="M2.65749 0.1419C2.65735 0.142045 2.65718 0.142166 2.65703 0.142336L0.140901 2.67066C-0.0475907 2.86007 -0.0468893 3.16643 0.142546 3.35497C0.331958 3.54349 0.638321 3.54276 0.826837 3.35335L2.51613 1.65584L2.51613 11.9032C2.51613 12.1705 2.73276 12.3871 3 12.3871C3.26724 12.3871 3.48387 12.1705 3.48387 11.9032L3.48387 1.65586L5.17316 3.35333C5.36168 3.54274 5.66804 3.54347 5.85745 3.35495C6.04691 3.16641 6.04757 2.86002 5.8591 2.67063L3.34297 0.142311C3.34282 0.142166 3.34265 0.142045 3.34251 0.141876C3.15336 -0.0476324 2.84601 -0.0470277 2.65749 0.1419Z" fill="#373737"/>
<path d="M13.3425 12.2452C13.3427 12.245 13.3428 12.2449 13.343 12.2447L15.8591 9.71642C16.0476 9.52701 16.0469 9.22065 15.8575 9.03211C15.668 8.84359 15.3617 8.84432 15.1732 9.03373L13.4839 10.7312L13.4839 0.483871C13.4839 0.216629 13.2672 -1.19453e-07 13 -1.31134e-07C12.7328 -1.42816e-07 12.5161 0.216629 12.5161 0.483871L12.5161 10.7312L10.8268 9.03376C10.6383 8.84434 10.332 8.84362 10.1425 9.03213C9.95309 9.22067 9.95243 9.52706 10.1409 9.71645L12.657 12.2448C12.6572 12.2449 12.6573 12.245 12.6575 12.2452C12.8466 12.4347 13.154 12.4341 13.3425 12.2452Z" fill="#373737"/>
</svg>
