<svg width="18" height="17" viewBox="0 0 18 17" fill="none" xmlns="http://www.w3.org/2000/svg">
<path d="M15.7809 5.01277H14.8955C14.8887 5.00523 14.8824 4.99746 14.8751 4.99025L10.0481 0.163132C9.83058 -0.0543775 9.47789 -0.0543775 9.26038 0.163132C9.04287 0.380642 9.04287 0.733295 9.26038 0.950805L13.3223 5.01274H3.75818L7.82015 0.950805C8.03766 0.733295 8.03766 0.380642 7.82015 0.163132C7.60267 -0.0543775 7.24999 -0.0543775 7.03247 0.163132L2.20536 4.99025C2.19812 4.99749 2.19178 5.00526 2.18501 5.01277H1.29962C0.583007 5.01277 0 5.59578 0 6.31236V7.05499C0 7.73758 0.528929 8.2989 1.19844 8.35071L2.26597 14.756C2.40085 15.565 3.09398 16.1522 3.91418 16.1522H13.3295C14.1557 16.1522 14.8668 15.5355 14.9836 14.7176L15.8933 8.34978C16.5575 8.2926 17.0805 7.73371 17.0805 7.05499V6.31236C17.0805 5.59578 16.4975 5.01277 15.7809 5.01277ZM15.9666 7.05499C15.9666 7.15738 15.8833 7.24064 15.7809 7.24064C15.6099 7.24064 10.4552 7.24064 10.2112 7.24064C9.90364 7.24064 9.65424 7.49001 9.65424 7.79763C9.65424 8.10521 9.90361 8.35461 10.2112 8.35461H14.7675L13.8809 14.5601C13.842 14.8327 13.6049 15.0383 13.3295 15.0383H3.91418C3.64079 15.0383 3.40973 14.8426 3.36476 14.5729L2.32842 8.35461H6.86934C7.17693 8.35461 7.42633 8.10525 7.42633 7.79763C7.42633 7.49005 7.17696 7.24064 6.86934 7.24064C6.62498 7.24064 1.46989 7.24064 1.29962 7.24064C1.19724 7.24064 1.11397 7.15734 1.11397 7.05499V6.31236C1.11397 6.20997 1.19727 6.12671 1.29962 6.12671H15.7809C15.8833 6.12671 15.9666 6.21001 15.9666 6.31236V7.05499Z" fill="#F2B918"/>
<path d="M5.19761 9.46851C4.89003 9.46851 4.64062 9.71787 4.64062 10.0255V13.3673C4.64062 13.6749 4.88999 13.9243 5.19761 13.9243C5.50523 13.9243 5.7546 13.675 5.7546 13.3673V10.0255C5.7546 9.71787 5.50523 9.46851 5.19761 9.46851Z" fill="#F2B918"/>
<path d="M8.53941 9.46851C8.23182 9.46851 7.98242 9.71787 7.98242 10.0255V13.3673C7.98242 13.6749 8.23179 13.9243 8.53941 13.9243C8.84699 13.9243 9.09639 13.675 9.09639 13.3673V10.0255C9.09639 9.71787 8.84699 9.46851 8.53941 9.46851Z" fill="#F2B918"/>
<path d="M11.8812 9.46851C11.5736 9.46851 11.3242 9.71787 11.3242 10.0255V13.3673C11.3242 13.6749 11.5736 13.9243 11.8812 13.9243C12.1888 13.9243 12.4382 13.675 12.4382 13.3673V10.0255C12.4382 9.71787 12.1888 9.46851 11.8812 9.46851Z" fill="#F2B918"/>
</svg>
