<svg width="14" height="14" viewBox="0 0 14 14" fill="none" xmlns="http://www.w3.org/2000/svg">
<path d="M4.24548 2.90545C4.11662 2.98053 4.07301 3.14585 4.14808 3.27471C4.19822 3.36083 4.28872 3.40887 4.38167 3.40887C4.42782 3.40887 4.47459 3.39704 4.51733 3.37212C5.37575 2.87205 6.23848 2.78069 7.08153 3.10061C7.22098 3.15352 7.3769 3.08336 7.42981 2.94394C7.48271 2.80448 7.41258 2.64856 7.27313 2.59566C6.28444 2.22052 5.23749 2.32759 4.24548 2.90545Z" fill="#F2B918"/>
<path d="M2.48709 4.92533C2.35863 4.84953 2.19309 4.89223 2.11729 5.02069C1.53508 6.00751 1.4272 7.04917 1.80531 8.03302C1.84657 8.14039 1.94892 8.20628 2.05742 8.20628C2.08961 8.20628 2.1224 8.20047 2.15423 8.18824C2.29344 8.13474 2.36292 7.9785 2.30943 7.83929C1.98802 7.00297 2.07986 6.14698 2.58241 5.29516C2.65824 5.1667 2.61555 5.00111 2.48709 4.92533Z" fill="#F2B918"/>
<path d="M13.0463 7.79518C12.3525 6.90061 11.5619 6.38256 10.6854 6.24454L11.6429 5.76003C11.7148 5.72363 11.7667 5.65703 11.7844 5.57837C11.8021 5.49973 11.7837 5.41732 11.7343 5.35361C10.9655 4.36172 10.0939 3.75647 9.13591 3.54614L9.83084 3.05488C9.896 3.00883 9.93745 2.9363 9.94407 2.8568C9.95071 2.7773 9.92182 2.69893 9.86522 2.64271C9.13599 1.91889 8.33194 1.41844 7.47539 1.15529C7.33278 1.11146 7.18172 1.19153 7.13795 1.33414C7.09415 1.47669 7.17422 1.62778 7.3168 1.67158C7.99922 1.88124 8.64835 2.26165 9.25014 2.80401L7.25417 4.21498C6.14589 4.99797 4.4972 4.89265 3.57889 3.9802C3.47312 3.87508 3.3021 3.87562 3.197 3.98139C3.14464 4.03408 3.1185 4.10294 3.1185 4.1718C3.1185 4.24117 3.1451 4.31055 3.19819 4.36329C4.11577 5.27506 4.22173 6.91117 3.43439 8.01054L2.72515 9.00162C2.72345 9.00405 2.72159 9.00637 2.71997 9.00886L2.01294 9.99686C0.26763 8.0909 0.227286 5.77696 1.92537 3.75329C2.01473 3.64684 2.00865 3.48994 1.91135 3.39067C1.33036 2.79793 0.753005 2.13854 0.63208 1.1743L0.57159 0.691948L1.54739 0.571185L1.60801 1.05445C1.69011 1.7079 2.13395 2.23249 2.60137 2.70204C2.69985 2.80098 2.85753 2.80854 2.96503 2.71948C3.53439 2.24777 4.13869 1.90555 4.76109 1.70234C4.90286 1.65605 4.98028 1.50359 4.93399 1.36182C4.88771 1.22004 4.73527 1.14265 4.59347 1.18891C3.97767 1.38995 3.38066 1.71198 2.81578 2.1474C2.48306 1.79332 2.19695 1.40975 2.14389 0.987185L2.04972 0.236467C2.03117 0.0886454 1.89618 -0.0162122 1.74863 0.00206971L0.236872 0.189236C0.165716 0.19804 0.100987 0.234792 0.0569429 0.291366C0.0128989 0.34794 -0.00681419 0.419691 0.00209721 0.490847L0.0962341 1.24157C0.225774 2.27459 0.772583 2.9794 1.3582 3.59553C-0.417009 5.86478 -0.236486 8.53356 1.85313 10.6099C1.90393 10.6604 1.97244 10.6884 2.04346 10.6884C2.05097 10.6884 2.0585 10.6881 2.06606 10.6875C2.14497 10.6809 2.21699 10.6399 2.26308 10.5755L2.76018 9.88088C2.97141 10.8347 3.58095 11.7021 4.58037 12.4671C4.62793 12.5035 4.68572 12.5227 4.74453 12.5227C4.76433 12.5227 4.78428 12.5205 4.80397 12.516C4.88207 12.4984 4.94833 12.447 4.98484 12.3758L5.47551 11.4184C5.61334 12.292 6.13523 13.0797 7.03752 13.7706C7.08507 13.8071 7.14289 13.8263 7.2017 13.8263C7.2215 13.8263 7.24143 13.8241 7.26109 13.8197C7.33921 13.8021 7.40548 13.7507 7.44199 13.6794L8.32254 11.9617C8.35036 11.9074 8.37558 11.8517 8.3991 11.7953C8.81197 12.1663 9.32397 12.4125 9.83581 12.4754L11.6694 12.7009C11.6804 12.7022 11.6914 12.7029 11.7024 12.7029C11.7736 12.7029 11.8425 12.6747 11.8935 12.6236C11.9522 12.5647 11.9806 12.482 11.9703 12.3995L11.7365 10.5222C11.6758 10.036 11.4322 9.54808 11.0631 9.15109C11.1184 9.12822 11.1729 9.10353 11.2262 9.07656L12.9549 8.20159C13.0268 8.16519 13.0787 8.09857 13.0964 8.01991C13.114 7.9413 13.0957 7.85888 13.0463 7.79518ZM7.56586 4.65607L8.48705 4.00489C9.44236 4.04461 10.3196 4.52318 11.0995 5.42971L9.3187 6.3309C8.99633 6.4936 8.6241 6.57996 8.23937 6.5826C8.10832 6.52206 7.97297 6.47197 7.8345 6.4347L7.81689 6.29344C7.75581 5.79989 7.53964 5.30852 7.19914 4.87915C7.32579 4.81304 7.4485 4.739 7.56586 4.65607ZM5.56373 10.0621L4.65542 11.8343C3.74203 11.0596 3.25951 10.1883 3.21893 9.23974L3.87356 8.32495C3.95841 8.20648 4.03489 8.08202 4.10267 7.95302C4.48138 8.24383 4.92341 8.45724 5.39291 8.55043C5.48207 8.56812 5.57192 8.57992 5.66208 8.59099C5.69935 8.73611 5.75114 8.87805 5.81604 9.01504C5.81007 9.38897 5.72336 9.74988 5.56373 10.0621ZM5.92227 8.07886L5.65641 8.04615C5.18684 7.98845 4.71845 7.77282 4.32081 7.43494C4.57535 6.65562 4.55126 5.78854 4.26199 5.04047C4.66746 5.19553 5.10761 5.27414 5.55026 5.27411C5.93113 5.27409 6.31356 5.21524 6.67704 5.09737C7.01335 5.4767 7.22641 5.91946 7.28094 6.35998L7.51976 8.27534L5.92759 8.07953C5.92583 8.07926 5.92403 8.0791 5.92227 8.07886ZM8.01259 11.2115C8.01156 11.2161 8.01083 11.2207 8.01005 11.2253C7.9763 11.3973 7.92024 11.5624 7.84187 11.7154L7.11332 13.1365C6.15632 12.3082 5.80977 11.3735 6.05421 10.2884C6.14881 10.0995 6.22196 9.8973 6.27262 9.68675C6.69813 10.148 7.28183 10.4758 7.89952 10.5514L8.03092 10.5676C8.05842 10.7862 8.05183 11.0037 8.01259 11.2115ZM7.96528 10.0154C7.2872 9.93232 6.64323 9.44652 6.33125 8.83935C6.32863 8.83371 6.32601 8.82804 6.32301 8.82261C6.29682 8.77044 6.27338 8.71735 6.25226 8.66361L7.79764 8.85366C7.80865 8.85501 7.81964 8.85569 7.83061 8.85569C7.90184 8.85569 7.97073 8.8275 8.02172 8.77643C8.08051 8.71754 8.10889 8.63482 8.09857 8.55224L7.90851 7.02793C8.60333 7.3044 9.17909 7.97486 9.26505 8.66504L9.45608 10.1986L7.96528 10.0154ZM11.2005 10.589L11.3915 12.1226L9.90167 11.9394C9.41279 11.8792 8.91988 11.603 8.56245 11.1935C8.58805 11.0107 8.5941 10.8234 8.57998 10.6351L9.7339 10.7769C9.74489 10.7782 9.7559 10.7789 9.76684 10.7789C9.83808 10.7789 9.90697 10.7507 9.95792 10.6996C10.0167 10.6408 10.0451 10.558 10.0348 10.4755L9.89241 9.33229C9.95944 9.33726 10.0264 9.33988 10.093 9.33988C10.2142 9.33988 10.3344 9.33153 10.4527 9.31525C10.8659 9.65888 11.1429 10.1279 11.2005 10.589ZM10.9823 8.59467C10.6378 8.76895 10.2326 8.83382 9.82395 8.78291L9.80095 8.59828C9.72831 8.01505 9.39937 7.45492 8.9343 7.04025C9.14688 6.98986 9.3513 6.91708 9.54249 6.82251C10.6351 6.57926 11.5762 6.92264 12.41 7.87206L10.9823 8.59467Z" fill="#F2B918"/>
<path d="M5.98098 1.48796H5.98252C6.13167 1.48796 6.25181 1.36706 6.25181 1.21792C6.25181 1.06877 6.13013 0.947876 5.98098 0.947876C5.83184 0.947876 5.71094 1.06877 5.71094 1.21792C5.71094 1.36706 5.83184 1.48796 5.98098 1.48796Z" fill="#F2B918"/>
</svg>
