<svg width="64" height="64" viewBox="0 0 64 64" fill="none" xmlns="http://www.w3.org/2000/svg">
<path d="M3.99937 31.81C4.26459 31.81 4.51895 31.7046 4.70648 31.5171C4.89402 31.3296 4.99937 31.0752 4.99937 30.81C4.99937 16.57 16.2494 5 30.1094 5C30.3746 5 30.6289 4.89464 30.8165 4.70711C31.004 4.51957 31.1094 4.26522 31.1094 4C31.1094 3.73478 31.004 3.48043 30.8165 3.29289C30.6289 3.10536 30.3746 3 30.1094 3C15.1594 3 2.99937 15.48 2.99937 30.83C3.00461 31.0917 3.11227 31.341 3.29924 31.5242C3.48622 31.7074 3.73759 31.8101 3.99937 31.81V31.81Z" fill="white"/>
<path d="M14.8998 31.81C15.165 31.81 15.4193 31.7046 15.6069 31.5171C15.7944 31.3296 15.8998 31.0752 15.8998 30.81C15.8516 26.9868 17.3196 23.3002 19.9826 20.5566C22.6456 17.813 26.2869 16.2358 30.1098 16.17C30.375 16.17 30.6293 16.0646 30.8169 15.8771C31.0044 15.6896 31.1098 15.4352 31.1098 15.17C31.1098 14.9048 31.0044 14.6504 30.8169 14.4629C30.6293 14.2754 30.375 14.17 30.1098 14.17C25.7591 14.2306 21.6102 16.0145 18.5732 19.1303C15.5362 22.246 13.859 26.4393 13.9098 30.79C13.9071 30.9222 13.9307 31.0535 13.9791 31.1765C14.0276 31.2995 14.0999 31.4117 14.192 31.5065C14.2841 31.6014 14.394 31.677 14.5155 31.7291C14.637 31.7812 14.7676 31.8087 14.8998 31.81ZM8.99977 52.83C10.2764 55.3851 12.0873 57.6359 14.3098 59.43C15.1031 60.0586 16.0192 60.5142 16.9991 60.7674C17.9791 61.0206 19.0013 61.0657 19.9998 60.9C29.0698 59.36 37.9998 55.38 46.9098 46.62C55.4198 37.49 59.4098 28.17 60.9098 18.86C61.0758 17.8372 61.0348 16.7916 60.7891 15.785C60.5435 14.7784 60.0982 13.8313 59.4798 13C57.7502 10.7127 55.5377 8.83484 52.9998 7.5C52.756 7.24405 52.4628 7.04027 52.1379 6.90103C51.813 6.7618 51.4632 6.69 51.1098 6.69C50.7563 6.69 50.4065 6.7618 50.0816 6.90103C49.7568 7.04027 49.4635 7.24405 49.2198 7.5L40.4098 16.65C39.8734 17.2257 39.5752 17.9832 39.5752 18.77C39.5752 19.5568 39.8734 20.3143 40.4098 20.89L46.6498 27.66C43.9998 33.47 34.2098 43.55 28.5898 46.27L21.9998 39.84C21.7295 39.5691 21.4084 39.3542 21.0549 39.2075C20.7014 39.0608 20.3225 38.9854 19.9398 38.9854C19.5571 38.9854 19.1781 39.0608 18.8246 39.2075C18.4712 39.3542 18.1501 39.5691 17.8798 39.84L8.97977 48.84C8.71773 49.1025 8.51026 49.4144 8.36934 49.7575C8.22841 50.1006 8.15681 50.4682 8.15867 50.8392C8.16053 51.2101 8.23581 51.577 8.38017 51.9187C8.52453 52.2604 8.73511 52.5701 8.99977 52.83V52.83Z" fill="white"/>
</svg>
