<svg width="64" height="64" viewBox="0 0 64 64" fill="none" xmlns="http://www.w3.org/2000/svg">
<path d="M4 31.81C4.26522 31.81 4.51958 31.7046 4.70711 31.5171C4.89465 31.3296 5 31.0752 5 30.81C5 16.57 16.25 5 30.11 5C30.3752 5 30.6295 4.89464 30.8171 4.70711C31.0046 4.51957 31.11 4.26522 31.11 4C31.11 3.73478 31.0046 3.48043 30.8171 3.29289C30.6295 3.10536 30.3752 3 30.11 3C15.16 3 3 15.48 3 30.83C3.00524 31.0917 3.1129 31.341 3.29987 31.5242C3.48685 31.7074 3.73822 31.8101 4 31.81Z" fill="black"/>
<path d="M14.8994 31.81C15.1646 31.81 15.4189 31.7046 15.6065 31.5171C15.794 31.3296 15.8994 31.0752 15.8994 30.81C15.8512 26.9868 17.3192 23.3002 19.9822 20.5566C22.6452 17.813 26.2865 16.2358 30.1094 16.17C30.3746 16.17 30.6289 16.0646 30.8165 15.8771C31.004 15.6896 31.1094 15.4352 31.1094 15.17C31.1094 14.9048 31.004 14.6504 30.8165 14.4629C30.6289 14.2754 30.3746 14.17 30.1094 14.17C25.7587 14.2306 21.6098 16.0145 18.5728 19.1303C15.5358 22.246 13.8586 26.4393 13.9094 30.79C13.9067 30.9222 13.9303 31.0535 13.9787 31.1765C14.0272 31.2995 14.0995 31.4117 14.1916 31.5065C14.2837 31.6014 14.3936 31.677 14.5151 31.7291C14.6366 31.7812 14.7672 31.8087 14.8994 31.81ZM8.99934 52.83C10.276 55.3851 12.0869 57.6359 14.3094 59.43C15.1027 60.0586 16.0188 60.5142 16.9987 60.7674C17.9787 61.0206 19.0009 61.0657 19.9994 60.9C29.0694 59.36 37.9994 55.38 46.9094 46.62C55.4194 37.49 59.4094 28.17 60.9094 18.86C61.0754 17.8372 61.0344 16.7916 60.7887 15.785C60.5431 14.7784 60.0978 13.8313 59.4794 13C57.7498 10.7127 55.5373 8.83484 52.9994 7.5C52.7556 7.24405 52.4624 7.04027 52.1375 6.90103C51.8126 6.7618 51.4628 6.69 51.1094 6.69C50.7559 6.69 50.4061 6.7618 50.0812 6.90103C49.7564 7.04027 49.4631 7.24405 49.2194 7.5L40.4094 16.65C39.873 17.2257 39.5748 17.9832 39.5748 18.77C39.5748 19.5568 39.873 20.3143 40.4094 20.89L46.6494 27.66C43.9994 33.47 34.2094 43.55 28.5894 46.27L21.9994 39.84C21.7291 39.5691 21.408 39.3542 21.0545 39.2075C20.701 39.0608 20.3221 38.9854 19.9394 38.9854C19.5567 38.9854 19.1777 39.0608 18.8242 39.2075C18.4708 39.3542 18.1497 39.5691 17.8794 39.84L8.97934 48.84C8.7173 49.1025 8.50983 49.4144 8.36891 49.7575C8.22798 50.1006 8.15638 50.4682 8.15824 50.8392C8.1601 51.2101 8.23538 51.577 8.37974 51.9187C8.5241 52.2604 8.73468 52.5701 8.99934 52.83Z" fill="black"/>
</svg>
