<svg width="19" height="19" viewBox="0 0 19 19" fill="none" xmlns="http://www.w3.org/2000/svg">
<path d="M18.8381 18.0567L14.521 13.7397C15.846 12.2287 16.5771 10.3169 16.5771 8.28855C16.5771 6.0745 15.7148 3.99318 14.1494 2.42775C12.5839 0.862312 10.5026 0 8.28855 0C6.0745 0 3.99318 0.862312 2.42775 2.42775C0.862312 3.99318 0 6.0745 0 8.28855C0 10.5026 0.862312 12.5839 2.42775 14.1494C3.99318 15.7148 6.0745 16.5771 8.28855 16.5771C10.3169 16.5771 12.2287 15.846 13.7397 14.521L18.0567 18.8381C18.1647 18.946 18.306 19 18.4474 19C18.5888 19 18.7302 18.946 18.8381 18.8381C19.054 18.6223 19.054 18.2726 18.8381 18.0567ZM3.20912 13.368C1.85251 12.0111 1.10514 10.2072 1.10514 8.28855C1.10514 6.36994 1.85251 4.56599 3.20912 3.20912C4.56599 1.85251 6.36994 1.10514 8.28855 1.10514C10.2072 1.10514 12.0111 1.85251 13.368 3.20912C14.7246 4.56599 15.472 6.36994 15.472 8.28855C15.472 10.2072 14.7246 12.0111 13.368 13.368C12.0111 14.7246 10.2072 15.472 8.28855 15.472C6.36994 15.472 4.56599 14.7246 3.20912 13.368Z" fill="#F2B918"/>
</svg>
