<svg width="14" height="16" viewBox="0 0 14 16" fill="none" xmlns="http://www.w3.org/2000/svg">
<path d="M11.5307 8.11149C11.4736 8.05311 11.4054 8.00669 11.3302 7.97492C11.2549 7.94315 11.1741 7.92668 11.0925 7.92645C11.0108 7.92623 10.9299 7.94227 10.8545 7.97363C10.7791 8.00498 10.7107 8.05104 10.6533 8.1091C10.5958 8.16717 10.5505 8.23608 10.52 8.31183C10.4895 8.38758 10.4743 8.46864 10.4755 8.5503C10.4766 8.63196 10.4939 8.71258 10.5265 8.78746C10.5591 8.86234 10.6063 8.92998 10.6653 8.98645C11.1874 9.5002 11.6016 10.1131 11.8837 10.7891C12.1657 11.4651 12.3099 12.1906 12.3077 12.9231C12.3077 13.6757 10.1502 14.7692 6.76926 14.7692C3.38827 14.7692 1.2308 13.6752 1.2308 12.9218C1.22873 12.1944 1.37097 11.4738 1.64928 10.8017C1.9276 10.1296 2.33647 9.51934 2.85221 9.00632C2.91055 8.94945 2.95701 8.88156 2.9889 8.80659C3.02079 8.73162 3.03748 8.65107 3.03799 8.5696C3.03851 8.48813 3.02284 8.40737 2.9919 8.33201C2.96097 8.25664 2.91537 8.18817 2.85776 8.13056C2.80015 8.07295 2.73168 8.02735 2.65632 7.99642C2.58095 7.96548 2.50019 7.94981 2.41872 7.95033C2.33725 7.95084 2.2567 7.96753 2.18173 7.99942C2.10676 8.03131 2.03887 8.07777 1.982 8.13611C1.35149 8.7633 0.851661 9.50934 0.511452 10.331C0.171244 11.1527 -0.00258515 12.0337 2.90533e-05 12.9231C2.90533e-05 14.9216 3.48741 16 6.76926 16C10.0511 16 13.5385 14.9216 13.5385 12.9231C13.5412 12.0277 13.365 11.1409 13.0202 10.3146C12.6754 9.48835 12.169 8.73931 11.5307 8.11149Z" fill="#F2B918"/>
<path d="M6.76863 8.61539C7.62061 8.61539 8.45346 8.36274 9.16185 7.88941C9.87025 7.41607 10.4224 6.7433 10.7484 5.95618C11.0745 5.16905 11.1598 4.30292 10.9936 3.4673C10.8273 2.63169 10.4171 1.86414 9.81463 1.2617C9.21219 0.659254 8.44463 0.248986 7.60902 0.082773C6.77341 -0.0834402 5.90727 0.00186645 5.12015 0.327905C4.33302 0.653944 3.66025 1.20607 3.18691 1.91447C2.71358 2.62286 2.46094 3.45571 2.46094 4.30769C2.46226 5.44976 2.91652 6.54467 3.72409 7.35223C4.53165 8.1598 5.62656 8.61407 6.76863 8.61539ZM6.76863 1.23077C7.37719 1.23077 7.97208 1.41123 8.47808 1.74933C8.98407 2.08742 9.37845 2.56797 9.61134 3.13021C9.84422 3.69244 9.90515 4.31111 9.78643 4.90797C9.66771 5.50484 9.37466 6.05309 8.94434 6.48341C8.51403 6.91372 7.96577 7.20677 7.36891 7.32549C6.77204 7.44422 6.15338 7.38328 5.59114 7.1504C5.02891 6.91751 4.54836 6.52314 4.21026 6.01714C3.87217 5.51114 3.69171 4.91625 3.69171 4.30769C3.69267 3.49194 4.01715 2.70987 4.59398 2.13304C5.1708 1.55622 5.95287 1.23173 6.76863 1.23077Z" fill="#F2B918"/>
</svg>
