<svg width="715" height="524" viewBox="0 0 715 524" fill="none" xmlns="http://www.w3.org/2000/svg">
<path d="M49.4641 252.022C52.2401 251.947 59.8135 250.185 60.689 249.412C61.7793 248.45 50.8865 248.58 49.0485 249.549C48.3712 249.908 47.9379 250.558 48.0073 251.111C48.0719 251.62 48.744 252.042 49.4636 252.022L49.4641 252.022Z" fill="white"/>
<path d="M3.90777 411.913C14.7687 408.765 19.4885 407.021 20.3207 405.845C21.4443 404.263 8.05767 406.931 2.98018 409.305C-1.44971 411.374 -0.776051 413.271 3.90725 411.913H3.90777Z" fill="white"/>
<path d="M710.795 411.913C699.934 408.765 695.215 407.021 694.382 405.845C693.259 404.263 706.645 406.931 711.723 409.305C716.153 411.374 715.479 413.271 710.796 411.913H710.795Z" fill="white"/>
<path d="M43.4526 186.324C45.8771 186.732 48.3121 186.404 48.2208 185.682C48.1046 184.764 45.5069 183.8 43.7826 184.036C42.9718 184.146 42.6767 186.194 43.4526 186.324Z" fill="white"/>
<path d="M77.7568 248.138C88.6386 246.889 118.584 242.261 118.943 241.774C119.846 240.553 117.157 240.699 100.602 242.767C75.922 245.852 72.1866 246.503 72.3362 247.691C72.4103 248.278 74.8082 248.476 77.7568 248.137V248.138Z" fill="white"/>
<path d="M151.936 94.5422C153.013 95.621 156.484 98.5951 159.746 101.235C163.008 103.875 166.789 106.952 168.254 108.157C169.877 109.491 171.095 109.953 171.422 109.357C171.719 108.813 170.607 107.296 168.897 105.909C167.22 104.55 163.694 101.33 161.09 98.7808C155.803 93.6042 151.133 90.5279 150.453 91.772C150.203 92.2277 150.872 93.478 151.936 94.5422H151.936Z" fill="white"/>
<path d="M66.9825 191.285C69.3903 192.2 73.4135 193.194 76.0341 193.522C78.6334 193.848 83.7906 194.901 87.5234 195.869C91.2562 196.838 94.5358 197.319 94.8294 196.943C95.7518 195.759 93.4179 194.747 85.7715 193.016C81.6299 192.078 75.5596 190.683 72.0646 189.864C64.1976 188.024 60.8564 188.956 66.9825 191.285Z" fill="white"/>
<path d="M54.2933 396.149C56.2652 395.896 61.2718 394.59 65.5401 393.213C69.8094 391.834 76.0673 389.866 79.6004 388.791C83.0824 387.731 86.1603 386.585 86.3949 386.262C87.8288 384.287 84.2603 384.629 75.6095 387.294C70.3402 388.919 62.713 391.232 58.7962 392.394C51.0303 394.698 48.3857 396.904 54.2933 396.148V396.149Z" fill="white"/>
<path d="M660.41 396.149C658.438 395.896 653.431 394.59 649.163 393.213C644.894 391.834 638.636 389.866 635.103 388.791C631.621 387.731 628.543 386.585 628.308 386.262C626.874 384.287 630.443 384.629 639.094 387.294C644.363 388.919 651.99 391.232 655.907 392.394C663.673 394.698 666.317 396.904 660.41 396.148V396.149Z" fill="white"/>
<path d="M106.025 108.275C108.91 109.838 111.179 110.096 110.888 108.83C110.674 107.9 104.062 103.535 103.195 103.75C101.545 104.161 103.141 106.711 106.025 108.275Z" fill="white"/>
<path d="M278.019 522.903C278.535 522.363 279.629 519.464 280.467 516.414C281.306 513.365 282.772 508.557 283.748 505.654C285.791 499.574 285.703 496.154 283.58 499.119C282.814 500.188 281.954 502.494 281.599 504.441C281.253 506.33 280.08 510.064 278.992 512.739C276.914 517.845 276.253 524.749 278.018 522.903H278.019Z" fill="white"/>
<path d="M154.233 41.2377C156.942 43.9511 159.13 44.6957 158.682 42.7529C158.206 40.686 153.703 36.2332 152.415 36.5539C150.564 37.0143 150.913 37.9106 154.233 41.2377Z" fill="white"/>
<path d="M288.609 487.619C289.463 486.329 290.55 483.094 291.009 480.466C291.468 477.839 292.576 474.077 293.457 472.153C294.361 470.18 294.852 467.709 294.578 466.521C294.101 464.453 294.051 464.458 292.529 466.757C291.671 468.052 291.086 469.624 291.23 470.248C291.374 470.866 290.487 474.203 289.287 477.561C288.088 480.92 287.075 485.161 287.065 486.855C287.047 489.919 287.075 489.933 288.609 487.618V487.619Z" fill="white"/>
<path d="M197.108 132.218C201.011 134.547 203.129 133.765 199.65 131.281C198.515 130.47 197.492 129.317 197.346 128.686C197.142 127.801 194.633 126.956 193.24 127.303C191.833 127.652 193.937 130.327 197.108 132.219V132.218Z" fill="white"/>
<path d="M171.148 59.4286C174.342 62.5669 178.105 66.4478 179.431 67.9661C180.763 69.4933 182.356 70.6264 182.955 70.4772C184.586 70.071 183.871 68.719 180.145 65.1672C178.286 63.3923 175.174 60.0657 173.18 57.7215C169.27 53.1205 166.38 50.562 165.378 50.8123C163.821 51.1992 165.828 54.1973 171.149 59.4286H171.148Z" fill="white"/>
<path d="M331.228 503.646C332.131 502.115 333.062 495.758 333.738 486.521C333.974 483.28 331.667 484.851 331.21 488.243C330.98 489.947 330.416 493.466 329.933 496.21C329.451 498.952 329.294 502.104 329.581 503.345C330.033 505.308 330.225 505.343 331.228 503.646Z" fill="white"/>
<path d="M226.939 46.0139C230.132 50.9011 234.913 58.4662 237.501 62.7272C242.863 71.5547 247.139 77.0232 247.301 75.2577C247.356 74.643 245.97 71.8201 244.214 68.9794C242.45 66.1237 237.597 58.2222 233.355 51.3026C225.974 39.2612 221.629 33.1304 220.648 33.3744C219.503 33.6597 221.536 37.7433 226.939 46.0139H226.939Z" fill="white"/>
<path d="M254.71 90.0239C255.699 90.8701 256.811 92.4828 257.056 93.4287C257.323 94.4538 258.205 95.0539 259.115 94.8276C260.205 94.557 260.356 93.9172 259.592 92.7973C258.98 91.8973 258.03 90.2898 257.477 89.2256C256.076 86.5143 254.092 85.0131 253.18 85.971C252.078 87.1311 252.434 88.0759 254.71 90.0239Z" fill="white"/>
<path d="M420.261 517.848C420.832 518.042 421.324 517.315 421.369 516.211C421.5 513.009 418.848 504.587 417.789 504.846C416.495 505.161 418.813 517.356 420.261 517.848Z" fill="white"/>
<path d="M414.733 494.098C415.379 494.297 415.931 494.049 416.111 493.481C416.64 491.82 413.41 479.745 412.336 479.369C411.178 478.965 411.175 478.864 412.574 487.258C413.167 490.825 414.143 493.914 414.733 494.098Z" fill="white"/>
<path d="M410.168 471.795C411.087 471.565 411.423 470.39 411.041 468.737C410.297 465.504 408.212 466.379 408.488 469.808C408.607 471.308 409.219 472.03 410.168 471.795Z" fill="white"/>
<path d="M350.2 77.2609C351.378 76.9674 351.392 76.8548 351.296 68.3553C351.25 64.2153 350.849 62.3361 349.876 61.7162C348.196 60.6457 347.719 64.22 348.518 71.8883C348.906 75.6164 349.476 77.4408 350.2 77.2609Z" fill="white"/>
<path d="M440.225 453.689C441.139 455.572 443.167 460.333 444.751 464.308C446.335 468.286 448.025 471.417 448.518 471.295C449.857 470.961 447.978 464.107 444.9 458.098C443.362 455.094 441.348 450.546 440.392 447.912C439.446 445.306 438.2 443.002 437.641 442.821C436.337 442.4 437.861 448.813 440.225 453.689Z" fill="white"/>
<path d="M348.927 52.1225C350.669 51.0025 349.382 32.6646 347.594 33.1098C346.982 33.2626 346.652 35.1475 346.847 37.3932C347.037 39.5894 347.208 43.4765 347.226 45.985C347.271 52.0928 347.529 53.0235 348.927 52.1225Z" fill="white"/>
<path d="M386.444 45.1327C386.86 43.4543 387.519 38.3095 387.892 33.8462C388.265 29.383 389.109 22.723 389.744 19.2353C391.14 11.5669 391.523 0.325852 390.381 0.61002C389.412 0.851433 387.085 15.3075 386.935 22.0108C386.88 24.5823 386.291 30.5295 385.648 35.0601C385.005 39.5906 384.742 44.4872 385.073 45.8016C385.673 48.173 385.698 48.16 386.444 45.1327Z" fill="white"/>
<path d="M407.454 96.9129C408.41 96.6735 412.616 83.6091 414.678 74.4631C415.451 71.0379 418.426 60.4184 421.261 50.9725C426.148 34.6769 431.612 13.2694 431.264 11.7683C430.565 8.73156 423.57 30.5093 419.556 48.2257C418.347 53.5665 415.914 62.5728 414.082 68.4924C411.447 77.0154 407.686 91.2191 406.712 96.331C406.619 96.8128 406.916 97.0448 407.454 96.9124V96.9129Z" fill="white"/>
<path d="M510.36 422.846C513.089 425.706 517.924 431.181 521.083 434.984C524.241 438.787 527.976 442.54 529.365 443.304C531.894 444.696 531.894 444.696 530.549 442.299C529.115 439.745 525.565 435.562 518.678 428.317C516.325 425.842 512.798 422.031 510.66 419.658C508.57 417.337 506.392 415.53 505.847 415.664C504.306 416.049 505.137 417.371 510.361 422.846H510.36Z" fill="white"/>
<path d="M543.86 459.857C546.334 462.629 548.966 465.388 549.757 466.039C550.547 466.69 555.786 472.405 561.498 478.853C573.319 492.193 579.99 498.664 580.145 496.942C580.279 495.445 571.776 485.473 562.623 476.389C558.749 472.543 553.176 466.555 550.24 463.078C544.364 456.126 538.291 450.866 538.968 453.316C539.203 454.165 541.387 457.086 543.86 459.857Z" fill="white"/>
<path d="M262.786 419.189C260.057 422.049 255.222 427.524 252.063 431.327C248.906 435.13 245.17 438.883 243.782 439.647C241.252 441.039 241.252 441.039 242.598 438.642C244.032 436.088 247.582 431.905 254.469 424.66C256.821 422.185 260.348 418.374 262.486 416.001C264.576 413.68 266.755 411.873 267.299 412.007C268.84 412.392 268.009 413.714 262.786 419.189H262.786Z" fill="white"/>
<path d="M229.287 456.2C226.812 458.972 224.181 461.731 223.39 462.382C222.599 463.033 217.36 468.748 211.649 475.196C199.827 488.535 193.157 495.007 193.002 493.284C192.868 491.787 201.37 481.816 210.524 472.732C214.398 468.886 219.97 462.898 222.906 459.42C228.782 452.469 234.855 447.209 234.179 449.659C233.943 450.508 231.76 453.428 229.287 456.2Z" fill="white"/>
<path d="M480.361 104.375C483.815 101.102 505.737 67.5302 505.394 66.041C505.068 64.6265 500.434 70.5319 493.931 80.652C490.68 85.7107 485.895 92.9208 483.236 96.7688C478.584 103.503 477.076 107.489 480.361 104.376V104.375Z" fill="white"/>
<path d="M521.408 92.7338C522.702 92.4116 527.743 87.8806 528.13 86.6912C528.695 84.9581 526.048 85.9383 522.98 88.6006C520.438 90.8051 519.528 93.2026 521.408 92.7338H521.408Z" fill="white"/>
<path d="M514.764 54.2053C516.255 53.8335 519.438 49.3859 519.138 48.0902C518.687 46.1297 517.723 46.5155 515.577 49.5194C513.907 51.8563 513.442 54.5333 514.764 54.2053Z" fill="white"/>
<path d="M523.065 42.3046C523.725 42.1414 525.409 40.3806 526.835 38.3622C528.263 36.3439 530.184 33.6716 531.135 32.3749C532.098 31.0688 532.753 29.577 532.62 29.0003C532.277 27.5169 527.088 32.2346 526.828 34.2666C526.722 35.0977 525.797 36.3658 524.879 36.9424C522.765 38.2694 521.247 42.7577 523.064 42.3041L523.065 42.3046Z" fill="white"/>
<path d="M535.628 79.3616C536.329 79.1875 538.165 77.5867 539.832 75.6935C541.44 73.868 544.645 70.8006 546.856 68.9746C549.064 67.1481 551.532 64.4144 552.259 62.9867C553.6 60.3583 553.6 60.3583 551.541 61.4689C548.829 62.9336 533.96 77.8276 534.194 78.8454C534.301 79.3084 534.932 79.5358 535.628 79.3621L535.628 79.3616Z" fill="white"/>
<path d="M644.986 174.383C646.008 173.893 647.91 173.531 649.09 173.605C651.755 173.77 654.67 170.675 652.152 170.354C649.763 170.049 642.164 173.231 642.653 174.331C642.883 174.848 643.964 174.872 644.986 174.383Z" fill="white"/>
<path d="M538.749 20.9205C539.305 20.7823 542.741 16.3342 546.526 10.8526C547.315 9.71123 547.84 8.3394 547.707 7.76533C547.265 5.84862 545.38 7.25747 542.772 11.4543C541.316 13.7996 539.637 16.3842 538.969 17.3149C537.696 19.0883 537.567 21.2146 538.749 20.921L538.749 20.9205Z" fill="white"/>
<path d="M633.991 147.814C643.648 143.18 651.655 138.889 651.734 138.304C651.816 137.709 649.745 138.013 647.028 138.997C639.846 141.599 615.577 154.423 616.006 155.389C616.217 155.865 624.333 152.447 633.991 147.813V147.814Z" fill="white"/>
<path d="M108.746 143.814C99.0887 139.18 91.0814 134.889 91.0021 134.304C90.9208 133.709 92.9913 134.013 95.7084 134.997C102.89 137.599 127.159 150.423 126.731 151.389C126.519 151.865 118.403 148.447 108.746 143.813V143.814Z" fill="white"/>
<path d="M664.78 168.981C666.326 168.566 669.5 167.812 671.965 167.274C677.512 166.063 681.042 164.376 680.514 163.187C680.296 162.699 678.732 162.727 676.939 163.253C671.455 164.858 667.335 166.005 664.105 166.828C662.183 167.317 661.241 167.99 661.541 168.662C661.798 169.241 663.271 169.385 664.78 168.981Z" fill="white"/>
<path d="M642.466 242.766C644.324 243.085 648.177 243.593 651.224 243.923C654.185 244.243 660.853 244.967 665.858 245.513C670.864 246.059 675.401 246.162 675.817 245.738C677.015 244.516 672.296 243.474 662.604 242.823C657.864 242.504 651.604 241.848 648.689 241.363C645.819 240.888 642.418 240.878 641.269 241.341C639.363 242.112 639.482 242.254 642.467 242.766H642.466Z" fill="white"/>
<path d="M577.708 114.532C586.945 108.445 593.907 103.298 595.685 101.24L597.619 99L594.244 100.152C592.388 100.785 588.438 103.313 585.472 105.765C582.505 108.218 578.614 111.219 576.828 112.429C575.011 113.662 573.78 115.076 574.033 115.643C574.312 116.273 575.703 115.853 577.708 114.532L577.708 114.532Z" fill="white"/>
<path d="M51.8877 186.086C50.3151 186.795 50.3287 186.848 52.0984 186.888C53.1099 186.91 53.9947 186.536 53.9947 186.086C53.9947 185.581 53.9103 185.26 53.7841 185.286C53.6678 185.309 52.8153 185.67 51.8877 186.086Z" fill="white"/>
</svg>
