<svg width="1913" height="92" viewBox="0 0 1913 92" fill="none" xmlns="http://www.w3.org/2000/svg">
<path d="M1529.98 31.3821C1529.29 31.323 1528.69 31.3991 1528.49 31.5718C1528.32 31.7252 1528.95 31.81 1529.84 31.7531C1531.75 31.6322 1531.78 31.5351 1529.98 31.3821Z" fill="white"/>
<path d="M1436.14 89.4636C1436.08 89.1728 1435.87 89.1192 1435.57 89.318C1435.31 89.4877 1435.35 89.6999 1435.66 89.7781C1435.96 89.8546 1436.19 89.7053 1436.14 89.4636Z" fill="white"/>
<path d="M1511.67 85.2496C1511.33 85.1042 1510.93 85.0072 1510.68 85.0072C1510.42 85.0072 1510.25 85.1042 1510.25 85.2496C1510.25 85.388 1510.68 85.4917 1511.25 85.4917C1511.82 85.4917 1512 85.388 1511.67 85.2496L1511.67 85.2496Z" fill="white"/>
<path d="M1522.59 84.0385C1522.59 83.9079 1522.21 83.7623 1521.64 83.6754C1521.07 83.5883 1520.91 83.6754 1521.25 83.8933C1521.88 84.3051 1522.59 84.3817 1522.59 84.0386L1522.59 84.0385Z" fill="white"/>
<path d="M1487.57 83.8691C1488.75 83.4814 1488.71 83.4696 1487.24 83.7598C1486.29 83.9469 1485.58 84.1284 1485.58 84.1838C1485.58 84.3971 1486.31 84.2805 1487.57 83.8691Z" fill="white"/>
<path d="M1724.18 90.6381C1724.66 90.2991 1724.53 90.2696 1723.61 90.5049C1722.95 90.6746 1722.68 90.8664 1722.99 90.9408C1723.31 91.015 1723.84 90.8802 1724.18 90.6381V90.6381Z" fill="white"/>
<path d="M1519.74 82.3434C1519.74 82.205 1519.31 82.1013 1518.74 82.1013C1518.17 82.1013 1517.99 82.205 1518.32 82.3434C1518.66 82.4885 1519.06 82.5854 1519.31 82.5854C1519.57 82.5854 1519.74 82.4885 1519.74 82.3434L1519.74 82.3434Z" fill="white"/>
<path d="M1721.33 89.9119C1721.81 89.5724 1721.69 89.5429 1720.76 89.7782C1720.1 89.9479 1719.83 90.1397 1720.15 90.2141C1720.46 90.2883 1720.99 90.1535 1721.33 89.9119V89.9119Z" fill="white"/>
<path d="M1662.31 89.4273C1661.64 89.3592 1660.6 89.3592 1659.94 89.4273C1659.27 89.495 1659.79 89.5483 1661.12 89.5483C1662.45 89.5483 1662.97 89.495 1662.31 89.4273Z" fill="white"/>
<path d="M1424.32 80.9629C1424.8 80.6239 1424.68 80.5944 1423.75 80.8297C1423.09 80.9993 1422.82 81.1912 1423.14 81.2656C1423.45 81.3398 1423.98 81.2054 1424.32 80.9631L1424.32 80.9629Z" fill="white"/>
<path d="M1431.49 80.648C1431.49 80.5076 1430.87 80.406 1430.02 80.406C1429.16 80.406 1428.78 80.5076 1429.11 80.648C1429.46 80.7936 1430.04 80.8901 1430.58 80.8901C1431.12 80.8901 1431.49 80.7935 1431.49 80.648Z" fill="white"/>
<path d="M1436.14 79.5341C1436.08 79.2433 1435.87 79.1899 1435.57 79.3889C1435.31 79.5582 1435.35 79.7708 1435.66 79.8486C1435.96 79.9255 1436.19 79.7762 1436.14 79.5341Z" fill="white"/>
<path d="M1676.78 87.417C1676.44 87.2717 1676.04 87.1749 1675.78 87.1749C1675.53 87.1749 1675.36 87.2718 1675.36 87.417C1675.36 87.5553 1675.78 87.6591 1676.35 87.6591C1676.92 87.6591 1677.1 87.5553 1676.78 87.417Z" fill="white"/>
<path d="M1686.27 87.1749C1685.93 87.0293 1685.53 86.9328 1685.27 86.9328C1685.02 86.9328 1684.85 87.0295 1684.85 87.1749C1684.85 87.3133 1685.27 87.417 1685.84 87.417C1686.41 87.417 1686.59 87.3133 1686.27 87.1749L1686.27 87.1749Z" fill="white"/>
<path d="M1719.44 86.4482C1719.75 86.3176 1719.63 86.1816 1719.15 86.1092C1718.72 86.0446 1718.34 86.1575 1718.34 86.3513C1718.34 86.7631 1718.63 86.7883 1719.44 86.4482Z" fill="white"/>
<path d="M1794.5 84.9711C1794.92 84.8015 1794.79 84.7461 1794.21 84.8379C1793.66 84.9259 1793.01 84.862 1792.74 84.6927C1792.4 84.4747 1792.24 84.4713 1792.19 84.6805C1792.07 85.0923 1793.71 85.2977 1794.5 84.9713L1794.5 84.9711Z" fill="white"/>
<path d="M1706.91 84.9589C1706.24 84.7896 1705.49 84.7203 1705.2 84.8015C1704.91 84.8824 1705.44 85.0167 1706.39 85.1042C1707.72 85.2266 1707.83 85.1946 1706.91 84.9589L1706.91 84.9589Z" fill="white"/>
<path d="M1707.15 84.0265C1707.49 83.8809 1707.15 83.8411 1706.29 83.9268C1704.68 84.088 1704.38 84.2686 1705.72 84.2686C1706.23 84.2686 1706.8 84.1716 1707.15 84.0265V84.0265Z" fill="white"/>
<path d="M1751.42 83.3603C1752.56 82.9836 1752.51 82.9744 1750.99 83.2757C1749.37 83.596 1748.92 83.7841 1749.75 83.7841C1749.97 83.7841 1750.68 83.6024 1751.42 83.3603Z" fill="white"/>
<path d="M1589.85 83.3968C1589.79 83.106 1589.58 83.0526 1589.28 83.2512C1589.03 83.4208 1589.07 83.6333 1589.38 83.7115C1589.68 83.7881 1589.9 83.6387 1589.85 83.3968L1589.85 83.3968Z" fill="white"/>
<path d="M1911.8 74.6537C1912.94 74.277 1912.9 74.2679 1911.38 74.5692C1909.76 74.8894 1909.31 75.0779 1910.14 75.0779C1910.36 75.0779 1911.07 74.8962 1911.8 74.6537V74.6537Z" fill="white"/>
<path d="M1623.16 82.5674C1624.02 82.4256 1624.13 82.3311 1623.45 82.3311C1622.78 82.3311 1622.07 82.4321 1621.72 82.5732C1621.01 82.868 1621.36 82.8663 1623.16 82.5674V82.5674Z" fill="white"/>
<path d="M1617.37 80.4905C1617.31 80.1997 1617.11 80.1464 1616.8 80.3452C1616.55 80.5145 1616.59 80.7271 1616.9 80.8053C1617.2 80.8818 1617.42 80.7329 1617.37 80.4905L1617.37 80.4905Z" fill="white"/>
<path d="M1765.75 77.0154C1766.19 76.6036 1766.09 76.5167 1765.37 76.7005C1764.83 76.8372 1764.54 77.1 1764.75 77.2698C1764.96 77.4438 1765.4 77.33 1765.75 77.0154L1765.75 77.0154Z" fill="white"/>
<path d="M1666.34 75.5501C1666 75.4046 1665.6 75.3076 1665.34 75.3076C1665.09 75.3076 1664.92 75.4046 1664.92 75.5501C1664.92 75.6885 1665.34 75.7922 1665.91 75.7922C1666.48 75.7922 1666.67 75.6885 1666.34 75.5501Z" fill="white"/>
<path d="M1633.6 75.3019C1634.46 75.1601 1634.57 75.0656 1633.89 75.0656C1633.22 75.0656 1632.51 75.1666 1632.16 75.3077C1631.45 75.6025 1631.8 75.6008 1633.6 75.3019Z" fill="white"/>
<path d="M1327.41 4.39428C1327.41 4.44974 1328.12 4.63125 1329.07 4.81802C1330.55 5.10878 1330.58 5.09642 1329.4 4.7093C1328.15 4.29749 1327.41 4.18075 1327.41 4.39428Z" fill="white"/>
<path d="M1397.62 16.4844C1398.54 16.7261 1399.46 16.8663 1399.7 16.7989C1399.94 16.733 1399.18 16.5348 1398.04 16.363C1396.05 16.0624 1396.03 16.0682 1397.62 16.4844V16.4844Z" fill="white"/>
<path d="M1357.75 4.90303C1356.73 5.21113 1356.78 5.24398 1358.11 5.121C1358.96 5.04141 1359.68 4.87641 1359.68 4.75745C1359.68 4.4488 1359.12 4.49137 1357.75 4.90303Z" fill="white"/>
<path d="M1328.88 7.37338C1328.4 7.71239 1328.53 7.74194 1329.45 7.50636C1330.12 7.33679 1330.39 7.14516 1330.07 7.07042C1329.75 6.99624 1329.22 7.13129 1328.88 7.37338Z" fill="white"/>
<path d="M1403.59 20.3832C1403.11 20.7223 1403.24 20.7517 1404.16 20.5165C1404.83 20.3472 1405.1 20.1549 1404.78 20.0806C1404.46 20.0064 1403.94 20.1412 1403.59 20.3832Z" fill="white"/>
<path d="M1397.79 21.231C1397.42 21.4007 1397.44 21.462 1397.85 21.3644C1398.28 21.2619 1399.28 21.3153 1400.13 21.4853C1401.48 21.7547 1401.5 21.7397 1400.32 21.352C1398.78 20.8437 1398.66 20.8378 1397.79 21.2309L1397.79 21.231Z" fill="white"/>
<path d="M1359.01 12.8947C1359.01 13.0581 1359.63 13.1515 1360.29 13.0887C1360.96 13.0262 1361.57 12.9327 1361.57 12.8947C1361.57 12.8574 1360.96 12.764 1360.29 12.7013C1359.63 12.6384 1359.01 12.7317 1359.01 12.8947Z" fill="white"/>
<path d="M1307.01 13.0159C1307.35 13.1613 1307.75 13.2578 1308 13.2578C1308.26 13.2578 1308.43 13.1613 1308.43 13.0159C1308.43 12.8775 1308 12.7736 1307.44 12.7736C1306.87 12.7736 1306.68 12.8775 1307.01 13.0159Z" fill="white"/>
<path d="M1326.46 23.2849C1326.46 23.3409 1327.08 23.4423 1327.93 23.5266C1328.79 23.6109 1329.16 23.5704 1328.82 23.4297C1328.29 23.2121 1326.46 23.0995 1326.46 23.2849V23.2849Z" fill="white"/>
<path d="M1349.95 35.321C1350.62 35.5394 1350.85 35.7828 1350.47 35.8782C1350.09 35.9749 1350.52 35.9799 1351.47 35.8902C1352.42 35.8002 1353.01 35.712 1352.84 35.6841C1352.69 35.6575 1351.71 35.4777 1350.66 35.2849C1348.95 34.9687 1348.88 34.9724 1349.95 35.321Z" fill="white"/>
<path d="M1355.88 35.5452C1355.02 35.687 1354.91 35.7816 1355.6 35.7816C1356.26 35.7816 1356.98 35.6805 1357.32 35.5395C1358.03 35.2447 1357.68 35.246 1355.88 35.5453L1355.88 35.5452Z" fill="white"/>
<path d="M1388.14 35.7933C1388.14 35.9385 1388.55 35.9853 1389.09 35.9024C1389.66 35.8151 1390.04 35.7134 1390.04 35.6481C1390.04 35.5828 1389.66 35.5393 1389.09 35.5393C1388.55 35.5393 1388.14 35.6481 1388.14 35.7933Z" fill="white"/>
<path d="M1362.52 38.4451C1362.52 38.576 1362.9 38.7213 1363.47 38.8086C1364.04 38.8956 1364.2 38.8086 1363.86 38.5903C1363.23 38.1785 1362.52 38.102 1362.52 38.445L1362.52 38.4451Z" fill="white"/>
<path d="M1335 41.8238C1335 41.9503 1335.86 42.1734 1336.9 42.3203C1337.95 42.4669 1338.8 42.5484 1338.8 42.502C1338.8 42.455 1337.95 42.2319 1336.9 42.0054C1335.86 41.7789 1335 41.6973 1335 41.8238Z" fill="white"/>
<path d="M1315.36 43.4221C1315.36 43.6162 1315.72 43.7733 1316.17 43.7733C1316.65 43.7733 1316.97 43.6815 1316.97 43.5434C1316.97 43.405 1316.65 43.2646 1316.17 43.1918C1315.72 43.1252 1315.36 43.2285 1315.36 43.4221Z" fill="white"/>
<path d="M1333.67 46.1589C1333.4 46.2765 1333.77 46.365 1334.53 46.365C1335.29 46.365 1335.66 46.2765 1335.38 46.1589C1335.1 46.0355 1334.76 45.9532 1334.53 45.9532C1334.3 45.9532 1333.96 46.0355 1333.67 46.1589Z" fill="white"/>
<path d="M1318.96 46.5826C1319.02 46.8733 1319.23 46.9267 1319.53 46.7282C1319.79 46.5586 1319.75 46.3463 1319.44 46.2678C1319.14 46.1916 1318.92 46.3406 1318.96 46.5826Z" fill="white"/>
<path d="M1302.71 51.6443C1301.69 51.9524 1301.74 51.9857 1303.07 51.8623C1303.92 51.7831 1304.63 51.6178 1304.63 51.4989C1304.63 51.1903 1304.07 51.2326 1302.71 51.6444L1302.71 51.6443Z" fill="white"/>
<path d="M1320.96 55.1558C1320.96 55.4948 1321.17 55.628 1321.43 55.4589C1321.7 55.2892 1321.7 55.0225 1321.43 54.8532C1321.17 54.6835 1320.96 54.8168 1320.96 55.1558Z" fill="white"/>
<path d="M1626.77 68.5324C1626.1 68.3626 1625.35 68.2933 1625.06 68.3746C1624.77 68.4555 1625.3 68.5902 1626.25 68.6775C1627.58 68.8 1627.69 68.7677 1626.77 68.5324L1626.77 68.5324Z" fill="white"/>
<path d="M1627.2 67.7087C1627.2 67.5149 1626.84 67.3574 1626.39 67.3574C1625.9 67.3574 1625.58 67.4496 1625.58 67.5877C1625.58 67.7256 1625.9 67.8661 1626.39 67.9389C1626.84 68.0054 1627.2 67.9024 1627.2 67.7087Z" fill="white"/>
<path d="M1873.3 91.1897C1873.3 91.0588 1872.92 90.9136 1872.35 90.8265C1871.78 90.7394 1871.62 90.8265 1871.96 91.0445C1872.59 91.4559 1873.3 91.5328 1873.3 91.1897L1873.3 91.1897Z" fill="white"/>
<path d="M1867.51 89.6761C1867.3 89.6422 1866.23 89.4228 1865.09 89.1793C1863.57 88.8553 1862.87 88.8179 1862.34 89.0342C1861.92 89.2037 1862.04 89.2592 1862.62 89.1674C1863.15 89.0834 1864.15 89.1793 1864.76 89.373C1865.36 89.5669 1866.36 89.7365 1866.89 89.7365C1867.46 89.7365 1867.73 89.7107 1867.51 89.6759L1867.51 89.6761Z" fill="white"/>
<path d="M1868.46 88.8648C1868.4 88.574 1868.19 88.5207 1867.89 88.7192C1867.63 88.8888 1867.68 89.1014 1867.98 89.1793C1868.28 89.2558 1868.51 89.1069 1868.46 88.8648V88.8648Z" fill="white"/>
<path d="M1854.46 88.8283C1855.6 88.4516 1855.55 88.4422 1854.03 88.7433C1852.42 89.0637 1851.96 89.2523 1852.8 89.2523C1853.01 89.2523 1853.73 89.0704 1854.46 88.8283V88.8283Z" fill="white"/>
<path d="M1874.25 85.0385C1874.25 84.9827 1873.53 84.8015 1872.59 84.6144C1871.11 84.3237 1871.07 84.3359 1872.25 84.7236C1873.51 85.1351 1874.25 85.2517 1874.25 85.0385Z" fill="white"/>
<path d="M1887.44 83.779C1887.38 83.4882 1887.17 83.4348 1886.87 83.6334C1886.61 83.803 1886.66 84.0155 1886.96 84.0935C1887.26 84.17 1887.49 84.0211 1887.44 83.779L1887.44 83.779Z" fill="white"/>
<path d="M1890.47 82.5435C1891.65 82.1562 1891.62 82.144 1890.14 82.4347C1889.19 82.6218 1888.48 82.8033 1888.48 82.8583C1888.48 83.0719 1889.22 82.9553 1890.47 82.5435V82.5435Z" fill="white"/>
<path d="M1874.91 81.127C1874.91 80.9332 1874.55 80.7756 1874.1 80.7756C1873.62 80.7756 1873.3 80.8678 1873.3 81.0059C1873.3 81.1439 1873.62 81.2844 1874.1 81.3567C1874.55 81.4237 1874.91 81.3208 1874.91 81.127V81.127Z" fill="white"/>
<path d="M1358.96 52.4396C1358.96 52.3087 1358.58 52.1635 1358.01 52.0762C1357.45 51.9895 1357.29 52.0762 1357.62 52.2942C1358.26 52.706 1358.96 52.7828 1358.96 52.4397L1358.96 52.4396Z" fill="white"/>
<path d="M1349 50.9864C1349.31 50.8544 1350.04 50.8157 1350.61 50.9017C1351.22 50.9935 1351.36 50.9382 1350.95 50.7687C1350.39 50.5402 1349.95 50.5388 1348.9 50.7619C1347.58 51.0459 1347.24 51.2285 1348.05 51.2285C1348.28 51.2285 1348.66 51.132 1349 50.9864L1349 50.9864Z" fill="white"/>
<path d="M1383.12 50.1872C1382.77 49.9451 1382.24 49.8105 1381.93 49.8846C1381.61 49.9591 1381.88 50.1509 1382.54 50.3202C1383.47 50.5561 1383.59 50.5262 1383.12 50.1872Z" fill="white"/>
<path d="M1610.43 65.0544C1610.78 64.9091 1610.86 64.733 1610.61 64.6671C1610.35 64.6025 1609.88 64.7154 1609.59 64.9092C1608.95 65.3452 1609.49 65.439 1610.43 65.0545L1610.43 65.0544Z" fill="white"/>
<path d="M1374.51 61.4677C1375.37 61.3263 1375.48 61.2314 1374.8 61.2314C1374.13 61.2314 1373.41 61.3324 1373.07 61.4738C1372.36 61.7683 1372.71 61.7665 1374.51 61.4677V61.4677Z" fill="white"/>
<path d="M1384.1 58.3981C1385.28 58.0107 1385.24 57.9985 1383.76 58.2892C1382.82 58.4763 1382.1 58.6578 1382.1 58.7128C1382.1 58.9264 1382.84 58.8098 1384.1 58.3981V58.3981Z" fill="white"/>
<path d="M1427.13 63.4139C1427.13 63.3449 1426.56 63.1735 1425.8 63.0145C1424.76 62.7958 1424.32 62.8033 1423.76 63.0508C1423.38 63.2205 1423.4 63.2818 1423.81 63.1838C1424.2 63.0899 1425.18 63.1307 1425.85 63.2684C1426.51 63.407 1427.13 63.4769 1427.13 63.4139L1427.13 63.4139Z" fill="white"/>
<path d="M1420.96 63.0022C1421.3 62.8569 1420.96 62.8168 1420.11 62.9025C1418.49 63.064 1418.19 63.2443 1419.54 63.2443C1420.05 63.2443 1420.62 63.1476 1420.96 63.0022L1420.96 63.0022Z" fill="white"/>
<path d="M1428.17 61.864C1429.35 61.4764 1429.32 61.4645 1427.84 61.7549C1426.89 61.9419 1426.18 62.1234 1426.18 62.1785C1426.18 62.392 1426.92 62.2757 1428.17 61.864V61.864Z" fill="white"/>
<path d="M1560.46 42.4164C1560.78 42.2785 1560.6 42.1743 1560.03 42.1743C1559.46 42.1743 1559.03 42.2785 1559.03 42.4164C1559.03 42.562 1559.21 42.6588 1559.46 42.6588C1559.72 42.6588 1560.12 42.5619 1560.46 42.4164Z" fill="white"/>
<path d="M1572.75 41.8595C1572.4 41.6177 1571.88 41.4828 1571.56 41.5568C1571.24 41.6316 1571.51 41.8231 1572.18 41.9928C1573.1 42.2282 1573.23 42.1988 1572.75 41.8595Z" fill="white"/>
<path d="M1631.64 31.7605C1632 31.6153 1632.08 31.4392 1631.82 31.3733C1631.57 31.3083 1631.09 31.4216 1630.81 31.6154C1630.16 32.0514 1630.7 32.1452 1631.64 31.7606L1631.64 31.7605Z" fill="white"/>
<path d="M1529.62 30.3074C1529.62 30.1767 1529.24 30.031 1528.67 29.944C1528.1 29.8569 1527.94 29.944 1528.28 30.162C1528.91 30.5738 1529.62 30.6506 1529.62 30.3074Z" fill="white"/>
<path d="M1507.22 24.2165C1506.94 24.0926 1506.4 24.0639 1505.89 24.143C1504.56 24.3494 1504.66 24.4222 1506.27 24.4222C1507.03 24.4222 1507.47 24.3263 1507.22 24.2165V24.2165Z" fill="white"/>
<path d="M1514.43 23.9985C1514.43 23.8529 1514.03 23.8067 1513.48 23.8897C1512.92 23.9767 1512.53 24.0784 1512.53 24.1441C1512.53 24.2091 1512.92 24.2529 1513.48 24.2529C1514.03 24.2529 1514.43 24.1441 1514.43 23.9985Z" fill="white"/>
<path d="M1591.73 20.3783C1592.04 20.2472 1591.93 20.1116 1591.44 20.0388C1591.01 19.9742 1590.63 20.0872 1590.63 20.2812C1590.63 20.6927 1590.92 20.7182 1591.73 20.3781L1591.73 20.3783Z" fill="white"/>
<path d="M1894.97 19.4091C1894.97 19.2781 1894.59 19.1333 1894.02 19.046C1893.45 18.9589 1893.29 19.046 1893.63 19.2639C1894.26 19.6752 1894.97 19.7522 1894.97 19.4091V19.4091Z" fill="white"/>
<path d="M1867.35 18.053C1867.29 17.7623 1867.08 17.7089 1866.78 17.9074C1866.53 18.077 1866.57 18.2893 1866.88 18.3678C1867.18 18.444 1867.4 18.295 1867.35 18.053L1867.35 18.053Z" fill="white"/>
<path d="M1552.86 17.9561C1552.52 17.811 1552.13 17.714 1551.87 17.714C1551.61 17.714 1551.44 17.811 1551.44 17.9561C1551.44 18.0947 1551.87 18.1982 1552.44 18.1982C1553.01 18.1982 1553.19 18.0947 1552.86 17.9561L1552.86 17.9561Z" fill="white"/>
<path d="M1809.56 17.5081C1809.56 17.3945 1808.94 17.3023 1808.18 17.3023C1807.43 17.3023 1807.02 17.3945 1807.28 17.5081C1807.57 17.6319 1808.12 17.7141 1808.66 17.7141C1809.2 17.7141 1809.56 17.6319 1809.56 17.5081Z" fill="white"/>
<path d="M1591.92 17.5324C1591.57 17.39 1591.82 17.2248 1592.49 17.1567C1593.21 17.0829 1593.01 17.0281 1591.96 17.0166C1590.07 16.9953 1589.72 17.3513 1591.4 17.6099C1592.06 17.7131 1592.28 17.6807 1591.92 17.5323L1591.92 17.5324Z" fill="white"/>
<path d="M1884.77 16.4668C1884.1 16.2972 1883.35 16.228 1883.06 16.3094C1882.77 16.39 1883.3 16.5246 1884.24 16.612C1885.57 16.7344 1885.69 16.7021 1884.77 16.4668Z" fill="white"/>
<path d="M1479.56 14.2872C1478.9 14.1175 1478.14 14.0482 1477.85 14.1297C1477.56 14.2103 1478.09 14.345 1479.04 14.432C1480.37 14.5548 1480.48 14.5225 1479.56 14.2872L1479.56 14.2872Z" fill="white"/>
<path d="M1864.08 13.839C1864.39 13.708 1864.28 13.5722 1863.79 13.4998C1863.36 13.4352 1862.99 13.5481 1862.99 13.7419C1862.99 14.1537 1863.27 14.179 1864.08 13.8388L1864.08 13.839Z" fill="white"/>
<path d="M1873.14 12.628C1873.14 12.4894 1872.71 12.3861 1872.14 12.3861C1871.57 12.3861 1871.39 12.4894 1871.72 12.628C1872.06 12.7732 1872.46 12.8701 1872.71 12.8701C1872.97 12.8701 1873.14 12.7732 1873.14 12.628Z" fill="white"/>
<path d="M1738.39 12.6221C1739.24 12.4803 1739.36 12.3862 1738.67 12.3862C1738.01 12.3862 1737.29 12.4872 1736.95 12.6282C1736.24 12.9227 1736.59 12.9209 1738.39 12.6221Z" fill="white"/>
<path d="M1596.9 12.3011C1597.67 12.0589 1597.61 11.9742 1596.66 11.9742C1596 11.9742 1595.38 12.1317 1595.38 12.3011C1595.38 12.4707 1595.49 12.6281 1595.62 12.6281C1595.74 12.6281 1596.36 12.4707 1596.9 12.3011Z" fill="white"/>
<path d="M1826.64 11.9015C1826.64 11.7631 1826.22 11.6594 1825.65 11.6594C1825.08 11.6594 1824.89 11.7631 1825.22 11.9015C1825.56 12.0469 1825.96 12.1436 1826.22 12.1436C1826.47 12.1436 1826.64 12.0469 1826.64 11.9015V11.9015Z" fill="white"/>
<path d="M1538.06 11.7561C1538 11.4656 1537.79 11.4124 1537.49 11.6109C1537.24 11.7805 1537.28 11.9931 1537.59 12.0708C1537.89 12.1478 1538.11 11.9985 1538.06 11.7561Z" fill="white"/>
<path d="M1710.39 10.6904C1710.05 10.5455 1709.65 10.4487 1709.4 10.4487C1709.14 10.4487 1708.97 10.5456 1708.97 10.6904C1708.97 10.829 1709.4 10.9327 1709.97 10.9327C1710.54 10.9327 1710.72 10.829 1710.39 10.6904V10.6904Z" fill="white"/>
<path d="M1546.22 10.4487C1546.57 10.3032 1546.22 10.2635 1545.37 10.3492C1543.76 10.5103 1543.46 10.6906 1544.8 10.6906C1545.31 10.6906 1545.88 10.5939 1546.22 10.4489L1546.22 10.4487Z" fill="white"/>
<path d="M1419.66 22.2842C1419.93 22.1665 1419.57 22.0784 1418.81 22.0784C1418.05 22.0784 1417.68 22.1665 1417.95 22.2842C1418.24 22.4075 1418.58 22.4902 1418.81 22.4902C1419.03 22.4902 1419.38 22.4076 1419.66 22.2842Z" fill="white"/>
<path d="M1610.75 9.23736C1611.08 9.0994 1610.9 8.99513 1610.33 8.99513C1609.76 8.99513 1609.33 9.09926 1609.33 9.23736C1609.33 9.38295 1609.5 9.47974 1609.76 9.47974C1610.01 9.47974 1610.41 9.38281 1610.75 9.23736Z" fill="white"/>
<path d="M1771.93 8.39015C1771.66 8.19617 1770.97 8.02674 1770.46 8.02674C1769.89 8.02674 1769.97 8.17191 1770.65 8.39015C1771.26 8.58358 1771.95 8.7533 1772.12 8.7533C1772.3 8.7533 1772.21 8.58358 1771.93 8.39015Z" fill="white"/>
<path d="M1499.74 8.0267C1500.09 7.88139 1500.17 7.7053 1499.91 7.6393C1499.66 7.57427 1499.19 7.68769 1498.9 7.88139C1498.25 8.31733 1498.79 8.41119 1499.74 8.0267V8.0267Z" fill="white"/>
<path d="M1828.08 7.5422C1828.43 7.39675 1828.51 7.22066 1828.26 7.15466C1828 7.09032 1827.53 7.20318 1827.24 7.39675C1826.6 7.83268 1827.13 7.92683 1828.08 7.5422V7.5422Z" fill="white"/>
<path d="M1427.11 17.6099C1426.45 17.4402 1425.69 17.3713 1425.4 17.4526C1425.11 17.533 1425.64 17.6677 1426.59 17.7551C1427.92 17.8777 1428.03 17.8452 1427.11 17.6099Z" fill="white"/>
<path d="M1808.99 5.56854C1808.71 5.445 1808.16 5.36277 1807.62 5.36277C1807.08 5.36277 1806.72 5.445 1806.72 5.56854C1806.72 5.6821 1807.33 5.77417 1808.09 5.77417C1808.85 5.77417 1809.25 5.6821 1808.99 5.56854Z" fill="white"/>
<path d="M1499.87 4.72089C1499.51 4.63104 1499.96 4.41821 1500.91 4.22437C1502.43 3.91489 1502.38 3.90879 1500.39 4.15393C1498.49 4.38756 1498.17 4.87854 1499.91 4.87854C1500.26 4.87854 1500.24 4.81531 1499.87 4.72089Z" fill="white"/>
<path d="M1435.41 16.0965C1435.41 16.0411 1434.7 15.8596 1433.75 15.6725C1432.28 15.3818 1432.24 15.394 1433.42 15.7812C1434.67 16.193 1435.41 16.3097 1435.41 16.0965V16.0965Z" fill="white"/>
<path d="M1754.14 3.76896C1755.9 3.40887 1755.9 3.40679 1753.81 3.66732C1752.67 3.80945 1751.67 3.98998 1751.67 4.05487C1751.67 4.23068 1752.15 4.17549 1754.14 3.76881L1754.14 3.76896Z" fill="white"/>
<path d="M1797.22 3.81253C1797.22 3.75735 1796.51 3.57586 1795.56 3.38881C1794.09 3.09805 1794.05 3.10997 1795.23 3.49765C1796.49 3.90932 1797.22 4.02592 1797.22 3.81253V3.81253Z" fill="white"/>
<path d="M1596.99 3.42492C1596.99 3.29444 1596.61 3.14927 1596.04 3.06219C1595.48 2.9747 1595.32 3.06219 1595.65 3.28015C1596.29 3.69155 1596.99 3.7685 1596.99 3.42492Z" fill="white"/>
<path d="M1525.82 3.32836C1525.82 3.27193 1525.2 3.17029 1524.35 3.08598C1523.5 3.00168 1523.13 3.04245 1523.47 3.18291C1524 3.40115 1525.82 3.51374 1525.82 3.32836V3.32836Z" fill="white"/>
<path d="M1834.72 2.94065C1835.07 2.79548 1835.16 2.61939 1834.9 2.55339C1834.64 2.48836 1834.17 2.60178 1833.88 2.79548C1833.24 3.23141 1833.78 3.32528 1834.72 2.94065V2.94065Z" fill="white"/>
<path d="M1888.38 2.65019C1888.98 2.14146 1888.91 1.7578 1888.23 1.86332C1887.72 1.94319 1887.57 2.07851 1887.85 2.20192C1888.12 2.31714 1887.8 2.46107 1887.14 2.52873C1886.19 2.62593 1886.19 2.65505 1887.14 2.67418C1887.8 2.68749 1888.35 2.67695 1888.38 2.65019Z" fill="white"/>
<path d="M1875.51 2.45641C1875.86 2.3111 1875.51 2.27102 1874.66 2.35671C1873.05 2.51783 1872.75 2.69836 1874.09 2.69836C1874.6 2.69836 1875.17 2.60158 1875.51 2.45627L1875.51 2.45641Z" fill="white"/>
<path d="M1424.21 14.3287C1423.55 14.2631 1422.72 14.2742 1422.41 14.3526C1422.11 14.4295 1422.7 14.4865 1423.65 14.4735C1424.79 14.4586 1424.99 14.4049 1424.21 14.3287V14.3287Z" fill="white"/>
<path d="M1371.26 67.2782C1371.55 67.402 1372.08 67.4313 1372.59 67.352C1373.92 67.1452 1373.82 67.0724 1372.21 67.0724C1371.45 67.0724 1371.01 67.1684 1371.26 67.2781L1371.26 67.2782Z" fill="white"/>
<path d="M1366.9 67.472C1366.9 67.6104 1367.22 67.7508 1367.7 67.8232C1368.15 67.8902 1368.51 67.7869 1368.51 67.5931C1368.51 67.3996 1368.15 67.2418 1367.7 67.2418C1367.22 67.2418 1366.9 67.3343 1366.9 67.472Z" fill="white"/>
<path d="M1346.02 70.6568C1346.02 70.9234 1346.42 71.0758 1346.92 70.9962C1347.44 70.9129 1347.6 70.7055 1347.31 70.5116C1346.55 70.0155 1346.02 70.0757 1346.02 70.6568Z" fill="white"/>
<path d="M1352.66 71.3623C1351.44 71.5673 1351.47 71.6014 1352.9 71.6014C1353.85 71.6014 1354.56 71.4977 1354.56 71.3593C1354.56 71.0601 1354.46 71.0601 1352.66 71.3624L1352.66 71.3623Z" fill="white"/>
<path d="M1392.52 75.8153C1392.52 75.8816 1393.37 76.0561 1394.42 76.203C1395.46 76.3493 1396.31 76.4148 1396.31 76.3482C1396.31 76.2816 1395.46 76.107 1394.42 75.9606C1393.37 75.8141 1392.52 75.7487 1392.52 75.8153Z" fill="white"/>
<path d="M1388.72 76.0575C1388.72 76.113 1389.43 76.2945 1390.38 76.4813C1391.86 76.772 1391.89 76.76 1390.71 76.3724C1389.46 75.9606 1388.72 75.844 1388.72 76.0575V76.0575Z" fill="white"/>
<path d="M1318.21 77.8981C1318.47 78.1643 1318.86 78.3827 1319.07 78.3827C1319.28 78.3827 1319.45 78.1643 1319.45 77.8981C1319.45 77.6319 1319.06 77.4139 1318.59 77.4139C1318.12 77.4139 1317.95 77.6319 1318.21 77.8981V77.8981Z" fill="white"/>
<path d="M1394.94 80.2471C1394.46 80.5865 1394.58 80.6159 1395.51 80.3806C1396.17 80.211 1396.44 80.0191 1396.12 79.9444C1395.81 79.8706 1395.28 80.0052 1394.94 80.2471Z" fill="white"/>
<path d="M1326.57 80.5624C1326.24 80.7007 1326.42 80.8044 1326.99 80.8044C1327.56 80.8044 1327.99 80.7007 1327.99 80.5624C1327.99 80.4168 1327.82 80.32 1327.56 80.32C1327.31 80.32 1326.91 80.4169 1326.57 80.5624Z" fill="white"/>
<path d="M1407.7 80.55C1407.7 80.6729 1408.36 80.7181 1409.12 80.647C1409.88 80.576 1410.55 80.4688 1410.55 80.4168C1410.55 80.3651 1409.88 80.3199 1409.12 80.3199C1408.36 80.3199 1407.7 80.4273 1407.7 80.55Z" fill="white"/>
<path d="M1395.98 85.2847C1396.26 85.4785 1396.68 85.6478 1396.88 85.6478C1397.08 85.6478 1397.26 85.4785 1397.26 85.2847C1397.26 85.0908 1396.84 84.9213 1396.36 84.9213C1395.88 84.9213 1395.7 85.0908 1395.98 85.2847Z" fill="white"/>
<path d="M1371.21 90.1768C1370.73 90.5158 1370.86 90.5457 1371.78 90.31C1372.45 90.1403 1372.72 89.9485 1372.4 89.8741C1372.08 89.7999 1371.56 89.9347 1371.21 90.1768Z" fill="white"/>
<path d="M1787.73 1.95991C1787.73 1.81433 1787.33 1.76789 1786.79 1.85081C1786.22 1.93788 1785.84 2.03979 1785.84 2.10523C1785.84 2.17082 1786.22 2.21436 1786.79 2.21436C1787.33 2.21436 1787.73 2.10523 1787.73 1.95991Z" fill="white"/>
<path d="M1631.16 1.87553C1631.16 1.81993 1630.44 1.63815 1629.49 1.4518C1628.02 1.16063 1627.98 1.17296 1629.16 1.56051C1630.42 1.97231 1631.16 2.08892 1631.16 1.87553Z" fill="white"/>
<path d="M1543 1.07593C1544.18 0.688255 1544.14 0.676474 1542.67 0.967096C1541.72 1.15386 1541 1.33536 1541 1.39068C1541 1.60421 1541.74 1.4876 1543 1.07593V1.07593Z" fill="white"/>
<path d="M1153.54 61.3831C1154.23 61.4421 1154.83 61.366 1155.03 61.1934C1155.2 61.0399 1154.57 60.9552 1153.68 61.012C1151.78 61.1329 1151.74 61.23 1153.54 61.3831Z" fill="white"/>
<path d="M626.67 0.104794C626.67 0.160256 627.382 0.341756 628.33 0.528802C629.806 0.819285 629.843 0.806945 628.663 0.41968C627.408 0.00787405 626.67 -0.108735 626.67 0.104794V0.104794Z" fill="white"/>
<path d="M690.487 0.395168C691.409 0.637538 692.339 0.777718 692.575 0.710332C692.808 0.64447 692.053 0.445777 690.915 0.274399C688.922 -0.0262052 688.901 -0.0207977 690.487 0.39503V0.395168Z" fill="white"/>
<path d="M657.007 0.613551C655.984 0.921643 656.039 0.954921 657.369 0.831517C658.222 0.752345 658.934 0.587068 658.934 0.468379C658.934 0.159317 658.371 0.201884 657.007 0.61369V0.613551Z" fill="white"/>
<path d="M628.141 3.08335C627.662 3.42278 627.787 3.45231 628.71 3.21701C629.374 3.04744 629.646 2.85512 629.327 2.7808C629.011 2.70704 628.483 2.84167 628.141 3.08335V3.08335Z" fill="white"/>
<path d="M1247.39 3.30154C1247.45 3.5923 1247.66 3.64596 1247.95 3.44713C1248.21 3.27742 1248.17 3.06528 1247.86 2.98707C1247.56 2.91054 1247.34 3.05987 1247.39 3.30154Z" fill="white"/>
<path d="M696.465 4.29458C695.985 4.63373 696.112 4.66326 697.036 4.42755C697.7 4.25825 697.97 4.06635 697.652 3.99162C697.336 3.91785 696.809 4.05249 696.465 4.29458V4.29458Z" fill="white"/>
<path d="M690.663 5.14231C690.287 5.31161 690.315 5.37331 690.725 5.27528C691.15 5.17323 692.148 5.22634 693.002 5.39661C694.352 5.66546 694.373 5.65062 693.197 5.26336C691.651 4.75477 691.537 4.74923 690.663 5.14231V5.14231Z" fill="white"/>
<path d="M1171.85 7.51553C1172.19 7.66098 1172.59 7.7579 1172.84 7.7579C1173.1 7.7579 1173.27 7.66098 1173.27 7.51553C1173.27 7.37715 1172.84 7.27344 1172.28 7.27344C1171.71 7.27344 1171.52 7.37715 1171.85 7.51553H1171.85Z" fill="white"/>
<path d="M658.27 8.60517C658.27 8.76837 658.886 8.86196 659.549 8.79901C660.215 8.73648 660.831 8.64302 660.831 8.60517C660.831 8.56773 660.215 8.47428 659.549 8.41175C658.886 8.3488 658.27 8.44225 658.27 8.60517Z" fill="white"/>
<path d="M606.266 8.72671C606.607 8.87202 607.007 8.9688 607.262 8.9688C607.518 8.9688 607.689 8.87188 607.689 8.72671C607.689 8.58833 607.262 8.48462 606.693 8.48462C606.124 8.48462 605.94 8.58833 606.266 8.72671Z" fill="white"/>
<path d="M1160.94 8.72664C1160.94 8.85725 1161.31 9.00284 1161.88 9.08978C1162.45 9.17685 1162.61 9.08978 1162.28 8.87181C1161.64 8.46 1160.94 8.38347 1160.94 8.7265L1160.94 8.72664Z" fill="white"/>
<path d="M1195.95 8.89593C1194.77 9.28361 1194.81 9.29539 1196.29 9.00519C1197.23 8.81814 1197.94 8.63664 1197.94 8.58118C1197.94 8.36793 1197.21 8.48454 1195.95 8.89593Z" fill="white"/>
<path d="M959.342 2.12688C958.862 2.46589 958.989 2.49542 959.912 2.26012C960.576 2.09041 960.846 1.89865 960.528 1.82419C960.212 1.75001 959.685 1.88479 959.342 2.12688V2.12688Z" fill="white"/>
<path d="M1163.78 10.4217C1163.78 10.56 1164.21 10.6638 1164.78 10.6638C1165.35 10.6638 1165.53 10.56 1165.2 10.4217C1164.86 10.2765 1164.46 10.1796 1164.21 10.1796C1163.95 10.1796 1163.78 10.2765 1163.78 10.4217H1163.78Z" fill="white"/>
<path d="M962.188 2.85315C961.708 3.19258 961.835 3.22211 962.757 2.98681C963.421 2.8171 963.694 2.62534 963.375 2.55088C963.059 2.4767 962.531 2.61147 962.188 2.85315V2.85315Z" fill="white"/>
<path d="M1021.21 3.33784C1021.88 3.40592 1022.92 3.40592 1023.59 3.33784C1024.25 3.27018 1023.73 3.2168 1022.4 3.2168C1021.07 3.2168 1020.55 3.27018 1021.21 3.33784Z" fill="white"/>
<path d="M1259.2 11.8022C1258.72 12.1412 1258.85 12.1708 1259.77 11.9355C1260.43 11.7659 1260.7 11.574 1260.39 11.4995C1260.07 11.4253 1259.54 11.5597 1259.2 11.8021V11.8022Z" fill="white"/>
<path d="M1252.04 12.1171C1252.04 12.2576 1252.65 12.3592 1253.51 12.3592C1254.36 12.3592 1254.74 12.2576 1254.41 12.1171C1254.07 11.9715 1253.48 11.875 1252.94 11.875C1252.4 11.875 1252.04 11.9716 1252.04 12.1171Z" fill="white"/>
<path d="M1247.39 13.231C1247.45 13.5218 1247.66 13.5752 1247.95 13.3762C1248.21 13.2069 1248.17 12.9944 1247.86 12.9166C1247.56 12.8396 1247.34 12.989 1247.39 13.231Z" fill="white"/>
<path d="M751.552 13.3644C751.836 13.4878 752.368 13.5174 752.88 13.4382C754.214 13.2315 754.115 13.1588 752.501 13.1588C751.741 13.1588 751.299 13.2546 751.552 13.3644V13.3644Z" fill="white"/>
<path d="M1006.74 5.34805C1007.08 5.49336 1007.48 5.59014 1007.74 5.59014C1008 5.59014 1008.17 5.49322 1008.17 5.34805C1008.17 5.20967 1007.74 5.10596 1007.17 5.10596C1006.6 5.10596 1006.42 5.20967 1006.74 5.34805Z" fill="white"/>
<path d="M997.252 5.59011C997.594 5.7357 997.992 5.83221 998.248 5.83221C998.506 5.83221 998.676 5.73556 998.676 5.59011C998.676 5.45174 998.248 5.34802 997.679 5.34802C997.111 5.34802 996.927 5.45174 997.252 5.59011H997.252Z" fill="white"/>
<path d="M964.083 6.3168C963.773 6.44741 963.887 6.58343 964.371 6.65581C964.801 6.72042 965.178 6.60756 965.178 6.41372C965.178 6.00191 964.892 5.97667 964.083 6.3168Z" fill="white"/>
<path d="M889.02 7.79389C888.606 7.96347 888.728 8.01893 889.309 7.92714C889.866 7.8391 890.514 7.90302 890.78 8.07231C891.121 8.29028 891.277 8.29375 891.336 8.08452C891.451 7.67271 889.813 7.46736 889.02 7.79376V7.79389Z" fill="white"/>
<path d="M976.613 7.80611C977.277 7.97541 978.028 8.04473 978.32 7.96348C978.611 7.88265 978.083 7.74829 977.133 7.6608C975.805 7.53837 975.689 7.57039 976.613 7.80611H976.613Z" fill="white"/>
<path d="M761.659 16.864C762.582 17.1061 763.509 17.2459 763.747 17.1785C763.979 17.1126 763.224 16.9146 762.086 16.743C760.093 16.4424 760.074 16.4478 761.659 16.864V16.864Z" fill="white"/>
<path d="M976.375 8.73855C976.034 8.88414 976.375 8.92393 977.23 8.83824C978.843 8.67699 979.143 8.49646 977.798 8.49646C977.287 8.49646 976.717 8.59338 976.375 8.73855V8.73855Z" fill="white"/>
<path d="M932.105 9.40469C930.966 9.78141 931.014 9.79057 932.534 9.48927C934.147 9.16897 934.603 8.98096 933.767 8.98096C933.549 8.98096 932.839 9.1626 932.105 9.40469Z" fill="white"/>
<path d="M1093.67 9.36823C1093.73 9.65899 1093.94 9.71237 1094.24 9.51381C1094.49 9.34424 1094.45 9.13168 1094.14 9.05348C1093.84 8.97694 1093.62 9.12627 1093.67 9.36823H1093.67Z" fill="white"/>
<path d="M771.717 18.1113C770.578 18.488 770.625 18.4972 772.144 18.1959C773.757 17.8756 774.214 17.6871 773.377 17.6871C773.161 17.6871 772.449 17.8688 771.717 18.1113V18.1113Z" fill="white"/>
<path d="M1060.36 10.1976C1059.51 10.3395 1059.39 10.4339 1060.07 10.4339C1060.74 10.4339 1061.46 10.3329 1061.8 10.1918C1062.51 9.89701 1062.16 9.89867 1060.36 10.1976V10.1976Z" fill="white"/>
<path d="M625.721 18.995C625.721 19.0514 626.337 19.1528 627.191 19.2375C628.046 19.3218 628.416 19.2813 628.074 19.1403C627.545 18.9226 625.721 18.81 625.721 18.995Z" fill="white"/>
<path d="M1066.15 12.2745C1066.21 12.5653 1066.42 12.6187 1066.72 12.4198C1066.97 12.2505 1066.93 12.038 1066.62 11.9598C1066.32 11.8832 1066.1 12.0321 1066.15 12.2745H1066.15Z" fill="white"/>
<path d="M763.318 20.6904C763.318 20.7459 764.031 20.9274 764.979 21.114C766.455 21.4048 766.491 21.3929 765.312 21.0053C764.057 20.5935 763.318 20.4768 763.318 20.6904Z" fill="white"/>
<path d="M917.776 15.7497C917.331 16.1615 917.435 16.2485 918.156 16.0646C918.693 15.9279 918.978 15.6652 918.773 15.4953C918.564 15.3213 918.119 15.4351 917.776 15.7497H917.776Z" fill="white"/>
<path d="M1017.18 17.2149C1017.52 17.3605 1017.92 17.4574 1018.18 17.4574C1018.43 17.4574 1018.61 17.3605 1018.61 17.2149C1018.61 17.0765 1018.18 16.9728 1017.61 16.9728C1017.04 16.9728 1016.86 17.0765 1017.18 17.2149Z" fill="white"/>
<path d="M1049.92 17.4632C1049.07 17.6051 1048.95 17.6995 1049.63 17.6995C1050.3 17.6995 1051.02 17.5986 1051.36 17.4574C1052.07 17.1626 1051.72 17.1643 1049.92 17.4632Z" fill="white"/>
<path d="M1356.11 88.3707C1356.11 88.3153 1355.4 88.1338 1354.45 87.947C1352.97 87.6562 1352.94 87.6686 1354.12 88.0557C1355.37 88.4675 1356.11 88.5843 1356.11 88.3707Z" fill="white"/>
<path d="M1285.91 76.2806C1284.98 76.0389 1284.06 75.8987 1283.82 75.9661C1283.59 76.032 1284.34 76.2302 1285.48 76.402C1287.47 76.7026 1287.49 76.6968 1285.91 76.2806V76.2806Z" fill="white"/>
<path d="M1325.77 87.8621C1326.79 87.554 1326.74 87.5212 1325.41 87.6441C1324.56 87.7237 1323.84 87.8887 1323.84 88.0077C1323.84 88.3163 1324.41 88.2738 1325.77 87.8621Z" fill="white"/>
<path d="M1354.64 85.3918C1355.12 85.0527 1354.99 85.0232 1354.07 85.2588C1353.41 85.4283 1353.13 85.62 1353.45 85.6947C1353.77 85.7689 1354.3 85.6338 1354.64 85.3918Z" fill="white"/>
<path d="M1279.93 72.3819C1280.41 72.0427 1280.28 72.0133 1279.36 72.2485C1278.69 72.4178 1278.42 72.6101 1278.74 72.6844C1279.06 72.7586 1279.59 72.6238 1279.93 72.3819Z" fill="white"/>
<path d="M1285.73 71.5341C1286.11 71.3644 1286.08 71.3031 1285.67 71.4008C1285.24 71.5032 1284.25 71.4498 1283.39 71.2799C1282.04 71.0104 1282.02 71.0254 1283.2 71.4131C1284.74 71.9214 1284.86 71.9274 1285.73 71.5343V71.5341Z" fill="white"/>
<path d="M1324.51 79.8704C1324.51 79.7071 1323.89 79.6136 1323.23 79.6764C1322.56 79.739 1321.95 79.8324 1321.95 79.8704C1321.95 79.9077 1322.56 80.0012 1323.23 80.0638C1323.89 80.1268 1324.51 80.0335 1324.51 79.8704Z" fill="white"/>
<path d="M1376.51 79.7492C1376.17 79.6037 1375.77 79.5072 1375.52 79.5072C1375.26 79.5072 1375.09 79.6037 1375.09 79.7492C1375.09 79.8875 1375.52 79.9914 1376.09 79.9914C1376.66 79.9914 1376.84 79.8875 1376.51 79.7492Z" fill="white"/>
<path d="M1357.06 69.4801C1357.06 69.4241 1356.44 69.3227 1355.59 69.2384C1354.73 69.1541 1354.36 69.1946 1354.71 69.3353C1355.24 69.5529 1357.06 69.6655 1357.06 69.4801V69.4801Z" fill="white"/>
<path d="M1333.57 57.4442C1332.9 57.2258 1332.68 56.9823 1333.05 56.8869C1333.43 56.7903 1333 56.7853 1332.05 56.875C1331.11 56.965 1330.51 57.0532 1330.68 57.081C1330.83 57.1076 1331.82 57.2875 1332.86 57.4802C1334.57 57.7965 1334.64 57.7927 1333.57 57.4442Z" fill="white"/>
<path d="M1327.64 57.2199C1328.5 57.0781 1328.61 56.9835 1327.93 56.9835C1327.26 56.9835 1326.54 57.0846 1326.2 57.2256C1325.49 57.5204 1325.84 57.5191 1327.64 57.2198V57.2199Z" fill="white"/>
<path d="M1295.38 56.9717C1295.38 56.8265 1294.97 56.7797 1294.43 56.8626C1293.86 56.95 1293.48 57.0516 1293.48 57.1169C1293.48 57.1822 1293.86 57.2257 1294.43 57.2257C1294.97 57.2257 1295.38 57.1169 1295.38 56.9717Z" fill="white"/>
<path d="M1321 54.3199C1321 54.189 1320.62 54.0437 1320.05 53.9565C1319.48 53.8694 1319.32 53.9565 1319.66 54.1747C1320.29 54.5865 1321 54.663 1321 54.32V54.3199Z" fill="white"/>
<path d="M1348.52 50.9413C1348.52 50.8149 1347.66 50.5918 1346.62 50.4448C1345.58 50.2982 1344.72 50.2167 1344.72 50.2632C1344.72 50.3102 1345.58 50.5333 1346.62 50.7597C1347.66 50.9863 1348.52 51.0678 1348.52 50.9413Z" fill="white"/>
<path d="M1368.16 49.343C1368.16 49.1489 1367.8 48.9918 1367.36 48.9918C1366.87 48.9918 1366.55 49.0836 1366.55 49.2217C1366.55 49.3601 1366.87 49.5006 1367.36 49.5733C1367.8 49.6399 1368.16 49.5366 1368.16 49.343Z" fill="white"/>
<path d="M1349.85 46.6061C1350.12 46.4885 1349.75 46.4 1348.99 46.4C1348.23 46.4 1347.87 46.4885 1348.14 46.6061C1348.42 46.7295 1348.77 46.8118 1348.99 46.8118C1349.22 46.8118 1349.56 46.7295 1349.85 46.6061Z" fill="white"/>
<path d="M1364.56 46.1826C1364.5 45.8918 1364.29 45.8384 1363.99 46.037C1363.73 46.2065 1363.78 46.4188 1364.08 46.4973C1364.38 46.5736 1364.61 46.4245 1364.56 46.1826Z" fill="white"/>
<path d="M1380.81 41.1208C1381.84 40.8127 1381.78 40.7795 1380.45 40.9029C1379.6 40.982 1378.89 41.1473 1378.89 41.2663C1378.89 41.5748 1379.45 41.5325 1380.81 41.1207V41.1208Z" fill="white"/>
<path d="M1362.57 37.6094C1362.57 37.2704 1362.35 37.1371 1362.09 37.3063C1361.82 37.476 1361.82 37.7426 1362.09 37.9119C1362.35 38.0816 1362.57 37.9484 1362.57 37.6094Z" fill="white"/>
<path d="M1056.75 24.2328C1057.42 24.4025 1058.17 24.4718 1058.46 24.3906C1058.75 24.3096 1058.22 24.175 1057.27 24.0876C1055.95 23.9652 1055.83 23.9975 1056.75 24.2328H1056.75Z" fill="white"/>
<path d="M1056.33 25.0564C1056.33 25.2503 1056.69 25.4078 1057.13 25.4078C1057.62 25.4078 1057.94 25.3156 1057.94 25.1775C1057.94 25.0395 1057.62 24.8991 1057.13 24.8263C1056.69 24.7597 1056.33 24.8627 1056.33 25.0564Z" fill="white"/>
<path d="M810.225 1.57536C810.225 1.70625 810.605 1.85142 811.174 1.9385C811.744 2.02557 811.899 1.9385 811.565 1.72053C810.931 1.30914 810.225 1.23219 810.225 1.57536H810.225Z" fill="white"/>
<path d="M816.013 3.08888C816.225 3.12285 817.294 3.3422 818.433 3.58568C819.951 3.90972 820.655 3.94716 821.184 3.73085C821.6 3.56128 821.482 3.50582 820.9 3.59761C820.369 3.68163 819.372 3.58568 818.764 3.39198C818.158 3.19814 817.162 3.02856 816.63 3.02856C816.061 3.02856 815.796 3.05435 816.013 3.08916V3.08888Z" fill="white"/>
<path d="M815.064 3.90021C815.124 4.19097 815.333 4.24435 815.634 4.0458C815.889 3.87622 815.844 3.66366 815.537 3.58574C815.238 3.5092 815.013 3.65812 815.064 3.90021V3.90021Z" fill="white"/>
<path d="M829.063 3.9367C827.924 4.31343 827.971 4.32286 829.489 4.0217C831.103 3.70127 831.56 3.5127 830.723 3.5127C830.507 3.5127 829.794 3.69461 829.063 3.9367V3.9367Z" fill="white"/>
<path d="M809.275 7.72656C809.275 7.7823 809.988 7.96352 810.936 8.15057C812.412 8.44133 812.449 8.42913 811.269 8.04145C810.014 7.62992 809.275 7.51331 809.275 7.72656Z" fill="white"/>
<path d="M796.084 8.98603C796.145 9.27679 796.355 9.33017 796.654 9.13161C796.91 8.96204 796.866 8.74948 796.559 8.67156C796.26 8.59502 796.036 8.74393 796.085 8.98603H796.084Z" fill="white"/>
<path d="M793.048 10.2214C791.867 10.6087 791.904 10.6209 793.38 10.3301C794.329 10.1431 795.04 9.9616 795.04 9.90655C795.04 9.69302 794.303 9.80963 793.048 10.2214V10.2214Z" fill="white"/>
<path d="M808.611 11.638C808.611 11.8319 808.973 11.9894 809.418 11.9894C809.902 11.9894 810.224 11.8972 810.224 11.7591C810.224 11.6211 809.902 11.4806 809.418 11.4083C808.972 11.3413 808.611 11.4442 808.611 11.638V11.638Z" fill="white"/>
<path d="M551.784 15.107C552.124 14.9617 552.523 14.8649 552.78 14.8649C553.036 14.8649 553.207 14.9618 553.207 15.107C553.207 15.2456 552.78 15.3493 552.211 15.3493C551.641 15.3493 551.458 15.2456 551.784 15.107Z" fill="white"/>
<path d="M575.886 13.7269C574.705 13.3393 574.742 13.327 576.218 13.6177C577.167 13.8048 577.879 13.9863 577.879 14.0417C577.879 14.255 577.141 14.1384 575.886 13.7269Z" fill="white"/>
<path d="M539.825 27.4955C540.49 27.4278 540.74 27.2625 540.395 27.1201C540.035 26.9718 540.252 26.9408 540.917 27.0464C542.196 27.2491 541.391 27.6668 539.778 27.6377C538.958 27.6223 538.972 27.583 539.826 27.4956L539.825 27.4955Z" fill="white"/>
<path d="M569.955 24.7589C569.63 24.6206 569.813 24.5168 570.382 24.5168C570.952 24.5168 571.38 24.6206 571.38 24.7589C571.38 24.9045 571.209 25.001 570.952 25.001C570.696 25.001 570.297 24.9045 569.956 24.7589H569.955Z" fill="white"/>
<path d="M561.794 23.8628C560.613 23.4756 560.65 23.4634 562.127 23.7537C563.076 23.9408 563.787 24.1223 563.787 24.1777C563.787 24.391 563.049 24.2746 561.794 23.8628Z" fill="white"/>
<path d="M1324.56 40.3254C1324.56 40.4563 1324.94 40.6015 1325.51 40.6888C1326.08 40.7755 1326.23 40.6888 1325.9 40.4709C1325.27 40.059 1324.56 39.9822 1324.56 40.3253L1324.56 40.3254Z" fill="white"/>
<path d="M1334.52 41.7787C1334.21 41.9107 1333.48 41.9494 1332.91 41.8634C1332.3 41.7716 1332.16 41.827 1332.58 41.9964C1333.13 42.2249 1333.57 42.2263 1334.62 42.0032C1335.95 41.7192 1336.28 41.5366 1335.47 41.5366C1335.24 41.5366 1334.86 41.6331 1334.52 41.7787H1334.52Z" fill="white"/>
<path d="M1300.41 42.578C1300.75 42.8201 1301.28 42.9547 1301.59 42.8805C1301.91 42.806 1301.64 42.6143 1300.98 42.445C1300.05 42.209 1299.93 42.239 1300.41 42.578Z" fill="white"/>
<path d="M1073.09 27.7106C1072.74 27.8559 1072.66 28.032 1072.91 28.0979C1073.17 28.1625 1073.64 28.0496 1073.93 27.8558C1074.58 27.4199 1074.04 27.326 1073.09 27.7105V27.7106Z" fill="white"/>
<path d="M1309.01 31.2973C1308.16 31.4388 1308.04 31.5336 1308.73 31.5336C1309.39 31.5336 1310.11 31.4327 1310.45 31.2912C1311.16 30.9967 1310.81 30.9985 1309.01 31.2973V31.2973Z" fill="white"/>
<path d="M1299.43 34.3671C1298.24 34.7545 1298.28 34.7667 1299.76 34.4759C1300.71 34.2889 1301.42 34.1074 1301.42 34.0523C1301.42 33.8388 1300.68 33.9554 1299.43 34.3671V34.3671Z" fill="white"/>
<path d="M547.513 3.02293C546.374 2.6462 546.423 2.63664 547.941 2.93821C549.553 3.25823 550.011 3.44694 549.174 3.44694C548.957 3.44694 548.246 3.2653 547.513 3.02293V3.02293Z" fill="white"/>
<path d="M551.024 2.64758C551.367 2.40549 551.894 2.27085 552.21 2.34489C552.529 2.41935 552.257 2.61111 551.594 2.78083C550.671 3.01654 550.544 2.98645 551.024 2.64758Z" fill="white"/>
<path d="M1256.39 29.3512C1256.39 29.4202 1256.96 29.5916 1257.72 29.7507C1258.76 29.9693 1259.2 29.9618 1259.76 29.7143C1260.14 29.5446 1260.12 29.4833 1259.71 29.5814C1259.32 29.6752 1258.34 29.6345 1257.67 29.4968C1257.01 29.3581 1256.39 29.2882 1256.39 29.3512H1256.39Z" fill="white"/>
<path d="M1262.56 29.763C1262.22 29.9083 1262.56 29.9483 1263.41 29.8627C1265.03 29.7011 1265.33 29.5209 1263.99 29.5209C1263.47 29.5209 1262.9 29.6175 1262.56 29.763H1262.56Z" fill="white"/>
<path d="M1255.35 30.901C1254.17 31.2886 1254.2 31.3005 1255.68 31.0102C1256.63 30.8231 1257.34 30.6416 1257.34 30.5866C1257.34 30.373 1256.6 30.4894 1255.35 30.901V30.901Z" fill="white"/>
<path d="M630.646 33.9165C630.931 34.0399 631.463 34.0691 631.974 33.9897C633.307 33.7832 633.209 33.7104 631.595 33.7104C630.835 33.7104 630.393 33.8064 630.646 33.9165H630.646Z" fill="white"/>
<path d="M640.029 33.8798C639.674 34.0254 639.592 34.2015 639.851 34.2675C640.104 34.3321 640.577 34.2188 640.864 34.0254C641.512 33.5895 640.97 33.4953 640.028 33.8798H640.029Z" fill="white"/>
<path d="M636.247 49.622C635.921 49.76 636.104 49.8641 636.674 49.8641C637.243 49.8641 637.67 49.76 637.67 49.622C637.67 49.4764 637.499 49.3796 637.243 49.3796C636.987 49.3796 636.589 49.4766 636.247 49.622Z" fill="white"/>
<path d="M1123.06 50.3486C1122.74 50.4865 1122.92 50.5907 1123.49 50.5907C1124.06 50.5907 1124.49 50.4865 1124.49 50.3486C1124.49 50.203 1124.32 50.1062 1124.06 50.1062C1123.8 50.1062 1123.4 50.2031 1123.06 50.3486Z" fill="white"/>
<path d="M1110.77 50.9055C1111.12 51.1473 1111.64 51.2822 1111.96 51.2082C1112.28 51.1334 1112.01 50.942 1111.34 50.7722C1110.42 50.5368 1110.29 50.5662 1110.77 50.9055Z" fill="white"/>
<path d="M612.566 56.645C612.255 56.7759 612.37 56.9117 612.854 56.984C613.284 57.0491 613.661 56.9358 613.661 56.7424C613.661 56.3306 613.375 56.305 612.565 56.6452L612.566 56.645Z" fill="white"/>
<path d="M640.801 57.5291C640.801 57.7715 641.134 57.7873 642.082 57.59C642.747 57.4516 643.363 57.2945 643.363 57.2629C643.363 57.2313 642.747 57.2023 642.082 57.2023C641.418 57.2023 640.801 57.3596 640.801 57.5291V57.5291Z" fill="white"/>
<path d="M636.29 57.6137C635.979 57.7448 636.095 57.8804 636.579 57.9532C637.009 58.0178 637.385 57.9046 637.385 57.7108C637.385 57.299 637.099 57.2739 636.29 57.6139V57.6137Z" fill="white"/>
<path d="M1051.88 61.0047C1051.52 61.1499 1051.44 61.3259 1051.7 61.3918C1051.96 61.4568 1052.43 61.3436 1052.72 61.1497C1053.36 60.7138 1052.82 60.6199 1051.88 61.0045V61.0047Z" fill="white"/>
<path d="M1153.9 62.4576C1153.9 62.5883 1154.29 62.7341 1154.85 62.821C1155.42 62.9081 1155.58 62.821 1155.24 62.603C1154.61 62.1912 1153.9 62.1144 1153.9 62.4576Z" fill="white"/>
<path d="M672.401 67.8224C672.687 67.9458 673.217 67.9749 673.731 67.8955C675.063 67.689 674.964 67.6162 673.351 67.6162C672.592 67.6162 672.149 67.7121 672.401 67.8224V67.8224Z" fill="white"/>
<path d="M668.037 68.0156C668.037 68.1537 668.358 68.2941 668.843 68.3669C669.288 68.4336 669.649 68.3305 669.649 68.1368C669.649 67.9429 669.287 67.7854 668.843 67.7854C668.358 67.7854 668.037 67.878 668.037 68.0156Z" fill="white"/>
<path d="M1176.3 68.5485C1176.59 68.6724 1177.12 68.7011 1177.63 68.622C1178.96 68.4156 1178.86 68.3428 1177.25 68.3428C1176.49 68.3428 1176.05 68.4387 1176.3 68.5485V68.5485Z" fill="white"/>
<path d="M1169.09 68.7665C1169.09 68.9121 1169.5 68.9583 1170.04 68.8754C1170.61 68.7883 1170.99 68.6867 1170.99 68.6209C1170.99 68.5559 1170.61 68.5121 1170.04 68.5121C1169.5 68.5121 1169.09 68.6209 1169.09 68.7665Z" fill="white"/>
<path d="M647.158 71.2006C647.158 71.4668 647.563 71.6194 648.06 71.5396C648.575 71.4565 648.74 71.2491 648.446 71.055C647.692 70.5589 647.158 70.619 647.158 71.2006V71.2006Z" fill="white"/>
<path d="M653.801 71.906C652.581 72.1106 652.615 72.1446 654.038 72.1446C654.987 72.1446 655.699 72.0413 655.699 71.9025C655.699 71.6036 655.604 71.6039 653.801 71.9059V71.906Z" fill="white"/>
<path d="M1091.79 72.3869C1091.48 72.5179 1091.6 72.6535 1092.08 72.7263C1092.51 72.7909 1092.89 72.6779 1092.89 72.4839C1092.89 72.0724 1092.6 72.0469 1091.79 72.387V72.3869Z" fill="white"/>
<path d="M788.553 73.3559C788.553 73.4869 788.933 73.6317 789.502 73.719C790.072 73.8061 790.227 73.719 789.893 73.5011C789.26 73.0898 788.553 73.0129 788.553 73.3559V73.3559Z" fill="white"/>
<path d="M816.168 74.712C816.229 75.0028 816.438 75.0561 816.738 74.8576C816.994 74.688 816.95 74.4757 816.643 74.3973C816.343 74.321 816.12 74.47 816.169 74.712H816.168Z" fill="white"/>
<path d="M1130.66 74.8089C1131 74.954 1131.4 75.051 1131.65 75.051C1131.91 75.051 1132.08 74.954 1132.08 74.8089C1132.08 74.6704 1131.65 74.5668 1131.08 74.5668C1130.51 74.5668 1130.33 74.6704 1130.66 74.8089H1130.66Z" fill="white"/>
<path d="M873.961 75.2571C873.961 75.3706 874.579 75.4628 875.337 75.4628C876.095 75.4628 876.499 75.3706 876.238 75.2571C875.954 75.1332 875.403 75.051 874.862 75.051C874.321 75.051 873.961 75.1332 873.961 75.2571Z" fill="white"/>
<path d="M1091.61 75.2326C1091.95 75.375 1091.7 75.5403 1091.04 75.6083C1090.31 75.6821 1090.51 75.7369 1091.56 75.7484C1093.46 75.7697 1093.8 75.4137 1092.13 75.1551C1091.46 75.0519 1091.24 75.0844 1091.61 75.2327V75.2326Z" fill="white"/>
<path d="M798.755 76.2982C799.418 76.4678 800.171 76.537 800.463 76.4556C800.754 76.375 800.225 76.2404 799.277 76.153C797.948 76.0306 797.832 76.0629 798.755 76.2982Z" fill="white"/>
<path d="M693.658 76.3592C693.658 76.4254 694.512 76.6 695.556 76.7464C696.6 76.893 697.454 76.9586 697.454 76.8916C697.454 76.8249 696.6 76.6505 695.556 76.5043C694.512 76.3578 693.658 76.2925 693.658 76.3592Z" fill="white"/>
<path d="M689.861 76.6012C689.861 76.6567 690.574 76.8382 691.521 77.025C692.998 77.3153 693.035 77.3034 691.855 76.916C690.599 76.5042 689.861 76.3876 689.861 76.6012V76.6012Z" fill="white"/>
<path d="M619.355 78.4418C619.615 78.7081 620 78.9259 620.208 78.9259C620.417 78.9259 620.588 78.7081 620.588 78.4418C620.588 78.1757 620.204 77.9572 619.734 77.9572C619.264 77.9572 619.094 78.1755 619.355 78.4418Z" fill="white"/>
<path d="M737.311 78.0542C737.311 78.1093 738.023 78.2916 738.972 78.4778C740.448 78.7686 740.484 78.7567 739.304 78.369C738.049 77.9572 737.311 77.8406 737.311 78.0542V78.0542Z" fill="white"/>
<path d="M1203.96 78.4779C1204.63 78.6476 1205.38 78.717 1205.67 78.6354C1205.96 78.5549 1205.43 78.4201 1204.48 78.3332C1203.15 78.2103 1203.04 78.2426 1203.96 78.4779H1203.96Z" fill="white"/>
<path d="M819.439 78.926C819.128 79.0571 819.242 79.1928 819.727 79.2652C820.157 79.3298 820.533 79.2169 820.533 79.0231C820.533 78.6113 820.248 78.586 819.439 78.9262V78.926Z" fill="white"/>
<path d="M810.381 80.137C810.381 80.2756 810.808 80.3789 811.377 80.3789C811.947 80.3789 812.129 80.2756 811.804 80.137C811.462 79.9918 811.064 79.8949 810.808 79.8949C810.552 79.8949 810.381 79.9918 810.381 80.137Z" fill="white"/>
<path d="M945.133 80.143C944.279 80.2849 944.165 80.3789 944.847 80.3789C945.513 80.3789 946.23 80.2779 946.57 80.1369C947.281 79.8424 946.935 79.8442 945.133 80.143Z" fill="white"/>
<path d="M1086.62 80.4639C1085.85 80.7061 1085.91 80.7909 1086.86 80.7909C1087.52 80.7909 1088.14 80.6333 1088.14 80.4639C1088.14 80.2943 1088.03 80.137 1087.9 80.137C1087.78 80.137 1087.16 80.2943 1086.62 80.4639Z" fill="white"/>
<path d="M696.079 80.7909C695.599 81.1299 695.725 81.1595 696.649 80.9242C697.312 80.7549 697.584 80.5628 697.264 80.4887C696.948 80.4145 696.421 80.5488 696.079 80.7911V80.7909Z" fill="white"/>
<path d="M856.879 80.8636C856.879 81.0019 857.306 81.1056 857.875 81.1056C858.444 81.1056 858.627 81.0019 858.303 80.8636C857.96 80.7181 857.563 80.6215 857.306 80.6215C857.05 80.6215 856.879 80.7181 856.879 80.8636V80.8636Z" fill="white"/>
<path d="M1145.46 81.009C1145.52 81.2995 1145.73 81.3528 1146.03 81.1542C1146.28 80.9846 1146.24 80.7721 1145.93 80.6943C1145.63 80.6173 1145.41 80.7667 1145.46 81.009Z" fill="white"/>
<path d="M627.706 81.1056C627.38 81.244 627.563 81.348 628.132 81.348C628.702 81.348 629.129 81.244 629.129 81.1056C629.129 80.9604 628.958 80.8635 628.702 80.8635C628.446 80.8635 628.046 80.9604 627.706 81.1056Z" fill="white"/>
<path d="M708.842 81.0937C708.842 81.2161 709.506 81.2617 710.265 81.1906C711.023 81.1196 711.687 81.0122 711.687 80.9604C711.687 80.9087 711.024 80.8635 710.265 80.8635C709.506 80.8635 708.842 80.9707 708.842 81.0937Z" fill="white"/>
<path d="M973.127 82.0747C973.469 82.2195 973.867 82.3163 974.123 82.3163C974.379 82.3163 974.551 82.2194 974.551 82.0747C974.551 81.936 974.123 81.8323 973.554 81.8323C972.984 81.8323 972.802 81.936 973.127 82.0747V82.0747Z" fill="white"/>
<path d="M1137.3 82.3164C1136.96 82.462 1137.3 82.5016 1138.15 82.416C1139.76 82.2548 1140.07 82.0746 1138.72 82.0746C1138.21 82.0746 1137.64 82.1712 1137.3 82.3163V82.3164Z" fill="white"/>
<path d="M1263.86 70.4809C1263.59 70.5987 1263.95 70.6867 1264.72 70.6867C1265.47 70.6867 1265.84 70.5987 1265.57 70.4809C1265.28 70.3577 1264.94 70.2749 1264.72 70.2749C1264.49 70.2749 1264.15 70.3575 1263.86 70.4809Z" fill="white"/>
<path d="M1072.77 83.5277C1072.44 83.6656 1072.62 83.7699 1073.2 83.7699C1073.76 83.7699 1074.19 83.6658 1074.19 83.5277C1074.19 83.3821 1074.02 83.2853 1073.76 83.2853C1073.51 83.2853 1073.11 83.3822 1072.77 83.5277Z" fill="white"/>
<path d="M911.588 84.375C911.866 84.569 912.552 84.7384 913.058 84.7384C913.628 84.7384 913.552 84.5932 912.869 84.375C912.261 84.1816 911.575 84.0118 911.398 84.0118C911.221 84.0118 911.309 84.1816 911.588 84.375Z" fill="white"/>
<path d="M1183.79 84.7384C1183.43 84.8838 1183.35 85.0598 1183.61 85.1258C1183.86 85.1909 1184.33 85.0774 1184.62 84.8837C1185.27 84.4478 1184.73 84.3539 1183.79 84.7384V84.7384Z" fill="white"/>
<path d="M855.445 85.2228C855.089 85.3683 855.008 85.5444 855.266 85.6104C855.52 85.6747 855.993 85.5618 856.28 85.3683C856.926 84.9323 856.387 84.8382 855.445 85.2228V85.2228Z" fill="white"/>
<path d="M697.122 85.8284C697.4 86.0222 697.821 86.1915 698.024 86.1915C698.227 86.1915 698.403 86.0222 698.403 85.8284C698.403 85.6347 697.984 85.465 697.502 85.465C697.022 85.465 696.844 85.6347 697.122 85.8284Z" fill="white"/>
<path d="M1256.41 75.1551C1257.07 75.3248 1257.83 75.3937 1258.12 75.3125C1258.41 75.232 1257.88 75.0973 1256.93 75.0099C1255.6 74.8873 1255.49 74.9198 1256.41 75.1551Z" fill="white"/>
<path d="M874.529 87.1965C874.815 87.32 875.364 87.4022 875.905 87.4022C876.446 87.4022 876.806 87.32 876.806 87.1965C876.806 87.0829 876.189 86.9908 875.43 86.9908C874.672 86.9908 874.267 87.0829 874.529 87.1965Z" fill="white"/>
<path d="M1183.65 88.0442C1184.01 88.1341 1183.56 88.3469 1182.61 88.5408C1181.09 88.8502 1181.14 88.8563 1183.13 88.6112C1185.03 88.3776 1185.35 87.8866 1183.61 87.8866C1183.27 87.8866 1183.28 87.9498 1183.65 88.0442Z" fill="white"/>
<path d="M1248.11 76.6686C1248.11 76.7241 1248.82 76.9056 1249.77 77.0926C1251.25 77.3834 1251.28 77.3712 1250.1 76.9839C1248.85 76.5721 1248.11 76.4555 1248.11 76.6686V76.6686Z" fill="white"/>
<path d="M929.38 88.9961C927.617 89.3561 927.625 89.3582 929.712 89.0977C930.851 88.9556 931.848 88.775 931.848 88.7101C931.848 88.5343 931.373 88.5895 929.38 88.9962V88.9961Z" fill="white"/>
<path d="M886.297 88.9526C886.297 89.0078 887.009 89.1893 887.958 89.3763C889.435 89.6671 889.472 89.6552 888.29 89.2675C887.036 88.8558 886.297 88.7392 886.297 88.9526V88.9526Z" fill="white"/>
<path d="M1086.53 89.3402C1086.53 89.4707 1086.91 89.6159 1087.48 89.7029C1088.05 89.7904 1088.2 89.7029 1087.87 89.485C1087.23 89.0736 1086.53 88.9966 1086.53 89.3402Z" fill="white"/>
<path d="M1157.7 89.4368C1157.7 89.4932 1158.32 89.5948 1159.17 89.6792C1160.03 89.7635 1160.4 89.7227 1160.05 89.5822C1159.52 89.364 1157.7 89.2514 1157.7 89.4368V89.4368Z" fill="white"/>
<path d="M848.801 89.8244C848.447 89.9695 848.365 90.1456 848.624 90.2116C848.878 90.2767 849.349 90.1632 849.638 89.9695C850.286 89.5336 849.744 89.4397 848.801 89.8244V89.8244Z" fill="white"/>
<path d="M795.139 90.1147C794.537 90.6234 794.611 91.0071 795.291 90.9016C795.804 90.8217 795.955 90.6864 795.671 90.563C795.406 90.4478 795.719 90.3038 796.383 90.2362C797.331 90.139 797.331 90.1098 796.383 90.0907C795.719 90.0774 795.171 90.0879 795.139 90.1147Z" fill="white"/>
<path d="M808.008 90.3086C807.666 90.4539 808.008 90.494 808.862 90.4083C810.476 90.2472 810.775 90.0667 809.431 90.0667C808.919 90.0667 808.349 90.1634 808.008 90.3087V90.3086Z" fill="white"/>
<path d="M1259.31 78.4364C1259.97 78.502 1260.8 78.4909 1261.11 78.4126C1261.41 78.3356 1260.83 78.2786 1259.88 78.2917C1258.74 78.3065 1258.53 78.3603 1259.31 78.4364V78.4364Z" fill="white"/>
<path d="M672.354 90.7204C671.874 91.0594 672.001 91.089 672.923 90.8537C673.587 90.6841 673.859 90.4922 673.539 90.4177C673.224 90.3436 672.697 90.4779 672.354 90.7204V90.7204Z" fill="white"/>
<path d="M1312.26 25.4869C1311.98 25.3631 1311.44 25.3339 1310.93 25.4132C1309.6 25.6199 1309.7 25.6927 1311.31 25.6927C1312.07 25.6927 1312.51 25.5968 1312.26 25.4871V25.4869Z" fill="white"/>
<path d="M1316.62 25.293C1316.62 25.1546 1316.3 25.0142 1315.82 24.9418C1315.37 24.8748 1315.01 24.9781 1315.01 25.172C1315.01 25.3654 1315.37 25.5232 1315.82 25.5232C1316.3 25.5232 1316.62 25.4307 1316.62 25.293Z" fill="white"/>
<path d="M1337.5 22.1082C1337.5 21.8416 1337.1 21.6892 1336.6 21.7688C1336.09 21.8521 1335.92 22.0596 1336.22 22.2534C1336.97 22.7495 1337.5 22.6893 1337.5 22.1082Z" fill="white"/>
<path d="M1330.86 21.4028C1332.08 21.1977 1332.05 21.1636 1330.62 21.1636C1329.68 21.1636 1328.96 21.2673 1328.96 21.4057C1328.96 21.7049 1329.06 21.7049 1330.86 21.4026V21.4028Z" fill="white"/>
<path d="M1291.01 16.9497C1291.01 16.8834 1290.15 16.7089 1289.11 16.562C1288.06 16.4158 1287.21 16.3502 1287.21 16.4169C1287.21 16.4834 1288.06 16.658 1289.11 16.8044C1290.15 16.951 1291.01 17.0163 1291.01 16.9497Z" fill="white"/>
<path d="M1294.8 16.7075C1294.8 16.652 1294.09 16.4705 1293.14 16.2838C1291.66 15.993 1291.63 16.0051 1292.81 16.3926C1294.06 16.8044 1294.8 16.921 1294.8 16.7075V16.7075Z" fill="white"/>
<path d="M1365.31 14.867C1365.05 14.6008 1364.66 14.3824 1364.45 14.3824C1364.24 14.3824 1364.07 14.6008 1364.07 14.867C1364.07 15.1333 1364.46 15.3512 1364.93 15.3512C1365.4 15.3512 1365.57 15.1333 1365.31 14.867V14.867Z" fill="white"/>
<path d="M1288.58 12.5181C1289.06 12.1786 1288.94 12.1493 1288.01 12.3846C1287.35 12.5541 1287.08 12.746 1287.4 12.8208C1287.71 12.8945 1288.24 12.7599 1288.58 12.5181Z" fill="white"/>
<path d="M1356.96 12.2028C1357.28 12.0644 1357.1 11.9607 1356.53 11.9607C1355.96 11.9607 1355.53 12.0644 1355.53 12.2028C1355.53 12.3484 1355.7 12.4452 1355.96 12.4452C1356.22 12.4452 1356.61 12.3482 1356.96 12.2028Z" fill="white"/>
<path d="M1275.82 12.2151C1275.82 12.0922 1275.16 12.047 1274.4 12.1182C1273.64 12.1892 1272.97 12.2963 1272.97 12.3483C1272.97 12.4001 1273.64 12.4453 1274.4 12.4453C1275.16 12.4453 1275.82 12.3378 1275.82 12.2151Z" fill="white"/>
<path d="M1287.54 7.48045C1287.26 7.28661 1286.84 7.11731 1286.64 7.11731C1286.44 7.11731 1286.26 7.28661 1286.26 7.48045C1286.26 7.67429 1286.68 7.84386 1287.16 7.84386C1287.64 7.84386 1287.82 7.67429 1287.54 7.48045Z" fill="white"/>
<path d="M1312.31 2.58839C1312.79 2.24937 1312.66 2.21942 1311.74 2.45514C1311.07 2.62485 1310.8 2.81661 1311.12 2.89107C1311.44 2.96525 1311.96 2.83048 1312.31 2.58839Z" fill="white"/>
<path d="M895.787 90.8051C895.787 90.9507 896.194 90.9971 896.735 90.9142C897.305 90.8271 897.684 90.7252 897.684 90.6598C897.684 90.5942 897.304 90.5507 896.735 90.5507C896.194 90.5507 895.787 90.6598 895.787 90.8051Z" fill="white"/>
<path d="M1052.37 90.8896C1052.37 90.9452 1053.08 91.127 1054.03 91.3133C1055.5 91.6045 1055.54 91.5922 1054.36 91.2046C1053.1 90.7928 1052.37 90.6762 1052.37 90.8896Z" fill="white"/>
<path d="M1140.52 91.6892C1139.34 92.0769 1139.38 92.0887 1140.86 91.798C1141.8 91.6113 1142.52 91.4298 1142.52 91.3745C1142.52 91.1609 1141.78 91.2775 1140.52 91.6892V91.6892Z" fill="white"/>
<path d="M543.801 37.2577C544.142 37.4033 543.801 37.4431 542.947 37.3577C541.333 37.1959 541.033 37.0156 542.378 37.0156C542.891 37.0156 543.459 37.1125 543.801 37.2577V37.2577Z" fill="white"/>
<path d="M567.24 40.0911C566.576 40.1564 565.742 40.1451 565.436 40.0669C565.137 39.9904 565.722 39.933 566.67 39.9459C567.809 39.9612 568.019 40.0145 567.24 40.0911V40.0911Z" fill="white"/>
<path d="M578.438 43.0702C578.438 43.2009 578.058 43.3463 577.489 43.4334C576.92 43.5207 576.763 43.4334 577.098 43.2154C577.731 42.8036 578.438 42.7271 578.438 43.0702V43.0702Z" fill="white"/>
<path d="M579.813 43.8692C579.472 44.1113 578.944 44.2459 578.628 44.1722C578.309 44.0974 578.58 43.9057 579.245 43.7363C580.167 43.5005 580.294 43.5302 579.813 43.8692V43.8692Z" fill="white"/>
<path d="M598.841 47.1873C599.167 47.3257 598.983 47.4294 598.413 47.4294C597.845 47.4294 597.418 47.3257 597.418 47.1873C597.418 47.0417 597.589 46.9449 597.845 46.9449C598.101 46.9449 598.499 47.0419 598.841 47.1873Z" fill="white"/>
<path d="M611.128 47.7444C610.786 47.9867 610.258 48.1211 609.942 48.0469C609.623 47.9724 609.895 47.7807 610.559 47.611C611.482 47.3757 611.608 47.4052 611.128 47.7442V47.7444Z" fill="white"/>
<path d="M567.999 59.2962C567.999 59.4271 567.619 59.5727 567.05 59.6597C566.48 59.7467 566.324 59.6596 566.659 59.4417C567.292 59.0299 567.999 58.9531 567.999 59.2961V59.2962Z" fill="white"/>
<path d="M545.605 65.3871C545.319 65.5109 544.788 65.5403 544.275 65.4606C542.943 65.2543 543.042 65.1816 544.655 65.1816C545.415 65.1816 545.857 65.2776 545.605 65.3873V65.3871Z" fill="white"/>
<path d="M552.815 65.6052C552.815 65.7507 552.409 65.7969 551.867 65.7141C551.297 65.6269 550.918 65.5252 550.918 65.4599C550.918 65.3948 551.297 65.351 551.867 65.351C552.409 65.351 552.815 65.4599 552.815 65.6054V65.6052Z" fill="white"/>
<path d="M630.112 69.2258C630.422 69.3568 630.307 69.4924 629.824 69.5649C629.393 69.6294 629.018 69.5165 629.018 69.3227C629.018 68.9109 629.303 68.8855 630.112 69.2258V69.2258Z" fill="white"/>
<path d="M591.248 71.6477C590.907 71.7931 590.508 71.8898 590.252 71.8898C589.995 71.8898 589.824 71.7931 589.824 71.6477C589.824 71.5093 590.252 71.406 590.82 71.406C591.39 71.406 591.573 71.5093 591.248 71.6477Z" fill="white"/>
<path d="M630.298 72.0716C629.953 72.2142 630.203 72.379 630.867 72.447C631.592 72.5212 631.39 72.5755 630.346 72.5872C628.448 72.6089 628.106 72.2526 629.776 71.9939C630.44 71.8907 630.657 71.923 630.298 72.0716Z" fill="white"/>
<path d="M635.28 77.3025C636.053 77.5446 635.991 77.6294 635.043 77.6294C634.378 77.6294 633.762 77.472 633.762 77.3025C633.762 77.133 633.876 76.9755 633.999 76.9755C634.122 76.9755 634.739 77.133 635.28 77.3025Z" fill="white"/>
<path d="M576.445 77.8477C576.385 78.1381 576.174 78.1917 575.875 77.9929C575.62 77.8236 575.664 77.611 575.97 77.5327C576.269 77.4563 576.494 77.6051 576.445 77.8477V77.8477Z" fill="white"/>
<path d="M584.606 79.1557C584.947 79.3008 584.606 79.3409 583.751 79.2552C582.138 79.0938 581.838 78.9136 583.183 78.9136C583.695 78.9136 584.263 79.0101 584.606 79.1557V79.1557Z" fill="white"/>
<path d="M649.134 80.3664C649.46 80.5044 649.277 80.6085 648.707 80.6085C648.138 80.6085 647.711 80.5045 647.711 80.3664C647.711 80.2208 647.882 80.1239 648.138 80.1239C648.394 80.1239 648.793 80.2208 649.134 80.3664Z" fill="white"/>
<path d="M538.119 81.5773C538.474 81.7225 538.555 81.8987 538.297 81.9647C538.043 82.0296 537.571 81.9163 537.283 81.7225C536.636 81.2865 537.177 81.1927 538.119 81.5773V81.5773Z" fill="white"/>
<path d="M538.249 84.8831C537.897 84.9733 538.344 85.1858 539.293 85.3796C540.809 85.6889 540.764 85.6955 538.771 85.4499C536.874 85.2163 536.553 84.7257 538.297 84.7257C538.639 84.7257 538.62 84.7885 538.25 84.8831H538.249Z" fill="white"/>
<path d="M635.375 86.1789C635.375 86.3094 634.995 86.4547 634.426 86.5421C633.857 86.6293 633.701 86.5421 634.035 86.3241C634.668 85.9123 635.375 85.8356 635.375 86.1789V86.1789Z" fill="white"/>
<path d="M564.204 86.2755C564.204 86.3319 563.587 86.4337 562.733 86.518C561.879 86.6023 561.509 86.5615 561.851 86.421C562.381 86.2027 564.205 86.0902 564.205 86.2755H564.204Z" fill="white"/>
<path d="M581.38 88.5281C582.561 88.9156 582.524 88.9275 581.048 88.6368C580.099 88.4504 579.387 88.2685 579.387 88.213C579.387 87.9995 580.125 88.1163 581.38 88.5281Z" fill="white"/>
<path d="M365.54 61.3831C366.232 61.4421 366.828 61.366 367.027 61.1934C367.204 61.0399 366.574 60.9552 365.678 61.012C363.775 61.1329 363.738 61.23 365.54 61.3831Z" fill="white"/>
<path d="M459.386 3.30154C459.446 3.5923 459.655 3.64596 459.954 3.44713C460.21 3.27742 460.167 3.06528 459.859 2.98707C459.561 2.91054 459.335 3.05987 459.386 3.30154Z" fill="white"/>
<path d="M383.847 7.51553C384.188 7.66098 384.587 7.7579 384.843 7.7579C385.1 7.7579 385.271 7.66098 385.271 7.51553C385.271 7.37715 384.843 7.27344 384.275 7.27344C383.706 7.27344 383.522 7.37715 383.848 7.51553H383.847Z" fill="white"/>
<path d="M372.936 8.72664C372.936 8.85725 373.314 9.00284 373.885 9.08978C374.455 9.17685 374.61 9.08978 374.276 8.87181C373.642 8.46 372.936 8.38347 372.936 8.7265L372.936 8.72664Z" fill="white"/>
<path d="M407.952 8.89593C406.772 9.28361 406.808 9.29539 408.285 9.00519C409.233 8.81814 409.945 8.63664 409.945 8.58118C409.945 8.36793 409.207 8.48454 407.952 8.89593Z" fill="white"/>
<path d="M171.342 2.12688C170.862 2.46589 170.989 2.49542 171.912 2.26012C172.576 2.09041 172.846 1.89865 172.528 1.82419C172.212 1.75001 171.685 1.88479 171.342 2.12688V2.12688Z" fill="white"/>
<path d="M375.782 10.4217C375.782 10.56 376.209 10.6638 376.778 10.6638C377.347 10.6638 377.53 10.56 377.204 10.4217C376.863 10.2765 376.465 10.1796 376.208 10.1796C375.952 10.1796 375.781 10.2765 375.781 10.4217H375.782Z" fill="white"/>
<path d="M174.188 2.85315C173.708 3.19258 173.835 3.22211 174.757 2.98681C175.421 2.8171 175.694 2.62534 175.375 2.55088C175.059 2.4767 174.531 2.61147 174.188 2.85315V2.85315Z" fill="white"/>
<path d="M233.214 3.33784C233.877 3.40592 234.921 3.40592 235.586 3.33784C236.25 3.27018 235.73 3.2168 234.399 3.2168C233.071 3.2168 232.55 3.27018 233.214 3.33784Z" fill="white"/>
<path d="M471.199 11.8022C470.72 12.1412 470.846 12.1708 471.769 11.9355C472.434 11.7659 472.705 11.574 472.386 11.4995C472.069 11.4253 471.542 11.5597 471.199 11.8021V11.8022Z" fill="white"/>
<path d="M464.035 12.1171C464.035 12.2576 464.651 12.3592 465.506 12.3592C466.359 12.3592 466.738 12.2576 466.407 12.1171C466.066 11.9715 465.478 11.875 464.937 11.875C464.397 11.875 464.035 11.9716 464.035 12.1171Z" fill="white"/>
<path d="M459.386 13.231C459.446 13.5218 459.655 13.5752 459.954 13.3762C460.21 13.2069 460.167 12.9944 459.859 12.9166C459.561 12.8396 459.335 12.989 459.386 13.231Z" fill="white"/>
<path d="M218.742 5.34805C219.084 5.49336 219.483 5.59014 219.738 5.59014C219.995 5.59014 220.166 5.49322 220.166 5.34805C220.166 5.20967 219.738 5.10596 219.17 5.10596C218.601 5.10596 218.417 5.20967 218.742 5.34805Z" fill="white"/>
<path d="M209.252 5.59011C209.594 5.7357 209.992 5.83221 210.248 5.83221C210.506 5.83221 210.676 5.73556 210.676 5.59011C210.676 5.45174 210.248 5.34802 209.679 5.34802C209.111 5.34802 208.927 5.45174 209.252 5.59011H209.252Z" fill="white"/>
<path d="M176.083 6.3168C175.773 6.44741 175.887 6.58343 176.371 6.65581C176.801 6.72042 177.178 6.60756 177.178 6.41372C177.178 6.00191 176.892 5.97667 176.083 6.3168Z" fill="white"/>
<path d="M101.02 7.79389C100.606 7.96347 100.728 8.01893 101.309 7.92714C101.866 7.8391 102.514 7.90302 102.78 8.07231C103.121 8.29028 103.277 8.29375 103.336 8.08452C103.451 7.67271 101.813 7.46736 101.02 7.79376V7.79389Z" fill="white"/>
<path d="M188.613 7.80611C189.277 7.97541 190.028 8.04473 190.32 7.96348C190.611 7.88265 190.083 7.74829 189.133 7.6608C187.805 7.53837 187.689 7.57039 188.613 7.80611H188.613Z" fill="white"/>
<path d="M188.375 8.73855C188.034 8.88414 188.375 8.92393 189.23 8.83824C190.843 8.67699 191.143 8.49646 189.798 8.49646C189.287 8.49646 188.717 8.59338 188.375 8.73855V8.73855Z" fill="white"/>
<path d="M144.105 9.40469C142.966 9.78141 143.014 9.79057 144.534 9.48927C146.147 9.16897 146.603 8.98096 145.767 8.98096C145.549 8.98096 144.839 9.1626 144.105 9.40469Z" fill="white"/>
<path d="M305.668 9.36823C305.73 9.65899 305.938 9.71237 306.238 9.51381C306.494 9.34424 306.45 9.13168 306.143 9.05348C305.845 8.97694 305.619 9.12627 305.669 9.36823H305.668Z" fill="white"/>
<path d="M272.359 10.1976C271.505 10.3395 271.392 10.4339 272.074 10.4339C272.738 10.4339 273.456 10.3329 273.797 10.1918C274.508 9.89701 274.163 9.89867 272.359 10.1976V10.1976Z" fill="white"/>
<path d="M278.147 12.2745C278.207 12.5653 278.416 12.6187 278.717 12.4198C278.973 12.2505 278.929 12.038 278.622 11.9598C278.322 11.8832 278.098 12.0321 278.147 12.2745H278.147Z" fill="white"/>
<path d="M129.776 15.7497C129.331 16.1615 129.435 16.2485 130.156 16.0646C130.693 15.9279 130.978 15.6652 130.773 15.4953C130.564 15.3213 130.119 15.4351 129.776 15.7497H129.776Z" fill="white"/>
<path d="M229.182 17.2149C229.523 17.3605 229.922 17.4574 230.178 17.4574C230.435 17.4574 230.605 17.3605 230.605 17.2149C230.605 17.0765 230.178 16.9728 229.609 16.9728C229.04 16.9728 228.856 17.0765 229.182 17.2149Z" fill="white"/>
<path d="M261.92 17.4632C261.065 17.6051 260.952 17.6995 261.635 17.6995C262.299 17.6995 263.016 17.5986 263.358 17.4574C264.067 17.1626 263.723 17.1643 261.92 17.4632Z" fill="white"/>
<path d="M568.112 88.3707C568.112 88.3153 567.4 88.1338 566.45 87.947C564.974 87.6562 564.937 87.6686 566.118 88.0557C567.373 88.4675 568.112 88.5843 568.112 88.3707Z" fill="white"/>
<path d="M497.906 76.2806C496.985 76.0389 496.057 75.8987 495.82 75.9661C495.586 76.032 496.342 76.2302 497.48 76.402C499.473 76.7026 499.491 76.6968 497.906 76.2806V76.2806Z" fill="white"/>
<path d="M537.772 87.8621C538.793 87.554 538.738 87.5212 537.41 87.6441C536.557 87.7237 535.844 87.8887 535.844 88.0077C535.844 88.3163 536.406 88.2738 537.772 87.8621Z" fill="white"/>
<path d="M566.64 85.3918C567.12 85.0527 566.993 85.0232 566.07 85.2588C565.406 85.4283 565.134 85.62 565.454 85.6947C565.77 85.7689 566.297 85.6338 566.64 85.3918Z" fill="white"/>
<path d="M491.93 72.3819C492.408 72.0427 492.283 72.0133 491.359 72.2485C490.695 72.4178 490.424 72.6101 490.743 72.6844C491.06 72.7586 491.585 72.6238 491.93 72.3819Z" fill="white"/>
<path d="M497.73 71.5341C498.106 71.3644 498.078 71.3031 497.67 71.4008C497.242 71.5032 496.246 71.4498 495.393 71.2799C494.042 71.0104 494.021 71.0254 495.197 71.4131C496.741 71.9214 496.857 71.9274 497.73 71.5343V71.5341Z" fill="white"/>
<path d="M536.509 79.8704C536.509 79.7071 535.893 79.6136 535.229 79.6764C534.564 79.739 533.947 79.8324 533.947 79.8704C533.947 79.9077 534.563 80.0012 535.229 80.0638C535.893 80.1268 536.509 80.0335 536.509 79.8704Z" fill="white"/>
<path d="M588.513 79.7492C588.171 79.6037 587.773 79.5072 587.517 79.5072C587.261 79.5072 587.09 79.6037 587.09 79.7492C587.09 79.8875 587.517 79.9914 588.086 79.9914C588.656 79.9914 588.839 79.8875 588.513 79.7492Z" fill="white"/>
<path d="M569.06 69.4801C569.06 69.4241 568.444 69.3227 567.589 69.2384C566.735 69.1541 566.365 69.1946 566.706 69.3353C567.236 69.5529 569.06 69.6655 569.06 69.4801V69.4801Z" fill="white"/>
<path d="M545.572 57.4442C544.905 57.2258 544.676 56.9823 545.051 56.8869C545.429 56.7903 545.003 56.7853 544.053 56.875C543.106 56.965 542.515 57.0532 542.677 57.081C542.834 57.1076 543.816 57.2875 544.86 57.4802C546.568 57.7965 546.64 57.7927 545.572 57.4442Z" fill="white"/>
<path d="M539.642 57.2199C540.497 57.0781 540.61 56.9835 539.926 56.9835C539.262 56.9835 538.545 57.0846 538.203 57.2256C537.494 57.5204 537.839 57.5191 539.642 57.2198V57.2199Z" fill="white"/>
<path d="M507.377 56.9717C507.377 56.8265 506.971 56.7797 506.428 56.8626C505.859 56.95 505.48 57.0516 505.48 57.1169C505.48 57.1822 505.859 57.2257 506.428 57.2257C506.971 57.2257 507.377 57.1169 507.377 56.9717Z" fill="white"/>
<path d="M532.999 54.3199C532.999 54.189 532.619 54.0437 532.049 53.9565C531.48 53.8694 531.324 53.9565 531.659 54.1747C532.291 54.5865 532.999 54.663 532.999 54.32V54.3199Z" fill="white"/>
<path d="M560.518 50.9413C560.518 50.8149 559.664 50.5918 558.62 50.4448C557.576 50.2982 556.723 50.2167 556.723 50.2632C556.723 50.3102 557.576 50.5333 558.62 50.7597C559.664 50.9863 560.518 51.0678 560.518 50.9413Z" fill="white"/>
<path d="M580.162 49.343C580.162 49.1489 579.8 48.9918 579.355 48.9918C578.871 48.9918 578.549 49.0836 578.549 49.2217C578.549 49.3601 578.872 49.5006 579.355 49.5733C579.801 49.6399 580.162 49.5366 580.162 49.343Z" fill="white"/>
<path d="M561.847 46.6061C562.119 46.4885 561.752 46.4 560.993 46.4C560.233 46.4 559.866 46.4885 560.138 46.6061C560.422 46.7295 560.765 46.8118 560.993 46.8118C561.221 46.8118 561.563 46.7295 561.847 46.6061Z" fill="white"/>
<path d="M576.557 46.1826C576.497 45.8918 576.287 45.8384 575.987 46.037C575.731 46.2065 575.775 46.4188 576.081 46.4973C576.382 46.5736 576.606 46.4245 576.557 46.1826Z" fill="white"/>
<path d="M592.814 41.1208C593.836 40.8127 593.781 40.7795 592.452 40.9029C591.598 40.982 590.887 41.1473 590.887 41.2663C590.887 41.5748 591.449 41.5325 592.814 41.1207V41.1208Z" fill="white"/>
<path d="M574.565 37.6094C574.565 37.2704 574.355 37.1371 574.09 37.3063C573.824 37.476 573.824 37.7426 574.09 37.9119C574.355 38.0816 574.565 37.9484 574.565 37.6094Z" fill="white"/>
<path d="M268.753 24.2328C269.417 24.4025 270.169 24.4718 270.461 24.3906C270.75 24.3096 270.223 24.175 269.274 24.0876C267.946 23.9652 267.83 23.9975 268.753 24.2328H268.753Z" fill="white"/>
<path d="M268.326 25.0564C268.326 25.2503 268.686 25.4078 269.131 25.4078C269.617 25.4078 269.939 25.3156 269.939 25.1775C269.939 25.0395 269.617 24.8991 269.131 24.8263C268.686 24.7597 268.326 24.8627 268.326 25.0564Z" fill="white"/>
<path d="M22.2246 1.57536C22.2246 1.70625 22.6046 1.85142 23.1739 1.9385C23.7437 2.02557 23.8992 1.9385 23.5648 1.72053C22.9314 1.30914 22.2252 1.23219 22.2252 1.57536H22.2246Z" fill="white"/>
<path d="M28.0127 3.08888C28.2247 3.12285 29.2942 3.3422 30.4327 3.58568C31.9512 3.90972 32.6553 3.94716 33.1843 3.73085C33.6002 3.56128 33.4817 3.50582 32.9 3.59761C32.3693 3.68163 31.3722 3.58568 30.7644 3.39198C30.1576 3.19814 29.1621 3.02856 28.6298 3.02856C28.0606 3.02856 27.7963 3.05435 28.0127 3.08916V3.08888Z" fill="white"/>
<path d="M27.0638 3.90021C27.1241 4.19097 27.3334 4.24435 27.6336 4.0458C27.8885 3.87622 27.844 3.66366 27.5373 3.58574C27.2383 3.5092 27.0132 3.65812 27.0638 3.90021V3.90021Z" fill="white"/>
<path d="M41.0626 3.9367C39.9236 4.31343 39.9709 4.32286 41.4894 4.0217C43.1026 3.70127 43.5603 3.5127 42.7225 3.5127C42.5067 3.5127 41.7944 3.69461 41.0626 3.9367V3.9367Z" fill="white"/>
<path d="M21.2754 7.72656C21.2754 7.7823 21.9876 7.96352 22.9364 8.15057C24.4125 8.44133 24.4495 8.42913 23.2686 8.04145C22.0137 7.62992 21.2754 7.51331 21.2754 7.72656Z" fill="white"/>
<path d="M8.0843 8.98603C8.14465 9.27679 8.35505 9.33017 8.65409 9.13161C8.91017 8.96204 8.86614 8.74948 8.5595 8.67156C8.25992 8.59502 8.03592 8.74393 8.08485 8.98603H8.0843Z" fill="white"/>
<path d="M5.04827 10.2214C3.86682 10.6087 3.90434 10.6209 5.37992 10.3301C6.32921 10.1431 7.03983 9.9616 7.03983 9.90655C7.03983 9.69302 6.30256 9.80963 5.04827 10.2214V10.2214Z" fill="white"/>
<path d="M20.6113 11.638C20.6113 11.8319 20.9729 11.9894 21.4176 11.9894C21.9015 11.9894 22.2245 11.8972 22.2245 11.7591C22.2245 11.6211 21.9015 11.4806 21.4176 11.4083C20.9723 11.3413 20.6113 11.4442 20.6113 11.638V11.638Z" fill="white"/>
<path d="M536.559 40.3254C536.559 40.4563 536.939 40.6015 537.508 40.6888C538.076 40.7755 538.234 40.6888 537.899 40.4709C537.265 40.059 536.559 39.9822 536.559 40.3253L536.559 40.3254Z" fill="white"/>
<path d="M546.522 41.7787C546.211 41.9107 545.477 41.9494 544.908 41.8634C544.298 41.7716 544.161 41.827 544.576 41.9964C545.135 42.2249 545.572 42.2263 546.618 42.0032C547.945 41.7192 548.28 41.5366 547.471 41.5366C547.243 41.5366 546.863 41.6331 546.522 41.7787H546.522Z" fill="white"/>
<path d="M512.406 42.578C512.75 42.8201 513.277 42.9547 513.593 42.8805C513.911 42.806 513.64 42.6143 512.977 42.445C512.054 42.209 511.927 42.239 512.406 42.578Z" fill="white"/>
<path d="M285.093 27.7106C284.737 27.8559 284.657 28.032 284.915 28.0979C285.17 28.1625 285.641 28.0496 285.929 27.8558C286.576 27.4199 286.036 27.326 285.093 27.7105V27.7106Z" fill="white"/>
<path d="M521.009 31.2973C520.156 31.4388 520.042 31.5336 520.725 31.5336C521.389 31.5336 522.107 31.4327 522.448 31.2912C523.158 30.9967 522.812 30.9985 521.009 31.2973V31.2973Z" fill="white"/>
<path d="M511.425 34.3671C510.244 34.7545 510.281 34.7667 511.757 34.4759C512.705 34.2889 513.417 34.1074 513.417 34.0523C513.417 33.8388 512.678 33.9554 511.425 34.3671V34.3671Z" fill="white"/>
<path d="M468.393 29.3512C468.393 29.4202 468.961 29.5916 469.721 29.7507C470.765 29.9693 471.202 29.9618 471.761 29.7143C472.145 29.5446 472.122 29.4833 471.714 29.5814C471.321 29.6752 470.338 29.6345 469.674 29.4968C469.01 29.3581 468.393 29.2882 468.393 29.3512H468.393Z" fill="white"/>
<path d="M474.561 29.763C474.219 29.9083 474.561 29.9483 475.414 29.8627C477.027 29.7011 477.329 29.5209 475.985 29.5209C475.472 29.5209 474.902 29.6175 474.561 29.763H474.561Z" fill="white"/>
<path d="M467.347 30.901C466.169 31.2886 466.205 31.3005 467.681 31.0102C468.628 30.8231 469.342 30.6416 469.342 30.5866C469.342 30.373 468.603 30.4894 467.347 30.901V30.901Z" fill="white"/>
<path d="M335.063 50.3486C334.737 50.4865 334.921 50.5907 335.49 50.5907C336.061 50.5907 336.488 50.4865 336.488 50.3486C336.488 50.203 336.316 50.1062 336.061 50.1062C335.804 50.1062 335.405 50.2031 335.063 50.3486Z" fill="white"/>
<path d="M322.774 50.9055C323.118 51.1473 323.644 51.2822 323.959 51.2082C324.28 51.1334 324.009 50.942 323.343 50.7722C322.421 50.5368 322.294 50.5662 322.774 50.9055Z" fill="white"/>
<path d="M263.88 61.0047C263.524 61.1499 263.444 61.3259 263.702 61.3918C263.955 61.4568 264.428 61.3436 264.716 61.1497C265.363 60.7138 264.822 60.6199 263.88 61.0045V61.0047Z" fill="white"/>
<path d="M365.904 62.4576C365.904 62.5883 366.285 62.7341 366.854 62.821C367.424 62.9081 367.58 62.821 367.244 62.603C366.613 62.1912 365.904 62.1144 365.904 62.4576Z" fill="white"/>
<path d="M388.3 68.5485C388.585 68.6724 389.117 68.7011 389.629 68.622C390.961 68.4156 390.862 68.3428 389.249 68.3428C388.49 68.3428 388.047 68.4387 388.3 68.5485V68.5485Z" fill="white"/>
<path d="M381.088 68.7665C381.088 68.9121 381.496 68.9583 382.037 68.8754C382.606 68.7883 382.987 68.6867 382.987 68.6209C382.987 68.5559 382.606 68.5121 382.037 68.5121C381.496 68.5121 381.088 68.6209 381.088 68.7665Z" fill="white"/>
<path d="M303.792 72.3869C303.482 72.5179 303.596 72.6535 304.08 72.7263C304.511 72.7909 304.887 72.6779 304.887 72.4839C304.887 72.0724 304.601 72.0469 303.792 72.387V72.3869Z" fill="white"/>
<path d="M0.552734 73.3559C0.552734 73.4869 0.9328 73.6317 1.50205 73.719C2.07184 73.8061 2.22733 73.719 1.89296 73.5011C1.25956 73.0898 0.552734 73.0129 0.552734 73.3559V73.3559Z" fill="white"/>
<path d="M28.1683 74.712C28.2286 75.0028 28.438 75.0561 28.7381 74.8576C28.9942 74.688 28.9496 74.4757 28.6435 74.3973C28.3434 74.321 28.1199 74.47 28.1689 74.712H28.1683Z" fill="white"/>
<path d="M342.657 74.8089C342.998 74.954 343.396 75.051 343.653 75.051C343.909 75.051 344.079 74.954 344.079 74.8089C344.079 74.6704 343.653 74.5668 343.083 74.5668C342.513 74.5668 342.331 74.6704 342.657 74.8089H342.657Z" fill="white"/>
<path d="M85.9609 75.2571C85.9609 75.3706 86.5786 75.4628 87.337 75.4628C88.0955 75.4628 88.4994 75.3706 88.2385 75.2571C87.9541 75.1332 87.4034 75.051 86.8624 75.051C86.3214 75.051 85.9609 75.1332 85.9609 75.2571Z" fill="white"/>
<path d="M303.606 75.2326C303.951 75.375 303.699 75.5403 303.035 75.6083C302.311 75.6821 302.513 75.7369 303.558 75.7484C305.455 75.7697 305.797 75.4137 304.126 75.1551C303.462 75.0519 303.245 75.0844 303.606 75.2327V75.2326Z" fill="white"/>
<path d="M10.7546 76.2982C11.4184 76.4678 12.1709 76.537 12.4628 76.4556C12.7537 76.375 12.2253 76.2404 11.2771 76.153C9.94772 76.0306 9.83192 76.0629 10.7546 76.2982Z" fill="white"/>
<path d="M415.961 78.4779C416.625 78.6476 417.377 78.717 417.671 78.6354C417.959 78.5549 417.432 78.4201 416.484 78.3332C415.154 78.2103 415.039 78.2426 415.962 78.4779H415.961Z" fill="white"/>
<path d="M31.4386 78.926C31.1282 79.0571 31.2423 79.1928 31.7268 79.2652C32.1574 79.3298 32.5331 79.2169 32.5331 79.0231C32.5331 78.6113 32.2476 78.586 31.4386 78.9262V78.926Z" fill="white"/>
<path d="M22.3809 80.137C22.3809 80.2756 22.8076 80.3789 23.3769 80.3789C23.9467 80.3789 24.1288 80.2756 23.8037 80.137C23.4623 79.9918 23.0637 79.8949 22.8076 79.8949C22.5516 79.8949 22.3809 79.9918 22.3809 80.137Z" fill="white"/>
<path d="M157.133 80.143C156.279 80.2849 156.165 80.3789 156.847 80.3789C157.513 80.3789 158.23 80.2779 158.57 80.1369C159.281 79.8424 158.935 79.8442 157.133 80.143Z" fill="white"/>
<path d="M298.622 80.4639C297.849 80.7061 297.91 80.7909 298.859 80.7909C299.524 80.7909 300.141 80.6333 300.141 80.4639C300.141 80.2943 300.027 80.137 299.903 80.137C299.782 80.137 299.164 80.2943 298.622 80.4639Z" fill="white"/>
<path d="M68.8789 80.8636C68.8789 81.0019 69.3057 81.1056 69.8749 81.1056C70.4442 81.1056 70.6269 81.0019 70.3034 80.8636C69.9603 80.7181 69.5634 80.6215 69.3057 80.6215C69.0496 80.6215 68.8789 80.7181 68.8789 80.8636V80.8636Z" fill="white"/>
<path d="M357.458 81.009C357.518 81.2995 357.729 81.3528 358.027 81.1542C358.284 80.9846 358.239 80.7721 357.934 80.6943C357.633 80.6173 357.409 80.7667 357.458 81.009Z" fill="white"/>
<path d="M185.127 82.0747C185.469 82.2195 185.867 82.3163 186.123 82.3163C186.379 82.3163 186.551 82.2194 186.551 82.0747C186.551 81.936 186.123 81.8323 185.554 81.8323C184.984 81.8323 184.802 81.936 185.127 82.0747V82.0747Z" fill="white"/>
<path d="M349.297 82.3164C348.955 82.462 349.297 82.5016 350.152 82.416C351.765 82.2548 352.066 82.0746 350.722 82.0746C350.209 82.0746 349.639 82.1712 349.297 82.3163V82.3164Z" fill="white"/>
<path d="M475.86 70.4809C475.59 70.5987 475.955 70.6867 476.715 70.6867C477.474 70.6867 477.84 70.5987 477.569 70.4809C477.284 70.3577 476.943 70.2749 476.715 70.2749C476.487 70.2749 476.146 70.3575 475.86 70.4809Z" fill="white"/>
<path d="M284.768 83.5277C284.443 83.6656 284.624 83.7699 285.195 83.7699C285.764 83.7699 286.191 83.6658 286.191 83.5277C286.191 83.3821 286.021 83.2853 285.764 83.2853C285.508 83.2853 285.11 83.3822 284.768 83.5277Z" fill="white"/>
<path d="M123.588 84.375C123.866 84.569 124.552 84.7384 125.058 84.7384C125.628 84.7384 125.552 84.5932 124.869 84.375C124.261 84.1816 123.575 84.0118 123.398 84.0118C123.221 84.0118 123.309 84.1816 123.588 84.375Z" fill="white"/>
<path d="M395.786 84.7384C395.429 84.8838 395.348 85.0598 395.607 85.1258C395.859 85.1909 396.334 85.0774 396.621 84.8837C397.267 84.4478 396.727 84.3539 395.786 84.7384V84.7384Z" fill="white"/>
<path d="M67.4453 85.2228C67.0892 85.3683 67.0082 85.5444 67.2664 85.6104C67.5198 85.6747 67.9933 85.5618 68.2799 85.3683C68.9263 84.9323 68.387 84.8382 67.4453 85.2228V85.2228Z" fill="white"/>
<path d="M468.411 75.1551C469.075 75.3248 469.827 75.3937 470.12 75.3125C470.408 75.232 469.881 75.0973 468.933 75.0099C467.604 74.8873 467.488 74.9198 468.411 75.1551Z" fill="white"/>
<path d="M86.5293 87.1965C86.8147 87.32 87.3638 87.4022 87.9048 87.4022C88.4458 87.4022 88.8062 87.32 88.8062 87.1965C88.8062 87.0829 88.1891 86.9908 87.4301 86.9908C86.6717 86.9908 86.2667 87.0829 86.5293 87.1965Z" fill="white"/>
<path d="M395.654 88.0442C396.007 88.1341 395.559 88.3469 394.611 88.5408C393.094 88.8502 393.139 88.8563 395.132 88.6112C397.03 88.3776 397.351 87.8866 395.607 87.8866C395.266 87.8866 395.284 87.9498 395.654 88.0442Z" fill="white"/>
<path d="M460.109 76.6686C460.109 76.7241 460.82 76.9056 461.77 77.0926C463.246 77.3834 463.283 77.3712 462.101 76.9839C460.847 76.5721 460.109 76.4555 460.109 76.6686V76.6686Z" fill="white"/>
<path d="M141.38 88.9961C139.617 89.3561 139.625 89.3582 141.712 89.0977C142.851 88.9556 143.848 88.775 143.848 88.7101C143.848 88.5343 143.373 88.5895 141.38 88.9962V88.9961Z" fill="white"/>
<path d="M98.2969 88.9526C98.2969 89.0078 99.0091 89.1893 99.9584 89.3763C101.435 89.6671 101.472 89.6552 100.29 89.2675C99.0358 88.8558 98.2969 88.7392 98.2969 88.9526V88.9526Z" fill="white"/>
<path d="M298.527 89.3402C298.527 89.4707 298.907 89.6159 299.477 89.7029C300.046 89.7904 300.204 89.7029 299.868 89.485C299.234 89.0736 298.527 88.9966 298.527 89.3402Z" fill="white"/>
<path d="M369.701 89.4368C369.701 89.4932 370.317 89.5948 371.172 89.6792C372.025 89.7635 372.396 89.7227 372.054 89.5822C371.524 89.364 369.701 89.2514 369.701 89.4368V89.4368Z" fill="white"/>
<path d="M60.8014 89.8244C60.4469 89.9695 60.3654 90.1456 60.6242 90.2116C60.8775 90.2767 61.3495 90.1632 61.6376 89.9695C62.2857 89.5336 61.7442 89.4397 60.8014 89.8244V89.8244Z" fill="white"/>
<path d="M7.13912 90.1147C6.53671 90.6234 6.61119 91.0071 7.29081 90.9016C7.80406 90.8217 7.95465 90.6864 7.67084 90.563C7.40552 90.4478 7.71869 90.3038 8.38308 90.2362C9.33074 90.139 9.33074 90.1098 8.38308 90.0907C7.71923 90.0774 7.1712 90.0879 7.13912 90.1147Z" fill="white"/>
<path d="M20.0083 90.3086C19.6657 90.4539 20.0083 90.494 20.8619 90.4083C22.4755 90.2472 22.7751 90.0667 21.4311 90.0667C20.9195 90.0667 20.3486 90.1634 20.0083 90.3087V90.3086Z" fill="white"/>
<path d="M471.307 78.4364C471.971 78.502 472.803 78.4909 473.109 78.4126C473.409 78.3356 472.825 78.2786 471.876 78.2917C470.736 78.3065 470.527 78.3603 471.307 78.4364V78.4364Z" fill="white"/>
<path d="M524.261 25.4869C523.975 25.3631 523.445 25.3339 522.932 25.4132C521.599 25.6199 521.698 25.6927 523.311 25.6927C524.07 25.6927 524.513 25.5968 524.261 25.4871V25.4869Z" fill="white"/>
<path d="M528.625 25.293C528.625 25.1546 528.302 25.0142 527.819 24.9418C527.373 24.8748 527.012 24.9781 527.012 25.172C527.012 25.3654 527.373 25.5232 527.819 25.5232C528.302 25.5232 528.625 25.4307 528.625 25.293Z" fill="white"/>
<path d="M549.504 22.1082C549.504 21.8416 549.099 21.6892 548.602 21.7688C548.086 21.8521 547.921 22.0596 548.216 22.2534C548.969 22.7495 549.504 22.6893 549.504 22.1082Z" fill="white"/>
<path d="M542.861 21.4028C544.082 21.1977 544.048 21.1636 542.623 21.1636C541.676 21.1636 540.963 21.2673 540.963 21.4057C540.963 21.7049 541.059 21.7049 542.861 21.4026V21.4028Z" fill="white"/>
<path d="M503.005 16.9497C503.005 16.8834 502.15 16.7089 501.106 16.562C500.064 16.4158 499.209 16.3502 499.209 16.4169C499.209 16.4834 500.064 16.658 501.106 16.8044C502.15 16.951 503.005 17.0163 503.005 16.9497Z" fill="white"/>
<path d="M506.8 16.7075C506.8 16.652 506.089 16.4705 505.14 16.2838C503.664 15.993 503.627 16.0051 504.808 16.3926C506.063 16.8044 506.8 16.921 506.8 16.7075V16.7075Z" fill="white"/>
<path d="M577.308 14.867C577.048 14.6008 576.664 14.3824 576.454 14.3824C576.245 14.3824 576.074 14.6008 576.074 14.867C576.074 15.1333 576.458 15.3512 576.929 15.3512C577.398 15.3512 577.569 15.1333 577.308 14.867V14.867Z" fill="white"/>
<path d="M500.583 12.5181C501.064 12.1786 500.937 12.1493 500.013 12.3846C499.349 12.5541 499.079 12.746 499.397 12.8208C499.713 12.8945 500.24 12.7599 500.583 12.5181Z" fill="white"/>
<path d="M568.956 12.2028C569.283 12.0644 569.099 11.9607 568.529 11.9607C567.959 11.9607 567.533 12.0644 567.533 12.2028C567.533 12.3484 567.704 12.4452 567.959 12.4452C568.216 12.4452 568.615 12.3482 568.956 12.2028Z" fill="white"/>
<path d="M487.821 12.2151C487.821 12.0922 487.158 12.047 486.399 12.1182C485.638 12.1892 484.975 12.2963 484.975 12.3483C484.975 12.4001 485.638 12.4453 486.399 12.4453C487.157 12.4453 487.821 12.3378 487.821 12.2151Z" fill="white"/>
<path d="M499.541 7.48045C499.263 7.28661 498.843 7.11731 498.639 7.11731C498.437 7.11731 498.26 7.28661 498.26 7.48045C498.26 7.67429 498.68 7.84386 499.161 7.84386C499.642 7.84386 499.82 7.67429 499.541 7.48045Z" fill="white"/>
<path d="M524.309 2.58839C524.787 2.24937 524.662 2.21942 523.738 2.45514C523.074 2.62485 522.803 2.81661 523.122 2.89107C523.438 2.96525 523.964 2.83048 524.309 2.58839Z" fill="white"/>
<path d="M107.787 90.8051C107.787 90.9507 108.194 90.9971 108.735 90.9142C109.305 90.8271 109.684 90.7252 109.684 90.6598C109.684 90.5942 109.304 90.5507 108.735 90.5507C108.194 90.5507 107.787 90.6598 107.787 90.8051Z" fill="white"/>
<path d="M264.365 90.8896C264.365 90.9452 265.077 91.127 266.027 91.3133C267.504 91.6045 267.54 91.5922 266.358 91.2046C265.104 90.7928 264.365 90.6762 264.365 90.8896Z" fill="white"/>
<path d="M352.524 91.6892C351.344 92.0769 351.381 92.0887 352.855 91.798C353.805 91.6113 354.517 91.4298 354.517 91.3745C354.517 91.1609 353.78 91.2775 352.524 91.6892V91.6892Z" fill="white"/>
</svg>
