<svg width="224" height="33" viewBox="0 0 224 33" fill="none" xmlns="http://www.w3.org/2000/svg">
<g clip-path="url(#clip0_26_6067)">
<path d="M76.2749 6.44401C82.488 5.92565 89.1587 5.58087 95.4508 4.58874C97.1403 4.3204 99.7653 4.21529 101.805 4.15796C104.894 4.07037 107.985 3.97801 111.1 3.853C114.216 3.724 117.355 3.56555 120.543 3.35454C121.493 3.29164 122.521 3.28925 123.38 3.18972C132.14 2.18643 140.924 2.15618 149.677 1.58685C155.843 1.17997 162.037 1.02947 168.274 0.406803C171.725 0.0644137 175.859 0.0110646 179.68 0.000713266C191.185 -0.0422845 202.798 0.580387 214.241 2.69365C216.022 2.98986 217.669 3.39833 218.909 3.77974C220.149 4.15637 220.966 4.60705 221.089 5.07127C221.233 5.59759 224.019 6.63272 224.002 7.25858C223.981 8.07872 222.726 8.49198 220.41 8.46889C218.088 8.45455 214.685 8.10898 210.268 7.52373C209.278 7.40907 208.281 7.28645 207.286 7.15745L206.535 7.06031L205.783 6.98228C205.28 6.92973 204.775 6.87717 204.273 6.82382C202.263 6.58574 200.234 6.4472 198.219 6.29113C194.355 6.07614 190.501 5.98855 186.628 5.99651L185.173 5.98378L183.718 5.98696C182.748 5.98696 181.775 5.98139 180.8 5.96626C179.827 5.96466 178.848 5.9575 177.87 5.93839C176.891 5.9153 175.906 5.89061 174.922 5.86752C173.517 5.82612 171.96 5.84921 170.361 5.92963C168.764 6.0005 167.131 6.1056 165.573 6.20752C161.142 6.48303 156.733 6.71394 152.331 6.91221C147.926 7.09375 143.538 7.2745 139.138 7.45605C136.328 7.57151 133.411 7.65113 130.689 7.89558C123.497 8.53577 116.306 9.0613 109.038 9.53905C105.585 9.76121 102.246 10.0303 98.737 10.1665C95.1101 10.3082 91.2315 10.7589 87.4575 11.0599C77.4743 11.8769 67.5283 12.8937 57.4924 13.4749C45.89 14.913 33.6048 15.3852 22.0288 17.1274C18.4375 17.664 14.147 18.1211 9.93245 18.2923C0.0669135 18.7175 -1.01171 18.5081 2.60589 16.4649C3.47002 15.9768 4.6222 15.4759 5.91841 14.9846C7.75198 14.2895 9.99749 13.7958 14.1625 13.3579C19.9691 12.74 25.665 11.8474 31.2578 11.0257C35.7403 10.3695 40.0161 9.68556 44.9911 9.38538C46.7844 9.27629 48.7271 8.9968 50.5483 8.77226C58.8776 7.72518 67.3068 6.92813 76.2765 6.44242L76.2749 6.44401Z" fill="#F92F22"/>
<path d="M68.1746 17.3949C71.0047 17.0589 73.9378 16.711 76.8817 16.3614C79.8265 16.015 82.7774 15.6058 85.6369 15.0332C86.4073 14.8812 87.3884 14.7538 88.4136 14.6662C89.4365 14.581 90.5035 14.5221 91.435 14.4783C94.2597 14.3453 97.0844 14.1988 99.9284 14.0164C102.776 13.8468 105.644 13.6748 108.557 13.4256C109.421 13.3531 110.364 13.3404 111.146 13.2329C119.142 12.1723 127.18 12.1245 135.18 11.6109C136.591 11.517 138.001 11.4342 139.412 11.3625C140.825 11.3012 142.24 11.2399 143.656 11.177C146.486 11.0432 149.316 10.8656 152.153 10.5495C155.291 10.2334 159.047 10.1769 162.508 10.0797C165.116 9.99295 167.725 9.97543 170.333 9.92925L178.157 9.81937L185.976 9.80026L189.888 9.79309C191.191 9.79309 192.492 9.81539 193.797 9.82494C197.038 9.85679 199.845 9.94836 200.242 10.7932C200.466 11.2725 203.128 11.6197 203.251 12.2336C203.566 13.8381 199.167 15.0332 190.911 15.2451C187.219 15.3732 183.443 15.3876 179.708 15.4664C177.921 15.4975 176.14 15.5811 174.362 15.6599C172.581 15.734 170.803 15.808 169.019 15.8821C165.457 15.9935 161.884 16.1082 158.269 16.0134C155.691 15.9521 152.553 16.1456 149.711 16.3487C147.683 16.4824 145.664 16.5923 143.651 16.6863C141.635 16.7731 139.628 16.8591 137.62 16.9459C133.609 17.1099 129.606 17.2723 125.597 17.4363C123.037 17.5645 120.381 17.6505 117.9 17.899C114.626 18.2167 111.353 18.5352 108.073 18.8537C104.792 19.165 101.501 19.4174 98.1947 19.7375C95.0557 20.025 92.0173 20.3371 88.8255 20.529C85.5254 20.7583 82.0046 21.2966 78.5752 21.6868C76.3064 21.9352 74.0462 22.2338 71.7829 22.5308C69.5196 22.8238 67.2562 23.116 64.9937 23.4083C62.7304 23.6822 60.4709 24.0102 58.2014 24.2873C55.935 24.57 53.6632 24.8344 51.3828 25.0708C48.761 25.5446 46.102 25.9905 43.4159 26.3886C40.736 26.7963 38.029 27.1523 35.3313 27.5782C32.6305 27.9907 29.9327 28.4087 27.2583 28.8674C26.5908 28.9852 25.9241 29.1031 25.2567 29.2201C24.5931 29.3523 23.9318 29.4821 23.2705 29.6135C21.9503 29.8818 20.6371 30.1645 19.3378 30.4655C17.7241 30.8389 15.9517 31.1988 14.1034 31.5157C12.2521 31.8239 10.3356 32.1432 8.4285 32.3629C-0.508636 33.4212 -1.51679 33.285 1.60447 31.0173C2.34781 30.4766 3.35597 29.9025 4.49576 29.3292C6.10633 28.5178 8.11722 27.8832 11.8757 27.1642C14.503 26.6888 17.0985 26.149 19.6669 25.5781C22.2353 25.0103 24.7774 24.4012 27.3055 23.8637C29.3272 23.4218 31.3048 22.9767 33.3413 22.5698C35.3754 22.1621 37.4707 21.7871 39.7363 21.5387C41.3678 21.3523 43.1278 20.9916 44.7794 20.6819C46.6665 20.3307 48.5597 19.9804 50.466 19.6682C52.3762 19.3625 54.2989 19.0719 56.2408 18.7963C58.1805 18.5208 60.1411 18.2605 62.128 18.016C64.1148 17.7843 66.1304 17.586 68.173 17.3957L68.1746 17.3949Z" fill="#F92F22"/>
</g>
<defs>
<clipPath id="clip0_26_6067">
<rect width="224" height="33" fill="white"/>
</clipPath>
</defs>
</svg>
