<svg width="51" height="91" viewBox="0 0 51 91" fill="none" xmlns="http://www.w3.org/2000/svg">
<path d="M21.9596 59.4841C21.9596 59.4841 21.9596 59.4841 21.9589 59.4841C21.8067 59.4841 21.6834 59.6082 21.6834 59.7611C21.6834 59.8336 21.7129 59.9048 21.7644 59.9569C21.8158 60.0084 21.8863 60.038 21.9596 60.038C22.1125 60.038 22.2358 59.914 22.2358 59.7611C22.2358 59.6082 22.1118 59.4849 21.9596 59.4849V59.4841ZM21.9596 61.1555C21.1908 61.1555 20.5652 60.5305 20.5645 59.7618C20.5637 58.9923 21.1894 58.3659 21.9581 58.3652C21.9589 58.3652 21.9596 58.3652 21.9596 58.3652C22.7283 58.3652 23.354 58.9902 23.3547 59.7589C23.3554 60.5277 22.7304 61.1548 21.961 61.1555C21.9603 61.1555 21.9603 61.1555 21.9596 61.1555Z" fill="#F2B918"/>
<path d="M26.8827 61.8045C26.7298 61.8052 26.6065 61.9285 26.6065 62.0814C26.6065 62.1547 26.6361 62.2251 26.6875 62.2773C26.739 62.3287 26.8101 62.3583 26.8827 62.3583C26.9454 62.3668 27.0271 62.3287 27.0786 62.2773C27.1307 62.2251 27.1596 62.154 27.1596 62.0814C27.1596 62.0088 27.13 61.9377 27.0786 61.8862C27.0271 61.8348 26.956 61.8052 26.8827 61.8052V61.8045ZM26.8841 63.4765C26.1147 63.4765 25.489 62.8515 25.4883 62.0828C25.4876 61.7108 25.6327 61.3599 25.8955 61.0957C26.1591 60.8314 26.5092 60.6863 26.882 60.6863C26.8827 60.6863 26.8827 60.6863 26.8834 60.6863C27.6521 60.6863 28.2778 61.3113 28.2785 62.08C28.2792 62.8487 27.6542 63.4751 26.8855 63.4765C26.8848 63.4765 26.8841 63.4765 26.8841 63.4765Z" fill="#F2B918"/>
<path d="M24.9166 56.0647L24.9173 56.6178C25.0695 56.6171 25.1928 56.4938 25.1928 56.3409C25.1928 56.1887 25.0688 56.0647 24.9166 56.0647ZM24.9159 56.0647C24.763 56.0654 24.6397 56.1887 24.6397 56.3416C24.6397 56.4945 24.7637 56.6178 24.9166 56.6178L24.9159 56.0647ZM24.9166 57.736C24.1479 57.736 23.5222 57.1111 23.5215 56.3423C23.5208 55.5736 24.1465 54.9472 24.9145 54.9458H24.9152C24.9159 54.9458 24.9166 54.9458 24.9166 54.9458C25.6846 54.9458 26.3103 55.5708 26.311 56.3395C26.3117 57.1089 25.6867 57.7353 24.9173 57.736C24.9166 57.736 24.9166 57.736 24.9159 57.736H24.9166Z" fill="#F2B918"/>
<path d="M13.8417 59.5745C13.7691 59.5745 13.6979 59.6041 13.6458 59.6555C13.5943 59.7069 13.5648 59.7788 13.5648 59.8514C13.5648 60.0036 13.6888 60.1269 13.841 60.1269C13.841 60.1269 13.841 60.1269 13.8417 60.1269C13.9946 60.1269 14.1179 60.0029 14.1179 59.85C14.1179 59.6978 13.9939 59.5738 13.841 59.5738L13.8417 59.5745ZM13.8417 61.2458C13.073 61.2458 12.4473 60.6215 12.4473 59.8521C12.4466 59.0834 13.0722 58.4563 13.841 58.4556C13.8417 58.4556 13.8417 58.4556 13.8424 58.4556C14.6111 58.4556 15.2368 59.0805 15.2375 59.8493C15.2382 60.2213 15.0931 60.5722 14.8295 60.8357C14.5667 61.0992 14.2158 61.2451 13.8438 61.2451C13.8431 61.2451 13.8424 61.2451 13.8424 61.2451L13.8417 61.2458Z" fill="#F2B918"/>
<path d="M18.7642 61.8953C18.7642 61.8953 18.7643 61.8953 18.7636 61.8953C18.6107 61.8953 18.4874 62.0193 18.4874 62.1715C18.4874 62.3244 18.6113 62.4477 18.7642 62.4477C18.9171 62.4477 19.0405 62.3237 19.0405 62.1708C19.0398 62.0179 18.9164 61.8953 18.7642 61.8953ZM18.765 63.5673C17.9962 63.5673 17.3706 62.9423 17.3691 62.1736C17.3684 61.4042 17.9941 60.7771 18.7629 60.7764C18.7636 60.7764 18.7642 60.7764 18.7642 60.7764C19.533 60.7764 20.158 61.4014 20.1587 62.1701C20.1594 62.9388 19.5344 63.5652 18.7657 63.5673C18.7657 63.5673 18.765 63.5673 18.7642 63.5673H18.765Z" fill="#F2B918"/>
<path d="M16.7994 56.1558L16.8001 56.7089C16.9523 56.7082 17.0756 56.5842 17.0756 56.432C17.0756 56.2798 16.9516 56.1558 16.7994 56.1558ZM16.7987 56.1558C16.7254 56.1558 16.6543 56.1854 16.6029 56.2368C16.5514 56.289 16.5218 56.3601 16.5218 56.4327C16.5218 56.5053 16.5514 56.5764 16.6029 56.6286C16.655 56.68 16.7261 56.7096 16.7987 56.7096L16.798 56.1565L16.7987 56.1558ZM16.7987 57.8271C16.03 57.8271 15.4043 57.2021 15.4043 56.4334C15.4036 55.6647 16.0286 55.0383 16.7973 55.0369H16.798C16.7987 55.0369 16.7994 55.0369 16.7994 55.0369C17.5682 55.0369 18.1939 55.6619 18.1939 56.4306C18.1939 56.8033 18.0494 57.1535 17.7859 57.4177C17.5231 57.6813 17.1722 57.8264 16.7994 57.8271C16.7994 57.8271 16.7987 57.8271 16.798 57.8271H16.7987Z" fill="#F2B918"/>
<path d="M13.8339 51.2197C13.7613 51.2197 13.6901 51.25 13.6387 51.3008C13.5866 51.3529 13.5577 51.4241 13.5577 51.4967C13.5577 51.6488 13.6817 51.7729 13.8339 51.7729C13.9868 51.7729 14.1101 51.6488 14.1101 51.4959C14.1101 51.4234 14.0805 51.3522 14.029 51.3001C13.9769 51.2486 13.9064 51.219 13.8331 51.219C13.8331 51.219 13.8332 51.219 13.8325 51.219V50.9365V51.219L13.8339 51.2197ZM13.8346 52.8911C13.4625 52.8911 13.1124 52.7466 12.8488 52.4838C12.5853 52.2203 12.4395 51.8701 12.4395 51.4974C12.4387 50.7286 13.0644 50.1015 13.8331 50.1008C13.8339 50.1008 13.8346 50.1008 13.8346 50.1008C14.6033 50.1008 15.229 50.7258 15.2297 51.4945C15.2297 51.8673 15.0845 52.2175 14.8217 52.4817C14.5589 52.7452 14.208 52.8911 13.8353 52.8911C13.8346 52.8911 13.8346 52.8911 13.8339 52.8911H13.8346Z" fill="#F2B918"/>
<path d="M27.6679 74.4866C27.515 74.4866 27.3917 74.6106 27.3917 74.7635C27.3917 74.8368 27.4219 74.9079 27.4727 74.9594C27.6319 75.1179 27.9447 74.989 27.9447 74.7635C27.9447 74.6106 27.8208 74.4873 27.6679 74.4873V74.4866ZM27.6679 76.1579C26.8991 76.1579 26.2741 75.5329 26.2734 74.7642C26.2727 73.9948 26.8977 73.3691 27.6664 73.3677C27.6672 73.3677 27.6678 73.3677 27.6685 73.3677C28.0406 73.3677 28.3901 73.5128 28.6536 73.7749C28.9178 74.0385 29.063 74.3887 29.063 74.7614C29.0637 75.5301 28.438 76.1572 27.6693 76.1579C27.6686 76.1579 27.6679 76.1579 27.6679 76.1579Z" fill="#F2B918"/>
<path d="M32.5904 76.8069H32.5897C32.4375 76.8069 32.3142 76.9309 32.3142 77.0838C32.3142 77.236 32.4382 77.36 32.5911 77.36C32.6644 77.36 32.7356 77.3304 32.787 77.279C32.8392 77.2269 32.868 77.155 32.868 77.0824C32.868 77.0105 32.8384 76.9394 32.787 76.8872C32.7349 76.8358 32.6637 76.8062 32.5911 76.8062L32.5904 76.8069ZM32.589 78.4782C32.2177 78.4782 31.8689 78.3331 31.6047 78.0703C31.3412 77.8074 31.196 77.4566 31.1953 77.0845C31.1946 76.7125 31.3398 76.3616 31.6033 76.0974C31.8668 75.8338 32.217 75.6887 32.589 75.688C32.5897 75.688 32.5904 75.688 32.5904 75.688C33.3591 75.688 33.9848 76.313 33.9848 77.0817C33.9855 77.8504 33.3606 78.4775 32.5911 78.4782C32.5904 78.4782 32.5897 78.4782 32.5883 78.4782H32.589Z" fill="#F2B918"/>
<path d="M30.6256 71.0679C30.6256 71.0679 30.6256 71.0679 30.6249 71.0679C30.472 71.0679 30.3487 71.1919 30.3487 71.3448C30.3487 71.497 30.4727 71.6203 30.6256 71.6203C30.7778 71.6203 30.9018 71.4963 30.9018 71.3441C30.9018 71.1912 30.7778 71.0679 30.6256 71.0679ZM30.6256 72.7392C29.8569 72.7392 29.2312 72.1142 29.2305 71.3455C29.2298 70.5761 29.8555 69.949 30.6242 69.949C30.6249 69.949 30.6256 69.949 30.6256 69.949C31.3936 69.949 32.0193 70.574 32.02 71.3427C32.0207 72.1128 31.4155 72.7505 30.6256 72.7392Z" fill="#F2B918"/>
<path d="M19.5487 74.577C19.4754 74.577 19.4043 74.6073 19.3528 74.6587C19.3007 74.7109 19.2718 74.7827 19.2718 74.8546C19.2718 74.9272 19.3021 74.9983 19.3528 75.0498C19.4564 75.1526 19.6417 75.1526 19.7446 75.0498C19.796 74.9976 19.8256 74.9265 19.8256 74.8539C19.8256 74.7813 19.7953 74.7101 19.7446 74.658C19.6924 74.6066 19.6213 74.577 19.5487 74.577ZM19.5487 76.249C18.78 76.249 18.1543 75.624 18.1543 74.8553C18.1536 74.0866 18.7786 73.4609 19.5473 73.4595C19.548 73.4595 19.5487 73.4595 19.5494 73.4595C19.9214 73.4595 20.2709 73.6039 20.5344 73.8667C20.798 74.1303 20.9431 74.4804 20.9431 74.8532C20.9438 75.2252 20.7994 75.5761 20.5359 75.8396C20.2716 76.1032 19.9419 76.2582 19.5487 76.249Z" fill="#F2B918"/>
<path d="M24.4713 76.8973H24.4706C24.3184 76.8973 24.1951 77.022 24.1951 77.1749C24.1951 77.3271 24.3191 77.4511 24.472 77.4511C24.6242 77.4511 24.7482 77.3264 24.7482 77.1742C24.7475 77.0213 24.6242 76.8973 24.4713 76.8973ZM24.4706 78.5686C23.7033 78.5686 23.0776 77.9443 23.0762 77.1756C23.0755 76.4062 23.7011 75.7798 24.4699 75.7791C24.4706 75.7791 24.4713 75.7791 24.4713 75.7791C25.24 75.7791 25.865 76.404 25.8657 77.1728C25.8664 77.9415 25.2407 78.5679 24.472 78.5686C24.4713 78.5686 24.4706 78.5686 24.4699 78.5686H24.4706Z" fill="#F2B918"/>
<path d="M22.5064 71.1582C22.5064 71.1582 22.5065 71.1582 22.5057 71.1582C22.4332 71.1582 22.362 71.1878 22.3106 71.2393C22.2584 71.2907 22.2295 71.3619 22.2295 71.4352C22.2295 71.5881 22.3536 71.7114 22.5057 71.7114C22.5057 71.7114 22.5057 71.7114 22.5064 71.7114C22.579 71.7114 22.6502 71.6818 22.7016 71.6303C22.7538 71.5789 22.7826 71.5077 22.7826 71.4344C22.7826 71.2823 22.6586 71.1582 22.5064 71.1582ZM22.5064 72.8296C21.7377 72.8296 21.112 72.2053 21.1113 71.4359C21.1113 71.0631 21.2565 70.7129 21.5193 70.4494C21.7821 70.1859 22.133 70.04 22.5057 70.04L22.5064 70.8757L22.5057 70.04C22.5065 70.04 22.5065 70.04 22.5072 70.04C23.2759 70.04 23.9016 70.6643 23.9023 71.4337C23.9023 71.8065 23.7571 72.1567 23.4943 72.4202C23.2315 72.6837 22.8806 72.8296 22.5078 72.8296C22.5071 72.8296 22.5071 72.8296 22.5064 72.8296Z" fill="#F2B918"/>
<path d="M19.5409 66.2232L19.5416 66.7763C19.6149 66.7763 19.6861 66.7467 19.7375 66.6952C19.7889 66.6438 19.8185 66.5727 19.8185 66.4994C19.8185 66.4268 19.7889 66.3556 19.7375 66.3042C19.6853 66.2521 19.6142 66.2232 19.5416 66.2232H19.5409ZM19.5409 66.2232C19.4676 66.2232 19.3972 66.2528 19.345 66.3049C19.2936 66.3563 19.264 66.4268 19.264 66.5001C19.264 66.653 19.388 66.7763 19.5402 66.7763C19.5402 66.7763 19.5402 66.7763 19.5409 66.7763L19.5402 66.2232H19.5409ZM19.5409 67.8952C18.7722 67.8952 18.1472 67.2702 18.1465 66.5008C18.1458 65.7321 18.7715 65.105 19.5402 65.1042C19.5409 65.1042 19.5409 65.1042 19.5416 65.1042C20.3103 65.1042 20.936 65.7292 20.9367 66.498C20.9374 66.8707 20.7923 67.2209 20.5295 67.4844C20.2659 67.7486 19.9157 67.8938 19.543 67.8945C19.5423 67.8945 19.5416 67.8945 19.5416 67.8945L19.5409 67.8952Z" fill="#F2B918"/>
<path d="M10.3636 28.769C9.24605 29.9028 8.21524 32.1955 8.41323 33.5625C8.91068 33.7471 9.47931 33.8359 10.0733 33.8359C11.7488 33.8359 13.6294 33.1277 14.7075 31.8538C14.1283 31.7164 13.8049 31.1337 13.3032 30.9752C13.3342 30.4657 13.1369 30.3516 13.2673 29.8992C12.6874 29.7618 12.0863 29.5462 11.5642 29.3095L11.0414 29.0734C10.8934 28.9875 10.5122 28.8557 10.3636 28.7697V28.769ZM10.885 30.8371C11.09 30.9294 11.3465 31.0386 11.6396 31.1471C11.665 31.3888 11.7418 31.6185 11.8616 31.8221C11.3592 32.0159 10.8103 32.1371 10.2706 32.161C10.4171 31.7319 10.6306 31.2633 10.885 30.8378V30.8371Z" fill="#F2B918"/>
<path d="M8.80988 34.6235C8.74154 34.6235 8.67529 34.632 8.60201 34.651C7.6374 36.2033 8.31878 41.1073 9.52577 42.5623C9.53141 42.5637 9.53703 42.5637 9.54267 42.5637C9.94781 42.5637 9.59976 40.6923 10.4256 40.3893C9.47857 38.7208 9.23405 36.8642 9.87594 34.7299C9.74841 34.7222 9.62159 34.7144 9.49405 34.7067L9.06283 34.6545C8.96841 34.6348 8.88882 34.6242 8.81061 34.6242L8.80988 34.6235Z" fill="#F2B918"/>
<path d="M21.842 41.3865C20.442 42.8683 18.8975 43.5496 17.241 43.5496C17.0874 43.5496 16.9317 43.5433 16.7759 43.532C16.8985 44.4607 15.2145 45.0645 15.4456 45.4626C15.5936 45.4845 15.7557 45.495 15.9304 45.495C17.9815 45.495 21.692 44.0309 22.5157 42.5019C22.3959 42.3666 22.3254 42.2602 22.2557 42.1538L22.0245 41.7557C21.9541 41.6493 21.9125 41.4929 21.842 41.3865Z" fill="#F2B918"/>
<path d="M18.8722 26.0217C18.5601 26.1049 18.1986 26.1591 17.7878 26.1852L16.9451 26.1598C16.7683 26.1232 16.5632 26.1366 16.3082 26.1211C15.2759 27.1068 14.0393 29.358 14.2578 30.8039C14.5917 30.9124 14.9448 30.961 15.3062 30.961C16.6281 30.961 18.0669 30.3029 19.1217 29.4637C18.7729 28.4709 18.6094 27.3873 18.8715 26.0217H18.8722ZM17.0248 27.8347L17.0868 27.8361C17.1065 28.1363 17.1446 28.435 17.2002 28.7338C16.8916 28.8986 16.5759 29.0318 16.2701 29.1262C16.4716 28.6802 16.7387 28.2173 17.0248 27.834V27.8347Z" fill="#F2B918"/>
<path d="M24.0767 28.769C23.3228 29.3877 22.5555 29.8013 21.8248 30.038L21.3576 30.1627C21.3506 30.162 21.3442 30.162 21.3379 30.162C21.2259 30.162 21.1286 30.2177 21.0166 30.2177C21.0103 30.2177 21.0032 30.2177 20.9969 30.217C20.7404 31.9151 21.3901 33.6442 22.602 34.7413C23.964 34.2107 24.9568 32.3766 25.2964 30.9906C24.7066 30.1874 24.293 29.4208 24.0774 28.7683L24.0767 28.769ZM23.4109 31.19C23.4264 31.2147 23.4411 31.2387 23.4573 31.2633C23.3044 31.6502 23.11 32.018 22.8972 32.3287C22.7866 32.0687 22.7062 31.7953 22.6597 31.5163C22.9127 31.4219 23.1628 31.3133 23.4109 31.19Z" fill="#F2B918"/>
<path d="M16.9297 32.762C16.5478 33.6928 16.366 35.1267 16.5767 36.085C17.5519 35.7799 18.7258 34.8787 19.3282 34.0684C19.1133 33.3567 18.9928 32.6803 18.9653 32.0271C18.5059 32.2695 18.0634 32.4393 17.7083 32.5542L16.9988 32.7451C16.9804 32.7501 16.9572 32.7557 16.9304 32.762H16.9297ZM16.0334 37.862C15.7284 37.862 15.4465 37.6957 15.2999 37.4265C14.3868 35.7531 14.8997 32.8719 15.6684 31.5431C15.8488 31.2323 16.2103 31.0717 16.5598 31.1435L17.2355 30.9512C17.9 30.7349 18.5411 30.3953 18.9984 30.0077C19.2676 29.7794 19.6516 29.7449 19.9574 29.9211L20.2864 30.1113C20.5866 30.2853 20.748 30.6264 20.693 30.9688C20.5457 31.8749 20.6557 32.8128 21.0376 33.9197C21.1165 34.1487 21.0925 34.4009 20.9706 34.6102C20.2103 35.9236 17.9753 37.7957 16.0623 37.8606C16.0532 37.8606 16.0433 37.8613 16.0342 37.8613L16.0334 37.862Z" fill="#F2B918"/>
<path d="M14.9575 32.7895C13.8766 33.7464 12.7196 34.2643 11.5782 34.5271L11.1885 34.6307C11.1822 34.6307 11.1751 34.63 11.1688 34.63C11.0561 34.63 10.9595 34.6863 10.8475 34.6863C10.8404 34.6863 10.8341 34.6856 10.8277 34.6849C10.381 36.1406 10.0534 37.7323 10.8468 38.9823C12.058 38.8266 13.4672 37.5315 14.281 36.3534C14.2317 35.0717 14.5143 33.7844 14.9589 32.7888L14.9575 32.7895ZM14.9575 32.7895H14.9603H14.9575ZM12.4011 36.0413C12.3102 36.1427 12.2179 36.24 12.1256 36.3323C12.1404 36.2562 12.1559 36.1794 12.1735 36.1019C12.2496 36.0829 12.3257 36.0624 12.4011 36.0413Z" fill="#F2B918"/>
<path d="M16.3223 38.3657H16.3252H16.3223ZM14.6426 37.3933C14.1071 38.205 13.3665 39.0294 12.5055 39.7178L11.9446 40.1187C11.8093 40.2385 11.6741 40.3576 11.4895 40.4492C11.0998 41.8063 11.0117 43.6678 11.5367 44.6966C12.6915 44.6388 14.2614 43.6354 15.2436 42.6215C15.2591 41.1136 15.7636 39.5593 16.3216 38.3657C16.0186 38.4467 15.7023 38.4805 15.3972 38.4805C15.3105 38.4805 15.2238 38.4777 15.1386 38.4728C14.9568 38.1036 14.775 37.7343 14.6418 37.3933H14.6426ZM13.7548 40.8557C13.6921 41.182 13.6427 41.5195 13.611 41.8633C13.363 42.0754 13.1037 42.2657 12.8493 42.4291C12.8648 42.1142 12.9043 41.7788 12.9684 41.4441C12.974 41.4392 12.9797 41.4349 12.9846 41.43L13.4757 41.0798C13.5011 41.0615 13.5258 41.0432 13.5504 41.0234C13.6188 40.9685 13.6871 40.9128 13.754 40.8564L13.7548 40.8557Z" fill="#F2B918"/>
<path d="M20.6842 36.0991C20.1931 36.6064 19.6237 37.1335 18.8564 37.5471L18.0405 37.9325C17.8848 37.9741 17.7283 38.0156 17.5649 38.1848C16.8997 39.4481 16.4995 41.3928 16.9885 42.5991C17.2119 42.6407 17.4296 42.659 17.6431 42.659C19.0241 42.659 20.2015 41.855 21.231 40.9658C20.5806 39.4685 20.3206 37.867 20.6842 36.0991ZM18.9959 39.3297C19.0586 39.6849 19.1425 40.04 19.2468 40.3937C18.972 40.579 18.7183 40.7178 18.4774 40.8143C18.5323 40.3697 18.6535 39.8702 18.8409 39.403L18.9959 39.3297Z" fill="#F2B918"/>
<path d="M13.1798 25.0354C12.0856 25.7865 11.1238 26.8787 10.8145 27.7552C11.4127 28.4309 12.4865 28.8544 13.4983 29.0439C14.1014 27.5459 14.9146 26.3685 15.5487 25.6146C15.0682 25.5343 14.5869 25.4532 14.0852 25.2954L13.6329 25.1658C13.506 25.158 13.3581 25.072 13.1805 25.0361L13.1798 25.0354Z" fill="#F2B918"/>
<path d="M21.5353 35.5376C20.7659 37.6641 21.8615 40.6713 23.4187 41.9685C24.7025 41.4584 26.0279 39.291 26.4542 37.7571C26.3548 37.7007 26.0201 37.4731 25.9215 37.4161L25.4557 37.0807C24.9407 36.7171 24.4058 36.2746 23.9478 35.8124C23.6202 36.1499 23.5921 36.1999 23.1658 36.4803C22.7782 36.1245 21.944 35.9709 21.5353 35.5369V35.5376ZM23.883 37.991C24.0578 38.1291 24.2361 38.2637 24.4164 38.3926C24.191 38.8436 23.9204 39.2727 23.6526 39.6201C23.4067 39.1762 23.2073 38.6667 23.0854 38.1503C23.1122 38.1517 23.139 38.1524 23.1658 38.1524C23.4103 38.1524 23.6554 38.0988 23.883 37.991Z" fill="#F2B918"/>
<path d="M25.8509 31.5115C25.698 32.3457 25.1174 33.6626 24.3613 34.7421C25.0793 35.5524 25.9467 36.2542 26.7528 36.4571C27.2516 35.8223 27.6681 34.4102 27.611 33.2554C27.4919 33.1208 27.3925 33.063 27.2735 32.9277L26.9353 32.6008C26.5477 32.245 26.1602 31.8884 25.8509 31.5115Z" fill="#F2B918"/>
<path d="M19.6282 21.1423C17.1508 21.1423 14.6319 21.9618 12.7344 23.5246C13.1804 24.8507 15.9284 25.1649 18.4339 25.1649C20.6894 25.1649 22.7475 24.9106 22.7475 24.9106C22.7475 24.9106 26.699 32.9093 28.8283 32.9093C28.8649 32.9093 28.9016 32.9071 28.9375 32.9022C29.6463 28.8289 27.6171 24.3589 24.2941 22.238C22.8842 21.501 21.265 21.143 19.6275 21.143L19.6282 21.1423ZM24.3456 24.368C25.709 25.5835 26.7025 27.3154 27.1464 29.1502C26.2544 27.8629 25.2313 26.1359 24.3456 24.368ZM19.629 22.8137C20.6182 22.8137 21.5744 22.9673 22.4474 23.2618C22.0295 23.3097 20.2962 23.4929 18.4346 23.4929C17.568 23.4929 16.8732 23.4541 16.3187 23.395C17.3587 23.0166 18.4889 22.8137 19.629 22.8137Z" fill="#F2B918"/>
<path d="M22.3403 25.7292L19.5811 26.1675C19.5811 26.1675 19.381 28.3363 20.3688 29.2502C20.3688 29.2502 23.0816 28.7929 23.5311 28.003L22.3403 25.73V25.7292Z" fill="#F2B918"/>
<path d="M24.2951 23.0736C24.207 23.0736 24.1182 23.0595 24.0308 23.0299C23.5926 22.8841 23.3558 22.4113 23.5024 21.973C25.3336 16.4785 30.6034 8.74121 36.5862 8.74121C38.2618 8.74121 39.8852 9.33308 41.412 10.5006C41.7791 10.781 41.8489 11.306 41.5677 11.6717C41.2873 12.0395 40.7638 12.1092 40.3967 11.8281C39.1679 10.8889 37.8862 10.4125 36.5862 10.4125C31.4912 10.4125 26.7133 17.6263 25.0884 22.5008C24.9715 22.8509 24.6452 23.0729 24.2951 23.0729V23.0736Z" fill="#F2B918"/>
<path d="M27.5634 16.6562C20.7449 16.6562 19.3477 13.1592 19.3477 7.9085C19.3477 2.95794 22.4867 0 25.5207 0C28.1827 0 30.5178 2.44005 30.5178 5.22183C30.5178 7.93668 28.2285 9.35717 25.9674 9.35717C24.6061 9.35717 22.7967 9.10633 22.7967 6.94248C22.7967 6.73674 22.815 6.52113 22.8517 6.302C22.9271 5.84612 23.3569 5.5382 23.8121 5.61289C24.2679 5.68899 24.5759 6.1188 24.5005 6.57397C24.4786 6.70362 24.4681 6.82763 24.4681 6.94248C24.4681 7.3737 24.4681 7.68514 25.9668 7.68514C27.3534 7.68514 28.845 6.9143 28.845 5.22183C28.845 3.5801 27.3922 1.67203 25.5193 1.67203C23.7043 1.67203 21.0176 3.65479 21.0176 7.9092C21.0176 12.7033 21.997 14.9849 27.562 14.9849C28.0235 14.9849 28.3976 15.359 28.3976 15.8205C28.3976 16.2827 28.0235 16.6562 27.562 16.6562H27.5634Z" fill="#F2B918"/>
<path d="M1.67134 12.7836V68.1593C1.67134 79.5648 10.9496 88.843 22.355 88.843H28.4851C39.8899 88.843 49.1681 79.5648 49.1681 68.1593V12.7836H1.67062H1.67134ZM28.4851 90.5144H22.355C10.028 90.5144 0 80.4857 0 68.1593V11.1123H50.8409V68.1593C50.8409 80.4864 40.8122 90.5144 28.4858 90.5144H28.4851Z" fill="#F2B918"/>
<path d="M50.0045 28.1208H0.835653C0.374136 28.1208 0 27.7466 0 27.2851C0 26.8236 0.374136 26.4495 0.835653 26.4495H50.0045C50.466 26.4495 50.8402 26.8236 50.8402 27.2851C50.8402 27.7473 50.466 28.1208 50.0045 28.1208Z" fill="#F2B918"/>
</svg>
