<svg width="85" height="72" viewBox="0 0 85 72" fill="none" xmlns="http://www.w3.org/2000/svg">
<path d="M13.3244 43.7404V65.4134C13.3244 67.9387 15.6024 69.9926 18.4032 69.9926H77.7691C80.5699 69.9926 82.8479 67.9387 82.8479 65.4134V43.7404H13.3244ZM77.7684 71.664H18.4025C14.6801 71.664 11.6523 68.8596 11.6523 65.4134V42.9048C11.6523 42.4432 12.0265 42.0691 12.488 42.0691H83.6828C84.1451 42.0691 84.5185 42.4432 84.5185 42.9048V65.4134C84.5185 68.8596 81.4901 71.664 77.7684 71.664Z" fill="#F2B918"/>
<path d="M83.6828 51.7075H12.488C12.0265 51.7075 11.6523 51.3333 11.6523 50.8718C11.6523 50.4103 12.0265 50.0361 12.488 50.0361H83.6828C84.1451 50.0361 84.5185 50.4103 84.5185 50.8718C84.5185 51.334 84.1444 51.7075 83.6828 51.7075Z" fill="#F2B918"/>
<path d="M31.4669 59.8295H17.6658C17.2042 59.8295 16.8301 59.4554 16.8301 58.9939C16.8301 58.5323 17.2042 58.1582 17.6658 58.1582H31.4669C31.9284 58.1582 32.3025 58.5323 32.3025 58.9939C32.3025 59.4554 31.9284 59.8295 31.4669 59.8295Z" fill="#F2B918"/>
<path d="M54.0082 63.8901H40.5622C40.1007 63.8901 39.7266 63.5159 39.7266 63.0544C39.7266 62.5929 40.1007 62.2188 40.5622 62.2188H54.0082C54.4697 62.2188 54.8439 62.5929 54.8439 63.0544C54.8439 63.5166 54.4697 63.8901 54.0082 63.8901Z" fill="#F2B918"/>
<path d="M74.0902 57.7016H67.3669C66.9054 57.7016 66.5312 57.3275 66.5312 56.8659C66.5312 56.4044 66.9054 56.0303 67.3669 56.0303H74.0902C74.5525 56.0303 74.9259 56.4044 74.9259 56.8659C74.9259 57.3282 74.5518 57.7016 74.0902 57.7016Z" fill="#F2B918"/>
<path d="M7.71609 28.8691C7.86546 29.2362 8.26849 29.4666 8.57359 29.3609L26.7271 23.1696C26.7482 23.1632 26.7743 23.1498 26.794 23.1069C26.8222 23.0442 26.8194 22.9554 26.7841 22.8687L24.516 17.2953C22.2324 11.6838 16.1439 8.55886 10.9481 10.3331L1.97286 13.3939C1.85871 13.4326 1.77416 13.5101 1.72202 13.625C1.65226 13.7779 1.65505 13.9723 1.73044 14.1584L7.71677 28.8691H7.71609ZM8.42492 31.0562C7.48357 31.0562 6.55559 30.451 6.16805 29.4998C6.16805 29.499 6.16805 29.499 6.16805 29.499L0.181722 14.7883C-0.0670038 14.1788 -0.0599398 13.501 0.20006 12.9309C0.443853 12.3968 0.880708 12.0002 1.43171 11.812L10.407 8.75051C16.4285 6.6994 23.4513 10.2471 26.0626 16.6654L28.3307 22.2395C28.5393 22.751 28.533 23.3196 28.3138 23.8002C28.1074 24.254 27.7354 24.5922 27.2661 24.7521L9.1126 30.9435C8.88783 31.0196 8.65533 31.0562 8.42492 31.0562Z" fill="#F2B918"/>
<path d="M12.6127 11.7711L21.1645 15.1997C19.2733 12.6863 15.9441 11.3441 12.6127 11.7711ZM23.0183 17.6792C22.914 17.6792 22.8083 17.6595 22.7083 17.6193L9.62021 12.3728C9.2961 12.2432 9.08683 11.9247 9.09599 11.5752C9.10515 11.2257 9.33061 10.9192 9.66178 10.8065L10.1839 10.6289C15.6108 8.77649 21.6788 11.3342 23.7116 16.3285L23.7934 16.5293C23.9195 16.84 23.8483 17.1965 23.6116 17.434C23.4516 17.5953 23.2374 17.6806 23.0183 17.6806V17.6792Z" fill="#F2B918"/>
<path d="M27.0369 19.059L27.7443 20.7965L28.7364 20.4583L28.029 18.7208L27.0369 19.0597V19.059ZM27.2673 22.6778C26.9354 22.6778 26.624 22.4798 26.4936 22.1564L25.1556 18.8687C25.0682 18.6552 25.0739 18.4164 25.1697 18.2071C25.2648 17.9978 25.4424 17.8372 25.6601 17.7625L28.2368 16.8839C28.6561 16.7408 29.1141 16.9494 29.2804 17.3602L30.6184 20.6479C30.7058 20.8607 30.7001 21.1002 30.605 21.3095C30.5099 21.5188 30.3316 21.6801 30.1146 21.7541L27.5372 22.6334C27.4477 22.6637 27.3568 22.6778 27.2673 22.6778Z" fill="#F2B918"/>
<path d="M59.8927 12.0559L68.9497 15.0448C69.0435 15.0751 69.1308 15.123 69.2083 15.1843L73.7284 18.782C75.1573 19.9193 77.3275 19.784 78.5669 18.479L81.4382 15.4563C82.0096 14.8545 82.2943 14.0901 82.2393 13.3037C82.1836 12.4991 81.7813 11.7606 81.107 11.2244L69.4754 1.9666L59.8921 12.0566L59.8927 12.0559ZM75.9761 21.2143C74.8078 21.2143 73.6354 20.8444 72.687 20.0898L68.2839 16.5851L58.1164 13.2304C57.8452 13.1417 57.638 12.9183 57.5682 12.6407C57.4985 12.3624 57.5753 12.0692 57.7726 11.8614L68.7912 0.260043C69.09 -0.0535072 69.5782 -0.0880347 69.9179 0.181125L82.1484 9.91596C83.1941 10.7481 83.8183 11.91 83.9071 13.1874C83.9945 14.4473 83.5485 15.6613 82.6501 16.6069L79.7788 19.6304C78.7839 20.6774 77.3832 21.2143 75.9761 21.2143Z" fill="#F2B918"/>
<path d="M78.2662 2.77619C78.4269 2.88329 78.5854 2.99814 78.7418 3.12286C79.5578 3.7718 80.1736 4.57012 80.5379 5.42551C80.2265 4.5976 79.6508 3.82112 78.8701 3.20037C78.6756 3.04535 78.4741 2.90373 78.2662 2.7769V2.77619ZM80.5104 10.517C80.3279 10.517 80.144 10.4571 79.9904 10.3352L78.9582 9.51364C78.775 9.36708 78.6608 9.15147 78.6446 8.91754C78.6284 8.68361 78.7108 8.45391 78.8722 8.28339C79.1392 8.00226 79.2717 7.54638 79.2358 7.03131C79.171 6.10334 78.6108 5.15565 77.6998 4.4299C75.9495 3.0369 73.8371 3.19614 73.1515 3.91836C72.8535 4.23191 72.3645 4.26644 72.0249 3.99657L70.9926 3.175C70.8101 3.02915 70.6959 2.81283 70.6797 2.5789C70.6635 2.34497 70.746 2.11527 70.9073 1.94546C73.0606 -0.321959 77.0987 -0.345915 79.9087 1.89121C81.4109 3.08622 82.3396 4.75261 82.4586 6.46128C82.5587 7.89163 82.081 9.23955 81.115 10.257C80.9515 10.4289 80.7303 10.517 80.5083 10.517H80.5104Z" fill="#F2B918"/>
<path d="M32.5195 50.0363H36.2582C36.1349 41.9382 34.6531 36.4056 32.3173 29.9212C33.3933 37.0405 33.8104 44.0112 32.5195 50.0363ZM37.9408 51.7083H30.3945L30.6565 50.6676C32.7908 42.2151 31.1343 31.4769 29.0254 21.1305L30.627 20.6697C31.0455 21.783 31.4513 22.8483 31.841 23.8756C35.4887 33.4653 37.8985 39.8004 37.938 50.8698L37.9408 51.7083Z" fill="#F2B918"/>
<path d="M48.5167 50.0362H53.1171C52.6992 43.1043 52.683 34.1318 55.0075 22.5876C50.0316 35.3233 49.0494 42.3926 48.5167 50.0362ZM54.0077 51.7082H47.6225C47.3914 51.7082 47.1709 51.6124 47.0131 51.444C46.8545 51.2756 46.7735 51.0487 46.789 50.8176C47.4393 40.8693 48.5963 32.2688 57.6139 12.096C57.7936 11.6951 58.2522 11.5006 58.6651 11.6528C59.0773 11.8043 59.3021 12.2496 59.1795 12.6716C54.2191 29.6977 54.2557 42.0016 54.8419 50.8183C54.8574 51.0487 54.7764 51.2756 54.6186 51.4447C54.46 51.6138 54.2395 51.7096 54.0077 51.7096V51.7082Z" fill="#F2B918"/>
</svg>
