<svg width="67" height="89" viewBox="0 0 67 89" fill="none" xmlns="http://www.w3.org/2000/svg">
<path d="M33.0776 40.393V82.8913C33.0776 84.9741 34.7721 86.6687 36.8557 86.6687H61.2949C63.3777 86.6687 65.0723 84.9741 65.0723 82.8913V40.393H33.0782H33.0776ZM61.2949 88.34H36.8557C33.8505 88.34 31.4062 85.8958 31.4062 82.8913V39.5573C31.4062 39.0958 31.7804 38.7217 32.2419 38.7217H65.908C66.3695 38.7217 66.7436 39.0958 66.7436 39.5573V82.8913C66.7436 85.8958 64.2993 88.34 61.2949 88.34Z" fill="#F2B918"/>
<path d="M13.6271 19.1485H8.03529C7.72668 19.1485 7.47656 18.8984 7.47656 18.5891V16.0736C7.47656 15.7643 7.72668 15.5142 8.03529 15.5142H13.6271C13.9357 15.5142 14.1865 15.7643 14.1865 16.0736V18.5891C14.1865 18.8984 13.9357 19.1485 13.6271 19.1485Z" fill="#212121"/>
<path d="M8.31067 18.3121H13.3486V16.3491H8.31067V18.3121ZM13.6256 19.9834H8.03378C7.26505 19.9834 6.63867 19.3577 6.63867 18.5883V16.0729C6.63867 15.3034 7.26435 14.6777 8.03378 14.6777H13.6256C14.395 14.6777 15.0207 15.3034 15.0207 16.0729V18.5883C15.0207 19.3577 14.395 19.9834 13.6256 19.9834Z" fill="#F2B918"/>
<path d="M10.8301 83.8692C6.52496 83.8692 3.00195 80.3468 3.00195 76.041V26.1373C3.00195 21.8321 6.52425 18.3091 10.8301 18.3091C15.1352 18.3091 18.6583 21.8314 18.6583 26.1373V76.041C18.6583 80.3461 15.1359 83.8692 10.8301 83.8692Z" fill="#212121"/>
<path d="M10.8292 19.145C6.97426 19.145 3.83739 22.2819 3.83739 26.1375V76.0412C3.83739 79.8968 6.97356 83.0337 10.8292 83.0337C14.6848 83.0337 17.8217 79.8975 17.8217 76.0412V26.1375C17.8217 22.2819 14.6855 19.145 10.8292 19.145ZM10.8292 84.7057C6.05264 84.7057 2.16602 80.8191 2.16602 76.0419V26.1382C2.16602 21.3609 6.05264 17.4736 10.8292 17.4736C15.6064 17.4736 19.493 21.3609 19.493 26.1382V76.0419C19.493 80.8191 15.6064 84.7057 10.8292 84.7057Z" fill="#F2B918"/>
<path d="M20.8256 87.5044H0.835938L1.81392 73.6652C1.81392 73.1255 2.25223 72.6865 2.79266 72.6865H18.8682C19.4086 72.6865 19.847 73.1248 19.847 73.6652L20.8256 87.5044Z" fill="#212121"/>
<path d="M1.7326 86.6687H19.9291L19.0138 73.7244C19.0123 73.7046 19.0116 73.6856 19.0116 73.6659C19.0116 73.587 18.9475 73.5229 18.8693 73.5229H2.7944C2.71548 73.5229 2.65141 73.587 2.65141 73.6659C2.65141 73.6856 2.65069 73.7046 2.64928 73.7244L1.73398 86.6687H1.7326ZM20.8253 88.34H0.835606C0.60379 88.34 0.381862 88.2435 0.22403 88.0737C0.066198 87.9039 -0.0141546 87.6763 0.00205137 87.4452L0.97866 73.6314C0.996275 72.6463 1.80305 71.8508 2.79302 71.8508H18.8679C19.8571 71.8508 20.6639 72.6463 20.6816 73.6314L21.6582 87.4452C21.6744 87.6763 21.594 87.9039 21.4362 88.0737C21.2776 88.2435 21.0564 88.34 20.8246 88.34H20.8253Z" fill="#F2B918"/>
<path d="M27.1855 4.53981C27.1855 6.58598 25.5277 8.24463 23.4815 8.24463C21.4353 8.24463 19.7773 6.58598 19.7773 4.53981C19.7773 2.49434 21.4353 0.835693 23.4815 0.835693C25.5277 0.835693 27.1855 2.49434 27.1855 4.53981Z" fill="#212121"/>
<path d="M23.4819 1.67133C21.9008 1.67133 20.6135 2.95794 20.6135 4.53978C20.6135 6.12162 21.9008 7.40893 23.4819 7.40893C25.0631 7.40893 26.3504 6.12162 26.3504 4.53978C26.3504 2.95794 25.0631 1.67133 23.4819 1.67133ZM23.4819 9.08026C20.9785 9.08026 18.9414 7.04324 18.9414 4.53978C18.9414 2.03631 20.9777 0 23.4819 0C25.9854 0 28.0217 2.03631 28.0217 4.53978C28.0217 7.04324 25.9854 9.08026 23.4819 9.08026Z" fill="#F2B918"/>
<path d="M36.6211 4.67994C36.6211 6.72612 34.9632 8.38406 32.917 8.38406C30.8709 8.38406 29.2129 6.72612 29.2129 4.67994C29.2129 2.63377 30.8709 0.97583 32.917 0.97583C34.9632 0.97583 36.6211 2.63377 36.6211 4.67994Z" fill="#212121"/>
<path d="M32.9168 1.81146C31.3349 1.81146 30.0483 3.09807 30.0483 4.67991C30.0483 6.26175 31.3349 7.54907 32.9168 7.54907C34.4986 7.54907 35.7859 6.26175 35.7859 4.67991C35.7859 3.09807 34.4986 1.81146 32.9168 1.81146ZM32.9168 9.2204C30.4133 9.2204 28.377 7.18338 28.377 4.67991C28.377 2.17645 30.4133 0.140137 32.9168 0.140137C35.4202 0.140137 37.4572 2.17645 37.4572 4.67991C37.4572 7.18338 35.4202 9.2204 32.9168 9.2204Z" fill="#F2B918"/>
<path d="M32.2402 40.393H65.9056V38.7217H32.2402V40.393Z" fill="#F2B918"/>
<path d="M32.2402 51.0163H65.9056V49.345H32.2402V51.0163Z" fill="#F2B918"/>
<path d="M57.1701 65.0407C56.2435 65.0407 55.4902 64.2875 55.4902 63.3609C55.4902 62.4351 56.2435 61.6812 57.1701 61.6812C58.0966 61.6812 58.8498 62.4351 58.8498 63.3609C58.8498 64.2868 58.0966 65.0407 57.1701 65.0407Z" fill="#F2B918"/>
<path d="M53.8192 60.3466C53.7149 60.3466 53.631 60.4304 53.631 60.534C53.631 60.6376 53.7149 60.7221 53.8192 60.7221C53.922 60.7221 54.0073 60.6383 54.0073 60.534C54.0073 60.4304 53.9227 60.3466 53.8192 60.3466ZM53.8192 62.3935C52.7933 62.3935 51.959 61.5592 51.959 60.534C51.959 59.5088 52.7933 58.6746 53.8192 58.6746C54.8444 58.6746 55.6786 59.5088 55.6786 60.534C55.6786 61.5592 54.8444 62.3935 53.8192 62.3935Z" fill="#F2B918"/>
<path d="M56.9273 67.4202C56.8751 67.4202 56.8329 67.4625 56.8329 67.5146C56.8329 67.6175 57.021 67.6175 57.021 67.5146C57.021 67.4625 56.9787 67.4202 56.9266 67.4202H56.9273ZM56.9273 69.0922C56.0571 69.0922 55.3496 68.3848 55.3496 67.5146C55.3496 66.6444 56.0571 65.937 56.9273 65.937C57.7968 65.937 58.5049 66.6444 58.5049 67.5146C58.5049 68.3841 57.7975 69.0922 56.9273 69.0922Z" fill="#F2B918"/>
<path d="M53.8186 65.1247C53.5966 65.1247 53.4162 65.3051 53.4162 65.5263C53.4162 65.7483 53.5966 65.9286 53.8186 65.9286C54.0398 65.9286 54.2202 65.7483 54.2202 65.5263C54.2202 65.3051 54.0398 65.1247 53.8186 65.1247ZM53.8186 66.796C53.1182 66.796 52.5488 66.226 52.5488 65.5263C52.5488 64.8273 53.1182 64.2573 53.8186 64.2573C54.5182 64.2573 55.0875 64.8273 55.0875 65.5263C55.0875 66.226 54.5182 66.796 53.8186 66.796Z" fill="#F2B918"/>
<path d="M50.3206 54.3471C49.895 54.3471 49.5483 54.693 49.5483 55.1186C49.5483 55.5435 49.895 55.8902 50.3206 55.8902C50.7455 55.8902 51.0914 55.5435 51.0914 55.1186C51.0914 54.693 50.7455 54.3471 50.3206 54.3471ZM50.3206 57.5622C48.9734 57.5622 47.877 56.4665 47.877 55.1186C47.877 53.7714 48.9734 52.675 50.3206 52.675C51.6678 52.675 52.7634 53.7707 52.7634 55.1186C52.7634 56.4658 51.6678 57.5622 50.3206 57.5622Z" fill="#F2B918"/>
<path d="M58.0411 60.1178C57.1152 60.1178 56.3613 59.3646 56.3613 58.4381C56.3613 57.5115 57.1152 56.7576 58.0411 56.7576C58.9677 56.7576 59.7216 57.5115 59.7216 58.4381C59.7216 59.3639 58.9677 60.1178 58.0411 60.1178Z" fill="#F2B918"/>
<path d="M58.8364 52.069C58.4186 52.069 58.0782 52.4086 58.0782 52.8272C58.0782 53.2457 58.4186 53.586 58.8364 53.586C59.2549 53.586 59.5946 53.2457 59.5946 52.8272C59.5946 52.4094 59.2549 52.069 58.8364 52.069ZM58.8364 55.2574C57.4962 55.2574 56.4062 54.1673 56.4062 52.8272C56.4062 51.4877 57.4962 50.3977 58.8364 50.3977C60.1765 50.3977 61.2666 51.4877 61.2666 52.8272C61.2666 54.1681 60.1765 55.2574 58.8364 55.2574Z" fill="#F2B918"/>
<path d="M55.2754 55.4201C55.1726 55.4201 55.0873 55.5039 55.0873 55.6075C55.0873 55.7104 55.1719 55.7956 55.2754 55.7956C55.3797 55.7956 55.4636 55.7111 55.4636 55.6075C55.4636 55.5039 55.3797 55.4201 55.2754 55.4201ZM55.2754 57.467C54.2502 57.467 53.416 56.632 53.416 55.6075C53.416 54.5823 54.2502 53.748 55.2754 53.748C56.3014 53.748 57.1356 54.5823 57.1356 55.6075C57.1356 56.632 56.3014 57.467 55.2754 57.467Z" fill="#F2B918"/>
<path d="M54.5817 50.1807C54.5817 51.1678 53.7806 51.9689 52.7935 51.9689C51.8063 51.9689 51.0059 51.1685 51.0059 50.1807C51.0059 49.1935 51.8063 48.3931 52.7935 48.3931C53.7806 48.3931 54.5817 49.1935 54.5817 50.1807Z" fill="#212121"/>
<path d="M52.7951 49.2287C52.2709 49.2287 51.8432 49.6564 51.8432 50.1806C51.8432 50.7062 52.2709 51.1325 52.7951 51.1325C53.32 51.1325 53.747 50.7055 53.747 50.1806C53.747 49.6557 53.3193 49.2287 52.7951 49.2287ZM52.7951 52.8045C51.3485 52.8045 50.1719 51.6279 50.1719 50.1806C50.1719 48.734 51.3485 47.5566 52.7951 47.5566C54.2423 47.5566 55.4191 48.734 55.4191 50.1806C55.4191 51.6279 54.2423 52.8045 52.7951 52.8045Z" fill="#F2B918"/>
<path d="M52.3475 80.9317H46.5253C42.8114 80.9317 39.7886 77.9097 39.7886 74.195V17.496C39.7886 14.9355 37.7058 12.852 35.1453 12.852H9.57227V11.1807H35.1453C38.6274 11.1807 41.4606 14.0132 41.4606 17.496V74.195C41.4606 76.9874 43.733 79.2597 46.5253 79.2597H52.3475C54.412 79.2597 56.0911 77.5799 56.0911 75.5154L57.7624 75.4844V75.5154C57.7624 78.5023 55.3336 80.931 52.3468 80.931L52.3475 80.9317Z" fill="#F2B918"/>
<path d="M33.3361 11.879C33.3361 14.7742 30.9891 17.1213 28.0939 17.1213C25.1986 17.1213 22.8516 14.7742 22.8516 11.879C22.8516 8.98376 25.1986 6.63672 28.0939 6.63672C30.9891 6.63672 33.3361 8.98376 33.3361 11.879Z" fill="#212121"/>
<path d="M28.0935 7.47308C25.6641 7.47308 23.6869 9.4495 23.6869 11.879C23.6869 14.3092 25.6641 16.2856 28.0935 16.2856C30.523 16.2856 32.5001 14.3092 32.5001 11.879C32.5001 9.4495 30.523 7.47308 28.0935 7.47308ZM28.0935 17.9569C24.7417 17.9569 22.0156 15.2308 22.0156 11.879C22.0156 8.52788 24.7417 5.80176 28.0935 5.80176C31.4454 5.80176 34.1715 8.52788 34.1715 11.879C34.1715 15.2308 31.4454 17.9569 28.0935 17.9569Z" fill="#F2B918"/>
<path d="M17.8189 14.5354H16.8346C16.0834 14.5354 15.4746 13.9266 15.4746 13.1755V10.5833C15.4746 9.83217 16.0834 9.22339 16.8346 9.22339H17.8189C18.57 9.22339 19.1787 9.83146 19.1787 10.5833V13.1755C19.1787 13.9266 18.57 14.5354 17.8189 14.5354Z" fill="#212121"/>
<path d="M16.835 10.059C16.5461 10.059 16.3107 10.2936 16.3107 10.5825V13.1748C16.3107 13.4636 16.5461 13.699 16.835 13.699H17.8193C18.1089 13.699 18.3443 13.4636 18.3443 13.1748V10.5825C18.3443 10.2936 18.1089 10.059 17.8193 10.059H16.835ZM17.8193 15.371H16.835C15.6245 15.371 14.6387 14.386 14.6387 13.1748V10.5825C14.6387 9.372 15.6238 8.38696 16.835 8.38696H17.8193C19.0298 8.38696 20.0156 9.3713 20.0156 10.5825V13.1748C20.0156 14.3853 19.0298 15.371 17.8193 15.371Z" fill="#F2B918"/>
<path d="M11.8087 17.6103H9.85197C9.69696 17.6103 9.57227 17.4856 9.57227 17.3306V5.58905C9.57227 5.43475 9.69696 5.30933 9.85197 5.30933H11.8087C11.963 5.30933 12.0884 5.43475 12.0884 5.58905V17.3306C12.0884 17.4856 11.963 17.6103 11.8087 17.6103Z" fill="#212121"/>
<path d="M10.4077 16.7747H11.2518V6.14499H10.4077V16.7747ZM11.8085 18.4467H9.85173C9.2366 18.4467 8.73633 17.9464 8.73633 17.3313V5.58976C8.73633 4.97534 9.2366 4.47437 9.85173 4.47437H11.8085C12.4236 4.47437 12.9232 4.97534 12.9232 5.58976V17.3313C12.9232 17.9464 12.4236 18.4467 11.8085 18.4467Z" fill="#F2B918"/>
<path d="M14.6075 2.31812H6.61235C5.29051 2.31812 4.21875 3.38982 4.21875 4.71166C4.21875 6.0335 5.29051 7.1045 6.61235 7.1045H14.6075C15.9293 7.1045 17.001 6.0328 17.001 4.71166C17.001 3.38912 15.9293 2.31812 14.6075 2.31812Z" fill="#212121"/>
<path d="M6.61203 3.15375C5.75311 3.15375 5.05481 3.85272 5.05481 4.71163C5.05481 5.57055 5.75382 6.26881 6.61203 6.26881H14.6072C15.4661 6.26881 16.1643 5.56984 16.1643 4.71163C16.1643 3.85272 15.4654 3.15375 14.6072 3.15375H6.61203ZM14.6072 7.94084H6.61203C4.83149 7.94084 3.38281 6.49217 3.38281 4.71163C3.38281 2.93109 4.83149 1.48242 6.61203 1.48242H14.6072C16.3877 1.48242 17.8364 2.93109 17.8364 4.71163C17.8364 6.49217 16.3877 7.94084 14.6072 7.94084Z" fill="#F2B918"/>
</svg>
