<svg width="57" height="84" viewBox="0 0 57 84" fill="none" xmlns="http://www.w3.org/2000/svg">
<path d="M1.67133 32.9916V52.8319C1.67133 68.9878 7.91272 82.1315 15.5852 82.1315H41.3097C48.9821 82.1315 55.2242 68.9878 55.2242 52.8319V32.9916H1.67204H1.67133ZM41.3097 83.8029H15.5852C6.84524 83.8029 0 70.199 0 52.8312V32.1552C0 31.6937 0.374153 31.3196 0.83567 31.3196H56.0599C56.5214 31.3196 56.8955 31.6937 56.8955 32.1552V52.8312C56.8955 70.1983 50.0489 83.8029 41.3097 83.8029Z" fill="#F2B918"/>
<path d="M27.5546 39.7736C27.3291 39.7736 27.1459 39.9561 27.1459 40.1816C27.1459 40.4071 27.3284 40.591 27.5546 40.591C27.7794 40.591 27.9626 40.4078 27.9626 40.1816C27.9626 39.9568 27.7794 39.7736 27.5546 39.7736ZM27.5546 42.2623C26.4075 42.2623 25.4746 41.3287 25.4746 40.1816C25.4746 39.0352 26.4082 38.1023 27.5546 38.1023C28.701 38.1023 29.6346 39.0352 29.6346 40.1816C29.6346 41.3287 28.701 42.2623 27.5546 42.2623Z" fill="#F2B918"/>
<path d="M14.0702 44.1823C13.8448 44.1823 13.6623 44.3655 13.6623 44.591C13.6623 44.8157 13.8448 44.9997 14.0702 44.9997C14.2957 44.9997 14.4789 44.8165 14.4789 44.591C14.4789 44.3662 14.2957 44.1823 14.0702 44.1823ZM14.0702 46.671C12.9238 46.671 11.9902 45.7374 11.9902 44.591C11.9902 43.4446 12.9238 42.511 14.0702 42.511C15.2173 42.511 16.1502 43.4446 16.1502 44.591C16.1502 45.7374 15.2166 46.671 14.0702 46.671Z" fill="#F2B918"/>
<path d="M25.8221 44.5529C25.1154 44.5529 24.5405 45.1279 24.5405 45.8353C24.5405 46.5427 25.1154 47.1177 25.8221 47.1177C26.5289 47.1177 27.1045 46.5427 27.1045 45.8353C27.1045 45.1286 26.5296 44.5529 25.8221 44.5529ZM25.8221 48.789C24.1938 48.789 22.8691 47.4643 22.8691 45.8353C22.8691 44.207 24.1945 42.8816 25.8221 42.8816C27.4505 42.8816 28.7759 44.2062 28.7759 45.8353C28.7759 47.4643 27.4512 48.789 25.8221 48.789Z" fill="#F2B918"/>
<path d="M0.820312 38.4115H55.6359V36.7395H0.820312V38.4115Z" fill="#F2B918"/>
<path d="M7.35531 37.4147C7.35531 38.3793 6.5732 39.1607 5.6093 39.1607C4.6454 39.1607 3.86328 38.3786 3.86328 37.4147C3.86328 36.4508 4.6454 35.668 5.6093 35.668C6.5739 35.668 7.35531 36.4501 7.35531 37.4147Z" fill="#212121"/>
<path d="M5.60974 36.5041C5.10806 36.5041 4.69937 36.9128 4.69937 37.4144C4.69937 37.9168 5.10876 38.3248 5.60974 38.3248C6.11141 38.3248 6.52008 37.9168 6.52008 37.4144C6.52008 36.9121 6.11141 36.5041 5.60974 36.5041ZM5.60974 39.9968C4.18573 39.9968 3.02734 38.8385 3.02734 37.4151C3.02734 35.9911 4.18573 34.8328 5.60974 34.8328C7.03304 34.8328 8.1914 35.9911 8.1914 37.4151C8.1914 38.8385 7.03304 39.9968 5.60974 39.9968Z" fill="#F2B918"/>
<path d="M13.8846 38.2502C13.8846 39.2148 13.1032 39.9962 12.1386 39.9962C11.174 39.9962 10.3926 39.2141 10.3926 38.2502C10.3926 37.2856 11.174 36.5042 12.1386 36.5042C13.1032 36.5042 13.8846 37.2856 13.8846 38.2502Z" fill="#212121"/>
<path d="M12.139 37.3393C11.6373 37.3393 11.2287 37.748 11.2287 38.2496C11.2287 38.7513 11.6373 39.16 12.139 39.16C12.6414 39.16 13.0501 38.7513 13.0501 38.2496C13.0501 37.7473 12.6414 37.3393 12.139 37.3393ZM12.139 40.832C10.7157 40.832 9.55664 39.6737 9.55664 38.2503C9.55664 36.8263 10.715 35.668 12.139 35.668C13.563 35.668 14.7214 36.8263 14.7214 38.2503C14.7214 39.6737 13.5623 40.832 12.139 40.832Z" fill="#F2B918"/>
<path d="M19.5038 37.4147C19.5038 38.3793 18.7216 39.1607 17.7577 39.1607C16.7931 39.1607 16.0117 38.3786 16.0117 37.4147C16.0117 36.4508 16.7931 35.668 17.7577 35.668C18.7223 35.668 19.5038 36.4501 19.5038 37.4147Z" fill="#212121"/>
<path d="M17.7562 36.5041C17.2538 36.5041 16.8459 36.9128 16.8459 37.4144C16.8459 37.9168 17.2545 38.3248 17.7562 38.3248C18.2579 38.3248 18.6665 37.9168 18.6665 37.4144C18.6665 36.9121 18.2579 36.5041 17.7562 36.5041ZM17.7562 39.9968C16.3322 39.9968 15.1738 38.8385 15.1738 37.4151C15.1738 35.9911 16.3322 34.8328 17.7562 34.8328C19.1795 34.8328 20.3379 35.9911 20.3379 37.4151C20.3379 38.8385 19.1788 39.9968 17.7562 39.9968Z" fill="#F2B918"/>
<path d="M25.0744 37.8043C25.0744 38.654 24.386 39.3431 23.5362 39.3431C22.6865 39.3431 21.998 38.654 21.998 37.8043C21.998 36.9545 22.6865 36.2661 23.5362 36.2661C24.386 36.2661 25.0744 36.9552 25.0744 37.8043Z" fill="#212121"/>
<path d="M23.5366 37.1017C23.1491 37.1017 22.8341 37.4174 22.8341 37.8042C22.8341 38.1918 23.1491 38.5067 23.5366 38.5067C23.9242 38.5067 24.2391 38.1911 24.2391 37.8042C24.2391 37.4174 23.9235 37.1017 23.5366 37.1017ZM23.5366 40.1788C22.2275 40.1788 21.1621 39.1134 21.1621 37.8042C21.1621 36.4951 22.2268 35.4304 23.5366 35.4304C24.8458 35.4304 25.9111 36.4951 25.9111 37.8042C25.9111 39.1134 24.8458 40.1788 23.5366 40.1788Z" fill="#F2B918"/>
<path d="M33.4868 39.8005C32.8329 39.8005 32.3002 40.3325 32.3002 40.987C32.3002 41.6409 32.8322 42.1729 33.4868 42.1729C34.1407 42.1729 34.6726 41.6409 34.6726 40.987C34.6726 40.3332 34.1407 39.8005 33.4868 39.8005ZM33.4868 43.8449C31.9113 43.8449 30.6289 42.5625 30.6289 40.987C30.6289 39.4115 31.9113 38.1292 33.4868 38.1292C35.0623 38.1292 36.3447 39.4115 36.3447 40.987C36.3447 42.5625 35.0623 43.8449 33.4868 43.8449Z" fill="#F2B918"/>
<path d="M40.7638 37.917C40.7638 38.7731 40.0697 39.4679 39.2129 39.4679C38.3569 39.4679 37.6621 38.7739 37.6621 37.917C37.6621 37.061 38.3561 36.3662 39.2129 36.3662C40.069 36.3662 40.7638 37.0602 40.7638 37.917Z" fill="#212121"/>
<path d="M39.2127 37.2018C38.8188 37.2018 38.4975 37.5224 38.4975 37.917C38.4975 38.3116 38.8181 38.6322 39.2127 38.6322C39.6072 38.6322 39.9278 38.3116 39.9278 37.917C39.9278 37.5231 39.6072 37.2018 39.2127 37.2018ZM39.2127 40.3035C37.8965 40.3035 36.8262 39.2325 36.8262 37.917C36.8262 36.6008 37.8965 35.5305 39.2127 35.5305C40.5282 35.5305 41.5992 36.6008 41.5992 37.917C41.5992 39.2325 40.5282 40.3035 39.2127 40.3035Z" fill="#F2B918"/>
<path d="M48.4288 37.4147C48.4288 38.3793 47.6474 39.1607 46.6828 39.1607C45.7189 39.1607 44.9375 38.3786 44.9375 37.4147C44.9375 36.4508 45.7189 35.668 46.6828 35.668C47.6474 35.668 48.4288 36.4501 48.4288 37.4147Z" fill="#212121"/>
<path d="M46.6827 36.5041C46.1803 36.5041 45.7716 36.9128 45.7716 37.4144C45.7716 37.9168 46.1803 38.3248 46.6827 38.3248C47.1844 38.3248 47.593 37.9168 47.593 37.4144C47.593 36.9121 47.1844 36.5041 46.6827 36.5041ZM46.6827 39.9968C45.2587 39.9968 44.0996 38.8385 44.0996 37.4151C44.0996 35.9911 45.258 34.8328 46.6827 34.8328C48.106 34.8328 49.2644 35.9911 49.2644 37.4151C49.2644 38.8385 48.106 39.9968 46.6827 39.9968Z" fill="#F2B918"/>
<path d="M41.141 43.6115C40.6386 43.6115 40.2306 44.0202 40.2306 44.5218C40.2306 45.0235 40.6386 45.4322 41.141 45.4322C41.6427 45.4322 42.0506 45.0235 42.0506 44.5218C42.0506 44.0195 41.642 43.6115 41.141 43.6115ZM41.141 47.1042C39.717 47.1042 38.5586 45.9458 38.5586 44.5218C38.5586 43.0978 39.717 41.9395 41.141 41.9395C42.5643 41.9395 43.7227 43.0971 43.7227 44.5218C43.7227 45.9451 42.5643 47.1042 41.141 47.1042Z" fill="#F2B918"/>
<path d="M19.8124 56.1894C19.5869 56.1894 19.4038 56.3726 19.4038 56.5981C19.4038 56.8235 19.5869 57.0067 19.8124 57.0067C20.0372 57.0067 20.2211 56.8242 20.2211 56.5981C20.2211 56.3733 20.0379 56.1894 19.8124 56.1894ZM19.8124 58.6781C18.666 58.6781 17.7324 57.7445 17.7324 56.5981C17.7324 55.4517 18.666 54.5181 19.8124 54.5181C20.9588 54.5181 21.8924 55.4517 21.8924 56.5981C21.8924 57.7445 20.9588 58.6781 19.8124 58.6781Z" fill="#F2B918"/>
<path d="M31.5643 56.5607C30.8576 56.5607 30.2827 57.1357 30.2827 57.8424C30.2827 58.5498 30.8576 59.1248 31.5643 59.1248C32.2718 59.1248 32.8467 58.5498 32.8467 57.8424C32.8467 57.1357 32.2718 56.5607 31.5643 56.5607ZM31.5643 60.7961C29.936 60.7961 28.6113 59.4715 28.6113 57.8424C28.6113 56.2141 29.936 54.8894 31.5643 54.8894C33.1934 54.8894 34.518 56.2141 34.518 57.8424C34.518 59.4715 33.1934 60.7961 31.5643 60.7961Z" fill="#F2B918"/>
<path d="M39.229 51.8076C38.5751 51.8076 38.0424 52.3388 38.0424 52.9934C38.0424 53.6473 38.5744 54.1793 39.229 54.1793C39.8829 54.1793 40.4148 53.6473 40.4148 52.9934C40.4148 52.3395 39.8829 51.8076 39.229 51.8076ZM39.229 55.8513C37.6535 55.8513 36.3711 54.5689 36.3711 52.9934C36.3711 51.4179 37.6535 50.1362 39.229 50.1362C40.8045 50.1362 42.0869 51.4186 42.0869 52.9934C42.0869 54.5689 40.8045 55.8513 39.229 55.8513Z" fill="#F2B918"/>
<path d="M46.8832 55.6188C46.3815 55.6188 45.9721 56.0268 45.9721 56.5292C45.9721 57.0308 46.3815 57.4395 46.8832 57.4395C47.3856 57.4395 47.7935 57.0308 47.7935 56.5292C47.7935 56.0268 47.3849 55.6188 46.8832 55.6188ZM46.8832 59.1115C45.4599 59.1115 44.3008 57.9532 44.3008 56.5292C44.3008 55.1052 45.4599 53.9468 46.8832 53.9468C48.3072 53.9468 49.4655 55.1052 49.4655 56.5292C49.4655 57.9525 48.3072 59.1115 46.8832 59.1115Z" fill="#F2B918"/>
<path d="M12.5031 68.7194C12.2784 68.7194 12.0952 68.9019 12.0952 69.1281C12.0952 69.3529 12.2784 69.5368 12.5031 69.5368C12.7279 69.5368 12.9118 69.3536 12.9118 69.1281C12.9118 68.9026 12.7286 68.7194 12.5031 68.7194ZM12.5031 71.2081C11.3567 71.2081 10.4238 70.2745 10.4238 69.1281C10.4238 67.9817 11.3567 67.0481 12.5031 67.0481C13.6502 67.0481 14.5831 67.9817 14.5831 69.1281C14.5831 70.2745 13.6502 71.2081 12.5031 71.2081Z" fill="#F2B918"/>
<path d="M24.2564 69.09C23.549 69.09 22.9741 69.665 22.9741 70.3724C22.9741 71.0791 23.549 71.6541 24.2564 71.6541C24.9632 71.6541 25.5388 71.0791 25.5388 70.3724C25.5388 69.665 24.9632 69.09 24.2564 69.09ZM24.2564 73.3254C22.6274 73.3254 21.3027 72.0008 21.3027 70.3724C21.3027 68.7434 22.6274 67.4187 24.2564 67.4187C25.8848 67.4187 27.2102 68.7434 27.2102 70.3724C27.2102 72.0008 25.8855 73.3254 24.2564 73.3254Z" fill="#F2B918"/>
<path d="M12.6059 55.4616C11.9521 55.4616 11.4194 55.9936 11.4194 56.6474C11.4194 57.3013 11.9514 57.834 12.6059 57.834C13.2598 57.834 13.7918 57.302 13.7918 56.6474C13.7918 55.9936 13.2598 55.4616 12.6059 55.4616ZM12.6059 59.5053C11.0304 59.5053 9.74805 58.2229 9.74805 56.6474C9.74805 55.0719 11.0304 53.7896 12.6059 53.7896C14.1814 53.7896 15.4638 55.0719 15.4638 56.6474C15.4638 58.2229 14.1814 59.5053 12.6059 59.5053Z" fill="#F2B918"/>
<path d="M39.5739 68.1481C39.0722 68.1481 38.6635 68.5568 38.6635 69.0585C38.6635 69.5602 39.0722 69.9688 39.5739 69.9688C40.0756 69.9688 40.4842 69.5602 40.4842 69.0585C40.4842 68.5561 40.0748 68.1481 39.5739 68.1481ZM39.5739 71.6409C38.1506 71.6409 36.9922 70.4825 36.9922 69.0592C36.9922 67.6352 38.1506 66.4768 39.5739 66.4768C40.9979 66.4768 42.1562 67.6352 42.1562 69.0592C42.1562 70.4825 40.9979 71.6409 39.5739 71.6409Z" fill="#F2B918"/>
<path d="M54.0467 38.2502C54.0467 39.2148 53.2646 39.9962 52.3007 39.9962C51.3361 39.9962 50.5547 39.2141 50.5547 38.2502C50.5547 37.2856 51.3361 36.5042 52.3007 36.5042C53.2653 36.5042 54.0467 37.2856 54.0467 38.2502Z" fill="#212121"/>
<path d="M52.3011 37.3393C51.7987 37.3393 51.3908 37.748 51.3908 38.2496C51.3908 38.7513 51.7994 39.16 52.3011 39.16C52.8028 39.16 53.2115 38.7513 53.2115 38.2496C53.2115 37.7473 52.8028 37.3393 52.3011 37.3393ZM52.3011 40.832C50.8771 40.832 49.7188 39.6737 49.7188 38.2503C49.7188 36.8263 50.8771 35.668 52.3011 35.668C53.7244 35.668 54.8828 36.8263 54.8828 38.2503C54.8828 39.6737 53.7244 40.832 52.3011 40.832Z" fill="#F2B918"/>
<path d="M36.3217 5.65302C36.2223 5.65302 36.142 5.73405 36.142 5.8334V16.8492C36.142 16.9486 36.2223 17.0296 36.3217 17.0296C36.4218 17.0296 36.5021 16.9486 36.5021 16.8492V5.8334C36.5021 5.73405 36.4218 5.65302 36.3217 5.65302ZM36.3217 18.1436C35.6079 18.1436 35.0273 17.563 35.0273 16.8485V5.83269C35.0273 5.11893 35.6079 4.53833 36.3217 4.53833C37.0355 4.53833 37.6161 5.11893 37.6161 5.83269V16.8485C37.6161 17.563 37.0355 18.1436 36.3217 18.1436Z" fill="#F2B918"/>
<path d="M36.8934 1.67203C29.8431 1.67203 24.1076 7.40752 24.1076 14.4578C24.1076 21.5081 29.8431 27.2436 36.8934 27.2436C43.9443 27.2436 49.6798 21.5081 49.6798 14.4578C49.6798 7.40752 43.9443 1.67203 36.8934 1.67203ZM36.8934 28.9156C28.9214 28.9156 22.4355 22.4297 22.4355 14.4578C22.4355 6.4859 28.9214 0 36.8934 0C44.866 0 51.3519 6.4859 51.3519 14.4578C51.3519 22.4297 44.866 28.9156 36.8934 28.9156Z" fill="#F2B918"/>
<path d="M33.9747 15.6965C33.8922 15.3851 34.0775 15.0659 34.389 14.9835L46.0453 11.8917C46.3567 11.8092 46.6759 11.9945 46.7583 12.306C46.8408 12.6174 46.6555 12.9366 46.344 13.019L34.6877 16.1108C34.3763 16.1933 34.0571 16.0087 33.9747 15.6965Z" fill="#212121"/>
<path d="M46.2001 12.4791L34.5121 15.5526C34.5156 15.5667 34.529 15.5744 34.5438 15.5709L46.2001 12.4791ZM34.5382 16.6863C34.0337 16.6863 33.5708 16.3488 33.4348 15.8387C33.3573 15.5448 33.3981 15.2369 33.551 14.9734C33.7039 14.7099 33.9505 14.5217 34.2451 14.4442L45.9007 11.3517C46.5073 11.1911 47.1337 11.5547 47.2951 12.1613C47.3733 12.4558 47.3324 12.7631 47.1788 13.0266C47.0259 13.2901 46.78 13.4782 46.4848 13.5564L34.8285 16.6482C34.7313 16.6743 34.6333 16.6863 34.5368 16.6863H34.5382Z" fill="#F2B918"/>
</svg>
