<svg width="89" height="83" viewBox="0 0 89 83" fill="none" xmlns="http://www.w3.org/2000/svg">
<path d="M11.5248 51.39V63.0414C11.5248 72.6156 19.3143 80.405 28.8885 80.405H60.6281C70.2023 80.405 77.9918 72.6163 77.9918 63.0414V51.39H11.5248ZM60.6281 82.0756H28.8885C18.3926 82.0756 9.85352 73.5365 9.85352 63.0407V50.5537C9.85352 50.0922 10.2277 49.718 10.6892 49.718H78.8274C79.2889 49.718 79.6631 50.0922 79.6631 50.5537V63.0407C79.6631 73.5365 71.124 82.0756 60.6281 82.0756Z" fill="#F2B918"/>
<path d="M61.9465 12.1161L70.8858 27.5991L83.9837 20.0365C86.3449 18.6731 87.1573 15.6433 85.7932 13.2815L81.7995 6.36295C80.436 4.00182 77.4062 3.1887 75.0444 4.55282L61.9465 12.1161ZM70.5807 29.5762C70.2918 29.5762 70.0107 29.4261 69.8557 29.1584L60.0807 12.2281C59.8503 11.8279 59.987 11.317 60.3865 11.0866L74.208 3.10627C77.3668 1.28204 81.4225 2.36784 83.246 5.528L87.2397 12.4465C89.0639 15.606 87.9774 19.661 84.818 21.4845L70.9964 29.4642C70.8647 29.5403 70.7209 29.5769 70.5793 29.5769L70.5807 29.5762Z" fill="#F2B918"/>
<path d="M33.3683 44.588C32.9829 44.588 32.6694 44.9016 32.6694 45.2877C32.6694 45.6731 32.9829 45.9874 33.3683 45.9874C33.7545 45.9874 34.068 45.6731 34.068 45.2877C34.068 44.9016 33.7545 44.588 33.3683 44.588ZM33.3683 47.6587C32.0613 47.6587 30.998 46.5948 30.998 45.287C30.998 43.98 32.0613 42.916 33.3683 42.916C34.6761 42.916 35.74 43.98 35.74 45.287C35.74 46.5941 34.6761 47.6587 33.3683 47.6587Z" fill="#F2B918"/>
<path d="M39.985 44.0263C39.5989 44.0263 39.2853 44.3405 39.2853 44.726C39.2853 45.1114 39.5989 45.4256 39.985 45.4256C40.3704 45.4256 40.684 45.1121 40.684 44.726C40.684 44.3405 40.3704 44.0263 39.985 44.0263ZM39.985 47.097C38.6772 47.097 37.6133 46.033 37.6133 44.726C37.6133 43.4182 38.6772 42.3542 39.985 42.3542C41.292 42.3542 42.3553 43.4182 42.3553 44.726C42.3553 46.033 41.292 47.097 39.985 47.097Z" fill="#F2B918"/>
<path d="M25.4862 33.1923C25.1008 33.1923 24.7873 33.5058 24.7873 33.892C24.7873 34.2774 25.1008 34.5916 25.4862 34.5916C25.8716 34.5916 26.1852 34.2774 26.1852 33.892C26.1852 33.5058 25.8716 33.1923 25.4862 33.1923ZM25.4862 36.263C24.1792 36.263 23.1152 35.199 23.1152 33.8913C23.1152 32.5842 24.1792 31.5203 25.4862 31.5203C26.7933 31.5203 27.8572 32.5842 27.8572 33.8913C27.8572 35.1983 26.7933 36.263 25.4862 36.263Z" fill="#F2B918"/>
<path d="M30.2987 32.144C29.9133 32.144 29.5991 32.4575 29.5991 32.8436C29.5991 33.229 29.9126 33.5426 30.2987 33.5426C30.6849 33.5426 30.9984 33.229 30.9984 32.8436C30.9984 32.4575 30.6849 32.144 30.2987 32.144ZM30.2987 35.2139C28.9917 35.2139 27.9277 34.15 27.9277 32.8429C27.9277 31.5359 28.9917 30.4719 30.2987 30.4719C31.6058 30.4719 32.6704 31.5359 32.6704 32.8429C32.6704 34.1493 31.6065 35.2139 30.2987 35.2139Z" fill="#F2B918"/>
<path d="M25.5605 27.027C25.175 27.027 24.8608 27.3413 24.8608 27.7267C24.8608 28.1128 25.1743 28.4264 25.5605 28.4264C25.9459 28.4264 26.2594 28.1128 26.2594 27.7267C26.2594 27.3413 25.9459 27.027 25.5605 27.027ZM25.5605 30.0977C24.2534 30.0977 23.1895 29.0337 23.1895 27.7267C23.1895 26.4189 24.2534 25.355 25.5605 25.355C26.8682 25.355 27.9315 26.4189 27.9315 27.7267C27.9315 29.0337 26.8682 30.0977 25.5605 30.0977Z" fill="#F2B918"/>
<path d="M34.9049 37.37C34.5188 37.37 34.2052 37.6836 34.2052 38.0697C34.2052 38.4551 34.5188 38.7687 34.9049 38.7687C35.2903 38.7687 35.6039 38.4551 35.6039 38.0697C35.6039 37.6836 35.2903 37.37 34.9049 37.37ZM34.9049 40.44C33.5979 40.44 32.5332 39.376 32.5332 38.069C32.5332 36.762 33.5972 35.698 34.9049 35.698C36.2119 35.698 37.2759 36.762 37.2759 38.069C37.2759 39.3753 36.2119 40.44 34.9049 40.44Z" fill="#F2B918"/>
<path d="M28.7636 38.9052C28.3782 38.9052 28.0646 39.2188 28.0646 39.6049C28.0646 39.9903 28.3782 40.3039 28.7636 40.3039C29.149 40.3039 29.4633 39.9903 29.4633 39.6049C29.4633 39.2188 29.1497 38.9052 28.7636 38.9052ZM28.7636 41.9752C27.4565 41.9752 26.3926 40.9112 26.3926 39.6049C26.3926 38.2978 27.4565 37.2339 28.7636 37.2339C30.0713 37.2339 31.1346 38.2978 31.1346 39.6049C31.1346 40.9112 30.0713 41.9752 28.7636 41.9752Z" fill="#F2B918"/>
<path d="M25.8984 44.5133C25.5129 44.5133 25.1987 44.8269 25.1987 45.2123C25.1987 45.5977 25.5122 45.9113 25.8984 45.9113C26.2838 45.9113 26.5973 45.5977 26.5973 45.2123C26.5973 44.8269 26.2838 44.5133 25.8984 44.5133ZM25.8984 47.5833C24.5913 47.5833 23.5273 46.5194 23.5273 45.2123C23.5273 43.9053 24.5913 42.8413 25.8984 42.8413C27.2054 42.8413 28.2693 43.9053 28.2693 45.2123C28.2693 46.5194 27.2054 47.5833 25.8984 47.5833Z" fill="#F2B918"/>
<path d="M52.337 43.0527C51.3569 43.0527 50.56 43.8503 50.56 44.8297C50.56 45.8098 51.3569 46.6074 52.337 46.6074C53.3171 46.6074 54.114 45.8098 54.114 44.8297C54.114 43.8503 53.3171 43.0527 52.337 43.0527ZM52.337 48.2787C50.4353 48.2787 48.8887 46.7321 48.8887 44.8297C48.8887 42.928 50.4353 41.3813 52.337 41.3813C54.2388 41.3813 55.7853 42.928 55.7853 44.8297C55.7853 46.7321 54.2388 48.2787 52.337 48.2787Z" fill="#F2B918"/>
<path d="M57.5623 37.8273C56.5822 37.8273 55.7846 38.6249 55.7846 39.6051C55.7846 40.5845 56.5822 41.3821 57.5623 41.3821C58.5424 41.3821 59.3393 40.5845 59.3393 39.6051C59.3393 38.6249 58.5424 37.8273 57.5623 37.8273ZM57.5623 43.0534C55.6606 43.0534 54.1133 41.5068 54.1133 39.6051C54.1133 37.7026 55.6606 36.156 57.5623 36.156C59.464 36.156 61.0107 37.7026 61.0107 39.6051C61.0107 41.5068 59.464 43.0534 57.5623 43.0534Z" fill="#F2B918"/>
<path d="M62.7909 24.978C61.8108 24.978 61.0131 25.7749 61.0131 26.755C61.0131 27.7351 61.8108 28.532 62.7909 28.532C63.7703 28.532 64.5679 27.7351 64.5679 26.755C64.5679 25.7749 63.7703 24.978 62.7909 24.978ZM62.7909 30.2033C60.8891 30.2033 59.3418 28.6567 59.3418 26.755C59.3418 24.8533 60.8891 23.3066 62.7909 23.3066C64.6926 23.3066 66.2392 24.8533 66.2392 26.755C66.2392 28.6567 64.6926 30.2033 62.7909 30.2033Z" fill="#F2B918"/>
<path d="M62.7909 32.6013C61.8108 32.6013 61.0131 33.3989 61.0131 34.379C61.0131 35.3584 61.8108 36.156 62.7909 36.156C63.7703 36.156 64.5679 35.3584 64.5679 34.379C64.5679 33.3989 63.7703 32.6013 62.7909 32.6013ZM62.7909 37.8273C60.8891 37.8273 59.3418 36.2807 59.3418 34.379C59.3418 32.4772 60.8891 30.9299 62.7909 30.9299C64.6926 30.9299 66.2392 32.4772 66.2392 34.379C66.2392 36.2807 64.6926 37.8273 62.7909 37.8273Z" fill="#F2B918"/>
<path d="M56.41 28.5624C55.4299 28.5624 54.633 29.3601 54.633 30.3395C54.633 31.3189 55.4306 32.1165 56.41 32.1165C57.3894 32.1165 58.187 31.3189 58.187 30.3395C58.187 29.3593 57.3894 28.5624 56.41 28.5624ZM56.41 33.7885C54.5076 33.7885 52.9609 32.2419 52.9609 30.3402C52.9609 28.4384 54.5076 26.8911 56.41 26.8911C58.3117 26.8911 59.8583 28.4384 59.8583 30.3402C59.8583 32.2419 58.3117 33.7885 56.41 33.7885Z" fill="#F2B918"/>
<path d="M62.7909 43.0527C61.8108 43.0527 61.0131 43.8503 61.0131 44.8297C61.0131 45.8098 61.8108 46.6074 62.7909 46.6074C63.7703 46.6074 64.5679 45.8098 64.5679 44.8297C64.5679 43.8503 63.7703 43.0527 62.7909 43.0527ZM62.7909 48.2787C60.8891 48.2787 59.3418 46.7321 59.3418 44.8297C59.3418 42.928 60.8891 41.3813 62.7909 41.3813C64.6926 41.3813 66.2392 42.928 66.2392 44.8297C66.2392 46.7321 64.6926 48.2787 62.7909 48.2787Z" fill="#F2B918"/>
<path d="M2.15151 8.26057C1.27709 9.77476 1.63009 11.6716 2.9921 12.7686L19.6095 26.1681L29.1717 9.60566L9.25886 1.91418C7.6277 1.28356 5.80841 1.92616 4.93399 3.44106L2.15151 8.26127V8.26057ZM19.8449 28.2679C19.6553 28.2679 19.47 28.2037 19.3199 28.0825L1.94293 14.07C-0.0637901 12.4523 -0.585188 9.6571 0.703537 7.4242L3.48673 2.60469C4.77545 0.371796 7.45578 -0.573785 9.86201 0.354181L30.6859 8.39796C30.9135 8.48604 31.0918 8.66924 31.1728 8.89964C31.2538 9.13005 31.2299 9.38371 31.108 9.5958L20.5685 27.85C20.4473 28.0614 20.238 28.2087 19.9978 28.2538C19.947 28.2629 19.8956 28.2686 19.8449 28.2686V28.2679Z" fill="#F2B918"/>
<path d="M78.8274 58.1418H10.6892C10.2277 58.1418 9.85352 57.7676 9.85352 57.3061C9.85352 56.8446 10.2277 56.4705 10.6892 56.4705H78.8274C79.2889 56.4705 79.6631 56.8446 79.6631 57.3061C79.6631 57.7676 79.2889 58.1418 78.8274 58.1418Z" fill="#F2B918"/>
<path d="M41.519 68.3818H23.4782C23.016 68.3818 22.6426 68.0076 22.6426 67.5461C22.6426 67.0846 23.0167 66.7104 23.4782 66.7104H41.519C41.9812 66.7104 42.3546 67.0846 42.3546 67.5461C42.3546 68.0076 41.9805 68.3818 41.519 68.3818Z" fill="#F2B918"/>
<path d="M65.4041 64.4748H50.2966C49.8351 64.4748 49.4609 64.1006 49.4609 63.6391C49.4609 63.1776 49.8351 62.8035 50.2966 62.8035H65.4041C65.8656 62.8035 66.2397 63.1776 66.2397 63.6391C66.2397 64.1006 65.8656 64.4748 65.4041 64.4748Z" fill="#F2B918"/>
<path d="M59.6085 75.0058H54.9489C54.4874 75.0058 54.1133 74.6317 54.1133 74.1701C54.1133 73.7093 54.4874 73.3345 54.9489 73.3345H59.6085C60.07 73.3345 60.4442 73.7093 60.4442 74.1701C60.4442 74.6317 60.07 75.0058 59.6085 75.0058Z" fill="#F2B918"/>
</svg>
