<svg width="74" height="83" viewBox="0 0 74 83" fill="none" xmlns="http://www.w3.org/2000/svg">
<path d="M72.7392 14.3317H67.5251C67.0636 14.3317 66.6895 13.9576 66.6895 13.4961C66.6895 13.0345 67.0636 12.6604 67.5251 12.6604H72.7392C73.2007 12.6604 73.5749 13.0345 73.5749 13.4961C73.5749 13.9576 73.2007 14.3317 72.7392 14.3317Z" fill="#F2B918"/>
<path d="M70.1222 16.9303C69.6607 16.9303 69.2866 16.5562 69.2866 16.0954L69.2852 10.8813C69.2845 10.4191 69.6593 10.0449 70.1201 10.0449H70.1208C70.5823 10.0449 70.9558 10.4184 70.9565 10.8799L70.9579 16.094C70.9586 16.5562 70.5837 16.9303 70.1229 16.9303H70.1222Z" fill="#F2B918"/>
<path d="M64.6955 82.7779H7.47094C3.35181 82.7779 0 79.4261 0 75.3077V46.0017C0 45.5402 0.374146 45.166 0.835663 45.166C1.29718 45.166 1.67133 45.5402 1.67133 46.0017V75.3077C1.67133 78.5045 4.27273 81.1066 7.47094 81.1066H64.6955C67.8937 81.1066 70.4951 78.5052 70.4951 75.3077V46.0017C70.4951 45.5402 70.8693 45.166 71.3308 45.166C71.7923 45.166 72.1665 45.5402 72.1665 46.0017V75.3077C72.1665 79.4261 68.8147 82.7779 64.6948 82.7779H64.6955Z" fill="#F2B918"/>
<path d="M71.3315 67.1081H0.835663C0.373441 67.1081 0 66.7339 0 66.2724C0 65.8109 0.374146 65.4368 0.835663 65.4368H71.3315C71.793 65.4368 72.1672 65.8109 72.1672 66.2724C72.1672 66.7339 71.793 67.1081 71.3315 67.1081Z" fill="#F2B918"/>
<path d="M19.0681 61.5595C18.6066 61.5595 18.2324 61.1853 18.2324 60.7238C18.2324 59.2335 18.6968 58.4599 19.1068 57.7771C19.462 57.1845 19.7417 56.7167 19.7417 55.6901C19.7417 54.6635 19.4613 54.1956 19.1068 53.603C18.6968 52.9203 18.2324 52.1466 18.2324 50.6564C18.2324 49.1668 18.6968 48.3939 19.1068 47.7111C19.462 47.1193 19.7417 46.6521 19.7417 45.6262C19.7417 44.5996 19.4613 44.1324 19.1068 43.5406C18.6968 42.8578 18.2324 42.0848 18.2324 40.5946C18.2324 39.1051 18.6968 38.3321 19.1068 37.6501C19.462 37.0575 19.7417 36.5903 19.7417 35.5644C19.7417 35.1029 20.1158 34.7288 20.5774 34.7288C21.0396 34.7288 21.413 35.1029 21.413 35.5644C21.413 37.054 20.9487 37.8269 20.5393 38.509C20.1842 39.1015 19.9037 39.5687 19.9037 40.5946C19.9037 41.6212 20.1849 42.0884 20.5393 42.6809C20.9487 43.363 21.413 44.1374 21.413 45.6262C21.413 47.1157 20.9487 47.8887 20.5393 48.5714C20.1842 49.164 19.9037 49.6305 19.9037 50.6564C19.9037 51.683 20.1849 52.1516 20.5393 52.7427C20.9487 53.4262 21.413 54.1998 21.413 55.6894C21.413 57.1796 20.9487 57.9533 20.5393 58.636C20.1842 59.2279 19.9037 59.6958 19.9037 60.7231C19.9037 61.1846 19.5296 61.5587 19.0681 61.5587V61.5595Z" fill="#F2B918"/>
<path d="M31.7302 56.7209C31.268 56.7209 30.8945 56.3467 30.8945 55.8852C30.8945 54.395 31.3589 53.622 31.7682 52.9385C32.1234 52.346 32.4038 51.8788 32.4038 50.8522C32.4038 49.8249 32.1227 49.357 31.7682 48.7652C31.3589 48.0817 30.8945 47.3087 30.8945 45.8185C30.8945 44.329 31.3589 43.556 31.7682 42.8739C32.1234 42.2814 32.4038 41.8142 32.4038 40.7883C32.4038 39.7617 32.1227 39.2945 31.7682 38.702C31.3589 38.0199 30.8945 37.2463 30.8945 35.7567C30.8945 34.2672 31.3589 33.4942 31.7682 32.8115C32.1234 32.2189 32.4038 31.7524 32.4038 30.7265C32.4038 30.265 32.7779 29.8909 33.2395 29.8909C33.701 29.8909 34.0751 30.265 34.0751 30.7265C34.0751 32.2161 33.6108 32.9883 33.2014 33.6711C32.8456 34.263 32.5659 34.7301 32.5659 35.756C32.5659 36.7826 32.8463 37.2498 33.2014 37.8416C33.6108 38.5244 34.0751 39.2981 34.0751 40.7876C34.0751 42.2771 33.6108 43.0501 33.2014 43.7322C32.8456 44.3247 32.5659 44.7919 32.5659 45.8178C32.5659 46.8444 32.8463 47.3123 33.2014 47.9048C33.6108 48.5876 34.0751 49.3612 34.0751 50.8515C34.0751 52.3417 33.6108 53.1147 33.2014 53.7982C32.8456 54.39 32.5659 54.8579 32.5659 55.8845C32.5659 56.346 32.1917 56.7202 31.7302 56.7202V56.7209Z" fill="#F2B918"/>
<path d="M43.4431 62.1125C42.9809 62.1125 42.6074 61.7383 42.6074 61.2768C42.6074 59.7866 43.0718 59.0122 43.4811 58.3302C43.8363 57.7376 44.1167 57.2697 44.1167 56.2431C44.1167 55.2158 43.8355 54.7479 43.4811 54.1568C43.0718 53.4733 42.6074 52.6997 42.6074 51.2094C42.6074 49.7206 43.0718 48.9469 43.4811 48.2649C43.8363 47.673 44.1167 47.2058 44.1167 46.1799C44.1167 45.1533 43.8355 44.6862 43.4811 44.0943C43.0718 43.4115 42.6074 42.6386 42.6074 41.1483C42.6074 39.6588 43.0718 38.8859 43.4811 38.2031C43.8363 37.6112 44.1167 37.1441 44.1167 36.1189C44.1167 35.6573 44.4908 35.2832 44.9523 35.2832C45.4139 35.2832 45.788 35.6573 45.788 36.1189C45.788 37.6077 45.3237 38.3814 44.9136 39.0634C44.5585 39.6553 44.2787 40.1224 44.2787 41.1483C44.2787 42.1757 44.5592 42.6428 44.9136 43.2347C45.3237 43.9174 45.788 44.6904 45.788 46.1799C45.788 47.6695 45.3237 48.4424 44.9136 49.1245C44.5585 49.7171 44.2787 50.1842 44.2787 51.2094C44.2787 52.2367 44.5592 52.7046 44.9136 53.2965C45.3237 53.9792 45.788 54.7529 45.788 56.2431C45.788 57.7334 45.3237 58.5063 44.9143 59.1898C44.5585 59.7817 44.2787 60.2495 44.2787 61.2768C44.2787 61.7383 43.9046 62.1125 43.4431 62.1125Z" fill="#F2B918"/>
<path d="M22.6684 75.0366H10.7888C10.3273 75.0366 9.95312 74.6624 9.95312 74.2009C9.95312 73.7394 10.3273 73.3652 10.7888 73.3652H22.6684C23.13 73.3652 23.5041 73.7394 23.5041 74.2009C23.5041 74.6624 23.13 75.0366 22.6684 75.0366Z" fill="#F2B918"/>
<path d="M48.2265 72.8254H29.82C29.3585 72.8254 28.9844 72.4512 28.9844 71.9897C28.9844 71.5282 29.3585 71.1541 29.82 71.1541H48.2265C48.6887 71.1541 49.0621 71.5282 49.0621 71.9897C49.0621 72.4519 48.688 72.8254 48.2265 72.8254Z" fill="#F2B918"/>
<path d="M45.2675 78.9069H36.0837C35.6215 78.9069 35.248 78.5328 35.248 78.0713C35.248 77.6097 35.6222 77.2356 36.0837 77.2356H45.2675C45.7298 77.2356 46.1032 77.6097 46.1032 78.0713C46.1032 78.5328 45.7291 78.9069 45.2675 78.9069Z" fill="#F2B918"/>
<path d="M63.6719 60.9811V5.37851C63.6719 4.12431 63.1625 2.98919 62.3402 2.16691C61.5186 1.34464 60.3828 0.835205 59.1286 0.835205C56.6209 0.835205 54.586 2.87011 54.586 5.37851V60.9811C52.8189 62.3431 51.6816 64.4788 51.6816 66.8815C51.6816 70.9942 55.0165 74.3291 59.1293 74.3291C63.2428 74.3291 66.5777 70.9942 66.5777 66.8815C66.5777 64.4781 65.4398 62.3424 63.6726 60.9811H63.6719Z" fill="#212121"/>
<path d="M59.1271 1.67132C57.0823 1.67132 55.4195 3.33419 55.4195 5.37896V61.3923L55.0939 61.6439C53.455 62.9072 52.5151 64.816 52.5151 66.8812C52.5151 70.5275 55.4815 73.4939 59.1271 73.4939C62.7734 73.4939 65.7391 70.5275 65.7391 66.8812C65.7391 64.8153 64.7992 62.9065 63.1603 61.6439L62.8347 61.393V5.37896C62.8347 4.38969 62.4486 3.45891 61.7482 2.75783C61.0472 2.05745 60.1164 1.67132 59.1271 1.67132ZM59.1271 75.166C54.5598 75.166 50.8438 71.4499 50.8438 66.8812C50.8438 64.4334 51.8964 62.1611 53.7481 60.5834V5.37896C53.7481 2.41257 56.1614 0 59.1271 0C60.5624 0 61.9131 0.560161 62.9299 1.5762C63.9459 2.59295 64.5061 3.94297 64.5061 5.37896V60.5834C66.3578 62.1618 67.4104 64.4334 67.4104 66.8812C67.4104 71.4499 63.6944 75.166 59.1264 75.166H59.1271Z" fill="#F2B918"/>
<path d="M59.1295 71.1281C56.7881 71.1281 54.8828 69.2229 54.8828 66.8821C54.8828 65.5554 55.4867 64.3294 56.5407 63.5177L57.7879 62.5566V5.3792C57.7879 4.64006 58.3896 4.03833 59.1295 4.03833C59.6107 4.03833 59.9299 4.28494 60.0772 4.4322C60.2244 4.57947 60.471 4.89795 60.471 5.3792V62.5566L61.7182 63.5177C62.7716 64.3287 63.3761 65.5554 63.3761 66.8821C63.3761 69.2229 61.4709 71.1281 59.1302 71.1281H59.1295Z" fill="#212121"/>
<path d="M59.1292 4.87372C58.8502 4.87372 58.624 5.1006 58.624 5.37892V62.9671L57.0506 64.1804C56.2044 64.8322 55.7189 65.8165 55.7189 66.8819C55.7189 68.7625 57.2486 70.2922 59.1292 70.2922C61.0091 70.2922 62.5395 68.7625 62.5395 66.8819C62.5395 65.8165 62.054 64.8322 61.2078 64.1804L59.6351 62.9671V5.37892C59.6351 5.2077 59.5541 5.09003 59.4857 5.02239C59.4174 4.95475 59.3011 4.87372 59.1299 4.87372H59.1292ZM59.1292 71.9642C56.3263 71.9642 54.0469 69.6848 54.0469 66.8819C54.0469 65.2944 54.7698 63.8267 56.0303 62.8565L56.952 62.1462V5.37963C56.952 4.17898 57.9285 3.20239 59.1292 3.20239C59.9134 3.20239 60.4299 3.60261 60.6681 3.84217C60.9062 4.08033 61.3057 4.59681 61.3057 5.37963V62.1462L62.2274 62.8565C63.4879 63.8267 64.2108 65.2944 64.2108 66.8819C64.2108 69.6848 61.9314 71.9642 59.1292 71.9642Z" fill="#F2B918"/>
<path d="M60.5859 13.5629H63.9293V11.8916H60.5859V13.5629Z" fill="#F2B918"/>
<path d="M60.5859 21.9211H63.9293V20.2498H60.5859V21.9211Z" fill="#F2B918"/>
<path d="M60.5859 31.3937H63.9293V29.7217H60.5859V31.3937Z" fill="#F2B918"/>
<path d="M60.5859 40.3085H63.9293V38.6372H60.5859V40.3085Z" fill="#F2B918"/>
<path d="M60.5859 49.2238H63.9293V47.5525H60.5859V49.2238Z" fill="#F2B918"/>
</svg>
