<svg width="61" height="61" viewBox="0 0 61 61" fill="none" xmlns="http://www.w3.org/2000/svg">
<path d="M50.1341 21.4013C49.0544 19.3657 46.52 18.5881 44.4845 19.6677L43.2278 20.3343L37.7913 23.2179C37.8326 20.7916 37.4444 18.7283 36.1471 16.2823L35.9374 15.8871C35.9373 15.8868 35.9372 15.8867 35.9371 15.8864C35.2389 14.571 34.0723 13.6 32.6521 13.1527C31.2328 12.7056 29.7213 12.8319 28.3962 13.5084C28.3836 13.5149 28.3709 13.5214 28.3583 13.5281C27.0846 14.2037 26.5081 15.8075 27.073 17.1253C29.7671 23.4092 25.6122 29.5878 22.7331 33.5324L22.4028 32.9095C22.0576 32.2588 21.2503 32.0112 20.5997 32.3563L10.5459 37.6889C9.89523 38.034 9.64758 38.8413 9.99268 39.4919L20.6578 59.5993C21.0029 60.25 21.8103 60.4977 22.4609 60.1526L30.0012 56.1531C31.4454 55.3871 32.2553 53.8888 32.219 52.3558C37.382 51.9529 41.1534 50.2567 45.3398 48.0362C46.0549 47.6569 46.7827 47.262 47.5311 46.8559C48.3587 46.4069 49.2144 45.9426 50.1159 45.4644L53.841 43.4886C55.8766 42.4089 56.6542 39.8745 55.5745 37.8389C55.2115 37.1545 54.6841 36.6124 54.0664 36.2351C54.7826 35.0232 54.8715 33.4777 54.1649 32.1455C53.8019 31.4611 53.2746 30.9189 52.6568 30.5417C53.373 29.3298 53.4619 27.7842 52.7554 26.4521C52.2469 25.4935 51.4157 24.8142 50.4661 24.4762C50.7424 23.4812 50.655 22.3833 50.1341 21.4013ZM29.3783 51.7532C29.7689 52.4896 29.4876 53.4062 28.7513 53.7968L27.4161 54.505L25.3747 50.6563C25.0295 50.0056 24.2222 49.758 23.5716 50.1031C22.921 50.4481 22.6733 51.2555 23.0184 51.9061L25.0597 55.7548L22.3893 57.1712L12.9739 39.4202L20.6713 35.3374L29.3784 51.7532L29.3783 51.7532ZM45.8872 28.3841L47.1439 27.7175L48.3555 27.0748C49.0918 26.6843 50.0085 26.9655 50.399 27.7018C50.7895 28.4382 50.5083 29.3548 49.772 29.7453L48.5603 30.388L48.5153 30.4119L47.3036 31.0546C46.6529 31.3997 46.4053 32.207 46.7504 32.8576C47.0955 33.5083 47.9028 33.756 48.5534 33.4109L49.7651 32.7682C50.5014 32.3777 51.418 32.659 51.8086 33.3953C52.1991 34.1316 51.9179 35.0482 51.1816 35.4388L49.9248 36.1053C49.2741 36.4505 49.0265 37.2578 49.3716 37.9084C49.7167 38.559 50.524 38.8068 51.1747 38.4617C51.911 38.0711 52.8276 38.3524 53.2182 39.0887C53.6087 39.825 53.3274 40.7416 52.5911 41.1322L48.8661 43.108C47.9534 43.5921 47.092 44.0594 46.2591 44.5115C41.0334 47.3468 37.1943 49.4301 31.3497 49.7401L24.1328 36.1338L24.1327 36.1338C24.2238 36.0095 24.3175 35.882 24.413 35.7521C25.9373 33.6783 28.025 30.8381 29.3504 27.5106C30.9729 23.4369 31.0315 19.5891 29.5245 16.0741C29.5066 16.0324 29.5443 15.918 29.6076 15.8845C29.608 15.8843 29.6085 15.884 29.6089 15.8838C31.0441 15.1511 32.8262 15.7136 33.5815 17.1376L33.7907 17.5321C35.0898 19.9812 35.273 21.8696 35.048 24.6728L33.174 25.6668C32.5233 26.012 32.2757 26.8193 32.6208 27.4699C32.9659 28.1206 33.7732 28.3682 34.4238 28.0231L36.9457 26.6855C36.9468 26.6849 36.948 26.6843 36.9492 26.6837L44.4775 22.6906L45.7342 22.024C46.4706 21.6334 47.3872 21.9147 47.7778 22.651C48.1683 23.3873 47.887 24.304 47.1507 24.6945L45.894 25.3611L44.6373 26.0277C43.9866 26.3728 43.739 27.1801 44.084 27.8307C44.4292 28.4814 45.2365 28.7291 45.8872 28.3841Z" fill="#F92F22"/>
<path d="M40.9846 10.07L38.4711 11.4032C37.8204 11.7483 37.5728 12.5556 37.9179 13.2062C38.263 13.8569 39.0703 14.1046 39.7209 13.7595L42.2344 12.4263C42.8851 12.0812 43.1327 11.2739 42.7876 10.6233C42.4425 9.97265 41.6352 9.72489 40.9846 10.07Z" fill="#F92F22"/>
<path d="M23.3928 19.4025L20.8793 20.7357C20.2286 21.0808 19.981 21.8881 20.3261 22.5388C20.6712 23.1894 21.4785 23.4371 22.1291 23.092L24.6426 21.7589C25.2932 21.4138 25.5409 20.6064 25.1958 19.9558C24.8507 19.3052 24.0434 19.0574 23.3928 19.4025Z" fill="#F92F22"/>
<path d="M25.0279 10.9201L22.6166 9.40994C21.9924 9.01899 21.1694 9.20809 20.7786 9.83237C20.3876 10.4566 20.5768 11.2795 21.201 11.6704L23.6123 13.1806C24.0309 13.4429 24.539 13.444 24.9462 13.228C25.146 13.1221 25.3217 12.9637 25.4503 12.7581C25.8412 12.134 25.6521 11.311 25.0279 10.9201Z" fill="#F92F22"/>
<path d="M32.0123 3.87585C31.2761 3.84924 30.658 4.42472 30.6317 5.16065L30.5295 8.00393C30.5029 8.73998 31.0783 9.35819 31.8143 9.38457C32.0566 9.39335 32.2862 9.33678 32.4861 9.23074C32.8933 9.01476 33.1773 8.59341 33.1949 8.09977L33.2971 5.25649C33.3236 4.52048 32.7484 3.9023 32.0123 3.87585Z" fill="#F92F22"/>
</svg>
