<svg width="791" height="338" viewBox="0 0 791 338" fill="none" xmlns="http://www.w3.org/2000/svg">
<path d="M577.466 225.44C578.114 225.657 578.672 225.377 578.859 224.743C579.025 224.18 578.434 223.868 577.595 224.077C575.813 224.521 575.778 224.878 577.466 225.44Z" fill="#F2B918"/>
<path d="M83.9863 0.384875C83.9863 0.58857 84.6529 1.25516 85.5415 1.94212C86.9241 3.00897 86.9587 2.96365 85.8527 1.54135C84.6779 0.0289188 83.9863 -0.399349 83.9863 0.384875Z" fill="#F2B918"/>
<path d="M143.759 1.45127C144.623 2.34141 145.493 2.85625 145.714 2.60876C145.933 2.36687 145.226 1.63714 144.16 1.00772C142.293 -0.0963024 142.274 -0.0764423 143.759 1.45076V1.45127Z" fill="#F2B918"/>
<path d="M112.402 2.25332C111.444 3.38485 111.495 3.50706 112.74 3.05384C113.54 2.76307 114.206 2.15606 114.206 1.72015C114.206 0.585065 113.679 0.7414 112.402 2.25383V2.25332Z" fill="#F2B918"/>
<path d="M85.3661 11.3244C84.9169 12.5711 85.0346 12.6795 85.8987 11.8153C86.5205 11.1926 86.7751 10.4862 86.4767 10.2133C86.1803 9.94238 85.6864 10.4368 85.3661 11.3244Z" fill="#F2B918"/>
<path d="M665.366 12.1255C665.422 13.1933 665.618 13.3904 665.898 12.6602C666.138 12.0368 666.098 11.2577 665.809 10.9705C665.53 10.6894 665.319 11.2379 665.366 12.1255Z" fill="#F2B918"/>
<path d="M149.36 15.7727C148.911 17.0183 149.029 17.1268 149.894 16.2611C150.516 15.6393 150.77 14.9345 150.471 14.6601C150.176 14.3891 149.682 14.8836 149.36 15.7727Z" fill="#F2B918"/>
<path d="M143.926 18.886C143.573 19.5078 143.6 19.7344 143.983 19.3744C144.382 18.9996 145.316 19.1946 146.117 19.82C147.38 20.8074 147.4 20.7529 146.299 19.3306C144.851 17.4627 144.744 17.4424 143.926 18.886Z" fill="#F2B918"/>
<path d="M594.614 27.6023C594.934 28.1365 595.307 28.4924 595.547 28.4924C595.788 28.4924 595.948 28.1365 595.948 27.6023C595.948 27.094 595.547 26.7131 595.016 26.7131C594.482 26.7131 594.31 27.094 594.615 27.6023H594.614Z" fill="#F2B918"/>
<path d="M113.584 31.6041C113.584 32.2034 114.161 32.5472 114.783 32.316C115.406 32.0863 115.983 31.7431 115.983 31.6041C115.983 31.4666 115.406 31.1233 114.783 30.8937C114.161 30.6625 113.584 31.0057 113.584 31.6041Z" fill="#F2B918"/>
<path d="M64.877 32.0503C65.1968 32.5839 65.571 32.9394 65.8099 32.9394C66.0497 32.9394 66.2101 32.5834 66.2101 32.0503C66.2101 31.542 65.8099 31.1611 65.2772 31.1611C64.7435 31.1611 64.5719 31.542 64.877 32.0503Z" fill="#F2B918"/>
<path d="M584.393 32.0502C584.393 32.5299 584.747 33.0646 585.282 33.3839C585.815 33.7037 585.961 33.3839 585.648 32.5834C585.055 31.071 584.393 30.7899 584.393 32.0497L584.393 32.0502Z" fill="#F2B918"/>
<path d="M617.19 32.672C616.085 34.0958 616.118 34.1391 617.502 33.0733C618.39 32.3863 619.057 31.7197 619.057 31.5161C619.057 30.7328 618.365 31.1611 617.19 32.672Z" fill="#F2B918"/>
<path d="M395.577 7.81144C395.127 9.05652 395.246 9.16499 396.111 8.30081C396.733 7.67751 396.986 6.97324 396.687 6.69978C396.391 6.42733 395.898 6.92231 395.577 7.81144Z" fill="#F2B918"/>
<path d="M587.059 38.2754C587.059 38.7836 587.459 39.1645 587.992 39.1645C588.525 39.1645 588.696 38.7836 588.391 38.2754C588.071 37.7422 587.699 37.3862 587.458 37.3862C587.218 37.3862 587.059 37.7422 587.059 38.2754H587.059Z" fill="#F2B918"/>
<path d="M398.241 10.4789C397.791 11.7255 397.91 11.8339 398.774 10.9698C399.396 10.3465 399.651 9.64219 399.353 9.36873C399.057 9.09629 398.562 9.59127 398.241 10.4789Z" fill="#F2B918"/>
<path d="M453.527 12.2588C454.149 12.5088 455.127 12.5088 455.749 12.2588C456.371 12.0103 455.884 11.8142 454.638 11.8142C453.394 11.8142 452.906 12.0103 453.527 12.2588Z" fill="#F2B918"/>
<path d="M676.43 43.3458C675.982 44.5908 676.099 44.6993 676.963 43.8351C677.586 43.2123 677.84 42.5075 677.541 42.2341C677.244 41.9616 676.751 42.4551 676.43 43.3452V43.3458Z" fill="#F2B918"/>
<path d="M669.719 44.5022C669.719 45.018 670.296 45.3913 671.096 45.3913C671.896 45.3913 672.25 45.018 671.941 44.5022C671.621 43.9675 671.07 43.613 670.563 43.613C670.057 43.613 669.719 43.968 669.719 44.5022Z" fill="#F2B918"/>
<path d="M665.366 48.5932C665.422 49.661 665.618 49.8571 665.898 49.1263C666.138 48.5046 666.098 47.7239 665.809 47.4382C665.53 47.1556 665.319 47.704 665.366 48.5932Z" fill="#F2B918"/>
<path d="M200.956 49.0833C201.222 49.5365 201.72 49.645 202.2 49.3542C203.449 48.595 203.356 48.3281 201.845 48.3281C201.133 48.3281 200.718 48.68 200.956 49.0833Z" fill="#F2B918"/>
<path d="M439.972 19.6418C440.292 20.1755 440.666 20.5309 440.905 20.5309C441.146 20.5309 441.306 20.175 441.306 19.6418C441.306 19.1336 440.905 18.7527 440.373 18.7527C439.84 18.7527 439.668 19.1336 439.972 19.6418Z" fill="#F2B918"/>
<path d="M431.084 20.5307C431.404 21.0654 431.777 21.4199 432.017 21.4199C432.258 21.4199 432.418 21.0649 432.418 20.5307C432.418 20.0225 432.017 19.6416 431.483 19.6416C430.952 19.6416 430.779 20.0225 431.083 20.5307H431.084Z" fill="#F2B918"/>
<path d="M400.017 23.1997C399.727 23.6794 399.834 24.1789 400.287 24.4447C400.69 24.682 401.043 24.2675 401.043 23.5556C401.043 22.0432 400.775 21.9505 400.017 23.1997Z" fill="#F2B918"/>
<path d="M329.711 28.6244C329.324 29.2472 329.438 29.4509 329.982 29.1138C330.504 28.7905 331.111 29.0252 331.36 29.647C331.679 30.4475 331.826 30.4602 331.881 29.6918C331.988 28.1794 330.454 27.4252 329.711 28.6239V28.6244Z" fill="#F2B918"/>
<path d="M411.753 28.6693C412.375 29.2911 413.078 29.5457 413.352 29.2473C413.624 28.9504 413.129 28.457 412.24 28.1357C410.996 27.686 410.887 27.8036 411.753 28.6693H411.753Z" fill="#F2B918"/>
<path d="M210.421 61.9363C211.285 62.8254 212.154 63.3387 212.377 63.0912C212.594 62.8493 211.887 62.1221 210.821 61.4917C208.954 60.3877 208.936 60.4075 210.421 61.9363Z" fill="#F2B918"/>
<path d="M411.529 32.0942C411.209 32.6289 411.529 32.7751 412.329 32.4603C413.84 31.8681 414.121 31.2051 412.861 31.2051C412.383 31.2051 411.85 31.561 411.529 32.0942Z" fill="#F2B918"/>
<path d="M370.065 34.5404C368.998 35.924 369.043 35.9576 370.466 34.851C371.977 33.6747 372.404 32.9841 371.621 32.9841C371.417 32.9841 370.752 33.6512 370.065 34.5404Z" fill="#F2B918"/>
<path d="M521.389 34.4065C521.446 35.4744 521.641 35.6704 521.922 34.9412C522.162 34.3184 522.121 33.5377 521.833 33.2505C521.554 32.9694 521.343 33.5179 521.389 34.4065H521.389Z" fill="#F2B918"/>
<path d="M219.842 66.517C218.776 67.9006 218.82 67.9342 220.242 66.8276C221.754 65.6513 222.182 64.9592 221.397 64.9592C221.195 64.9592 220.528 65.6263 219.842 66.517Z" fill="#F2B918"/>
<path d="M490.191 37.4529C489.392 37.9739 489.286 38.3207 489.925 38.3207C490.547 38.3207 491.219 37.95 491.539 37.4316C492.204 36.3489 491.881 36.355 490.191 37.4529Z" fill="#F2B918"/>
<path d="M83.0977 69.7621C83.0977 69.9694 83.6751 70.3417 84.4751 70.6528C85.2757 70.9624 85.6219 70.8137 85.3016 70.2958C84.8061 69.4963 83.0977 69.0828 83.0977 69.7621Z" fill="#F2B918"/>
<path d="M495.611 45.0804C495.668 46.1483 495.864 46.3444 496.145 45.6141C496.385 44.9923 496.344 44.2117 496.056 43.9245C495.775 43.6434 495.566 44.1903 495.612 45.0804H495.611Z" fill="#F2B918"/>
<path d="M211.975 75.9891C211.975 76.1928 212.642 76.8594 213.53 77.5448C214.913 78.6127 214.946 78.5689 213.841 77.1456C212.666 75.6332 211.975 75.2044 211.975 75.9891Z" fill="#F2B918"/>
<path d="M356.644 57.8436C356.227 59.356 356.324 59.6753 357 59C357.503 58.4979 357.769 57.5329 357.578 56.9091C357.382 56.27 356.965 56.6881 356.644 57.8436H356.644Z" fill="#F2B918"/>
<path d="M449.75 63.2246C450.069 63.7593 450.443 64.1152 450.682 64.1152C450.923 64.1152 451.083 63.7593 451.083 63.2246C451.083 62.7164 450.682 62.3354 450.15 62.3354C449.617 62.3354 449.445 62.7164 449.75 63.2246Z" fill="#F2B918"/>
<path d="M480.413 64.1365C479.613 64.6575 479.507 65.0043 480.146 65.0043C480.767 65.0043 481.44 64.6336 481.759 64.1152C482.424 63.0325 482.102 63.0386 480.413 64.1365Z" fill="#F2B918"/>
<path d="M767.2 324.557C767.2 324.354 766.533 323.687 765.644 323.001C764.262 321.933 764.227 321.979 765.333 323.4C766.508 324.913 767.2 325.342 767.2 324.557Z" fill="#F2B918"/>
<path d="M701.443 280.154C700.58 279.267 699.711 278.752 699.489 278.999C699.27 279.241 699.978 279.969 701.044 280.6C702.91 281.704 702.928 281.683 701.443 280.154Z" fill="#F2B918"/>
<path d="M738.782 322.689C739.739 321.557 739.688 321.437 738.444 321.888C737.645 322.181 736.977 322.787 736.977 323.224C736.977 324.357 737.504 324.201 738.782 322.689Z" fill="#F2B918"/>
<path d="M765.822 313.617C766.271 312.372 766.153 312.263 765.288 313.128C764.666 313.751 764.412 314.455 764.712 314.729C765.007 315.002 765.501 314.506 765.822 313.617Z" fill="#F2B918"/>
<path d="M695.846 265.836C696.294 264.59 696.177 264.482 695.311 265.346C694.689 265.967 694.436 266.674 694.734 266.947C695.032 267.219 695.524 266.724 695.846 265.836Z" fill="#F2B918"/>
<path d="M701.279 262.722C701.632 262.099 701.605 261.874 701.223 262.232C700.822 262.608 699.889 262.412 699.09 261.788C697.825 260.799 697.805 260.854 698.906 262.277C700.353 264.144 700.462 264.166 701.279 262.722V262.722Z" fill="#F2B918"/>
<path d="M737.601 293.338C737.601 292.738 737.024 292.395 736.401 292.626C735.779 292.855 735.201 293.199 735.201 293.338C735.201 293.475 735.778 293.818 736.401 294.049C737.023 294.28 737.601 293.937 737.601 293.338Z" fill="#F2B918"/>
<path d="M786.309 292.893C785.989 292.359 785.616 292.005 785.376 292.005C785.136 292.005 784.977 292.359 784.977 292.893C784.977 293.401 785.376 293.783 785.909 293.783C786.443 293.783 786.615 293.401 786.309 292.893Z" fill="#F2B918"/>
<path d="M768.088 255.178C768.088 254.972 767.511 254.6 766.711 254.29C765.91 253.981 765.564 254.129 765.884 254.646C766.38 255.445 768.088 255.859 768.088 255.178Z" fill="#F2B918"/>
<path d="M746.09 210.974C745.465 210.172 745.251 209.278 745.602 208.927C745.956 208.572 745.557 208.554 744.667 208.883C743.78 209.214 743.226 209.538 743.379 209.64C743.526 209.738 744.445 210.398 745.423 211.106C747.023 212.268 747.09 212.254 746.09 210.974Z" fill="#F2B918"/>
<path d="M740.535 210.151C741.335 209.63 741.442 209.282 740.801 209.282C740.179 209.282 739.507 209.653 739.187 210.171C738.523 211.254 738.847 211.249 740.535 210.15V210.151Z" fill="#F2B918"/>
<path d="M710.316 209.239C710.316 208.706 709.935 208.533 709.427 208.838C708.893 209.159 708.539 209.532 708.539 209.772C708.539 210.012 708.894 210.172 709.427 210.172C709.935 210.172 710.316 209.772 710.316 209.239Z" fill="#F2B918"/>
<path d="M734.313 199.5C734.313 199.019 733.957 198.485 733.424 198.165C732.89 197.845 732.744 198.165 733.058 198.967C733.65 200.479 734.313 200.76 734.313 199.5V199.5Z" fill="#F2B918"/>
<path d="M760.088 187.091C760.088 186.627 759.288 185.807 758.31 185.267C757.333 184.729 756.533 184.43 756.533 184.6C756.533 184.773 757.333 185.592 758.31 186.424C759.288 187.256 760.088 187.556 760.088 187.091Z" fill="#F2B918"/>
<path d="M778.487 181.221C778.487 180.508 778.149 179.931 777.732 179.931C777.279 179.931 776.977 180.268 776.977 180.775C776.977 181.284 777.279 181.8 777.732 182.067C778.149 182.311 778.487 181.932 778.487 181.221Z" fill="#F2B918"/>
<path d="M761.332 171.169C761.587 170.738 761.244 170.413 760.533 170.413C759.821 170.413 759.478 170.738 759.732 171.169C759.998 171.623 760.319 171.925 760.533 171.925C760.746 171.925 761.066 171.623 761.332 171.169Z" fill="#F2B918"/>
<path d="M775.11 169.614C775.053 168.546 774.857 168.35 774.576 169.079C774.336 169.702 774.378 170.481 774.664 170.77C774.946 171.05 775.156 170.502 775.11 169.614Z" fill="#F2B918"/>
<path d="M790.336 151.023C791.294 149.892 791.242 149.77 789.997 150.223C789.198 150.514 788.531 151.121 788.531 151.558C788.531 152.691 789.058 152.535 790.336 151.023V151.023Z" fill="#F2B918"/>
<path d="M773.245 138.127C773.245 136.882 773.048 136.393 772.8 137.014C772.551 137.637 772.551 138.616 772.8 139.238C773.048 139.861 773.245 139.372 773.245 138.127Z" fill="#F2B918"/>
<path d="M486.813 88.9992C487.435 89.6225 488.139 89.8771 488.412 89.5787C488.683 89.2813 488.19 88.7868 487.301 88.466C486.057 88.0163 485.948 88.135 486.812 88.9992H486.813Z" fill="#F2B918"/>
<path d="M486.414 92.0241C486.414 92.736 486.751 93.3145 487.168 93.3145C487.623 93.3145 487.925 92.9759 487.925 92.4687C487.925 91.962 487.623 91.4461 487.168 91.1788C486.751 90.9344 486.414 91.3127 486.414 92.0241Z" fill="#F2B918"/>
<path d="M255.908 5.786C255.908 6.26672 256.264 6.79989 256.797 7.11969C257.331 7.43949 257.477 7.11969 257.163 6.31917C256.57 4.80826 255.909 4.52564 255.909 5.786H255.908Z" fill="#F2B918"/>
<path d="M261.33 11.3446C261.529 11.4693 262.53 12.2749 263.597 13.1692C265.019 14.3592 265.679 14.4967 266.174 13.7023C266.564 13.0795 266.453 12.8758 265.908 13.213C265.411 13.5216 264.477 13.1692 263.907 12.4578C263.339 11.7458 262.407 11.123 261.908 11.123C261.375 11.123 261.128 11.2178 261.33 11.3456V11.3446Z" fill="#F2B918"/>
<path d="M260.442 14.3243C260.499 15.3922 260.695 15.5882 260.976 14.859C261.215 14.2362 261.173 13.4556 260.886 13.1694C260.606 12.8883 260.395 13.4352 260.442 14.3243Z" fill="#F2B918"/>
<path d="M273.554 14.4581C272.487 15.8417 272.531 15.8763 273.953 14.7703C275.464 13.5934 275.893 12.9009 275.108 12.9009C274.906 12.9009 274.239 13.569 273.554 14.4581Z" fill="#F2B918"/>
<path d="M255.02 28.3771C255.02 28.5818 255.687 29.2474 256.575 29.9344C257.958 31.0022 257.992 30.9574 256.886 29.5336C255.711 28.0222 255.02 27.5939 255.02 28.3771Z" fill="#F2B918"/>
<path d="M242.664 33.003C242.721 34.0709 242.918 34.2669 243.198 33.5377C243.438 32.9149 243.396 32.1343 243.109 31.8481C242.828 31.567 242.619 32.1139 242.665 33.003H242.664Z" fill="#F2B918"/>
<path d="M239.821 37.5401C238.715 38.9624 238.75 39.0072 240.132 37.9394C241.021 37.2524 241.687 36.5858 241.687 36.3837C241.687 35.5994 240.996 36.0277 239.821 37.5401Z" fill="#F2B918"/>
<path d="M254.398 42.7429C254.398 43.4548 254.737 44.0333 255.154 44.0333C255.607 44.0333 255.909 43.6947 255.909 43.1875C255.909 42.6808 255.607 42.1649 255.154 41.8991C254.737 41.6531 254.398 42.031 254.398 42.7429Z" fill="#F2B918"/>
<path d="M13.8477 55.4831C14.1664 54.9494 14.5402 54.594 14.7806 54.594C15.0204 54.594 15.1808 54.95 15.1808 55.4831C15.1808 55.9924 14.7806 56.3733 14.2479 56.3733C13.7142 56.3733 13.5426 55.9924 13.8477 55.4831Z" fill="#F2B918"/>
<path d="M36.4209 50.4141C35.3148 48.9907 35.3494 48.9454 36.732 50.0133C37.6211 50.7003 38.2877 51.3668 38.2877 51.5705C38.2877 52.3537 37.5962 51.9255 36.4209 50.4141Z" fill="#F2B918"/>
<path d="M2.64523 100.982C3.26752 100.733 3.50176 100.126 3.17891 99.6034C2.84128 99.0585 3.04498 98.945 3.66778 99.3325C4.8655 100.077 4.11183 101.611 2.60092 101.504C1.833 101.448 1.84573 101.303 2.64574 100.982L2.64523 100.982Z" fill="#F2B918"/>
<path d="M30.8669 90.9319C30.5623 90.4236 30.7339 90.0427 31.2671 90.0427C31.8003 90.0427 32.201 90.4236 32.201 90.9319C32.201 91.4666 32.0411 91.821 31.8003 91.821C31.5604 91.821 31.1872 91.4666 30.8674 90.9319H30.8669Z" fill="#F2B918"/>
<path d="M23.2238 87.6404C22.1172 86.2181 22.1524 86.1733 23.5349 87.2396C24.4241 87.9266 25.0901 88.5932 25.0901 88.7969C25.0901 89.5801 24.3986 89.1528 23.2238 87.6404Z" fill="#F2B918"/>
<path d="M737.646 148.102C737.646 148.583 738.002 149.116 738.536 149.437C739.068 149.755 739.215 149.437 738.902 148.637C738.309 147.124 737.647 146.842 737.647 148.102L737.646 148.102Z" fill="#F2B918"/>
<path d="M746.979 153.44C746.688 153.924 746.001 154.067 745.467 153.751C744.897 153.414 744.768 153.617 745.157 154.239C745.68 155.078 746.09 155.083 747.069 154.264C748.313 153.221 748.626 152.551 747.868 152.551C747.655 152.551 747.299 152.905 746.979 153.44H746.979Z" fill="#F2B918"/>
<path d="M715.025 156.375C715.347 157.264 715.841 157.758 716.137 157.486C716.435 157.212 716.182 156.508 715.56 155.886C714.696 155.02 714.577 155.13 715.025 156.375Z" fill="#F2B918"/>
<path d="M502.117 101.772C501.784 102.306 501.709 102.953 501.95 103.194C502.189 103.432 502.63 103.017 502.9 102.305C503.506 100.704 503.001 100.36 502.117 101.772V101.772Z" fill="#F2B918"/>
<path d="M723.082 114.945C722.283 115.465 722.176 115.813 722.816 115.813C723.438 115.813 724.11 115.442 724.43 114.923C725.094 113.841 724.771 113.848 723.082 114.945Z" fill="#F2B918"/>
<path d="M714.107 126.219C713 127.642 713.035 127.687 714.417 126.619C715.305 125.932 715.972 125.265 715.972 125.063C715.972 124.279 715.28 124.707 714.107 126.219Z" fill="#F2B918"/>
<path d="M9.84803 11.1021C8.78118 9.7185 8.82651 9.68337 10.2483 10.791C11.7587 11.9663 12.187 12.6593 11.4038 12.6593C11.2006 12.6593 10.534 11.9922 9.84803 11.1021Z" fill="#F2B918"/>
<path d="M13.1353 9.72385C13.4566 8.83472 13.9501 8.34025 14.2464 8.61218C14.5454 8.88564 14.2907 9.58992 13.669 10.2132C12.8048 11.0789 12.6861 10.9684 13.1353 9.72385Z" fill="#F2B918"/>
<path d="M673.801 107.798C673.801 108.051 674.333 108.681 675.045 109.265C676.023 110.068 676.433 110.04 676.956 109.131C677.315 108.508 677.294 108.283 676.912 108.643C676.544 108.988 675.623 108.838 675.001 108.332C674.379 107.823 673.801 107.566 673.801 107.798H673.801Z" fill="#F2B918"/>
<path d="M679.578 109.31C679.258 109.843 679.578 109.991 680.377 109.676C681.888 109.083 682.171 108.421 680.912 108.421C680.431 108.421 679.897 108.776 679.578 109.31H679.578Z" fill="#F2B918"/>
<path d="M672.822 113.49C671.718 114.913 671.752 114.957 673.134 113.89C674.022 113.203 674.69 112.537 674.69 112.335C674.69 111.55 673.998 111.978 672.822 113.49Z" fill="#F2B918"/>
<path d="M87.7119 124.565C87.9782 125.018 88.4768 125.125 88.956 124.833C90.2041 124.075 90.1119 123.808 88.6005 123.808C87.8891 123.808 87.4746 124.16 87.7114 124.565H87.7119Z" fill="#F2B918"/>
<path d="M96.5 124.429C96.1675 124.964 96.0906 125.611 96.3335 125.853C96.5708 126.091 97.0133 125.675 97.2827 124.964C97.8892 123.363 97.382 123.017 96.4995 124.429H96.5Z" fill="#F2B918"/>
<path d="M92.9571 182.246C92.6521 182.752 92.8232 183.135 93.3574 183.135C93.8906 183.135 94.2903 182.752 94.2903 182.246C94.2903 181.711 94.1304 181.355 93.8901 181.355C93.6502 181.355 93.2775 181.711 92.9571 182.246Z" fill="#F2B918"/>
<path d="M548.922 184.914C548.616 185.421 548.789 185.803 549.322 185.803C549.857 185.803 550.257 185.421 550.257 184.914C550.257 184.379 550.096 184.024 549.857 184.024C549.616 184.024 549.242 184.38 548.922 184.914Z" fill="#F2B918"/>
<path d="M537.411 186.96C537.733 187.848 538.225 188.343 538.521 188.072C538.821 187.797 538.568 187.094 537.944 186.47C537.08 185.606 536.961 185.714 537.411 186.96Z" fill="#F2B918"/>
<path d="M70.7772 208.039C70.4859 208.52 70.5944 209.018 71.0471 209.284C71.4504 209.523 71.8028 209.107 71.8028 208.397C71.8028 206.884 71.535 206.79 70.7767 208.04L70.7772 208.039Z" fill="#F2B918"/>
<path d="M97.2227 211.286C97.2227 212.176 97.5343 212.234 98.4224 211.51C99.0452 211.001 99.6227 210.424 99.6227 210.308C99.6227 210.192 99.0452 210.086 98.4224 210.086C97.8006 210.086 97.2227 210.664 97.2227 211.286Z" fill="#F2B918"/>
<path d="M92.9977 211.597C92.7069 212.078 92.8149 212.576 93.2681 212.843C93.6709 213.081 94.0238 212.665 94.0238 211.953C94.0238 210.441 93.7559 210.349 92.9977 211.597V211.597Z" fill="#F2B918"/>
<path d="M482.25 224.051C481.916 224.584 481.842 225.231 482.083 225.472C482.32 225.711 482.763 225.295 483.033 224.583C483.639 222.982 483.132 222.638 482.25 224.05V224.051Z" fill="#F2B918"/>
<path d="M577.809 229.387C577.809 229.867 578.166 230.402 578.698 230.722C579.232 231.041 579.378 230.722 579.063 229.921C578.473 228.409 577.809 228.127 577.809 229.387Z" fill="#F2B918"/>
<path d="M126.821 249.089C127.088 249.543 127.585 249.65 128.066 249.358C129.313 248.6 129.221 248.332 127.71 248.332C126.999 248.332 126.584 248.685 126.821 249.089Z" fill="#F2B918"/>
<path d="M122.732 249.8C122.732 250.307 123.033 250.823 123.488 251.09C123.904 251.335 124.242 250.956 124.242 250.245C124.242 249.533 123.903 248.954 123.488 248.954C123.033 248.954 122.732 249.294 122.732 249.8Z" fill="#F2B918"/>
<path d="M598.783 251.757C599.051 252.212 599.549 252.317 600.029 252.027C601.276 251.269 601.183 251.001 599.673 251.001C598.962 251.001 598.547 251.354 598.783 251.757Z" fill="#F2B918"/>
<path d="M592.029 252.558C592.029 253.092 592.412 253.262 592.918 252.957C593.452 252.637 593.808 252.264 593.808 252.023C593.808 251.784 593.452 251.623 592.918 251.623C592.412 251.623 592.029 252.023 592.029 252.558Z" fill="#F2B918"/>
<path d="M103.178 261.497C103.178 262.475 103.557 263.035 104.022 262.742C104.505 262.437 104.66 261.675 104.384 260.962C103.677 259.14 103.178 259.361 103.178 261.497Z" fill="#F2B918"/>
<path d="M109.398 264.088C108.255 264.839 108.287 264.964 109.62 264.964C110.509 264.964 111.176 264.585 111.176 264.075C111.176 262.977 111.087 262.978 109.398 264.087V264.088Z" fill="#F2B918"/>
<path d="M519.633 265.854C519.342 266.335 519.449 266.833 519.903 267.1C520.306 267.338 520.658 266.922 520.658 266.21C520.658 264.699 520.39 264.605 519.633 265.854V265.854Z" fill="#F2B918"/>
<path d="M235.611 269.413C235.611 269.894 235.967 270.426 236.5 270.746C237.034 271.066 237.18 270.747 236.867 269.946C236.273 268.436 235.611 268.153 235.611 269.413Z" fill="#F2B918"/>
<path d="M261.476 274.393C261.533 275.461 261.729 275.657 262.01 274.928C262.25 274.305 262.208 273.525 261.922 273.237C261.64 272.957 261.431 273.504 261.477 274.393H261.476Z" fill="#F2B918"/>
<path d="M556.033 274.749C556.353 275.282 556.726 275.638 556.966 275.638C557.206 275.638 557.366 275.282 557.366 274.749C557.366 274.24 556.966 273.86 556.433 273.86C555.899 273.86 555.729 274.24 556.034 274.749H556.033Z" fill="#F2B918"/>
<path d="M315.605 276.395C315.605 276.812 316.184 277.15 316.894 277.15C317.605 277.15 317.983 276.812 317.739 276.395C317.472 275.94 316.956 275.638 316.45 275.638C315.943 275.638 315.605 275.94 315.605 276.395Z" fill="#F2B918"/>
<path d="M519.458 276.305C519.782 276.828 519.546 277.435 518.924 277.685C518.246 277.956 518.435 278.157 519.413 278.2C521.191 278.278 521.511 276.97 519.946 276.021C519.324 275.642 519.12 275.761 519.458 276.306V276.305Z" fill="#F2B918"/>
<path d="M245.166 280.219C245.788 280.841 246.492 281.096 246.766 280.797C247.038 280.501 246.543 280.006 245.655 279.685C244.41 279.236 244.302 279.354 245.166 280.219Z" fill="#F2B918"/>
<path d="M146.73 280.443C146.73 280.686 147.53 281.327 148.508 281.865C149.486 282.403 150.286 282.644 150.286 282.398C150.286 282.153 149.485 281.513 148.508 280.976C147.53 280.438 146.73 280.198 146.73 280.443Z" fill="#F2B918"/>
<path d="M143.174 281.332C143.174 281.536 143.841 282.202 144.729 282.888C146.112 283.955 146.147 283.911 145.041 282.488C143.864 280.976 143.174 280.547 143.174 281.332Z" fill="#F2B918"/>
<path d="M77.136 288.092C77.3799 289.07 77.7405 289.87 77.9355 289.87C78.1311 289.87 78.2915 289.07 78.2915 288.092C78.2915 287.114 77.9314 286.312 77.4915 286.312C77.0515 286.312 76.8916 287.114 77.136 288.092Z" fill="#F2B918"/>
<path d="M187.615 286.668C187.615 286.87 188.282 287.54 189.171 288.224C190.554 289.292 190.588 289.248 189.482 287.824C188.307 286.312 187.615 285.883 187.615 286.668Z" fill="#F2B918"/>
<path d="M624.693 288.224C625.315 288.847 626.019 289.102 626.294 288.803C626.564 288.507 626.07 288.012 625.183 287.692C623.937 287.241 623.829 287.36 624.693 288.224H624.693Z" fill="#F2B918"/>
<path d="M264.539 289.87C264.248 290.351 264.355 290.85 264.809 291.115C265.212 291.353 265.564 290.938 265.564 290.226C265.564 288.714 265.297 288.621 264.539 289.87V289.87Z" fill="#F2B918"/>
<path d="M256.055 294.318C256.055 294.827 256.454 295.206 256.988 295.206C257.521 295.206 257.692 294.827 257.387 294.318C257.068 293.784 256.694 293.428 256.454 293.428C256.215 293.428 256.055 293.784 256.055 294.318Z" fill="#F2B918"/>
<path d="M382.268 294.34C381.469 294.861 381.362 295.206 382.001 295.206C382.624 295.206 383.296 294.835 383.614 294.317C384.281 293.236 383.957 293.242 382.268 294.34Z" fill="#F2B918"/>
<path d="M514.789 295.518C514.065 296.408 514.123 296.719 515.012 296.719C515.634 296.719 516.212 296.14 516.212 295.518C516.212 294.895 516.105 294.317 515.989 294.317C515.876 294.317 515.297 294.895 514.789 295.518Z" fill="#F2B918"/>
<path d="M148.997 296.719C148.547 297.964 148.666 298.072 149.531 297.208C150.152 296.587 150.407 295.881 150.107 295.609C149.811 295.336 149.318 295.83 148.997 296.719V296.719Z" fill="#F2B918"/>
<path d="M299.607 296.986C299.607 297.494 300.007 297.875 300.54 297.875C301.074 297.875 301.245 297.494 300.942 296.986C300.62 296.452 300.249 296.097 300.007 296.097C299.767 296.097 299.607 296.452 299.607 296.986Z" fill="#F2B918"/>
<path d="M569.897 297.52C569.954 298.587 570.151 298.783 570.43 298.053C570.671 297.431 570.629 296.65 570.343 296.364C570.061 296.082 569.851 296.63 569.897 297.52Z" fill="#F2B918"/>
<path d="M84.9571 297.875C84.652 298.383 84.8237 298.765 85.3563 298.765C85.89 298.765 86.2903 298.383 86.2903 297.875C86.2903 297.342 86.1298 296.986 85.89 296.986C85.6501 296.986 85.2764 297.342 84.9571 297.875Z" fill="#F2B918"/>
<path d="M160.951 297.831C160.951 298.281 161.573 298.449 162.284 298.187C162.994 297.927 163.617 297.532 163.617 297.342C163.617 297.152 162.995 296.986 162.284 296.986C161.573 296.986 160.951 297.38 160.951 297.831Z" fill="#F2B918"/>
<path d="M408.488 301.434C408.808 301.966 409.181 302.322 409.421 302.322C409.661 302.322 409.822 301.966 409.822 301.434C409.822 300.925 409.421 300.544 408.888 300.544C408.354 300.544 408.184 300.925 408.488 301.434Z" fill="#F2B918"/>
<path d="M562.253 302.322C561.934 302.856 562.253 303.002 563.054 302.687C564.565 302.096 564.847 301.434 563.589 301.434C563.107 301.434 562.574 301.789 562.253 302.321V302.322Z" fill="#F2B918"/>
<path d="M680.796 258.854C680.543 259.286 680.885 259.609 681.597 259.609C682.307 259.609 682.65 259.286 682.396 258.854C682.13 258.401 681.811 258.097 681.597 258.097C681.383 258.097 681.064 258.4 680.796 258.854Z" fill="#F2B918"/>
<path d="M501.815 306.771C501.51 307.277 501.68 307.66 502.215 307.66C502.748 307.66 503.147 307.278 503.147 306.771C503.147 306.236 502.988 305.88 502.748 305.88C502.508 305.88 502.135 306.236 501.815 306.771Z" fill="#F2B918"/>
<path d="M350.847 309.882C351.108 310.594 351.75 311.217 352.225 311.217C352.758 311.217 352.687 310.684 352.047 309.882C351.478 309.172 350.835 308.548 350.67 308.548C350.504 308.548 350.586 309.172 350.847 309.882Z" fill="#F2B918"/>
<path d="M605.796 311.217C605.462 311.751 605.386 312.397 605.629 312.64C605.865 312.879 606.309 312.462 606.578 311.751C607.184 310.15 606.678 309.805 605.796 311.217Z" fill="#F2B918"/>
<path d="M298.264 312.996C297.931 313.53 297.855 314.177 298.097 314.419C298.334 314.656 298.778 314.241 299.046 313.53C299.651 311.929 299.146 311.583 298.264 312.996Z" fill="#F2B918"/>
<path d="M149.975 315.22C150.235 315.932 150.63 316.554 150.82 316.554C151.01 316.554 151.175 315.932 151.175 315.22C151.175 314.509 150.782 313.885 150.331 313.885C149.881 313.885 149.715 314.509 149.975 315.22Z" fill="#F2B918"/>
<path d="M673.818 276.021C674.44 276.644 675.144 276.897 675.419 276.599C675.689 276.303 675.196 275.808 674.307 275.487C673.062 275.037 672.954 275.156 673.818 276.021Z" fill="#F2B918"/>
<path d="M316.137 320.245C316.405 320.699 316.919 321.001 317.426 321.001C317.933 321.001 318.27 320.699 318.27 320.245C318.27 319.828 317.692 319.49 316.981 319.49C316.271 319.49 315.892 319.828 316.137 320.245Z" fill="#F2B918"/>
<path d="M605.673 323.358C606.004 323.688 605.584 324.47 604.696 325.182C603.275 326.318 603.317 326.341 605.184 325.441C606.962 324.582 607.263 322.779 605.629 322.779C605.309 322.779 605.326 323.012 605.673 323.358Z" fill="#F2B918"/>
<path d="M666.043 281.579C666.043 281.783 666.709 282.449 667.598 283.136C668.981 284.204 669.015 284.159 667.909 282.737C666.733 281.224 666.043 280.796 666.043 281.579Z" fill="#F2B918"/>
<path d="M367.514 326.854C365.863 328.177 365.87 328.184 367.824 327.227C368.891 326.705 369.825 326.042 369.825 325.804C369.825 325.158 369.381 325.361 367.514 326.855V326.854Z" fill="#F2B918"/>
<path d="M327.16 326.694C327.16 326.897 327.827 327.563 328.716 328.25C330.099 329.318 330.134 329.274 329.027 327.851C327.852 326.339 327.16 325.91 327.16 326.694Z" fill="#F2B918"/>
<path d="M514.701 328.118C514.701 328.597 515.057 329.13 515.59 329.45C516.123 329.771 516.271 329.45 515.956 328.649C515.363 327.139 514.701 326.856 514.701 328.118Z" fill="#F2B918"/>
<path d="M581.363 328.472C581.363 328.68 581.94 329.053 582.741 329.363C583.54 329.672 583.888 329.522 583.567 329.007C583.07 328.205 581.363 327.792 581.363 328.472Z" fill="#F2B918"/>
<path d="M292.04 329.896C291.708 330.429 291.632 331.076 291.874 331.318C292.112 331.557 292.554 331.141 292.824 330.429C293.431 328.828 292.923 328.483 292.04 329.896Z" fill="#F2B918"/>
<path d="M241.779 330.963C241.215 332.831 241.285 334.24 241.921 333.852C242.402 333.559 242.543 333.062 242.277 332.609C242.029 332.186 242.322 331.657 242.944 331.409C243.832 331.052 243.832 330.945 242.944 330.874C242.323 330.825 241.809 330.864 241.779 330.963Z" fill="#F2B918"/>
<path d="M253.834 331.675C253.513 332.208 253.834 332.355 254.633 332.041C256.145 331.449 256.425 330.786 255.167 330.786C254.687 330.786 254.153 331.141 253.834 331.675V331.675Z" fill="#F2B918"/>
<path d="M676.531 288.072C677.153 288.313 677.932 288.272 678.219 287.984C678.5 287.701 677.954 287.492 677.064 287.54C675.997 287.595 675.8 287.792 676.531 288.072Z" fill="#F2B918"/>
<path d="M126.776 333.187C126.327 334.432 126.445 334.541 127.309 333.676C127.931 333.054 128.186 332.349 127.886 332.075C127.591 331.803 127.097 332.296 126.776 333.187Z" fill="#F2B918"/>
<path d="M726.128 93.6052C725.86 93.1505 725.363 93.043 724.884 93.3343C723.635 94.0936 723.728 94.3609 725.239 94.3609C725.95 94.3609 726.364 94.0085 726.128 93.6057V93.6052Z" fill="#F2B918"/>
<path d="M730.216 92.8934C730.216 92.3852 729.914 91.8693 729.461 91.6035C729.043 91.3576 728.705 91.7369 728.705 92.4488C728.705 93.1592 729.044 93.7387 729.461 93.7387C729.914 93.7387 730.216 93.3991 730.216 92.8934Z" fill="#F2B918"/>
<path d="M749.772 81.1965C749.772 80.2172 749.393 79.6576 748.928 79.9499C748.445 80.2559 748.29 81.0177 748.566 81.7296C749.271 83.5517 749.772 83.3307 749.772 81.1965Z" fill="#F2B918"/>
<path d="M743.55 78.6055C744.692 77.8523 744.661 77.7271 743.326 77.7271C742.44 77.7271 741.771 78.108 741.771 78.6162C741.771 79.7151 741.862 79.7151 743.55 78.605V78.6055Z" fill="#F2B918"/>
<path d="M706.22 62.2509C706.22 62.0075 705.419 61.3664 704.441 60.8271C703.465 60.2898 702.664 60.049 702.664 60.2939C702.664 60.5383 703.465 61.1795 704.441 61.7172C705.419 62.2555 706.22 62.4953 706.22 62.2509Z" fill="#F2B918"/>
<path d="M709.775 61.3615C709.775 61.1578 709.109 60.4912 708.22 59.8052C706.838 58.7374 706.803 58.7817 707.91 60.205C709.084 61.7174 709.775 62.1457 709.775 61.3615Z" fill="#F2B918"/>
<path d="M775.814 54.6016C775.57 53.6238 775.21 52.8218 775.014 52.8218C774.818 52.8218 774.658 53.6238 774.658 54.6016C774.658 55.5793 775.018 56.3798 775.459 56.3798C775.898 56.3798 776.058 55.5793 775.814 54.6016Z" fill="#F2B918"/>
<path d="M703.951 45.9748C704.401 44.7282 704.282 44.6203 703.416 45.4844C702.794 46.1072 702.541 46.812 702.84 47.0865C703.136 47.3574 703.629 46.8629 703.951 45.9748Z" fill="#F2B918"/>
<path d="M767.991 44.8169C768.297 44.3086 768.125 43.9277 767.591 43.9277C767.057 43.9277 766.658 44.3086 766.658 44.8169C766.658 45.3516 766.818 45.707 767.057 45.707C767.298 45.707 767.671 45.3511 767.991 44.8169Z" fill="#F2B918"/>
<path d="M691.998 44.862C691.998 44.4108 691.377 44.2448 690.666 44.506C689.954 44.7668 689.332 45.1604 689.332 45.3514C689.332 45.5413 689.954 45.7073 690.666 45.7073C691.376 45.7073 691.998 45.3127 691.998 44.862Z" fill="#F2B918"/>
<path d="M702.976 27.4731C702.715 26.7612 702.321 26.1394 702.13 26.1394C701.941 26.1394 701.775 26.7612 701.775 27.4731C701.775 28.185 702.169 28.8078 702.62 28.8078C703.07 28.8078 703.236 28.185 702.976 27.4731Z" fill="#F2B918"/>
<path d="M726.174 9.50635C726.623 8.26126 726.505 8.15127 725.639 9.01697C725.018 9.64028 724.764 10.3445 725.062 10.618C725.358 10.8905 725.852 10.3955 726.174 9.50635Z" fill="#F2B918"/>
<path d="M336.049 333.498C336.049 334.033 336.43 334.203 336.936 333.899C337.47 333.579 337.826 333.205 337.826 332.964C337.826 332.723 337.47 332.563 336.936 332.563C336.43 332.563 336.049 332.964 336.049 333.498Z" fill="#F2B918"/>
<path d="M482.703 333.808C482.703 334.013 483.37 334.68 484.259 335.365C485.643 336.434 485.677 336.389 484.57 334.965C483.395 333.453 482.703 333.025 482.703 333.808Z" fill="#F2B918"/>
<path d="M565.276 336.745C564.171 338.169 564.205 338.212 565.586 337.145C566.475 336.459 567.142 335.792 567.142 335.589C567.142 334.805 566.452 335.233 565.276 336.745Z" fill="#F2B918"/>
<path d="M6.36966 136.836C6.68946 137.37 6.36966 137.517 5.56965 137.203C4.05874 136.609 3.77765 135.947 5.03699 135.947C5.5172 135.947 6.04986 136.302 6.36966 136.836Z" fill="#F2B918"/>
<path d="M28.3235 147.242C27.7017 147.482 26.9211 147.441 26.6344 147.153C26.3538 146.872 26.9017 146.661 27.7898 146.709C28.8567 146.765 29.0533 146.961 28.3235 147.242Z" fill="#F2B918"/>
<path d="M38.8132 158.183C38.8132 158.663 38.4572 159.197 37.924 159.517C37.3909 159.838 37.2442 159.517 37.5579 158.716C38.1506 157.204 38.8132 156.923 38.8132 158.183Z" fill="#F2B918"/>
<path d="M40.101 161.118C39.7807 162.007 39.2862 162.501 38.9903 162.23C38.6914 161.956 38.9455 161.251 39.5683 160.629C40.4325 159.763 40.5511 159.872 40.101 161.118Z" fill="#F2B918"/>
<path d="M57.923 173.304C58.2281 173.812 58.0559 174.193 57.5223 174.193C56.9896 174.193 56.5898 173.812 56.5898 173.304C56.5898 172.769 56.7497 172.414 56.9901 172.414C57.2294 172.414 57.6027 172.77 57.923 173.304Z" fill="#F2B918"/>
<path d="M69.4315 175.35C69.1106 176.24 68.6167 176.733 68.3203 176.461C68.0214 176.187 68.276 175.483 68.8983 174.86C69.7625 173.996 69.8811 174.104 69.4315 175.349V175.35Z" fill="#F2B918"/>
<path d="M29.0339 217.776C29.0339 218.257 28.6779 218.792 28.1447 219.111C27.6116 219.431 27.4649 219.111 27.7786 218.31C28.3713 216.798 29.0339 216.516 29.0339 217.776V217.776Z" fill="#F2B918"/>
<path d="M8.05957 240.146C7.79222 240.601 7.2947 240.709 6.81449 240.416C5.56686 239.658 5.65954 239.391 7.17045 239.391C7.88185 239.391 8.29637 239.744 8.05957 240.147V240.146Z" fill="#F2B918"/>
<path d="M14.8124 240.947C14.8124 241.481 14.432 241.651 13.9243 241.347C13.3906 241.026 13.0352 240.653 13.0352 240.413C13.0352 240.174 13.3906 240.013 13.9243 240.013C14.432 240.013 14.8124 240.413 14.8124 240.947V240.947Z" fill="#F2B918"/>
<path d="M87.2106 254.244C87.5014 254.725 87.3935 255.223 86.9407 255.49C86.5374 255.726 86.1855 255.312 86.1855 254.6C86.1855 253.088 86.4529 252.994 87.2106 254.244Z" fill="#F2B918"/>
<path d="M50.8097 263.139C50.4905 263.673 50.1172 264.028 49.8768 264.028C49.6365 264.028 49.4766 263.673 49.4766 263.139C49.4766 262.631 49.8768 262.251 50.4095 262.251C50.9432 262.251 51.1143 262.631 50.8097 263.139Z" fill="#F2B918"/>
<path d="M87.3841 264.696C87.0608 265.22 87.2955 265.825 87.9173 266.075C88.5961 266.347 88.4067 266.547 87.4289 266.589C85.6512 266.669 85.3314 265.361 86.8953 264.41C87.517 264.031 87.7202 264.15 87.3841 264.696Z" fill="#F2B918"/>
<path d="M92.0507 283.908C92.7748 284.797 92.7173 285.108 91.8292 285.108C91.2064 285.108 90.6289 284.53 90.6289 283.908C90.6289 283.285 90.7364 282.706 90.8509 282.706C90.966 282.706 91.544 283.285 92.0507 283.908Z" fill="#F2B918"/>
<path d="M36.9453 285.91C36.8888 286.976 36.6917 287.173 36.4116 286.443C36.1728 285.821 36.2135 285.041 36.5002 284.753C36.7808 284.472 36.9911 285.019 36.9453 285.91Z" fill="#F2B918"/>
<path d="M44.5889 290.713C44.9087 291.247 44.5889 291.394 43.7884 291.079C42.2775 290.486 41.9964 289.824 43.2557 289.824C43.7359 289.824 44.2681 290.179 44.5889 290.713Z" fill="#F2B918"/>
<path d="M105.028 295.16C105.334 295.667 105.162 296.049 104.628 296.049C104.095 296.049 103.695 295.667 103.695 295.16C103.695 294.625 103.855 294.27 104.096 294.27C104.335 294.27 104.709 294.625 105.028 295.16Z" fill="#F2B918"/>
<path d="M1.04782 299.607C1.38086 300.14 1.45673 300.787 1.21434 301.03C0.977033 301.268 0.534507 300.852 0.265121 300.14C-0.341379 298.539 0.16582 298.194 1.04782 299.607Z" fill="#F2B918"/>
<path d="M1.17018 311.748C0.839689 312.08 1.25879 312.86 2.14741 313.572C3.56716 314.708 3.5254 314.732 1.65905 313.83C-0.118185 312.972 -0.419143 311.17 1.215 311.17C1.5348 311.17 1.51748 311.401 1.17069 311.748H1.17018Z" fill="#F2B918"/>
<path d="M92.1407 316.507C92.1407 316.987 91.7848 317.52 91.2516 317.841C90.7189 318.161 90.5728 317.841 90.8854 317.041C91.4782 315.528 92.1407 315.247 92.1407 316.507Z" fill="#F2B918"/>
<path d="M25.4808 316.862C25.4808 317.069 24.9028 317.443 24.1028 317.753C23.3027 318.062 22.9565 317.913 23.2768 317.397C23.7728 316.595 25.4813 316.182 25.4813 316.862H25.4808Z" fill="#F2B918"/>
<path d="M41.568 325.135C42.6741 326.558 42.6395 326.602 41.2569 325.534C40.3683 324.85 39.7012 324.182 39.7012 323.978C39.7012 323.194 40.3927 323.623 41.568 325.135Z" fill="#F2B918"/>
</svg>
