<svg width="131" height="133" viewBox="0 0 131 133" fill="none" xmlns="http://www.w3.org/2000/svg">
<path d="M37.9675 64.1887C40.2683 65.1765 42.0102 65.2149 41.7011 64.2728C41.4736 63.5808 36.1464 60.7233 35.5024 60.9471C34.277 61.374 35.6674 63.2009 37.9675 64.1887Z" fill="#F92F22"/>
<path d="M46.264 32.3101C47.1197 33.0981 49.8615 35.2544 52.4324 37.1626C55.0037 39.0712 57.9848 41.2955 59.14 42.1677C60.4201 43.1326 61.3635 43.4458 61.5936 42.9806C61.8028 42.5569 60.9068 41.4361 59.5582 40.4331C58.2367 39.4508 55.4458 37.109 53.3786 35.2485C49.1827 31.4713 45.5237 29.2754 45.0448 30.2456C44.869 30.601 45.419 31.5329 46.2644 32.3101L46.264 32.3101Z" fill="#F92F22"/>
<path d="M77.4479 54.3507C80.4982 56.001 82.0878 55.3374 79.3558 53.5546C78.4648 52.9724 77.6476 52.1263 77.5161 51.6499C77.3324 50.9823 75.393 50.4182 74.3415 50.7271C73.2806 51.0385 74.9697 53.01 77.4479 54.3511L77.4479 54.3507Z" fill="#F92F22"/>
<path d="M74.084 9.88868C75.6962 12.3299 77.2187 13.2197 77.1792 11.6989C77.138 10.081 74.4495 6.0661 73.4374 6.10969C71.9837 6.17219 72.1076 6.89538 74.084 9.88868Z" fill="#F92F22"/>
<path d="M83.9616 26.0652C85.8712 28.8979 88.0943 32.3726 88.8545 33.7098C89.6181 35.0545 90.6362 36.1441 91.1069 36.1238C92.3886 36.0685 92.0595 34.9487 89.8148 31.7258C88.6952 30.1157 86.8743 27.1544 85.7408 25.0981C83.5174 21.0626 81.746 18.7096 80.9593 18.7443C79.7355 18.7963 80.78 21.3436 83.962 26.0652L83.9616 26.0652Z" fill="#F92F22"/>
<path d="M38.1617 85.673C30.071 84.5155 23.2596 83.2293 23.0677 82.8217C22.872 82.407 24.4485 82.1534 26.6515 82.2463C32.4751 82.4931 53.0782 86.26 52.9879 87.0615C52.943 87.4565 46.2528 86.8304 38.1616 85.6726L38.1617 85.673Z" fill="#F92F22"/>
<path d="M12.1889 124.737C13.944 124.074 15.424 122.923 15.0864 122.482C14.6574 121.921 12.5745 122.283 11.5279 123.101C11.0355 123.485 11.6272 124.948 12.1889 124.737Z" fill="#F92F22"/>
<path d="M29.6107 118.974C31.5498 118.653 34.5845 117.764 36.4385 116.974C38.2774 116.191 42.0824 114.905 44.9156 114.11C47.749 113.316 50.0967 112.375 50.1458 112.014C50.2994 110.879 48.3718 111.107 42.665 112.901C39.574 113.873 35.0357 115.284 32.4165 116.086C26.5222 117.892 24.677 119.79 29.6107 118.974Z" fill="#F92F22"/>
<path d="M17.6596 121.341C16.8948 122.412 16.9242 122.442 18.1063 121.789C18.782 121.416 19.2217 120.829 19.049 120.532C18.855 120.199 18.676 120.02 18.6028 120.085C18.5349 120.145 18.1113 120.71 17.6596 121.341Z" fill="#F92F22"/>
<path d="M102.397 2.54496C102.994 4.32333 104.089 5.84472 104.543 5.52361C105.119 5.11557 104.834 3.02075 104.056 1.94477C103.69 1.43853 102.206 1.97587 102.397 2.54496Z" fill="#F92F22"/>
<path d="M107.514 20.1668C107.763 22.1164 108.54 25.1819 109.261 27.0637C109.976 28.9302 111.12 32.78 111.81 35.6406C112.499 38.5014 113.353 40.8821 113.712 40.9445C114.841 41.1398 114.683 39.2052 113.101 33.4361C112.244 30.3114 111.001 25.7241 110.297 23.0772C108.709 17.1202 106.88 15.2064 107.514 20.1668Z" fill="#F92F22"/>
<path d="M105.588 8.13656C104.546 7.33284 104.515 7.36107 105.124 8.56652C105.472 9.25547 106.042 9.71655 106.345 9.55485C106.685 9.37329 106.871 9.20101 106.808 9.12545C106.751 9.05542 106.202 8.61124 105.588 8.13656Z" fill="#F92F22"/>
</svg>
