<svg width="204" height="100" viewBox="0 0 204 100" fill="none" xmlns="http://www.w3.org/2000/svg">
<path d="M66.7806 41.0071C67.4136 41.287 68.0523 41.565 68.695 41.8475C69.3432 42.1253 69.9939 42.4038 70.6478 42.683C71.9594 43.2365 73.2878 43.7857 74.6478 44.2781C76.0025 44.7813 77.3656 45.2755 78.7287 45.7359C79.4141 45.9628 80.0903 46.202 80.7779 46.3932C81.4698 46.5846 82.1605 46.7637 82.8482 46.9342C84.3277 47.2939 86.5039 48.1434 88.1987 48.7991C89.495 49.2606 90.7897 49.7252 92.0887 50.1865C92.7396 50.4167 93.3913 50.6436 94.0422 50.8737C94.6963 51.1013 95.3505 51.3323 96.0172 51.5242C97.3459 51.9266 98.6845 52.3273 100.035 52.7173C101.385 53.0983 102.739 53.5082 104.133 53.8123C104.957 54.0048 105.835 54.2739 106.592 54.4095C110.449 55.1616 114.296 55.8708 118.119 56.7143C121.969 57.3983 125.805 58.214 129.696 58.6312C131.062 58.8074 132.431 58.981 133.799 59.1579C135.171 59.2951 136.543 59.434 137.918 59.573L139.983 59.7637C140.672 59.8214 141.362 59.8889 142.055 59.9046C143.44 59.9588 144.827 59.9902 146.214 59.9904C146.986 59.9865 147.787 60.0072 148.613 60.0386C149.026 60.0596 149.446 60.0642 149.87 60.0688C150.292 60.0799 150.719 60.089 151.149 60.0985C152.868 60.1467 154.623 60.2252 156.31 60.285C166.474 60.5124 176.652 60.0941 186.761 59.0036C188.338 58.8746 189.797 58.6595 190.935 58.6375C192.068 58.6058 192.879 58.7213 193.131 59.1018C193.415 59.5328 196.063 59.496 196.282 60.0681C196.564 60.8161 195.674 61.63 193.682 62.431C192.686 62.8284 191.414 63.226 189.881 63.6081C189.496 63.7007 189.097 63.8015 188.681 63.887C188.264 63.966 187.829 64.0431 187.379 64.1181C186.479 64.2681 185.514 64.4127 184.488 64.5476C180.818 65.09 177.03 65.2518 173.296 65.5739C171.508 65.6749 169.722 65.7781 167.94 65.8806L165.262 66.0332C164.368 66.0783 163.473 66.0794 162.579 66.0972C160.791 66.129 158.998 66.1407 157.201 66.122C155.404 66.0637 153.603 65.9341 151.796 65.7755C150.512 65.6505 149.077 65.6362 147.614 65.5319C146.15 65.4548 144.648 65.3993 143.221 65.3343L141.699 65.2606L140.938 65.2216L140.178 65.1578C139.171 65.0646 138.161 64.9706 137.156 64.8737C136.15 64.7746 135.145 64.6725 134.139 64.571C133.639 64.513 133.136 64.4719 132.639 64.3994L131.145 64.1841C129.154 63.8907 127.167 63.5963 125.179 63.3008C123.204 62.9353 121.229 62.5673 119.254 62.2025C118.623 62.0836 117.986 61.9633 117.349 61.8429C116.712 61.7137 116.078 61.5605 115.445 61.4264C114.175 61.1503 112.915 60.8924 111.686 60.682L109.253 60.2573L106.836 59.7401C105.228 59.3872 103.618 59.0302 102.005 58.6762C101.599 58.5905 101.202 58.4864 100.802 58.3783L99.6056 58.0631C98.8069 57.8505 98.0066 57.6374 97.2051 57.4223C96.408 57.2066 95.6071 56.9925 94.8074 56.777C94.4077 56.6654 94.0033 56.5621 93.6065 56.4426L92.418 56.0725C90.9091 55.605 89.4221 55.1431 87.9324 54.6815C87.1903 54.4401 86.4391 54.224 85.701 53.9534C84.9604 53.6822 84.218 53.4045 83.4697 53.1166C81.9226 52.5246 80.2947 51.9723 78.647 51.4297C77.0147 50.8366 75.3614 50.245 73.7425 49.6338C72.6731 49.2268 71.5969 48.8431 70.5352 48.4164C69.4685 47.9955 68.4072 47.5672 67.349 47.1233C65.2315 46.2431 63.1276 45.3267 61.048 44.349C56.8809 42.4108 52.8016 40.2438 48.8803 37.783C44.1354 35.2335 39.5434 32.0859 35.2049 28.6086C30.8754 25.1093 26.7887 21.3017 22.9606 17.3538C22.3542 16.7499 21.7683 16.0727 21.1524 15.3844C20.5496 14.6822 19.9571 13.936 19.3585 13.1666C18.2013 11.6062 17.0627 9.93566 16.1066 8.17965C14.9606 6.14633 14.1995 4.4954 13.681 3.25007C13.4105 2.63272 13.2288 2.10023 13.0939 1.66516C12.962 1.23172 12.8822 0.891886 12.8526 0.639142C12.7405 -0.36856 13.4724 0.0178342 14.9705 1.20692C15.3218 1.49093 15.7196 1.82307 16.1338 2.19566C16.5513 2.56908 16.9722 2.98655 17.4236 3.41959C17.745 3.72617 18.0679 4.05387 18.3943 4.4256C18.5587 4.61351 18.7243 4.81034 18.8948 5.01796C19.0727 5.22399 19.255 5.43978 19.4407 5.67283C20.1776 6.6105 21.0285 7.76806 22.1292 9.26573C22.5224 9.78145 22.8973 10.308 23.31 10.8046C23.7228 11.3011 24.1337 11.7981 24.5432 12.2938C24.9731 12.7706 25.403 13.2473 25.8338 13.7243C26.261 14.2012 26.7201 14.6483 27.1615 15.1038C28.9565 16.9152 30.8359 18.6023 32.7592 20.1953C34.3115 21.4561 35.8499 22.6563 37.46 23.8464C39.0534 25.0512 40.7072 26.2628 42.4484 27.6055C43.7062 28.5691 45.1924 29.4737 46.5854 30.3001C52.9522 34.1014 59.598 37.537 66.7804 41.0044L66.7806 41.0071Z" fill="#F92F22"/>
<path d="M171.071 44.3644C172.356 44.8171 173.665 45.4761 175.147 45.4817C175.545 45.4831 176.055 45.7558 176.44 45.9907C177.61 46.7057 178.804 47.3775 180.115 47.8523C180.312 47.9243 180.499 48.0592 180.692 48.087C182.64 48.3542 184.267 49.4829 186.093 50.0737C187.376 50.493 188.586 51.1352 189.983 51.2582C190.758 51.3198 191.577 51.6928 192.349 51.9938C194.671 52.9055 196.992 53.817 199.314 54.7253C200.036 55.01 200.641 55.3129 200.472 56.1218C200.375 56.5833 200.873 57.1137 200.714 57.6885C200.296 59.1954 198.925 59.9521 196.967 59.4951C196.095 59.2879 195.243 58.952 194.377 58.6875C192.723 58.1771 190.987 57.9434 189.488 56.9403C188.95 56.5856 188.198 56.4322 187.533 56.2442C185.634 55.7228 183.885 54.8609 182.115 54.0477C181.551 53.7854 180.982 53.47 180.393 53.3282C178.836 52.9544 177.328 52.4425 175.829 51.8627C175.117 51.5841 174.42 51.3473 173.732 50.9773C173.024 50.5908 172.165 50.4284 171.375 50.1567C169.285 49.4347 167.143 48.8546 165.165 47.8339C162.589 47.3303 160.285 45.8015 157.643 45.4445C156.825 45.3364 155.92 45.0293 155.142 44.4783C153.318 43.1904 153.223 42.8259 154.63 41.6262C154.967 41.3394 155.355 41.0906 155.763 40.8693C156.343 40.5623 156.906 40.5033 157.776 40.8042C158.991 41.2146 160.296 41.3513 161.561 41.5164C162.577 41.6489 163.562 41.7245 164.533 42.2332C164.88 42.416 165.321 42.4743 165.719 42.551C167.551 42.9101 169.315 43.473 171.072 44.3646L171.071 44.3644Z" fill="#F92F22"/>
<path d="M173.235 77.1853C174.088 76.1271 175.157 75.1216 175.678 73.7359C175.819 73.3654 176.253 72.9815 176.611 72.7062C177.694 71.8639 178.751 70.9959 179.672 69.9517C179.812 69.7966 180.007 69.673 180.102 69.5037C181.073 67.7918 182.735 66.7125 183.987 65.2668C184.87 64.2456 185.94 63.3965 186.611 62.1633C186.981 61.4781 187.658 60.8834 188.249 60.3032C189.927 58.6477 191.645 57.0299 193.368 55.4264L193.909 54.9242L194.399 54.7618C194.811 54.6235 195.239 54.5482 195.644 54.5454C196.827 54.5324 197.696 55.0126 198.179 55.5211C198.668 56.0397 198.764 56.5925 198.486 56.9068C198.337 57.0896 198.366 57.4976 198.268 57.8671C198.174 58.2462 197.957 58.5371 197.664 58.5711C197.301 58.6242 196.941 58.5875 196.625 58.6009C196.468 58.6065 196.309 58.623 196.175 58.6621C196.104 58.6801 196.04 58.7036 195.982 58.7311C195.955 58.7415 195.927 58.7559 195.899 58.7704C195.888 58.777 195.878 58.7831 195.867 58.7932C195.768 58.8464 195.675 58.9713 195.711 58.9261C195.724 58.9018 195.754 58.8275 195.769 58.7283C195.785 58.629 195.766 58.5153 195.757 58.5008L197.125 59.093C197.073 59.1668 197.013 59.249 196.947 59.3288C196.398 60.0166 195.741 60.6292 195.146 61.2838C194.012 62.5437 193.098 63.994 191.598 64.9344C191.062 65.2643 190.629 65.8815 190.203 66.4091C188.988 67.9101 187.542 69.1519 186.14 70.4496C185.691 70.8659 185.191 71.2604 184.844 71.7478C183.934 73.0288 182.927 74.2184 181.868 75.382C181.362 75.9357 180.907 76.4954 180.324 76.9958C179.723 77.5096 179.284 78.2498 178.768 78.8854C177.401 80.566 176.175 82.3603 174.601 83.8696C173.338 86.1069 171.202 87.7819 170.123 90.1638C169.792 90.9046 169.241 91.6584 168.509 92.2318C166.79 93.5801 166.41 93.5711 165.647 91.8954C165.464 91.4964 165.331 91.0532 165.236 90.6033C165.102 89.9664 165.205 89.409 165.734 88.6653C166.48 87.6334 166.98 86.4237 167.522 85.2757C167.952 84.3537 168.321 83.4319 169.109 82.6749C169.391 82.4006 169.584 82.0044 169.781 81.6481C170.698 80.0295 171.803 78.5395 173.235 77.1855L173.235 77.1853Z" fill="#F92F22"/>
</svg>
