<svg width="6" height="6" viewBox="0 0 6 6" fill="none" xmlns="http://www.w3.org/2000/svg">
<path d="M3.53446 2.99996L5.80584 0.72851C5.95366 0.580762 5.95366 0.341873 5.80584 0.194124C5.6581 0.0463759 5.41921 0.0463759 5.27146 0.194124L3.00001 2.46558L0.728623 0.194124C0.580806 0.0463759 0.341986 0.0463759 0.194237 0.194124C0.0464196 0.341873 0.0464196 0.580762 0.194237 0.72851L2.46562 2.99996L0.194237 5.27141C0.0464196 5.41916 0.0464196 5.65805 0.194237 5.8058C0.267869 5.8795 0.364684 5.91653 0.46143 5.91653C0.558176 5.91653 0.654922 5.8795 0.728623 5.8058L3.00001 3.53435L5.27146 5.8058C5.34516 5.8795 5.44191 5.91653 5.53865 5.91653C5.6354 5.91653 5.73214 5.8795 5.80584 5.8058C5.95366 5.65805 5.95366 5.41916 5.80584 5.27141L3.53446 2.99996Z" fill="white"/>
</svg>
