<svg width="16" height="13" viewBox="0 0 16 13" fill="none" xmlns="http://www.w3.org/2000/svg">
<path d="M7.99762 1.12925e-06C6.58639 -0.000513097 5.20015 0.30252 3.97975 0.878307C2.75936 1.45409 1.74831 2.28211 1.04936 3.27822C0.350403 4.27433 -0.0115495 5.40302 0.000280977 6.5496C0.0121114 7.69618 0.397304 8.81979 1.11672 9.80623L0.0443006 12.2034C0.00434178 12.2926 -0.00856835 12.3884 0.0066637 12.4825C0.0218958 12.5766 0.0648213 12.6664 0.131805 12.7441C0.198788 12.8219 0.287856 12.8854 0.391465 12.9293C0.495074 12.9732 0.610172 12.9961 0.727011 12.9962C0.811781 12.996 0.895886 12.9841 0.975665 12.9608L3.92608 12.0888C4.98495 12.5985 6.17431 12.9027 7.40156 12.9778C8.62881 13.053 9.86085 12.8969 11.0017 12.5219C12.1426 12.1469 13.1616 11.563 13.9794 10.8157C14.7971 10.0683 15.3915 9.17776 15.7164 8.21326C16.0412 7.24875 16.0877 6.23634 15.8523 5.25485C15.6168 4.27336 15.1057 3.34926 14.3588 2.55449C13.6119 1.75973 12.6493 1.11575 11.546 0.67268C10.4426 0.229612 9.22835 -0.000588346 7.99762 1.12925e-06Z" fill="#F2B918"/>
</svg>
