<svg width="20" height="19" viewBox="0 0 20 19" fill="none" xmlns="http://www.w3.org/2000/svg">
<path d="M18.2173 5.78669H17.1952C17.1874 5.77798 17.1801 5.76901 17.1717 5.76069L11.5994 0.188318C11.3483 -0.0627728 10.9412 -0.0627728 10.6901 0.188318C10.439 0.439409 10.439 0.846508 10.6901 1.0976L15.3791 5.78665H4.33841L9.0275 1.0976C9.27859 0.846508 9.27859 0.439409 9.0275 0.188318C8.77644 -0.0627728 8.36931 -0.0627728 8.11821 0.188318L2.54584 5.76069C2.53748 5.76905 2.53017 5.77802 2.52235 5.78669H1.50027C0.673017 5.78669 0 6.4597 0 7.28692V8.14421C0 8.93218 0.61059 9.58017 1.38347 9.63997L2.61581 17.0342C2.77151 17.9681 3.57166 18.646 4.51849 18.646H15.3874C16.3411 18.646 17.162 17.934 17.2969 16.9899L18.3471 9.6389C19.1138 9.57289 19.7175 8.92771 19.7175 8.14421V7.28692C19.7176 6.4597 19.0446 5.78669 18.2173 5.78669ZM18.4317 8.14421C18.4317 8.2624 18.3355 8.35852 18.2174 8.35852C18.0199 8.35852 12.0694 8.35852 11.7877 8.35852C11.4327 8.35852 11.1447 8.64639 11.1447 9.0015C11.1447 9.35657 11.4326 9.64448 11.7877 9.64448H17.0474L16.024 16.808C15.979 17.1228 15.7054 17.3601 15.3875 17.3601H4.51849C4.20289 17.3601 3.93616 17.1341 3.88425 16.8228L2.68791 9.64448H7.9299C8.28497 9.64448 8.57287 9.35661 8.57287 9.0015C8.57287 8.64643 8.28501 8.35852 7.9299 8.35852C7.6478 8.35852 1.69683 8.35852 1.50027 8.35852C1.38208 8.35852 1.28596 8.26236 1.28596 8.14421V7.28692C1.28596 7.16873 1.38212 7.07261 1.50027 7.07261H18.2174C18.3355 7.07261 18.4317 7.16877 18.4317 7.28692V8.14421Z" fill="white"/>
<path d="M6.0004 10.9304C5.64533 10.9304 5.35742 11.2183 5.35742 11.5734V15.4312C5.35742 15.7863 5.64529 16.0742 6.0004 16.0742C6.35551 16.0742 6.64338 15.7863 6.64338 15.4312V11.5734C6.64338 11.2183 6.35551 10.9304 6.0004 10.9304Z" fill="white"/>
<path d="M9.8588 10.9304C9.50373 10.9304 9.21582 11.2183 9.21582 11.5734V15.4312C9.21582 15.7863 9.50369 16.0742 9.8588 16.0742C10.2139 16.0742 10.5018 15.7863 10.5018 15.4312V11.5734C10.5018 11.2183 10.2139 10.9304 9.8588 10.9304Z" fill="white"/>
<path d="M13.7172 10.9304C13.3621 10.9304 13.0742 11.2183 13.0742 11.5734V15.4312C13.0742 15.7863 13.3621 16.0742 13.7172 16.0742C14.0723 16.0742 14.3602 15.7863 14.3602 15.4312V11.5734C14.3602 11.2183 14.0723 10.9304 13.7172 10.9304Z" fill="white"/>
</svg>
