<svg width="845" height="361" viewBox="0 0 845 361" fill="none" xmlns="http://www.w3.org/2000/svg">
<path d="M616.54 240.694C617.232 240.926 617.828 240.627 618.027 239.95C618.204 239.348 617.574 239.016 616.678 239.239C614.775 239.713 614.738 240.094 616.54 240.694Z" fill="#2B2A29"/>
<path d="M89.6699 0.410917C89.6699 0.628394 90.3816 1.34009 91.3304 2.07353C92.8065 3.21257 92.8435 3.16418 91.6626 1.64564C90.4083 0.0308756 89.6699 -0.42637 89.6699 0.410917Z" fill="#2B2A29"/>
<path d="M153.487 1.54944C154.409 2.49982 155.339 3.04949 155.575 2.78526C155.808 2.527 155.053 1.74789 153.915 1.07589C151.922 -0.102841 151.901 -0.0816371 153.487 1.5489V1.54944Z" fill="#2B2A29"/>
<path d="M120.007 2.4057C118.984 3.61379 119.039 3.74428 120.369 3.26039C121.222 2.94994 121.934 2.30186 121.934 1.83646C121.934 0.624565 121.371 0.791479 120.007 2.40625V2.4057Z" fill="#2B2A29"/>
<path d="M91.1413 12.0906C90.6617 13.4215 90.7873 13.5373 91.71 12.6147C92.3738 11.9497 92.6457 11.1956 92.327 10.9042C92.0106 10.615 91.4832 11.1429 91.1413 12.0906Z" fill="#2B2A29"/>
<path d="M710.386 12.9458C710.446 14.0859 710.655 14.2963 710.954 13.5167C711.21 12.8512 711.167 12.0193 710.859 11.7127C710.561 11.4126 710.335 11.9981 710.386 12.9458Z" fill="#2B2A29"/>
<path d="M159.465 16.8397C158.985 18.1696 159.112 18.2854 160.036 17.3611C160.7 16.6973 160.97 15.9448 160.652 15.6518C160.336 15.3625 159.809 15.8904 159.465 16.8397Z" fill="#2B2A29"/>
<path d="M153.663 20.1638C153.287 20.8277 153.315 21.0696 153.725 20.6852C154.15 20.2851 155.148 20.4933 156.002 21.161C157.352 22.2152 157.373 22.157 156.197 20.6385C154.651 18.6442 154.537 18.6224 153.663 20.1638Z" fill="#2B2A29"/>
<path d="M634.847 29.4697C635.188 30.04 635.587 30.42 635.843 30.42C636.1 30.42 636.271 30.04 636.271 29.4697C636.271 28.9271 635.843 28.5204 635.275 28.5204C634.706 28.5204 634.522 28.9271 634.848 29.4697H634.847Z" fill="#2B2A29"/>
<path d="M121.27 33.7425C121.27 34.3824 121.886 34.7494 122.549 34.5026C123.215 34.2574 123.831 33.8909 123.831 33.7425C123.831 33.5957 123.215 33.2293 122.549 32.984C121.886 32.7372 121.27 33.1037 121.27 33.7425Z" fill="#2B2A29"/>
<path d="M69.266 34.2188C69.6075 34.7886 70.0071 35.1681 70.2621 35.1681C70.5182 35.1681 70.6894 34.7881 70.6894 34.2188C70.6894 33.6762 70.2621 33.2695 69.6934 33.2695C69.1236 33.2695 68.9404 33.6762 69.266 34.2188Z" fill="#2B2A29"/>
<path d="M623.936 34.2188C623.936 34.731 624.314 35.3019 624.885 35.6428C625.455 35.9842 625.61 35.6428 625.276 34.7881C624.642 33.1733 623.936 32.8732 623.936 34.2183L623.936 34.2188Z" fill="#2B2A29"/>
<path d="M658.952 34.8827C657.772 36.4028 657.808 36.4491 659.285 35.3111C660.233 34.5777 660.945 33.866 660.945 33.6485C660.945 32.8123 660.207 33.2695 658.952 34.8827Z" fill="#2B2A29"/>
<path d="M422.342 8.34008C421.862 9.66941 421.989 9.78522 422.912 8.86257C423.576 8.19709 423.846 7.44516 423.528 7.1532C423.212 6.86232 422.685 7.39079 422.342 8.34008Z" fill="#2B2A29"/>
<path d="M626.782 40.8654C626.782 41.408 627.209 41.8147 627.778 41.8147C628.347 41.8147 628.53 41.408 628.204 40.8654C627.863 40.2962 627.465 39.9161 627.208 39.9161C626.952 39.9161 626.781 40.2962 626.781 40.8654H626.782Z" fill="#2B2A29"/>
<path d="M425.188 11.1879C424.708 12.5189 424.835 12.6347 425.757 11.7121C426.421 11.0466 426.694 10.2947 426.375 10.0027C426.059 9.71182 425.531 10.2403 425.188 11.1879Z" fill="#2B2A29"/>
<path d="M484.214 13.0882C484.877 13.3551 485.921 13.3551 486.586 13.0882C487.25 12.8228 486.73 12.6135 485.399 12.6135C484.071 12.6135 483.55 12.8228 484.214 13.0882Z" fill="#2B2A29"/>
<path d="M722.199 46.2785C721.72 47.6078 721.846 47.7236 722.769 46.8009C723.434 46.136 723.705 45.3835 723.386 45.0916C723.069 44.8007 722.542 45.3275 722.199 46.2779V46.2785Z" fill="#2B2A29"/>
<path d="M715.035 47.5133C715.035 48.064 715.651 48.4625 716.506 48.4625C717.359 48.4625 717.738 48.064 717.407 47.5133C717.066 46.9424 716.478 46.564 715.937 46.564C715.397 46.564 715.035 46.9429 715.035 47.5133Z" fill="#2B2A29"/>
<path d="M710.386 51.8812C710.446 53.0213 710.655 53.2307 710.954 52.4505C711.21 51.7866 711.167 50.9531 710.859 50.6481C710.561 50.3464 710.335 50.9319 710.386 51.8812Z" fill="#2B2A29"/>
<path d="M214.552 52.4043C214.836 52.8882 215.368 53.004 215.88 52.6936C217.214 51.8829 217.115 51.598 215.501 51.598C214.741 51.598 214.299 51.9737 214.552 52.4043Z" fill="#2B2A29"/>
<path d="M469.742 20.9706C470.084 21.5404 470.483 21.9199 470.738 21.9199C470.995 21.9199 471.166 21.5399 471.166 20.9706C471.166 20.428 470.738 20.0214 470.17 20.0214C469.601 20.0214 469.417 20.428 469.742 20.9706Z" fill="#2B2A29"/>
<path d="M460.252 21.92C460.594 22.4909 460.992 22.8693 461.248 22.8693C461.506 22.8693 461.676 22.4903 461.676 21.92C461.676 21.3774 461.248 20.9707 460.679 20.9707C460.111 20.9707 459.927 21.3774 460.252 21.92H460.252Z" fill="#2B2A29"/>
<path d="M427.083 24.7694C426.773 25.2815 426.887 25.8149 427.371 26.0987C427.801 26.3521 428.178 25.9095 428.178 25.1494C428.178 23.5347 427.892 23.4357 427.083 24.7694Z" fill="#2B2A29"/>
<path d="M352.02 30.5614C351.606 31.2263 351.728 31.4438 352.309 31.0839C352.866 30.7387 353.514 30.9893 353.78 31.6531C354.121 32.5078 354.277 32.5214 354.336 31.701C354.451 30.0862 352.813 29.281 352.02 30.5609V30.5614Z" fill="#2B2A29"/>
<path d="M439.613 30.6092C440.277 31.273 441.028 31.5449 441.32 31.2263C441.611 30.9093 441.083 30.3825 440.133 30.0394C438.805 29.5593 438.689 29.6849 439.613 30.6092H439.613Z" fill="#2B2A29"/>
<path d="M224.659 66.127C225.582 67.0763 226.509 67.6244 226.747 67.3601C226.979 67.1019 226.224 66.3255 225.086 65.6524C223.093 64.4737 223.074 64.4949 224.659 66.127Z" fill="#2B2A29"/>
<path d="M439.375 34.2656C439.034 34.8364 439.375 34.9925 440.23 34.6565C441.843 34.0242 442.143 33.3163 440.798 33.3163C440.287 33.3163 439.717 33.6963 439.375 34.2656Z" fill="#2B2A29"/>
<path d="M395.105 36.8775C393.966 38.3547 394.014 38.3906 395.534 37.2091C397.147 35.9532 397.603 35.2159 396.767 35.2159C396.549 35.2159 395.839 35.9282 395.105 36.8775Z" fill="#2B2A29"/>
<path d="M556.668 36.7345C556.73 37.8746 556.938 38.0839 557.238 37.3054C557.494 36.6404 557.45 35.8069 557.143 35.5003C556.845 35.2002 556.619 35.7857 556.669 36.7345H556.668Z" fill="#2B2A29"/>
<path d="M234.717 71.0176C233.578 72.4949 233.625 72.5308 235.144 71.3493C236.757 70.0934 237.214 69.3545 236.377 69.3545C236.161 69.3545 235.449 70.0667 234.717 71.0176Z" fill="#2B2A29"/>
<path d="M523.359 39.9869C522.505 40.5431 522.392 40.9134 523.074 40.9134C523.738 40.9134 524.456 40.5175 524.797 39.9641C525.508 38.8082 525.163 38.8147 523.359 39.9869Z" fill="#2B2A29"/>
<path d="M88.7207 74.4826C88.7207 74.7038 89.3373 75.1013 90.1914 75.4335C91.0461 75.764 91.4158 75.6053 91.0738 75.0523C90.5448 74.1987 88.7207 73.7573 88.7207 74.4826Z" fill="#2B2A29"/>
<path d="M529.147 48.1308C529.207 49.271 529.416 49.4803 529.717 48.7006C529.973 48.0368 529.929 47.2033 529.622 46.8967C529.322 46.5965 529.098 47.1805 529.147 48.1308H529.147Z" fill="#2B2A29"/>
<path d="M226.318 81.1309C226.318 81.3484 227.031 82.0601 227.979 82.7919C229.455 83.932 229.491 83.8852 228.312 82.3656C227.057 80.7508 226.318 80.2931 226.318 81.1309Z" fill="#2B2A29"/>
<path d="M380.776 61.7574C380.331 63.3721 380.435 63.713 381.156 62.9921C381.693 62.456 381.978 61.4257 381.773 60.7597C381.564 60.0774 381.119 60.5237 380.776 61.7574H380.776Z" fill="#2B2A29"/>
<path d="M480.182 67.5026C480.523 68.0735 480.922 68.4536 481.178 68.4536C481.435 68.4536 481.605 68.0735 481.605 67.5026C481.605 66.96 481.178 66.5533 480.609 66.5533C480.04 66.5533 479.856 66.96 480.182 67.5026Z" fill="#2B2A29"/>
<path d="M512.92 68.4764C512.065 69.0326 511.952 69.4029 512.635 69.4029C513.299 69.4029 514.016 69.0071 514.358 68.4536C515.067 67.2977 514.723 67.3042 512.92 68.4764Z" fill="#2B2A29"/>
<path d="M819.112 346.518C819.112 346.301 818.4 345.589 817.45 344.857C815.974 343.716 815.937 343.765 817.118 345.283C818.373 346.898 819.112 347.355 819.112 346.518Z" fill="#2B2A29"/>
<path d="M748.906 299.11C747.985 298.163 747.057 297.613 746.82 297.877C746.586 298.135 747.342 298.913 748.48 299.586C750.473 300.765 750.491 300.742 748.906 299.11Z" fill="#2B2A29"/>
<path d="M788.772 344.523C789.793 343.315 789.738 343.186 788.41 343.669C787.557 343.981 786.844 344.628 786.844 345.094C786.844 346.304 787.406 346.137 788.772 344.523Z" fill="#2B2A29"/>
<path d="M817.64 334.837C818.12 333.507 817.993 333.392 817.07 334.315C816.406 334.98 816.134 335.732 816.454 336.025C816.77 336.316 817.297 335.786 817.64 334.837Z" fill="#2B2A29"/>
<path d="M742.93 283.823C743.408 282.493 743.283 282.377 742.359 283.3C741.695 283.963 741.424 284.718 741.743 285.009C742.06 285.3 742.585 284.771 742.93 283.823Z" fill="#2B2A29"/>
<path d="M748.73 280.498C749.106 279.833 749.078 279.593 748.67 279.975C748.242 280.377 747.246 280.168 746.393 279.501C745.042 278.445 745.021 278.504 746.197 280.024C747.741 282.017 747.857 282.04 748.73 280.499V280.498Z" fill="#2B2A29"/>
<path d="M787.509 313.186C787.509 312.546 786.893 312.179 786.229 312.426C785.564 312.671 784.947 313.037 784.947 313.186C784.947 313.333 785.563 313.699 786.229 313.945C786.893 314.192 787.509 313.826 787.509 313.186Z" fill="#2B2A29"/>
<path d="M839.513 312.711C839.171 312.141 838.773 311.763 838.517 311.763C838.261 311.763 838.09 312.141 838.09 312.711C838.09 313.254 838.517 313.661 839.086 313.661C839.656 313.661 839.839 313.254 839.513 312.711Z" fill="#2B2A29"/>
<path d="M820.06 272.444C820.06 272.225 819.444 271.827 818.589 271.497C817.735 271.166 817.365 271.325 817.706 271.877C818.236 272.73 820.06 273.171 820.06 272.444Z" fill="#2B2A29"/>
<path d="M796.572 225.249C795.905 224.393 795.676 223.438 796.051 223.064C796.429 222.685 796.003 222.665 795.053 223.017C794.106 223.37 793.515 223.716 793.677 223.825C793.834 223.93 794.816 224.635 795.86 225.39C797.568 226.631 797.64 226.616 796.572 225.249Z" fill="#2B2A29"/>
<path d="M790.642 224.37C791.497 223.814 791.61 223.443 790.926 223.443C790.262 223.443 789.545 223.839 789.203 224.392C788.494 225.548 788.839 225.543 790.642 224.369V224.37Z" fill="#2B2A29"/>
<path d="M758.377 223.397C758.377 222.827 757.971 222.644 757.428 222.969C756.859 223.311 756.48 223.71 756.48 223.966C756.48 224.222 756.859 224.393 757.428 224.393C757.971 224.393 758.377 223.966 758.377 223.397Z" fill="#2B2A29"/>
<path d="M783.999 212.998C783.999 212.485 783.619 211.915 783.049 211.573C782.48 211.232 782.324 211.573 782.659 212.429C783.291 214.044 783.999 214.344 783.999 212.999V212.998Z" fill="#2B2A29"/>
<path d="M811.518 199.75C811.518 199.254 810.664 198.38 809.62 197.803C808.576 197.229 807.723 196.909 807.723 197.091C807.723 197.275 808.576 198.15 809.62 199.038C810.664 199.926 811.518 200.246 811.518 199.75Z" fill="#2B2A29"/>
<path d="M831.162 193.483C831.162 192.722 830.8 192.106 830.355 192.106C829.871 192.106 829.549 192.466 829.549 193.007C829.549 193.55 829.872 194.101 830.355 194.386C830.801 194.647 831.162 194.242 831.162 193.483Z" fill="#2B2A29"/>
<path d="M812.847 182.751C813.119 182.29 812.752 181.943 811.993 181.943C811.233 181.943 810.866 182.29 811.138 182.751C811.422 183.235 811.765 183.558 811.993 183.558C812.221 183.558 812.563 183.235 812.847 182.751Z" fill="#2B2A29"/>
<path d="M827.557 181.09C827.497 179.95 827.287 179.741 826.987 180.519C826.731 181.184 826.775 182.017 827.081 182.324C827.382 182.624 827.606 182.039 827.557 181.09Z" fill="#2B2A29"/>
<path d="M843.814 161.242C844.836 160.034 844.781 159.904 843.452 160.387C842.598 160.698 841.887 161.346 841.887 161.812C841.887 163.022 842.449 162.856 843.814 161.242V161.242Z" fill="#2B2A29"/>
<path d="M825.565 147.473C825.565 146.144 825.355 145.621 825.09 146.285C824.824 146.95 824.824 147.996 825.09 148.659C825.355 149.325 825.565 148.802 825.565 147.473Z" fill="#2B2A29"/>
<path d="M519.753 95.0211C520.417 95.6866 521.169 95.9584 521.461 95.6398C521.75 95.3223 521.223 94.7944 520.274 94.4519C518.946 93.9718 518.83 94.0985 519.753 95.0211H519.753Z" fill="#2B2A29"/>
<path d="M519.326 98.2507C519.326 99.0107 519.686 99.6284 520.131 99.6284C520.617 99.6284 520.939 99.2668 520.939 98.7253C520.939 98.1843 520.617 97.6336 520.131 97.3481C519.686 97.0872 519.326 97.4911 519.326 98.2507Z" fill="#2B2A29"/>
<path d="M273.225 6.17731C273.225 6.69056 273.605 7.25981 274.174 7.60125C274.744 7.94269 274.899 7.60125 274.565 6.74656C273.931 5.13342 273.225 4.83167 273.225 6.17731H273.225Z" fill="#2B2A29"/>
<path d="M279.013 12.1122C279.225 12.2454 280.294 13.1056 281.433 14.0603C282.951 15.3309 283.655 15.4777 284.184 14.6295C284.6 13.9646 284.482 13.7471 283.9 14.107C283.369 14.4365 282.372 14.0603 281.764 13.3008C281.158 12.5407 280.162 11.8757 279.63 11.8757C279.061 11.8757 278.796 11.9769 279.013 12.1133V12.1122Z" fill="#2B2A29"/>
<path d="M278.064 15.2935C278.124 16.4336 278.333 16.6429 278.634 15.8643C278.889 15.1994 278.844 14.3659 278.537 14.0604C278.238 13.7602 278.013 14.3442 278.064 15.2935Z" fill="#2B2A29"/>
<path d="M292.063 15.4364C290.924 16.9136 290.971 16.9506 292.489 15.7697C294.103 14.5132 294.56 13.7738 293.723 13.7738C293.507 13.7738 292.794 14.4871 292.063 15.4364Z" fill="#2B2A29"/>
<path d="M272.275 30.2972C272.275 30.5157 272.988 31.2263 273.936 31.9598C275.412 33.0999 275.449 33.0521 274.269 31.5319C273.014 29.9182 272.275 29.461 272.275 30.2972Z" fill="#2B2A29"/>
<path d="M259.084 35.2361C259.145 36.3762 259.355 36.5855 259.654 35.807C259.91 35.142 259.866 34.3085 259.559 34.003C259.26 33.7029 259.036 34.2868 259.085 35.2361H259.084Z" fill="#2B2A29"/>
<path d="M256.048 40.0803C254.867 41.5989 254.904 41.6467 256.38 40.5066C257.329 39.7732 258.04 39.0615 258.04 38.8456C258.04 38.0083 257.303 38.4656 256.048 40.0803Z" fill="#2B2A29"/>
<path d="M271.611 45.6348C271.611 46.3949 271.973 47.0125 272.418 47.0125C272.902 47.0125 273.224 46.651 273.224 46.1094C273.224 45.5685 272.902 45.0177 272.418 44.7339C271.972 44.4713 271.611 44.8747 271.611 45.6348Z" fill="#2B2A29"/>
<path d="M14.7836 59.2374C15.124 58.6676 15.523 58.2881 15.7797 58.2881C16.0357 58.2881 16.207 58.6681 16.207 59.2374C16.207 59.7811 15.7797 60.1878 15.211 60.1878C14.6412 60.1878 14.4579 59.7811 14.7836 59.2374Z" fill="#2B2A29"/>
<path d="M38.8859 53.8254C37.705 52.3058 37.742 52.2574 39.2181 53.3976C40.1674 54.131 40.8791 54.8427 40.8791 55.0602C40.8791 55.8964 40.1407 55.4391 38.8859 53.8254Z" fill="#2B2A29"/>
<path d="M2.82518 107.815C3.48957 107.549 3.73967 106.901 3.39497 106.343C3.0345 105.761 3.25198 105.64 3.91692 106.054C5.19568 106.849 4.39102 108.487 2.77788 108.373C1.95799 108.312 1.97158 108.158 2.82572 107.815L2.82518 107.815Z" fill="#2B2A29"/>
<path d="M32.9551 97.0844C32.63 96.5418 32.8132 96.1351 33.3825 96.1351C33.9517 96.1351 34.3796 96.5418 34.3796 97.0844C34.3796 97.6553 34.2089 98.0337 33.9517 98.0337C33.6956 98.0337 33.2971 97.6553 32.9557 97.0844H32.9551Z" fill="#2B2A29"/>
<path d="M24.7943 93.5705C23.6129 92.052 23.6504 92.0041 25.1265 93.1426C26.0758 93.8761 26.7869 94.5878 26.7869 94.8052C26.7869 95.6414 26.0486 95.1853 24.7943 93.5705Z" fill="#2B2A29"/>
<path d="M787.559 158.124C787.559 158.637 787.939 159.206 788.508 159.549C789.076 159.888 789.234 159.549 788.899 158.694C788.265 157.079 787.559 156.778 787.559 158.123L787.559 158.124Z" fill="#2B2A29"/>
<path d="M797.522 163.822C797.211 164.34 796.477 164.491 795.908 164.154C795.298 163.794 795.161 164.011 795.576 164.676C796.135 165.572 796.572 165.577 797.618 164.702C798.945 163.589 799.28 162.873 798.471 162.873C798.243 162.873 797.863 163.251 797.522 163.822H797.522Z" fill="#2B2A29"/>
<path d="M763.406 166.956C763.75 167.905 764.277 168.433 764.593 168.142C764.911 167.85 764.64 167.098 763.977 166.434C763.054 165.509 762.927 165.627 763.406 166.956Z" fill="#2B2A29"/>
<path d="M536.093 108.659C535.737 109.228 535.657 109.919 535.915 110.177C536.17 110.43 536.641 109.988 536.929 109.228C537.576 107.518 537.036 107.15 536.093 108.658V108.659Z" fill="#2B2A29"/>
<path d="M772.009 122.723C771.156 123.277 771.042 123.649 771.725 123.649C772.389 123.649 773.107 123.253 773.448 122.699C774.158 121.544 773.812 121.551 772.009 122.723Z" fill="#2B2A29"/>
<path d="M762.425 134.759C761.244 136.279 761.281 136.326 762.757 135.186C763.705 134.453 764.417 133.741 764.417 133.525C764.417 132.688 763.678 133.145 762.425 134.759Z" fill="#2B2A29"/>
<path d="M10.5134 11.8535C9.37434 10.3763 9.42273 10.3388 10.9407 11.5213C12.5533 12.7762 13.0106 13.5161 12.1744 13.5161C11.9574 13.5161 11.2457 12.8039 10.5134 11.8535Z" fill="#2B2A29"/>
<path d="M14.0237 10.3818C14.3668 9.43246 14.8936 8.90454 15.2101 9.19487C15.5292 9.48683 15.2574 10.2388 14.5935 10.9042C13.6709 11.8285 13.5442 11.7105 14.0237 10.3818Z" fill="#2B2A29"/>
<path d="M719.393 115.091C719.393 115.362 719.961 116.034 720.721 116.658C721.765 117.515 722.202 117.486 722.761 116.515C723.145 115.85 723.122 115.609 722.714 115.994C722.321 116.362 721.338 116.202 720.674 115.662C720.01 115.118 719.393 114.844 719.393 115.091H719.393Z" fill="#2B2A29"/>
<path d="M725.561 116.706C725.219 117.276 725.561 117.433 726.414 117.097C728.027 116.464 728.329 115.757 726.985 115.757C726.472 115.757 725.902 116.136 725.561 116.706H725.561Z" fill="#2B2A29"/>
<path d="M718.347 121.169C717.169 122.688 717.205 122.735 718.681 121.597C719.628 120.863 720.342 120.151 720.342 119.936C720.342 119.098 719.603 119.555 718.347 121.169Z" fill="#2B2A29"/>
<path d="M93.6462 132.993C93.9305 133.477 94.4628 133.592 94.9744 133.28C96.307 132.47 96.2086 132.185 94.5949 132.185C93.8354 132.185 93.3928 132.561 93.6456 132.993H93.6462Z" fill="#2B2A29"/>
<path d="M103.029 132.849C102.674 133.42 102.592 134.11 102.851 134.369C103.104 134.622 103.577 134.178 103.864 133.42C104.512 131.71 103.97 131.341 103.028 132.849H103.029Z" fill="#2B2A29"/>
<path d="M99.2466 194.577C98.921 195.118 99.1036 195.526 99.674 195.526C100.243 195.526 100.67 195.118 100.67 194.577C100.67 194.006 100.499 193.627 100.243 193.627C99.9866 193.627 99.5886 194.007 99.2466 194.577Z" fill="#2B2A29"/>
<path d="M586.063 197.426C585.737 197.967 585.921 198.375 586.49 198.375C587.061 198.375 587.488 197.967 587.488 197.426C587.488 196.855 587.316 196.476 587.061 196.476C586.804 196.476 586.405 196.856 586.063 197.426Z" fill="#2B2A29"/>
<path d="M573.774 199.61C574.118 200.558 574.644 201.087 574.959 200.797C575.28 200.504 575.009 199.753 574.343 199.088C573.421 198.164 573.294 198.28 573.774 199.61Z" fill="#2B2A29"/>
<path d="M75.5655 222.116C75.2545 222.629 75.3703 223.161 75.8537 223.445C76.2843 223.7 76.6605 223.256 76.6605 222.497C76.6605 220.883 76.3745 220.783 75.565 222.116L75.5655 222.116Z" fill="#2B2A29"/>
<path d="M103.801 225.582C103.801 226.533 104.134 226.595 105.082 225.821C105.747 225.278 106.363 224.662 106.363 224.538C106.363 224.414 105.747 224.301 105.082 224.301C104.418 224.301 103.801 224.918 103.801 225.582Z" fill="#2B2A29"/>
<path d="M99.2899 225.914C98.9794 226.428 99.0947 226.959 99.5786 227.245C100.009 227.498 100.385 227.055 100.385 226.294C100.385 224.68 100.099 224.581 99.2899 225.914V225.914Z" fill="#2B2A29"/>
<path d="M514.88 239.211C514.524 239.78 514.444 240.47 514.702 240.728C514.955 240.983 515.428 240.539 515.716 239.779C516.363 238.07 515.822 237.702 514.88 239.21V239.211Z" fill="#2B2A29"/>
<path d="M616.904 244.908C616.904 245.421 617.285 245.992 617.854 246.333C618.424 246.674 618.58 246.333 618.244 245.478C617.613 243.863 616.904 243.562 616.904 244.908Z" fill="#2B2A29"/>
<path d="M135.401 265.944C135.687 266.428 136.217 266.542 136.731 266.23C138.063 265.421 137.964 265.135 136.351 265.135C135.592 265.135 135.149 265.512 135.401 265.944Z" fill="#2B2A29"/>
<path d="M131.037 266.702C131.037 267.243 131.358 267.794 131.843 268.079C132.288 268.341 132.649 267.936 132.649 267.177C132.649 266.417 132.287 265.799 131.843 265.799C131.358 265.799 131.037 266.162 131.037 266.702Z" fill="#2B2A29"/>
<path d="M639.3 268.792C639.585 269.277 640.117 269.39 640.629 269.08C641.961 268.27 641.862 267.985 640.249 267.985C639.49 267.985 639.047 268.361 639.3 268.792Z" fill="#2B2A29"/>
<path d="M632.088 269.646C632.088 270.217 632.496 270.398 633.037 270.073C633.606 269.732 633.987 269.333 633.987 269.076C633.987 268.821 633.606 268.649 633.037 268.649C632.496 268.649 632.088 269.076 632.088 269.646Z" fill="#2B2A29"/>
<path d="M110.158 279.19C110.158 280.234 110.563 280.833 111.06 280.52C111.575 280.194 111.74 279.381 111.446 278.62C110.692 276.674 110.158 276.91 110.158 279.19Z" fill="#2B2A29"/>
<path d="M116.801 281.957C115.581 282.759 115.615 282.892 117.038 282.892C117.987 282.892 118.699 282.487 118.699 281.943C118.699 280.771 118.604 280.772 116.801 281.956V281.957Z" fill="#2B2A29"/>
<path d="M554.792 283.842C554.482 284.356 554.596 284.888 555.08 285.173C555.511 285.427 555.887 284.983 555.887 284.223C555.887 282.609 555.601 282.509 554.792 283.843V283.842Z" fill="#2B2A29"/>
<path d="M251.553 287.642C251.553 288.156 251.933 288.724 252.502 289.066C253.072 289.407 253.227 289.066 252.893 288.211C252.26 286.599 251.553 286.297 251.553 287.642Z" fill="#2B2A29"/>
<path d="M279.168 292.959C279.229 294.1 279.438 294.309 279.738 293.53C279.994 292.865 279.95 292.033 279.643 291.725C279.343 291.426 279.12 292.011 279.169 292.959H279.168Z" fill="#2B2A29"/>
<path d="M593.657 293.339C593.998 293.909 594.396 294.289 594.653 294.289C594.909 294.289 595.079 293.909 595.079 293.339C595.079 292.796 594.653 292.39 594.083 292.39C593.513 292.39 593.331 292.796 593.657 293.339H593.657Z" fill="#2B2A29"/>
<path d="M336.961 295.097C336.961 295.542 337.579 295.903 338.337 295.903C339.095 295.903 339.499 295.542 339.238 295.097C338.954 294.611 338.403 294.289 337.862 294.289C337.321 294.289 336.961 294.611 336.961 295.097Z" fill="#2B2A29"/>
<path d="M554.606 295.001C554.951 295.559 554.699 296.207 554.035 296.474C553.311 296.764 553.513 296.978 554.558 297.023C556.455 297.107 556.797 295.711 555.126 294.697C554.462 294.293 554.245 294.42 554.606 295.001V295.001Z" fill="#2B2A29"/>
<path d="M261.755 299.179C262.418 299.844 263.171 300.115 263.463 299.796C263.754 299.48 263.225 298.952 262.277 298.61C260.948 298.13 260.832 298.257 261.755 299.179Z" fill="#2B2A29"/>
<path d="M156.658 299.418C156.658 299.678 157.512 300.363 158.556 300.937C159.6 301.512 160.454 301.769 160.454 301.506C160.454 301.245 159.6 300.561 158.556 299.988C157.512 299.413 156.658 299.157 156.658 299.418Z" fill="#2B2A29"/>
<path d="M152.861 300.368C152.861 300.585 153.574 301.297 154.521 302.029C155.998 303.168 156.035 303.121 154.855 301.602C153.599 299.987 152.861 299.53 152.861 300.368Z" fill="#2B2A29"/>
<path d="M82.3547 307.585C82.6151 308.629 83.0001 309.483 83.2083 309.483C83.4171 309.483 83.5883 308.629 83.5883 307.585C83.5883 306.541 83.2039 305.685 82.7342 305.685C82.2644 305.685 82.0937 306.541 82.3547 307.585Z" fill="#2B2A29"/>
<path d="M200.311 306.065C200.311 306.281 201.023 306.996 201.972 307.726C203.448 308.866 203.484 308.82 202.304 307.299C201.049 305.685 200.311 305.227 200.311 306.065Z" fill="#2B2A29"/>
<path d="M666.961 307.726C667.625 308.392 668.377 308.663 668.671 308.344C668.959 308.028 668.432 307.499 667.484 307.159C666.154 306.677 666.039 306.803 666.962 307.726H666.961Z" fill="#2B2A29"/>
<path d="M282.439 309.483C282.128 309.997 282.242 310.529 282.727 310.813C283.157 311.067 283.533 310.624 283.533 309.864C283.533 308.249 283.248 308.15 282.439 309.484V309.483Z" fill="#2B2A29"/>
<path d="M273.381 314.232C273.381 314.776 273.808 315.181 274.377 315.181C274.947 315.181 275.129 314.776 274.804 314.232C274.462 313.663 274.064 313.283 273.808 313.283C273.552 313.283 273.381 313.663 273.381 314.232Z" fill="#2B2A29"/>
<path d="M408.133 314.255C407.279 314.812 407.165 315.18 407.847 315.18C408.513 315.18 409.23 314.784 409.57 314.231C410.281 313.077 409.935 313.084 408.133 314.255Z" fill="#2B2A29"/>
<path d="M549.622 315.514C548.849 316.464 548.91 316.796 549.859 316.796C550.524 316.796 551.141 316.178 551.141 315.514C551.141 314.849 551.027 314.232 550.903 314.232C550.782 314.232 550.164 314.849 549.622 315.514Z" fill="#2B2A29"/>
<path d="M159.079 316.796C158.599 318.125 158.725 318.241 159.649 317.319C160.312 316.655 160.584 315.902 160.264 315.611C159.948 315.32 159.421 315.847 159.079 316.797V316.796Z" fill="#2B2A29"/>
<path d="M319.879 317.081C319.879 317.624 320.306 318.03 320.875 318.03C321.444 318.03 321.627 317.624 321.303 317.081C320.96 316.511 320.563 316.132 320.306 316.132C320.05 316.132 319.879 316.511 319.879 317.081Z" fill="#2B2A29"/>
<path d="M608.458 317.651C608.518 318.79 608.729 318.999 609.027 318.22C609.284 317.556 609.239 316.722 608.934 316.417C608.633 316.115 608.409 316.701 608.458 317.651Z" fill="#2B2A29"/>
<path d="M90.7055 318.03C90.3799 318.573 90.5631 318.981 91.1318 318.981C91.7016 318.981 92.1289 318.573 92.1289 318.03C92.1289 317.461 91.9577 317.081 91.7016 317.081C91.4455 317.081 91.0464 317.461 90.7055 318.03Z" fill="#2B2A29"/>
<path d="M171.842 317.983C171.842 318.464 172.506 318.642 173.265 318.363C174.023 318.085 174.687 317.664 174.687 317.461C174.687 317.258 174.024 317.081 173.265 317.081C172.506 317.081 171.842 317.501 171.842 317.983Z" fill="#2B2A29"/>
<path d="M436.127 321.83C436.469 322.398 436.867 322.778 437.123 322.778C437.379 322.778 437.551 322.398 437.551 321.83C437.551 321.286 437.123 320.88 436.554 320.88C435.984 320.88 435.802 321.286 436.127 321.83Z" fill="#2B2A29"/>
<path d="M600.297 322.778C599.955 323.349 600.297 323.504 601.152 323.168C602.765 322.536 603.066 321.829 601.722 321.829C601.209 321.829 600.639 322.208 600.297 322.777V322.778Z" fill="#2B2A29"/>
<path d="M726.86 276.369C726.59 276.83 726.955 277.175 727.715 277.175C728.474 277.175 728.84 276.83 728.569 276.369C728.284 275.885 727.943 275.561 727.715 275.561C727.487 275.561 727.146 275.885 726.86 276.369Z" fill="#2B2A29"/>
<path d="M535.768 327.527C535.443 328.068 535.624 328.477 536.195 328.477C536.764 328.477 537.191 328.069 537.191 327.527C537.191 326.957 537.021 326.577 536.764 326.577C536.508 326.577 536.11 326.957 535.768 327.527Z" fill="#2B2A29"/>
<path d="M374.588 330.85C374.866 331.61 375.552 332.275 376.058 332.275C376.628 332.275 376.552 331.706 375.869 330.85C375.261 330.091 374.575 329.426 374.398 329.426C374.221 329.426 374.309 330.091 374.588 330.85Z" fill="#2B2A29"/>
<path d="M646.786 332.275C646.429 332.845 646.348 333.535 646.607 333.794C646.859 334.049 647.334 333.604 647.621 332.845C648.267 331.135 647.727 330.767 646.786 332.275Z" fill="#2B2A29"/>
<path d="M318.445 334.175C318.089 334.745 318.008 335.435 318.266 335.694C318.52 335.946 318.993 335.504 319.28 334.745C319.926 333.036 319.387 332.666 318.445 334.175Z" fill="#2B2A29"/>
<path d="M160.122 336.549C160.4 337.309 160.821 337.973 161.024 337.973C161.227 337.973 161.403 337.309 161.403 336.549C161.403 335.789 160.984 335.124 160.502 335.124C160.022 335.124 159.844 335.789 160.122 336.549Z" fill="#2B2A29"/>
<path d="M719.411 294.697C720.075 295.362 720.827 295.633 721.12 295.314C721.408 294.999 720.881 294.47 719.933 294.128C718.604 293.647 718.488 293.774 719.411 294.697Z" fill="#2B2A29"/>
<path d="M337.529 341.914C337.815 342.398 338.364 342.72 338.905 342.72C339.446 342.72 339.806 342.398 339.806 341.914C339.806 341.468 339.189 341.107 338.43 341.107C337.672 341.107 337.267 341.468 337.529 341.914Z" fill="#2B2A29"/>
<path d="M646.654 345.238C647.007 345.59 646.559 346.425 645.611 347.185C644.094 348.398 644.139 348.422 646.132 347.461C648.03 346.545 648.351 344.62 646.607 344.62C646.266 344.62 646.284 344.867 646.654 345.238Z" fill="#2B2A29"/>
<path d="M711.109 300.631C711.109 300.849 711.82 301.561 712.77 302.294C714.246 303.434 714.283 303.386 713.101 301.868C711.847 300.253 711.109 299.796 711.109 300.631Z" fill="#2B2A29"/>
<path d="M392.38 348.97C390.617 350.382 390.625 350.39 392.712 349.369C393.851 348.811 394.848 348.103 394.848 347.849C394.848 347.16 394.373 347.376 392.38 348.971V348.97Z" fill="#2B2A29"/>
<path d="M349.297 348.799C349.297 349.016 350.009 349.727 350.958 350.461C352.435 351.601 352.472 351.554 351.29 350.034C350.036 348.42 349.297 347.963 349.297 348.799Z" fill="#2B2A29"/>
<path d="M549.527 350.319C549.527 350.831 549.907 351.4 550.477 351.742C551.046 352.085 551.204 351.742 550.868 350.887C550.234 349.274 549.527 348.972 549.527 350.319Z" fill="#2B2A29"/>
<path d="M620.701 350.698C620.701 350.919 621.317 351.318 622.172 351.648C623.025 351.979 623.396 351.819 623.054 351.268C622.524 350.413 620.701 349.971 620.701 350.698Z" fill="#2B2A29"/>
<path d="M311.801 352.218C311.447 352.787 311.365 353.478 311.624 353.737C311.878 353.992 312.349 353.547 312.638 352.787C313.286 351.078 312.744 350.71 311.801 352.218Z" fill="#2B2A29"/>
<path d="M258.139 353.357C257.537 355.351 257.611 356.856 258.291 356.442C258.804 356.129 258.955 355.598 258.671 355.114C258.406 354.663 258.719 354.098 259.383 353.833C260.331 353.452 260.331 353.338 259.383 353.263C258.719 353.21 258.171 353.252 258.139 353.357Z" fill="#2B2A29"/>
<path d="M271.008 354.117C270.666 354.687 271.008 354.844 271.862 354.508C273.476 353.876 273.775 353.168 272.431 353.168C271.919 353.168 271.349 353.547 271.008 354.117V354.117Z" fill="#2B2A29"/>
<path d="M722.307 307.564C722.971 307.821 723.803 307.777 724.109 307.47C724.409 307.168 723.825 306.945 722.876 306.996C721.736 307.054 721.527 307.265 722.307 307.564Z" fill="#2B2A29"/>
<path d="M135.354 355.732C134.874 357.061 135.001 357.177 135.923 356.254C136.587 355.589 136.859 354.837 136.539 354.545C136.224 354.254 135.697 354.781 135.354 355.732Z" fill="#2B2A29"/>
<path d="M775.261 99.9389C774.975 99.4533 774.445 99.3386 773.932 99.6496C772.599 100.46 772.698 100.746 774.311 100.746C775.07 100.746 775.513 100.369 775.261 99.9394V99.9389Z" fill="#2B2A29"/>
<path d="M779.625 99.1788C779.625 98.6362 779.302 98.0854 778.819 97.8016C778.373 97.539 778.012 97.944 778.012 98.7041C778.012 99.4626 778.373 100.081 778.819 100.081C779.302 100.081 779.625 99.7186 779.625 99.1788Z" fill="#2B2A29"/>
<path d="M800.504 86.6906C800.504 85.6451 800.099 85.0476 799.602 85.3597C799.086 85.6864 798.921 86.4998 799.216 87.2599C799.969 89.2052 800.504 88.9692 800.504 86.6906Z" fill="#2B2A29"/>
<path d="M793.861 83.9243C795.082 83.1202 795.048 82.9865 793.623 82.9865C792.676 82.9865 791.963 83.3931 791.963 83.9357C791.963 85.109 792.059 85.109 793.861 83.9238V83.9243Z" fill="#2B2A29"/>
<path d="M754.005 66.463C754.005 66.2032 753.15 65.5187 752.106 64.9429C751.064 64.3693 750.209 64.1121 750.209 64.3736C750.209 64.6346 751.064 65.3191 752.106 65.8933C753.15 66.4679 754.005 66.724 754.005 66.463Z" fill="#2B2A29"/>
<path d="M757.8 65.5133C757.8 65.2958 757.089 64.5841 756.14 63.8518C754.664 62.7116 754.627 62.7589 755.808 64.2786C757.063 65.8933 757.8 66.3506 757.8 65.5133Z" fill="#2B2A29"/>
<path d="M828.308 58.2963C828.048 57.2524 827.664 56.3961 827.454 56.3961C827.245 56.3961 827.074 57.2524 827.074 58.2963C827.074 59.3402 827.458 60.1949 827.929 60.1949C828.398 60.1949 828.569 59.3402 828.308 58.2963Z" fill="#2B2A29"/>
<path d="M751.583 49.0856C752.064 47.7546 751.937 47.6394 751.013 48.562C750.349 49.227 750.079 49.9794 750.397 50.2725C750.713 50.5617 751.24 50.0338 751.583 49.0856Z" fill="#2B2A29"/>
<path d="M819.956 47.8492C820.283 47.3066 820.099 46.8999 819.529 46.8999C818.959 46.8999 818.533 47.3066 818.533 47.8492C818.533 48.4201 818.704 48.7996 818.959 48.7996C819.216 48.7996 819.615 48.4195 819.956 47.8492Z" fill="#2B2A29"/>
<path d="M738.821 47.8975C738.821 47.4158 738.158 47.2386 737.399 47.5175C736.638 47.7959 735.975 48.2161 735.975 48.42C735.975 48.6228 736.638 48.8001 737.399 48.8001C738.157 48.8001 738.821 48.3787 738.821 47.8975Z" fill="#2B2A29"/>
<path d="M750.541 29.3321C750.263 28.5721 749.843 27.9082 749.639 27.9082C749.437 27.9082 749.26 28.5721 749.26 29.3321C749.26 30.0922 749.68 30.7572 750.161 30.7572C750.642 30.7572 750.82 30.0922 750.541 29.3321Z" fill="#2B2A29"/>
<path d="M775.309 10.1496C775.787 8.82024 775.662 8.7028 774.738 9.62708C774.074 10.2926 773.803 11.0445 774.122 11.3364C774.438 11.6273 774.964 11.0989 775.309 10.1496Z" fill="#2B2A29"/>
<path d="M358.787 356.064C358.787 356.635 359.194 356.817 359.735 356.492C360.305 356.15 360.684 355.751 360.684 355.494C360.684 355.237 360.304 355.066 359.735 355.066C359.194 355.066 358.787 355.494 358.787 356.064Z" fill="#2B2A29"/>
<path d="M515.365 356.395C515.365 356.613 516.077 357.326 517.027 358.056C518.504 359.198 518.54 359.15 517.358 357.63C516.104 356.015 515.365 355.558 515.365 356.395Z" fill="#2B2A29"/>
<path d="M603.524 359.53C602.344 361.05 602.381 361.097 603.855 359.957C604.805 359.225 605.517 358.513 605.517 358.296C605.517 357.459 604.78 357.916 603.524 359.53Z" fill="#2B2A29"/>
<path d="M6.80072 146.094C7.14216 146.665 6.80072 146.821 5.94658 146.486C4.33344 145.852 4.03332 145.145 5.37788 145.145C5.89058 145.145 6.45928 145.525 6.80072 146.094Z" fill="#2B2A29"/>
<path d="M30.2397 157.205C29.5758 157.461 28.7424 157.417 28.4363 157.11C28.1367 156.81 28.7217 156.585 29.6699 156.635C30.8089 156.695 31.0188 156.905 30.2397 157.205Z" fill="#2B2A29"/>
<path d="M41.4384 168.886C41.4384 169.399 41.0584 169.969 40.4892 170.31C39.9199 170.653 39.7633 170.31 40.0982 169.456C40.7311 167.841 41.4384 167.541 41.4384 168.886Z" fill="#2B2A29"/>
<path d="M42.8135 172.019C42.4715 172.969 41.9436 173.496 41.6277 173.207C41.3085 172.914 41.5798 172.162 42.2448 171.498C43.1674 170.574 43.2941 170.69 42.8135 172.019Z" fill="#2B2A29"/>
<path d="M61.8414 185.03C62.167 185.573 61.9833 185.98 61.4135 185.98C60.8448 185.98 60.418 185.573 60.418 185.03C60.418 184.459 60.5887 184.08 60.8453 184.08C61.1008 184.08 61.4994 184.46 61.8414 185.03Z" fill="#2B2A29"/>
<path d="M74.1284 187.214C73.7859 188.165 73.2585 188.692 72.9421 188.401C72.6229 188.109 72.8947 187.357 73.5591 186.691C74.4818 185.769 74.6085 185.885 74.1284 187.214V187.214Z" fill="#2B2A29"/>
<path d="M30.999 232.512C30.999 233.025 30.619 233.596 30.0497 233.937C29.4805 234.278 29.3239 233.937 29.6588 233.082C30.2916 231.467 30.999 231.166 30.999 232.511V232.512Z" fill="#2B2A29"/>
<path d="M8.60458 256.395C8.31914 256.88 7.78795 256.996 7.27525 256.683C5.9432 255.874 6.04215 255.589 7.65529 255.589C8.41483 255.589 8.85739 255.965 8.60458 256.396V256.395Z" fill="#2B2A29"/>
<path d="M15.8155 257.25C15.8155 257.821 15.4093 258.002 14.8673 257.677C14.2975 257.335 13.918 256.936 13.918 256.68C13.918 256.425 14.2975 256.253 14.8673 256.253C15.4093 256.253 15.8155 256.68 15.8155 257.251V257.25Z" fill="#2B2A29"/>
<path d="M93.112 271.447C93.4225 271.961 93.3072 272.493 92.8239 272.777C92.3933 273.03 92.0176 272.587 92.0176 271.827C92.0176 270.212 92.303 270.113 93.112 271.447Z" fill="#2B2A29"/>
<path d="M54.2476 280.944C53.9067 281.514 53.5082 281.893 53.2516 281.893C52.9949 281.893 52.8242 281.514 52.8242 280.944C52.8242 280.401 53.2516 279.996 53.8203 279.996C54.3901 279.996 54.5727 280.401 54.2476 280.944Z" fill="#2B2A29"/>
<path d="M93.2978 282.606C92.9526 283.165 93.2032 283.812 93.8671 284.078C94.5918 284.369 94.3896 284.582 93.3457 284.628C91.4476 284.713 91.1062 283.316 92.7759 282.301C93.4397 281.897 93.6567 282.024 93.2978 282.606Z" fill="#2B2A29"/>
<path d="M98.2797 303.118C99.0528 304.067 98.9914 304.399 98.0432 304.399C97.3783 304.399 96.7617 303.782 96.7617 303.118C96.7617 302.453 96.8764 301.835 96.9988 301.835C97.1216 301.835 97.7387 302.453 98.2797 303.118Z" fill="#2B2A29"/>
<path d="M39.4451 305.256C39.3847 306.394 39.1743 306.604 38.8753 305.825C38.6203 305.161 38.6638 304.327 38.9699 304.02C39.2694 303.721 39.494 304.304 39.4451 305.256Z" fill="#2B2A29"/>
<path d="M47.606 310.384C47.9474 310.953 47.606 311.11 46.7513 310.774C45.1381 310.141 44.838 309.434 46.1826 309.434C46.6953 309.434 47.2634 309.813 47.606 310.384Z" fill="#2B2A29"/>
<path d="M112.134 315.132C112.46 315.673 112.277 316.081 111.707 316.081C111.138 316.081 110.711 315.673 110.711 315.132C110.711 314.561 110.882 314.181 111.138 314.181C111.394 314.181 111.793 314.561 112.134 315.132Z" fill="#2B2A29"/>
<path d="M1.11872 319.879C1.47429 320.449 1.5553 321.14 1.2965 321.398C1.04314 321.653 0.570674 321.209 0.28306 320.449C-0.364478 318.739 0.17704 318.371 1.11872 319.879Z" fill="#2B2A29"/>
<path d="M1.24948 332.842C0.896623 333.196 1.34408 334.029 2.29283 334.789C3.80864 336.002 3.76406 336.028 1.77143 335.065C-0.126063 334.149 -0.447386 332.225 1.29733 332.225C1.63876 332.225 1.62028 332.471 1.25002 332.842H1.24948Z" fill="#2B2A29"/>
<path d="M98.3753 337.923C98.3753 338.435 97.9953 339.005 97.426 339.347C96.8573 339.689 96.7013 339.347 97.0351 338.493C97.668 336.878 98.3753 336.577 98.3753 337.923Z" fill="#2B2A29"/>
<path d="M27.2043 338.302C27.2043 338.523 26.5872 338.922 25.7331 339.253C24.8789 339.583 24.5092 339.423 24.8512 338.873C25.3808 338.016 27.2049 337.575 27.2049 338.302H27.2043Z" fill="#2B2A29"/>
<path d="M44.3799 347.135C45.5608 348.654 45.5238 348.701 44.0477 347.561C43.099 346.83 42.3867 346.117 42.3867 345.899C42.3867 345.062 43.1251 345.52 44.3799 347.135Z" fill="#2B2A29"/>
</svg>
