<svg width="50" height="76" viewBox="0 0 50 76" fill="none" xmlns="http://www.w3.org/2000/svg">
<path d="M4.17118 61.9437C3.98927 56.9548 5.19566 52.9842 7.76326 50.0745L3.16728 51.0803C2.82205 51.1558 2.4592 51.0724 2.17764 50.8527C1.89616 50.633 1.72573 50.3 1.71273 49.9448C1.50984 44.4141 2.74339 39.9202 5.38212 36.5365L1.65266 36.7891C1.30303 36.8129 0.958679 36.6801 0.712202 36.4266C0.465634 36.1732 0.342147 35.8248 0.374566 35.4751C0.793698 30.9715 2.0951 27.0238 4.24264 23.7416C4.60015 23.195 5.3355 23.0487 5.88527 23.4147C6.43498 23.7804 6.59088 24.5199 6.23338 25.0662C4.52241 27.6812 3.40519 30.7875 2.90428 34.3161L13.6159 33.5905C19.5623 33.186 24.8272 28.2405 25.3523 22.5659C25.4128 21.9122 25.9912 21.4384 26.644 21.5079C26.9692 21.5424 27.2515 21.7052 27.4457 21.9407C27.6413 22.178 27.7472 22.4892 27.7168 22.8172C27.1922 28.4875 31.4478 34.3777 37.2036 35.9478L42.3906 37.3648C42.4032 37.3684 42.4161 37.3711 42.4285 37.3751L47.5994 38.7878C48.1131 27.4153 41.7249 19.3894 30.2906 17.1911C29.689 17.0755 29.2672 16.5221 29.3155 15.912C29.6042 12.2689 29.6927 8.40808 27.3818 4.77404L26.2259 2.95617L22.5936 5.25704L23.7517 7.07843C25.3172 9.54155 25.299 12.57 25.0461 15.4759C24.9929 16.0882 24.4823 16.5526 23.8685 16.547C20.6178 16.5172 17.6143 17.0275 14.9417 18.0635C14.3329 18.2995 13.6418 17.9934 13.3983 17.3798C13.1547 16.7662 13.4507 16.0775 14.0595 15.8414C16.7037 14.8163 19.6257 14.2572 22.759 14.1753C22.883 12.039 22.7667 9.93148 21.7543 8.33873L19.9552 5.50938C19.601 4.95223 19.7607 4.21817 20.3101 3.87033L25.9376 0.305976C26.2025 0.138185 26.5245 0.0838561 26.8326 0.154845C27.1407 0.225834 27.4095 0.416395 27.58 0.684535L29.3792 3.51381C31.8548 7.40703 31.9975 11.3383 31.7591 15.0741C44.146 17.8978 51.0618 27.5271 49.8671 40.44C49.8381 40.7539 49.6859 41.0402 49.4463 41.2377C49.421 41.2586 49.3947 41.2785 49.3674 41.2974C49.0826 41.4942 48.7242 41.5545 48.3871 41.4624L44.7516 40.4693C46.7283 44.3187 47.1178 48.9806 45.9032 54.3763C45.8454 54.6331 45.7046 54.8595 45.5061 55.023C45.4394 55.0781 45.3659 55.1261 45.287 55.1657C44.9738 55.3226 44.6054 55.3313 44.2813 55.1891L39.9268 53.2796C41.9249 56.6506 42.3853 60.7959 41.2896 65.6684C41.2319 65.9252 41.0911 66.1517 40.8927 66.3153C40.8259 66.3704 40.7525 66.4183 40.6737 66.4579C40.3605 66.6149 39.9921 66.6236 39.668 66.4814L31.8541 63.0556C31.6072 62.9472 31.3653 62.8271 31.1269 62.6996C30.78 65.1165 29.747 67.3825 28.1977 69.0212L22.6479 74.8918C22.6145 74.9271 22.5793 74.96 22.5424 74.9905C22.302 75.1886 21.9902 75.2838 21.6743 75.2508C21.3099 75.2129 20.9809 75.009 20.7829 74.698L16.2787 67.6273C15.1126 65.7959 14.5584 63.4497 14.6845 61.0653C14.4333 61.141 14.1798 61.2082 13.9239 61.2642L5.62537 63.0795C5.28014 63.155 4.91721 63.0715 4.63575 62.8517C4.35462 62.6319 4.18418 62.2989 4.17118 61.9437ZM13.8081 35.9659L8.86448 36.3008C5.75381 39.0936 4.14378 43.1701 4.06882 48.4395L12.6173 46.5688C14.1636 46.2286 15.6628 45.4888 16.9681 44.4278C17.2395 43.8563 17.5548 43.3085 17.9169 42.7959L17.578 42.2639C16.3924 40.406 15.7362 38.1243 15.6743 35.7089C15.0606 35.835 14.4379 35.9231 13.8081 35.9659ZM35.8048 48.8862L43.8659 52.4211C44.7628 47.2311 43.934 42.9095 41.3963 39.5525L36.6086 38.2445C35.9883 38.0753 35.3794 37.8624 34.787 37.6097C34.3294 39.6575 33.44 41.6168 32.1189 43.2413C31.868 43.5497 31.5982 43.84 31.3252 44.1286C31.6087 44.7286 31.8342 45.358 32.0015 46.007C33.076 47.2693 34.3861 48.2624 35.8048 48.8862ZM29.0035 43.1007L29.8082 42.2495C31.2295 40.7461 32.2017 38.706 32.5904 36.4446C29.5344 34.4872 27.1708 31.4548 26.0374 28.0919C25.1068 29.7499 23.8437 31.2428 22.3503 32.4738C21.0654 33.533 19.6094 34.3954 18.0508 35.0032C17.9858 37.2358 18.5155 39.3426 19.5736 41.0008L24.1684 48.2156L28.9875 43.1178C28.9926 43.112 28.9983 43.1064 29.0035 43.1007ZM30.7845 59.6278C30.8009 59.6407 30.8165 59.6545 30.8322 59.6682C31.431 60.1626 32.0857 60.5713 32.7812 60.8764L39.246 63.7106C40.1389 58.216 38.6724 54.0554 34.7884 51.0243C33.9367 50.6414 33.1197 50.1533 32.3552 49.5741C32.2202 52.3349 31.1754 55.0794 29.3049 57.056L28.9072 57.4767C29.4309 58.3009 30.0665 59.0266 30.7845 59.6278ZM27.5716 55.4056C29.625 53.2357 30.4276 49.7832 29.7681 46.8391C29.761 46.8125 29.7539 46.7858 29.7487 46.7589C29.6899 46.5076 29.6193 46.2609 29.539 46.0183L24.8617 50.9663C24.8283 51.0016 24.7931 51.0344 24.7562 51.0649C24.5158 51.2631 24.204 51.3582 23.888 51.3254C23.5236 51.2875 23.1946 51.0835 22.9966 50.7724L19.3399 45.0307C17.7754 47.9086 17.7236 51.8029 19.3796 54.4024L23.0591 60.1784L27.5716 55.4056ZM18.2752 66.3652L21.9547 72.1412L26.4641 67.3711C27.9439 65.8059 28.8278 63.4903 28.8789 61.0956C28.2771 60.5416 27.7287 59.918 27.2452 59.2345L23.7524 62.9288C23.7192 62.964 23.6839 62.997 23.647 63.0274C23.4067 63.2255 23.0948 63.3207 22.7789 63.2878C22.4145 63.2498 22.0856 63.0459 21.8874 62.7348L19.1446 58.4292C18.9325 58.6326 18.7141 58.8276 18.4893 59.013C18.0805 59.35 17.6515 59.6557 17.2064 59.9291C16.7812 62.2537 17.1693 64.6281 18.2752 66.3652ZM13.388 58.9378C15.0415 58.5757 16.5916 57.6704 17.8265 56.3599L17.3835 55.6645C15.9841 53.4678 15.5145 50.6373 15.9141 47.9257C15.0549 48.3446 14.1601 48.6642 13.2485 48.8725C8.87674 51.0793 6.67009 54.8712 6.5344 60.437L13.388 58.9378Z" fill="#F2B918"/>
</svg>
