<svg width="43" height="46" viewBox="0 0 43 46" fill="none" xmlns="http://www.w3.org/2000/svg">
<path d="M42.814 25.9345C40.5373 22.9583 37.9427 21.2347 35.0664 20.7756L38.2084 19.1636C38.4444 19.0425 38.6148 18.8209 38.6729 18.5592C38.731 18.2976 38.6708 18.0234 38.5087 17.8115C35.9854 14.5114 33.1253 12.4978 29.9814 11.798L32.2619 10.1636C32.4758 10.0104 32.6118 9.76906 32.6335 9.50456C32.6553 9.24006 32.5605 8.97934 32.3747 8.79228C29.9817 6.38413 27.343 4.71916 24.532 3.84364C24.064 3.69782 23.5683 3.96421 23.4247 4.43867C23.2809 4.91295 23.5437 5.41562 24.0116 5.56135C26.2511 6.25889 28.3813 7.52451 30.3562 9.32892L23.8061 14.0232C20.169 16.6282 14.7585 16.2778 11.7449 13.2421C11.3978 12.8924 10.8365 12.8942 10.4916 13.2461C10.3198 13.4214 10.234 13.6505 10.234 13.8796C10.234 14.1104 10.3213 14.3412 10.4955 14.5166C13.5067 17.5501 13.8545 22.9934 11.2707 26.651L8.94315 29.9484C8.93757 29.9564 8.93146 29.9642 8.92614 29.9724L6.60589 33.2595C0.878284 26.9184 0.745885 19.2199 6.31849 12.4872C6.61174 12.133 6.5918 11.611 6.2725 11.2808C4.36584 9.3087 2.47114 7.11491 2.0743 3.90689L1.87579 2.30211L5.07808 1.90033L5.27703 3.50816C5.54644 5.68219 7.00299 7.42748 8.53692 8.98967C8.86012 9.31886 9.37757 9.34401 9.73037 9.04771C11.5988 7.47833 13.582 6.33975 15.6245 5.66368C16.0897 5.50969 16.3438 5.00243 16.1919 4.53076C16.04 4.05908 15.5398 3.80159 15.0744 3.95549C13.0535 4.62437 11.0943 5.69575 9.24056 7.14438C8.14867 5.96636 7.20974 4.69023 7.03561 3.28436L6.72659 0.786724C6.66571 0.294923 6.22269 -0.0539379 5.73847 0.00688592L0.777345 0.629589C0.543831 0.658877 0.331409 0.781154 0.18687 0.969375C0.0423305 1.1576 -0.0223622 1.39631 0.00688244 1.63305L0.315812 4.13068C0.740923 7.56754 2.53539 9.91245 4.45721 11.9623C-1.3685 19.5121 -0.776076 28.3911 6.08143 35.2992C6.24813 35.4672 6.47296 35.5603 6.70603 35.5603C6.73067 35.5603 6.75539 35.5592 6.7802 35.5572C7.03915 35.5352 7.2755 35.399 7.42678 35.1847L9.05809 32.8737C9.75128 36.0469 11.7516 38.9329 15.0314 41.4778C15.1875 41.5989 15.3771 41.6628 15.5702 41.6628C15.6351 41.6628 15.7006 41.6555 15.7652 41.6408C16.0215 41.5821 16.239 41.4113 16.3588 41.1742L17.969 37.9891C18.4213 40.8955 20.134 43.5161 23.0951 45.8148C23.2511 45.936 23.4409 46 23.6339 46C23.6988 46 23.7642 45.9927 23.8288 45.978C24.0851 45.9194 24.3026 45.7485 24.4224 45.5114L27.3121 39.7964C27.4034 39.6158 27.4862 39.4307 27.5634 39.243C28.9183 40.4772 30.5985 41.2963 32.2782 41.5056L38.2955 42.2557C38.3317 42.2602 38.3678 42.2624 38.4037 42.2624C38.6375 42.2624 38.8636 42.1686 39.0308 41.9988C39.2238 41.8028 39.3169 41.5276 39.2831 41.253L38.5157 35.0072C38.3165 33.3898 37.5173 31.7664 36.3058 30.4456C36.4873 30.3695 36.6663 30.2874 36.8412 30.1977L42.5141 27.2867C42.7501 27.1656 42.9204 26.9439 42.9785 26.6822C43.0364 26.4207 42.9761 26.1465 42.814 25.9345ZM24.8289 15.4907L27.852 13.3242C30.987 13.4564 33.866 15.0486 36.4254 18.0646L30.5813 21.0629C29.5233 21.6042 28.3018 21.8915 27.0392 21.9003C26.6091 21.6989 26.165 21.5322 25.7105 21.4082L25.6527 20.9383C25.4523 19.2962 24.7429 17.6614 23.6255 16.2329C24.0411 16.013 24.4438 15.7666 24.8289 15.4907ZM18.2585 33.4765L15.2777 39.3727C12.2802 36.7951 10.6968 33.8965 10.5636 30.7406L12.7119 27.6971C12.9903 27.3029 13.2413 26.8888 13.4638 26.4597C14.7066 27.4272 16.1572 28.1372 17.6979 28.4473C17.9906 28.5061 18.2854 28.5454 18.5813 28.5822C18.7036 29.065 18.8736 29.5372 19.0865 29.993C19.0669 31.2371 18.7824 32.4378 18.2585 33.4765ZM19.4352 26.8783L18.5627 26.7695C17.0217 26.5775 15.4846 25.8601 14.1796 24.736C15.015 22.1432 14.9359 19.2585 13.9866 16.7696C15.3172 17.2855 16.7617 17.547 18.2143 17.547C19.4642 17.5469 20.7193 17.3511 21.9121 16.9589C23.0158 18.221 23.715 19.694 23.8939 21.1596L24.6777 27.532L19.4526 26.8806C19.4468 26.8797 19.4409 26.8791 19.4352 26.8783ZM26.295 37.3005C26.2916 37.3158 26.2892 37.3312 26.2866 37.3467C26.1759 37.9189 25.9919 38.4682 25.7347 38.977L23.3438 43.7052C20.2032 40.9493 19.066 37.8395 19.8682 34.2295C20.1786 33.601 20.4187 32.9283 20.5849 32.2278C21.9813 33.7623 23.8968 34.8529 25.9239 35.1045L26.3551 35.1583C26.4454 35.8856 26.4237 36.6094 26.295 37.3005ZM26.1397 33.3211C23.9145 33.0448 21.8011 31.4285 20.7773 29.4085C20.7687 29.3897 20.7601 29.3709 20.7503 29.3528C20.6643 29.1792 20.5874 29.0026 20.5181 28.8238L25.5896 29.4561C25.6257 29.4606 25.6618 29.4629 25.6978 29.4629C25.9315 29.4629 26.1576 29.3691 26.3249 29.1992C26.5178 29.0032 26.611 28.728 26.5771 28.4533L25.9534 23.3819C28.2336 24.3017 30.1231 26.5323 30.4052 28.8286L31.0321 33.9307L26.1397 33.3211ZM36.7567 35.2296L37.3836 40.3317L32.4944 39.7222C30.89 39.5222 29.2724 38.6032 28.0994 37.2407C28.1835 36.6325 28.2033 36.0094 28.157 35.3828L31.9438 35.8546C31.9799 35.8591 32.016 35.8614 32.0519 35.8614C32.2857 35.8614 32.5118 35.7676 32.679 35.5977C32.8719 35.4017 32.965 35.1266 32.9313 34.8518L32.464 31.0485C32.6839 31.065 32.9035 31.0737 33.1223 31.0737C33.5199 31.0737 33.9143 31.046 34.3027 30.9918C35.6588 32.1351 36.5678 33.6955 36.7567 35.2296ZM36.0408 28.5944C34.9103 29.1743 33.5802 29.3901 32.2393 29.2207L32.1638 28.6065C31.9254 26.666 30.846 24.8025 29.3197 23.4229C30.0174 23.2552 30.6882 23.0131 31.3156 22.6985C34.9013 21.8892 37.9898 23.0316 40.7259 26.1903L36.0408 28.5944Z" fill="#F2B918"/>
</svg>
