<svg width="789" height="327" viewBox="0 0 789 327" fill="none" xmlns="http://www.w3.org/2000/svg">
<path d="M576.008 218.212C576.654 218.422 577.211 218.152 577.397 217.539C577.563 216.995 576.973 216.694 576.136 216.896C574.359 217.325 574.324 217.669 576.008 218.212Z" fill="#212121"/>
<path d="M332.285 107.47C332.932 107.679 333.489 107.409 333.674 106.797C333.84 106.252 333.251 105.952 332.414 106.153C330.636 106.582 330.601 106.927 332.285 107.47Z" fill="#212121"/>
<path d="M83.7754 0.839023C83.7754 1.03576 84.4403 1.6796 85.3267 2.34311C86.7057 3.37355 86.7403 3.32977 85.637 1.95602C84.4652 0.495217 83.7754 0.0815677 83.7754 0.839023Z" fill="#212121"/>
<path d="M143.397 1.86897C144.259 2.72874 145.127 3.226 145.347 2.98696C145.566 2.75333 144.86 2.0485 143.796 1.44057C141.934 0.37423 141.916 0.393412 143.397 1.86848V1.86897Z" fill="#212121"/>
<path d="M112.117 2.6436C111.161 3.7365 111.213 3.85455 112.454 3.4168C113.252 3.13595 113.917 2.54966 113.917 2.12863C113.917 1.03229 113.391 1.18329 112.117 2.6441V2.6436Z" fill="#212121"/>
<path d="M85.1486 11.4051C84.7006 12.6091 84.818 12.7139 85.6799 11.8792C86.3001 11.2777 86.5541 10.5955 86.2565 10.3319C85.9608 10.0702 85.4681 10.5478 85.1486 11.4051Z" fill="#212121"/>
<path d="M663.682 12.1787C663.738 13.2101 663.934 13.4005 664.213 12.6952C664.452 12.0931 664.412 11.3406 664.124 11.0632C663.845 10.7917 663.635 11.3214 663.682 12.1787Z" fill="#212121"/>
<path d="M148.983 15.7015C148.534 16.9045 148.652 17.0093 149.515 16.1732C150.136 15.5726 150.389 14.8919 150.091 14.6268C149.796 14.3651 149.304 14.8427 148.983 15.7015Z" fill="#212121"/>
<path d="M143.562 18.7085C143.21 19.309 143.237 19.5279 143.619 19.1801C144.017 18.8181 144.949 19.0065 145.747 19.6105C147.008 20.5642 147.028 20.5116 145.929 19.1378C144.485 17.3337 144.378 17.314 143.562 18.7085Z" fill="#212121"/>
<path d="M593.11 27.1271C593.429 27.643 593.801 27.9868 594.041 27.9868C594.281 27.9868 594.441 27.643 594.441 27.1271C594.441 26.6362 594.041 26.2683 593.51 26.2683C592.978 26.2683 592.807 26.6362 593.11 27.1271H593.11Z" fill="#212121"/>
<path d="M113.297 30.9926C113.297 31.5715 113.872 31.9035 114.493 31.6802C115.114 31.4584 115.69 31.1269 115.69 30.9926C115.69 30.8598 115.114 30.5283 114.493 30.3065C113.872 30.0832 113.297 30.4147 113.297 30.9926Z" fill="#212121"/>
<path d="M64.7125 31.4235C65.0315 31.9389 65.4049 32.2823 65.6431 32.2823C65.8823 32.2823 66.0423 31.9384 66.0423 31.4235C66.0423 30.9326 65.6431 30.5647 65.1118 30.5647C64.5794 30.5647 64.4083 30.9326 64.7125 31.4235Z" fill="#212121"/>
<path d="M582.914 31.4235C582.914 31.8868 583.268 32.4033 583.801 32.7116C584.333 33.0205 584.479 32.7116 584.166 31.9384C583.574 30.4776 582.915 30.2061 582.915 31.423L582.914 31.4235Z" fill="#212121"/>
<path d="M615.631 32.024C614.529 33.3992 614.563 33.441 615.943 32.4116C616.828 31.7481 617.493 31.1042 617.493 30.9075C617.493 30.151 616.804 30.5647 615.631 32.024Z" fill="#212121"/>
<path d="M394.576 8.01215C394.128 9.21473 394.246 9.3195 395.109 8.48482C395.729 7.88279 395.981 7.20256 395.684 6.93843C395.389 6.67529 394.896 7.15337 394.576 8.01215Z" fill="#212121"/>
<path d="M585.575 37.4364C585.575 37.9273 585.973 38.2952 586.505 38.2952C587.037 38.2952 587.208 37.9273 586.904 37.4364C586.585 36.9214 586.213 36.5776 585.973 36.5776C585.734 36.5776 585.574 36.9214 585.574 37.4364H585.575Z" fill="#212121"/>
<path d="M397.235 10.5886C396.786 11.7926 396.904 11.8974 397.766 11.0627C398.387 10.4607 398.641 9.78045 398.343 9.51632C398.048 9.25318 397.555 9.73126 397.235 10.5886Z" fill="#212121"/>
<path d="M452.378 12.3076C452.998 12.5491 453.974 12.5491 454.594 12.3076C455.215 12.0675 454.729 11.8782 453.486 11.8782C452.245 11.8782 451.758 12.0675 452.378 12.3076Z" fill="#212121"/>
<path d="M674.721 42.3333C674.273 43.5359 674.39 43.6407 675.252 42.806C675.874 42.2045 676.127 41.5237 675.829 41.2596C675.533 40.9965 675.041 41.4731 674.721 42.3328V42.3333Z" fill="#212121"/>
<path d="M668.027 43.4503C668.027 43.9486 668.603 44.3091 669.401 44.3091C670.199 44.3091 670.552 43.9486 670.244 43.4503C669.925 42.9339 669.375 42.5916 668.87 42.5916C668.365 42.5916 668.027 42.9344 668.027 43.4503Z" fill="#212121"/>
<path d="M663.682 47.4018C663.738 48.4332 663.934 48.6226 664.213 47.9168C664.452 47.3162 664.412 46.5622 664.124 46.2863C663.845 46.0133 663.635 46.543 663.682 47.4018Z" fill="#212121"/>
<path d="M200.448 47.8749C200.713 48.3127 201.21 48.4174 201.689 48.1366C202.935 47.4032 202.842 47.1455 201.335 47.1455C200.625 47.1455 200.211 47.4854 200.448 47.8749Z" fill="#212121"/>
<path d="M509.067 199.197C509.333 199.634 509.829 199.739 510.308 199.458C511.554 198.725 511.461 198.467 509.954 198.467C509.244 198.467 508.83 198.807 509.067 199.197Z" fill="#212121"/>
<path d="M438.859 19.4384C439.178 19.9538 439.551 20.2971 439.789 20.2971C440.029 20.2971 440.189 19.9533 440.189 19.4384C440.189 18.9475 439.789 18.5796 439.258 18.5796C438.726 18.5796 438.555 18.9475 438.859 19.4384Z" fill="#212121"/>
<path d="M429.994 20.2973C430.313 20.8137 430.685 21.156 430.924 21.156C431.165 21.156 431.324 20.8132 431.324 20.2973C431.324 19.8064 430.924 19.4385 430.392 19.4385C429.862 19.4385 429.689 19.8064 429.993 20.2973H429.994Z" fill="#212121"/>
<path d="M399.005 22.875C398.715 23.3383 398.822 23.8208 399.275 24.0776C399.676 24.3068 400.028 23.9064 400.028 23.2188C400.028 21.758 399.761 21.6685 399.005 22.875Z" fill="#212121"/>
<path d="M328.877 28.1147C328.49 28.7162 328.604 28.913 329.147 28.5874C329.668 28.275 330.273 28.5018 330.521 29.1023C330.84 29.8755 330.986 29.8878 331.041 29.1456C331.148 27.6848 329.618 26.9564 328.877 28.1142V28.1147Z" fill="#212121"/>
<path d="M410.713 28.158C411.333 28.7585 412.034 29.0045 412.307 28.7162C412.579 28.4295 412.085 27.9529 411.198 27.6425C409.957 27.2082 409.849 27.3218 410.712 28.158H410.713Z" fill="#212121"/>
<path d="M209.889 60.2895C210.751 61.1483 211.618 61.6441 211.84 61.405C212.057 61.1714 211.352 60.469 210.288 59.8601C208.426 58.7938 208.408 58.813 209.889 60.2895Z" fill="#212121"/>
<path d="M518.508 211.611C519.37 212.47 520.237 212.966 520.459 212.727C520.676 212.493 519.971 211.791 518.907 211.182C517.045 210.116 517.027 210.135 518.508 211.611Z" fill="#212121"/>
<path d="M410.489 31.4657C410.17 31.9822 410.489 32.1233 411.288 31.8194C412.795 31.2473 413.075 30.6069 411.819 30.6069C411.342 30.6069 410.809 30.9507 410.489 31.4657Z" fill="#212121"/>
<path d="M369.129 33.8288C368.065 35.1652 368.11 35.1976 369.53 34.1288C371.037 32.9926 371.463 32.3257 370.682 32.3257C370.478 32.3257 369.814 32.97 369.129 33.8288Z" fill="#212121"/>
<path d="M520.07 33.6992C520.128 34.7306 520.322 34.92 520.602 34.2157C520.841 33.6141 520.8 32.8601 520.514 32.5827C520.235 32.3112 520.025 32.8409 520.071 33.6992H520.07Z" fill="#212121"/>
<path d="M219.286 64.7136C218.222 66.0499 218.266 66.0824 219.685 65.0136C221.192 63.8774 221.619 63.209 220.837 63.209C220.635 63.209 219.969 63.8533 219.286 64.7136Z" fill="#212121"/>
<path d="M527.903 216.035C526.839 217.372 526.883 217.404 528.302 216.335C529.809 215.199 530.237 214.531 529.454 214.531C529.252 214.531 528.587 215.175 527.903 216.035Z" fill="#212121"/>
<path d="M488.953 36.6415C488.156 37.1446 488.05 37.4796 488.688 37.4796C489.308 37.4796 489.978 37.1215 490.297 36.6208C490.961 35.5751 490.639 35.581 488.953 36.6415Z" fill="#212121"/>
<path d="M82.8867 67.8484C82.8867 68.0486 83.4627 68.4081 84.2607 68.7086C85.0592 69.0077 85.4046 68.8641 85.0851 68.3638C84.5909 67.5916 82.8867 67.1922 82.8867 67.8484Z" fill="#212121"/>
<path d="M494.359 44.0089C494.416 45.0403 494.611 45.2297 494.892 44.5244C495.131 43.9238 495.09 43.1698 494.803 42.8924C494.523 42.6209 494.314 43.1492 494.36 44.0089H494.359Z" fill="#212121"/>
<path d="M211.439 73.8627C211.439 74.0594 212.105 74.7033 212.991 75.3653C214.37 76.3967 214.404 76.3544 213.302 74.9797C212.129 73.5189 211.439 73.1047 211.439 73.8627Z" fill="#212121"/>
<path d="M520.059 225.184C520.059 225.381 520.724 226.025 521.61 226.687C522.989 227.718 523.023 227.676 521.921 226.301C520.748 224.841 520.059 224.427 520.059 225.184Z" fill="#212121"/>
<path d="M355.743 56.3364C355.327 57.7972 355.424 58.1056 356.098 57.4534C356.6 56.9684 356.866 56.0363 356.675 55.4338C356.479 54.8165 356.063 55.2204 355.743 56.3364H355.743Z" fill="#212121"/>
<path d="M448.614 61.5338C448.933 62.0503 449.306 62.3941 449.545 62.3941C449.785 62.3941 449.945 62.0503 449.945 61.5338C449.945 61.043 449.545 60.675 449.014 60.675C448.482 60.675 448.311 61.043 448.614 61.5338Z" fill="#212121"/>
<path d="M479.198 62.4149C478.4 62.9181 478.294 63.253 478.932 63.253C479.552 63.253 480.222 62.895 480.541 62.3942C481.204 61.3486 480.883 61.3545 479.198 62.4149Z" fill="#212121"/>
<path d="M775.643 313.687C775.643 313.49 774.977 312.846 774.091 312.183C772.711 311.152 772.677 311.196 773.78 312.569C774.953 314.03 775.643 314.444 775.643 313.687Z" fill="#212121"/>
<path d="M465.301 303.231C465.301 303.034 464.636 302.39 463.749 301.728C462.37 300.696 462.335 300.74 463.438 302.114C464.611 303.574 465.301 303.988 465.301 303.231Z" fill="#212121"/>
<path d="M699.669 271.058C698.808 270.201 697.941 269.704 697.719 269.943C697.501 270.177 698.207 270.88 699.27 271.489C701.132 272.556 701.149 272.535 699.669 271.058Z" fill="#212121"/>
<path d="M413.309 94.7714C412.448 93.9141 411.582 93.4168 411.36 93.6559C411.142 93.8895 411.848 94.5928 412.911 95.2022C414.773 96.2686 414.79 96.2479 413.309 94.7714Z" fill="#212121"/>
<path d="M735.801 312.477C736.756 311.384 736.704 311.268 735.463 311.704C734.666 311.986 734 312.572 734 312.994C734 314.089 734.526 313.938 735.801 312.477Z" fill="#212121"/>
<path d="M425.459 302.022C426.414 300.929 426.363 300.812 425.122 301.248C424.325 301.531 423.658 302.116 423.658 302.538C423.658 303.633 424.184 303.482 425.459 302.022Z" fill="#212121"/>
<path d="M735.233 290.483C735.681 289.28 735.563 289.175 734.7 290.011C734.08 290.613 733.826 291.292 734.125 291.558C734.42 291.821 734.913 291.342 735.233 290.483Z" fill="#212121"/>
<path d="M424.891 280.027C425.339 278.825 425.221 278.72 424.359 279.556C423.738 280.157 423.484 280.837 423.784 281.102C424.079 281.365 424.571 280.886 424.891 280.027Z" fill="#212121"/>
<path d="M694.087 257.229C694.534 256.026 694.417 255.921 693.554 256.755C692.933 257.356 692.68 258.038 692.978 258.302C693.275 258.565 693.765 258.087 694.087 257.229Z" fill="#212121"/>
<path d="M407.728 80.9415C408.175 79.7384 408.058 79.6341 407.194 80.4683C406.574 81.0689 406.321 81.7511 406.619 82.0147C406.915 82.2778 407.406 81.7998 407.728 80.9415Z" fill="#212121"/>
<path d="M699.506 254.221C699.857 253.619 699.831 253.402 699.449 253.748C699.05 254.112 698.119 253.922 697.322 253.319C696.06 252.364 696.04 252.417 697.139 253.792C698.581 255.595 698.69 255.616 699.506 254.222V254.221Z" fill="#212121"/>
<path d="M413.146 77.9343C413.498 77.3322 413.471 77.1148 413.09 77.4611C412.69 77.8246 411.76 77.6352 410.963 77.0322C409.701 76.0765 409.681 76.1297 410.779 77.5049C412.222 79.308 412.331 79.3292 413.146 77.9348V77.9343Z" fill="#212121"/>
<path d="M735.735 268.225C735.735 267.646 735.16 267.314 734.539 267.537C733.918 267.759 733.342 268.09 733.342 268.225C733.342 268.358 733.917 268.689 734.539 268.911C735.159 269.135 735.735 268.804 735.735 268.225Z" fill="#212121"/>
<path d="M425.393 257.77C425.393 257.19 424.818 256.859 424.197 257.082C423.576 257.303 423 257.635 423 257.77C423 257.902 423.576 258.234 424.197 258.456C424.817 258.679 425.393 258.348 425.393 257.77Z" fill="#212121"/>
<path d="M773.329 268.326C773.01 267.81 772.638 267.467 772.399 267.467C772.16 267.467 772 267.81 772 268.326C772 268.816 772.399 269.185 772.931 269.185C773.463 269.185 773.634 268.816 773.329 268.326Z" fill="#212121"/>
<path d="M462.988 257.87C462.669 257.354 462.296 257.012 462.057 257.012C461.818 257.012 461.658 257.354 461.658 257.87C461.658 258.361 462.057 258.729 462.589 258.729C463.121 258.729 463.292 258.361 462.988 257.87Z" fill="#212121"/>
<path d="M736.317 246.935C736.317 246.736 735.741 246.377 734.943 246.078C734.144 245.779 733.799 245.922 734.118 246.422C734.613 247.193 736.317 247.593 736.317 246.935Z" fill="#212121"/>
<path d="M425.975 236.48C425.975 236.281 425.4 235.921 424.601 235.622C423.803 235.323 423.457 235.467 423.776 235.966C424.271 236.738 425.975 237.137 425.975 236.48Z" fill="#212121"/>
<path d="M744.203 204.24C743.579 203.465 743.365 202.601 743.715 202.263C744.069 201.92 743.671 201.902 742.783 202.221C741.898 202.54 741.346 202.853 741.498 202.952C741.645 203.046 742.562 203.684 743.537 204.368C745.133 205.49 745.2 205.476 744.203 204.24Z" fill="#212121"/>
<path d="M738.661 203.444C739.46 202.941 739.566 202.606 738.927 202.606C738.307 202.606 737.636 202.964 737.317 203.464C736.654 204.51 736.978 204.506 738.661 203.444V203.444Z" fill="#212121"/>
<path d="M708.518 202.564C708.518 202.049 708.138 201.883 707.631 202.177C707.1 202.487 706.746 202.847 706.746 203.079C706.746 203.311 707.1 203.465 707.631 203.465C708.138 203.465 708.518 203.079 708.518 202.564Z" fill="#212121"/>
<path d="M732.456 193.157C732.456 192.693 732.101 192.177 731.569 191.868C731.037 191.559 730.891 191.868 731.204 192.642C731.794 194.103 732.456 194.375 732.456 193.158V193.157Z" fill="#212121"/>
<path d="M758.167 181.172C758.167 180.724 757.369 179.932 756.394 179.411C755.419 178.891 754.621 178.602 754.621 178.767C754.621 178.933 755.419 179.725 756.394 180.528C757.369 181.331 758.167 181.621 758.167 181.172Z" fill="#212121"/>
<path d="M408.545 209.095C408.545 208.646 407.748 207.855 406.773 207.334C405.797 206.814 405 206.525 405 206.689C405 206.856 405.797 207.647 406.773 208.451C407.748 209.254 408.545 209.544 408.545 209.095Z" fill="#212121"/>
<path d="M776.519 175.503C776.519 174.814 776.181 174.257 775.765 174.257C775.313 174.257 775.012 174.582 775.012 175.072C775.012 175.563 775.313 176.061 775.765 176.32C776.182 176.556 776.519 176.189 776.519 175.503Z" fill="#212121"/>
<path d="M426.898 203.426C426.898 202.737 426.56 202.18 426.144 202.18C425.692 202.18 425.391 202.505 425.391 202.995C425.391 203.486 425.692 203.984 426.144 204.243C426.56 204.479 426.898 204.112 426.898 203.426Z" fill="#212121"/>
<path d="M759.406 165.794C759.661 165.377 759.318 165.063 758.609 165.063C757.898 165.063 757.556 165.377 757.81 165.794C758.075 166.232 758.396 166.524 758.609 166.524C758.821 166.524 759.141 166.232 759.406 165.794Z" fill="#212121"/>
<path d="M409.787 193.717C410.041 193.3 409.699 192.986 408.989 192.986C408.279 192.986 407.937 193.3 408.191 193.717C408.456 194.155 408.777 194.447 408.989 194.447C409.202 194.447 409.522 194.155 409.787 193.717Z" fill="#212121"/>
<path d="M773.151 164.291C773.095 163.26 772.899 163.071 772.619 163.775C772.38 164.377 772.421 165.13 772.706 165.408C772.988 165.678 773.197 165.15 773.151 164.291Z" fill="#212121"/>
<path d="M423.532 192.214C423.476 191.183 423.28 190.994 423 191.698C422.761 192.299 422.802 193.052 423.087 193.331C423.369 193.601 423.578 193.073 423.532 192.214Z" fill="#212121"/>
<path d="M788.339 146.336C789.295 145.243 789.243 145.125 788.001 145.562C787.204 145.843 786.539 146.43 786.539 146.852C786.539 147.946 787.065 147.796 788.339 146.335V146.336Z" fill="#212121"/>
<path d="M438.718 174.258C439.674 173.166 439.622 173.047 438.38 173.485C437.583 173.766 436.918 174.352 436.918 174.774C436.918 175.869 437.444 175.719 438.718 174.258V174.258Z" fill="#212121"/>
<path d="M771.291 133.879C771.291 132.677 771.094 132.204 770.846 132.804C770.598 133.406 770.598 134.352 770.846 134.953C771.094 135.555 771.291 135.082 771.291 133.879Z" fill="#212121"/>
<path d="M421.669 161.802C421.669 160.6 421.473 160.127 421.225 160.727C420.977 161.329 420.977 162.275 421.225 162.875C421.473 163.478 421.669 163.005 421.669 161.802Z" fill="#212121"/>
<path d="M485.581 86.4285C486.201 87.0305 486.904 87.2765 487.176 86.9882C487.447 86.701 486.954 86.2234 486.068 85.9135C484.827 85.4792 484.718 85.5938 485.58 86.4285H485.581Z" fill="#212121"/>
<path d="M485.184 89.3502C485.184 90.0378 485.52 90.5965 485.936 90.5965C486.389 90.5965 486.691 90.2694 486.691 89.7795C486.691 89.2902 486.389 88.7919 485.936 88.5337C485.52 88.2976 485.184 88.663 485.184 89.3502Z" fill="#212121"/>
<path d="M255.262 6.05549C255.262 6.5198 255.617 7.03477 256.149 7.34365C256.681 7.65254 256.826 7.34365 256.514 6.57046C255.922 5.11113 255.262 4.83815 255.262 6.05549H255.262Z" fill="#212121"/>
<path d="M614.828 69.2352C614.828 69.6995 615.183 70.2145 615.715 70.5233C616.247 70.8322 616.393 70.5233 616.08 69.7501C615.488 68.2908 614.829 68.0178 614.829 69.2352H614.828Z" fill="#212121"/>
<path d="M260.668 11.4247C260.866 11.5452 261.865 12.3233 262.929 13.187C264.348 14.3364 265.005 14.4692 265.5 13.7019C265.888 13.1004 265.777 12.9037 265.234 13.2293C264.738 13.5273 263.807 13.187 263.239 12.4998C262.672 11.8122 261.742 11.2107 261.244 11.2107C260.713 11.2107 260.466 11.3022 260.668 11.4256V11.4247Z" fill="#212121"/>
<path d="M620.234 74.6043C620.432 74.7248 621.432 75.503 622.495 76.3666C623.914 77.5161 624.572 77.6489 625.066 76.8816C625.455 76.2801 625.344 76.0833 624.8 76.409C624.305 76.707 623.373 76.3667 622.805 75.6795C622.238 74.9919 621.308 74.3904 620.811 74.3904C620.279 74.3904 620.032 74.4819 620.234 74.6053V74.6043Z" fill="#212121"/>
<path d="M259.784 14.3026C259.84 15.334 260.036 15.5234 260.316 14.8191C260.555 14.2175 260.513 13.4635 260.226 13.1871C259.947 12.9156 259.737 13.4438 259.784 14.3026Z" fill="#212121"/>
<path d="M619.35 77.4823C619.407 78.5137 619.602 78.7031 619.883 77.9988C620.121 77.3972 620.079 76.6432 619.793 76.3668C619.513 76.0953 619.303 76.6235 619.35 77.4823Z" fill="#212121"/>
<path d="M272.86 14.4318C271.796 15.7682 271.84 15.8016 273.259 14.7333C274.766 13.5967 275.194 12.9277 274.411 12.9277C274.209 12.9277 273.544 13.573 272.86 14.4318Z" fill="#212121"/>
<path d="M632.427 77.6115C631.362 78.9479 631.407 78.9813 632.825 77.913C634.332 76.7763 634.76 76.1074 633.977 76.1074C633.776 76.1074 633.11 76.7527 632.427 77.6115Z" fill="#212121"/>
<path d="M254.375 27.8757C254.375 28.0734 255.04 28.7163 255.927 29.3798C257.306 30.4112 257.34 30.3679 256.237 28.9927C255.065 27.5329 254.375 27.1193 254.375 27.8757Z" fill="#212121"/>
<path d="M613.941 91.0554C613.941 91.2531 614.607 91.896 615.493 92.5595C616.872 93.5909 616.907 93.5476 615.804 92.1724C614.631 90.7126 613.941 90.2989 613.941 91.0554Z" fill="#212121"/>
<path d="M242.053 32.3439C242.109 33.3753 242.306 33.5647 242.585 32.8603C242.824 32.2588 242.783 31.5048 242.497 31.2284C242.217 30.9568 242.007 31.4851 242.053 32.3439H242.053Z" fill="#212121"/>
<path d="M601.619 95.5236C601.675 96.555 601.872 96.7443 602.151 96.04C602.391 95.4385 602.349 94.6845 602.063 94.408C601.783 94.1365 601.574 94.6648 601.62 95.5236H601.619Z" fill="#212121"/>
<path d="M239.214 36.726C238.11 38.0998 238.145 38.1431 239.524 37.1117C240.411 36.4481 241.075 35.8043 241.075 35.609C241.075 34.8516 240.386 35.2652 239.214 36.726Z" fill="#212121"/>
<path d="M598.78 99.9057C597.677 101.279 597.712 101.323 599.09 100.291C599.977 99.6278 600.641 98.984 600.641 98.7887C600.641 98.0313 599.952 98.4449 598.78 99.9057Z" fill="#212121"/>
<path d="M253.754 41.7508C253.754 42.4385 254.092 42.9972 254.507 42.9972C254.959 42.9972 255.261 42.6701 255.261 42.1802C255.261 41.6908 254.959 41.1926 254.507 40.9358C254.091 40.6983 253.754 41.0632 253.754 41.7508Z" fill="#212121"/>
<path d="M613.32 104.931C613.32 105.618 613.658 106.177 614.074 106.177C614.526 106.177 614.827 105.85 614.827 105.36C614.827 104.871 614.526 104.372 614.074 104.116C613.658 103.878 613.32 104.243 613.32 104.931Z" fill="#212121"/>
<path d="M13.8102 54.0565C14.1281 53.5411 14.501 53.1978 14.7407 53.1978C14.98 53.1978 15.14 53.5416 15.14 54.0565C15.14 54.5484 14.7407 54.9163 14.2094 54.9163C13.6771 54.9163 13.5059 54.5484 13.8102 54.0565Z" fill="#212121"/>
<path d="M36.3271 49.1607C35.2238 47.786 35.2584 47.7422 36.6374 48.7736C37.5243 49.4371 38.1892 50.081 38.1892 50.2777C38.1892 51.0342 37.4994 50.6205 36.3271 49.1607Z" fill="#212121"/>
<path d="M2.63978 98.0023C3.26049 97.7622 3.49415 97.176 3.17211 96.6708C2.83534 96.1445 3.03852 96.0349 3.65974 96.4092C4.85444 97.1282 4.10267 98.6102 2.59559 98.5069C1.8296 98.4523 1.8423 98.3126 2.64029 98.0028L2.63978 98.0023Z" fill="#212121"/>
<path d="M132.609 98.0023C133.229 97.7622 133.463 97.176 133.141 96.6708C132.804 96.1445 133.007 96.0349 133.628 96.4092C134.823 97.1282 134.071 98.6102 132.564 98.5069C131.798 98.4523 131.811 98.3126 132.609 98.0028L132.609 98.0023Z" fill="#212121"/>
<path d="M30.7883 88.2951C30.4846 87.8042 30.6558 87.4363 31.1876 87.4363C31.7194 87.4363 32.1192 87.8042 32.1192 88.2951C32.1192 88.8115 31.9597 89.1538 31.7194 89.1538C31.4802 89.1538 31.1078 88.8115 30.7889 88.2951H30.7883Z" fill="#212121"/>
<path d="M160.757 88.2951C160.453 87.8042 160.625 87.4363 161.156 87.4363C161.688 87.4363 162.088 87.8042 162.088 88.2951C162.088 88.8115 161.928 89.1538 161.688 89.1538C161.449 89.1538 161.077 88.8115 160.758 88.2951H160.757Z" fill="#212121"/>
<path d="M23.1632 85.1163C22.0594 83.7426 22.0945 83.6993 23.4736 84.7292C24.3605 85.3928 25.0249 86.0366 25.0249 86.2333C25.0249 86.9898 24.3351 86.5771 23.1632 85.1163Z" fill="#212121"/>
<path d="M153.132 85.1163C152.028 83.7426 152.063 83.6993 153.442 84.7292C154.329 85.3928 154.994 86.0366 154.994 86.2333C154.994 86.9898 154.304 86.5771 153.132 85.1163Z" fill="#212121"/>
<path d="M735.781 143.514C735.781 143.979 736.136 144.494 736.668 144.804C737.199 145.111 737.346 144.804 737.033 144.03C736.442 142.57 735.782 142.297 735.782 143.514L735.781 143.514Z" fill="#212121"/>
<path d="M745.091 148.669C744.801 149.138 744.115 149.275 743.583 148.97C743.014 148.644 742.886 148.84 743.273 149.442C743.795 150.252 744.204 150.257 745.181 149.466C746.421 148.458 746.734 147.811 745.978 147.811C745.765 147.811 745.41 148.153 745.091 148.669H745.091Z" fill="#212121"/>
<path d="M713.216 151.505C713.537 152.363 714.03 152.841 714.325 152.578C714.622 152.314 714.369 151.634 713.749 151.033C712.887 150.196 712.769 150.302 713.216 151.505Z" fill="#212121"/>
<path d="M500.851 98.7658C500.518 99.2813 500.443 99.9059 500.684 100.14C500.922 100.369 501.363 99.9684 501.632 99.2808C502.236 97.7344 501.732 97.4014 500.851 98.7653V98.7658Z" fill="#212121"/>
<path d="M721.255 111.489C720.457 111.991 720.35 112.327 720.989 112.327C721.609 112.327 722.28 111.969 722.599 111.467C723.261 110.422 722.938 110.429 721.255 111.489Z" fill="#212121"/>
<path d="M712.3 122.378C711.196 123.752 711.231 123.795 712.61 122.764C713.496 122.101 714.161 121.457 714.161 121.261C714.161 120.504 713.471 120.918 712.3 122.378Z" fill="#212121"/>
<path d="M9.82077 11.1907C8.75662 9.85436 8.80183 9.82042 10.22 10.8902C11.7266 12.0254 12.1538 12.6948 11.3726 12.6948C11.1699 12.6948 10.505 12.0505 9.82077 11.1907Z" fill="#212121"/>
<path d="M13.1034 9.85914C13.4239 9.00036 13.9161 8.52277 14.2117 8.78542C14.5099 9.04955 14.2559 9.72978 13.6357 10.3318C12.7737 11.168 12.6554 11.0612 13.1034 9.85914Z" fill="#212121"/>
<path d="M672.098 104.585C672.098 104.83 672.628 105.438 673.339 106.002C674.314 106.778 674.723 106.751 675.244 105.873C675.603 105.271 675.582 105.054 675.201 105.402C674.833 105.735 673.916 105.59 673.295 105.102C672.675 104.61 672.098 104.362 672.098 104.585H672.098Z" fill="#212121"/>
<path d="M677.861 106.046C677.542 106.561 677.861 106.703 678.658 106.399C680.165 105.826 680.447 105.187 679.191 105.187C678.712 105.187 678.179 105.53 677.861 106.046H677.861Z" fill="#212121"/>
<path d="M671.121 110.083C670.02 111.458 670.053 111.5 671.432 110.47C672.317 109.807 672.984 109.163 672.984 108.968C672.984 108.21 672.294 108.623 671.121 110.083Z" fill="#212121"/>
<path d="M87.4891 120.78C87.7547 121.218 88.252 121.321 88.73 121.04C89.975 120.307 89.883 120.049 88.3755 120.049C87.6659 120.049 87.2524 120.389 87.4886 120.78H87.4891Z" fill="#212121"/>
<path d="M217.458 120.78C217.723 121.218 218.221 121.321 218.699 121.04C219.944 120.307 219.852 120.049 218.344 120.049C217.635 120.049 217.221 120.389 217.457 120.78H217.458Z" fill="#212121"/>
<path d="M359.067 257.977C359.333 258.415 359.83 258.519 360.308 258.237C361.553 257.505 361.461 257.247 359.954 257.247C359.244 257.247 358.831 257.587 359.067 257.977H359.067Z" fill="#212121"/>
<path d="M96.2571 120.65C95.9254 121.166 95.8487 121.791 96.091 122.025C96.3277 122.254 96.7691 121.852 97.0378 121.166C97.6428 119.62 97.1368 119.286 96.2566 120.65H96.2571Z" fill="#212121"/>
<path d="M226.226 120.65C225.894 121.166 225.817 121.791 226.06 122.025C226.296 122.254 226.738 121.852 227.007 121.166C227.612 119.62 227.106 119.286 226.225 120.65H226.226Z" fill="#212121"/>
<path d="M367.833 257.847C367.502 258.364 367.425 258.988 367.667 259.222C367.904 259.452 368.345 259.05 368.614 258.364C369.219 256.817 368.713 256.483 367.833 257.847H367.833Z" fill="#212121"/>
<path d="M92.7224 176.492C92.4181 176.981 92.5888 177.351 93.1216 177.351C93.6535 177.351 94.0522 176.981 94.0522 176.492C94.0522 175.976 93.8927 175.632 93.653 175.632C93.4137 175.632 93.0419 175.976 92.7224 176.492Z" fill="#212121"/>
<path d="M222.691 176.492C222.387 176.981 222.558 177.351 223.09 177.351C223.622 177.351 224.021 176.981 224.021 176.492C224.021 175.976 223.861 175.632 223.622 175.632C223.382 175.632 223.011 175.976 222.691 176.492Z" fill="#212121"/>
<path d="M547.533 179.07C547.228 179.559 547.4 179.929 547.932 179.929C548.465 179.929 548.864 179.559 548.864 179.07C548.864 178.553 548.704 178.21 548.465 178.21C548.225 178.21 547.852 178.554 547.533 179.07Z" fill="#212121"/>
<path d="M303.811 68.3271C303.505 68.8165 303.678 69.1858 304.209 69.1858C304.743 69.1858 305.141 68.8165 305.141 68.3271C305.141 67.8106 304.981 67.4673 304.743 67.4673C304.502 67.4673 304.13 67.8111 303.811 68.3271Z" fill="#212121"/>
<path d="M536.053 181.045C536.375 181.903 536.865 182.382 537.16 182.119C537.46 181.854 537.207 181.175 536.585 180.573C535.723 179.737 535.604 179.842 536.053 181.045Z" fill="#212121"/>
<path d="M292.33 70.3026C292.652 71.1604 293.143 71.639 293.438 71.3763C293.737 71.1112 293.484 70.432 292.862 69.8299C292 68.9948 291.882 69.099 292.33 70.3026Z" fill="#212121"/>
<path d="M70.5991 201.405C70.3085 201.869 70.4167 202.351 70.8683 202.608C71.2706 202.838 71.6221 202.436 71.6221 201.75C71.6221 200.29 71.3549 200.199 70.5986 201.406L70.5991 201.405Z" fill="#212121"/>
<path d="M200.568 201.405C200.277 201.869 200.385 202.351 200.837 202.608C201.239 202.838 201.591 202.436 201.591 201.75C201.591 200.29 201.324 200.199 200.567 201.406L200.568 201.405Z" fill="#212121"/>
<path d="M96.9766 204.541C96.9766 205.401 97.2874 205.457 98.1733 204.757C98.7945 204.266 99.3705 203.709 99.3705 203.597C99.3705 203.485 98.7945 203.382 98.1733 203.382C97.5531 203.382 96.9766 203.94 96.9766 204.541Z" fill="#212121"/>
<path d="M226.945 204.541C226.945 205.401 227.256 205.457 228.142 204.757C228.763 204.266 229.339 203.709 229.339 203.597C229.339 203.485 228.763 203.382 228.142 203.382C227.522 203.382 226.945 203.94 226.945 204.541Z" fill="#212121"/>
<path d="M92.7629 204.841C92.4728 205.306 92.5805 205.787 93.0326 206.045C93.4344 206.274 93.7864 205.873 93.7864 205.185C93.7864 203.725 93.5192 203.636 92.7629 204.842V204.841Z" fill="#212121"/>
<path d="M222.732 204.841C222.442 205.306 222.549 205.787 223.001 206.045C223.403 206.274 223.755 205.873 223.755 205.185C223.755 203.725 223.488 203.636 222.732 204.842V204.841Z" fill="#212121"/>
<path d="M481.03 216.87C480.698 217.385 480.623 218.01 480.864 218.243C481.101 218.474 481.542 218.072 481.812 217.384C482.416 215.838 481.91 215.505 481.03 216.869V216.87Z" fill="#212121"/>
<path d="M237.308 106.127C236.975 106.642 236.9 107.267 237.141 107.501C237.378 107.731 237.82 107.329 238.089 106.642C238.693 105.095 238.188 104.762 237.308 106.127V106.127Z" fill="#212121"/>
<path d="M378.917 243.325C378.584 243.84 378.51 244.464 378.751 244.698C378.987 244.929 379.429 244.527 379.698 243.839C380.302 242.293 379.797 241.96 378.917 243.324V243.325Z" fill="#212121"/>
<path d="M576.348 222.024C576.348 222.488 576.704 223.005 577.235 223.313C577.768 223.622 577.913 223.313 577.599 222.54C577.01 221.079 576.348 220.807 576.348 222.024Z" fill="#212121"/>
<path d="M332.625 111.282C332.625 111.745 332.981 112.262 333.512 112.571C334.045 112.88 334.19 112.571 333.877 111.798C333.287 110.337 332.625 110.064 332.625 111.282Z" fill="#212121"/>
<path d="M126.5 241.055C126.767 241.492 127.263 241.596 127.742 241.314C128.986 240.581 128.894 240.323 127.387 240.323C126.678 240.323 126.264 240.664 126.5 241.055Z" fill="#212121"/>
<path d="M122.422 241.74C122.422 242.23 122.722 242.728 123.175 242.986C123.59 243.223 123.927 242.857 123.927 242.17C123.927 241.482 123.59 240.924 123.175 240.924C122.722 240.924 122.422 241.252 122.422 241.74Z" fill="#212121"/>
<path d="M597.27 243.631C597.536 244.07 598.033 244.172 598.512 243.892C599.756 243.159 599.664 242.901 598.156 242.901C597.447 242.901 597.034 243.241 597.27 243.631Z" fill="#212121"/>
<path d="M353.547 132.888C353.814 133.327 354.31 133.429 354.789 133.149C356.033 132.416 355.941 132.158 354.434 132.158C353.725 132.158 353.311 132.499 353.547 132.888Z" fill="#212121"/>
<path d="M590.531 244.404C590.531 244.92 590.913 245.084 591.418 244.79C591.95 244.481 592.305 244.121 592.305 243.888C592.305 243.657 591.95 243.501 591.418 243.501C590.913 243.501 590.531 243.888 590.531 244.404Z" fill="#212121"/>
<path d="M346.809 133.661C346.809 134.178 347.19 134.342 347.695 134.047C348.227 133.739 348.582 133.378 348.582 133.145C348.582 132.914 348.227 132.759 347.695 132.759C347.19 132.759 346.809 133.145 346.809 133.661Z" fill="#212121"/>
<path d="M102.914 253.038C102.914 253.982 103.292 254.524 103.756 254.241C104.238 253.946 104.392 253.21 104.117 252.522C103.412 250.762 102.914 250.975 102.914 253.038Z" fill="#212121"/>
<path d="M109.122 255.541C107.983 256.267 108.014 256.387 109.344 256.387C110.23 256.387 110.896 256.021 110.896 255.528C110.896 254.468 110.807 254.469 109.122 255.54V255.541Z" fill="#212121"/>
<path d="M518.318 257.246C518.028 257.711 518.134 258.192 518.587 258.45C518.989 258.68 519.34 258.279 519.34 257.591C519.34 256.131 519.074 256.04 518.318 257.247V257.246Z" fill="#212121"/>
<path d="M274.595 146.504C274.305 146.968 274.412 147.449 274.864 147.708C275.267 147.937 275.618 147.536 275.618 146.848C275.618 145.388 275.351 145.298 274.595 146.504V146.504Z" fill="#212121"/>
<path d="M235.016 260.684C235.016 261.149 235.371 261.662 235.903 261.972C236.435 262.281 236.58 261.972 236.268 261.199C235.676 259.74 235.016 259.467 235.016 260.684Z" fill="#212121"/>
<path d="M484.875 112.235C484.875 112.7 485.23 113.213 485.762 113.523C486.294 113.832 486.44 113.523 486.127 112.75C485.535 111.291 484.875 111.018 484.875 112.235Z" fill="#212121"/>
<path d="M260.814 265.494C260.871 266.526 261.066 266.715 261.347 266.011C261.586 265.409 261.544 264.656 261.258 264.378C260.978 264.107 260.769 264.636 260.815 265.494H260.814Z" fill="#212121"/>
<path d="M510.674 117.045C510.73 118.076 510.926 118.266 511.206 117.562C511.445 116.96 511.404 116.207 511.118 115.929C510.837 115.658 510.629 116.187 510.674 117.045H510.674Z" fill="#212121"/>
<path d="M554.626 265.838C554.945 266.353 555.317 266.697 555.557 266.697C555.796 266.697 555.956 266.353 555.956 265.838C555.956 265.347 555.557 264.979 555.025 264.979C554.492 264.979 554.323 265.347 554.627 265.838H554.626Z" fill="#212121"/>
<path d="M310.904 155.095C311.223 155.61 311.595 155.954 311.834 155.954C312.074 155.954 312.233 155.61 312.233 155.095C312.233 154.604 311.834 154.237 311.303 154.237C310.77 154.237 310.6 154.604 310.904 155.095H310.904Z" fill="#212121"/>
<path d="M314.809 267.428C314.809 267.83 315.386 268.158 316.094 268.158C316.803 268.158 317.18 267.83 316.936 267.428C316.671 266.988 316.156 266.697 315.651 266.697C315.145 266.697 314.809 266.988 314.809 267.428Z" fill="#212121"/>
<path d="M609 177.198C609 177.601 609.577 177.928 610.286 177.928C610.994 177.928 611.372 177.601 611.128 177.198C610.862 176.759 610.348 176.467 609.842 176.467C609.337 176.467 609 176.759 609 177.198Z" fill="#212121"/>
<path d="M564.668 118.978C564.668 119.381 565.245 119.708 565.954 119.708C566.662 119.708 567.04 119.381 566.796 118.978C566.53 118.539 566.016 118.248 565.51 118.248C565.005 118.248 564.668 118.539 564.668 118.978Z" fill="#212121"/>
<path d="M518.145 267.341C518.468 267.846 518.233 268.432 517.613 268.674C516.936 268.936 517.124 269.13 518.101 269.171C519.873 269.246 520.192 267.983 518.632 267.066C518.011 266.7 517.808 266.815 518.145 267.341V267.341Z" fill="#212121"/>
<path d="M274.423 156.598C274.745 157.103 274.51 157.69 273.89 157.931C273.213 158.193 273.402 158.387 274.378 158.428C276.151 158.504 276.47 157.241 274.909 156.323C274.289 155.957 274.085 156.073 274.423 156.599V156.598Z" fill="#212121"/>
<path d="M244.545 271.121C245.165 271.722 245.868 271.968 246.141 271.679C246.413 271.393 245.919 270.916 245.033 270.606C243.791 270.172 243.683 270.286 244.545 271.121Z" fill="#212121"/>
<path d="M494.405 122.672C495.025 123.273 495.728 123.519 496.001 123.23C496.272 122.944 495.779 122.467 494.893 122.157C493.651 121.722 493.543 121.837 494.405 122.672Z" fill="#212121"/>
<path d="M146.359 271.337C146.359 271.573 147.157 272.192 148.132 272.711C149.108 273.231 149.906 273.464 149.906 273.226C149.906 272.99 149.107 272.371 148.132 271.852C147.157 271.332 146.359 271.101 146.359 271.337Z" fill="#212121"/>
<path d="M142.812 272.196C142.812 272.393 143.478 273.037 144.363 273.699C145.743 274.729 145.778 274.687 144.675 273.313C143.501 271.852 142.812 271.438 142.812 272.196Z" fill="#212121"/>
<path d="M76.9424 278.725C77.1857 279.67 77.5453 280.443 77.7398 280.443C77.9349 280.443 78.0949 279.67 78.0949 278.725C78.0949 277.781 77.7358 277.006 77.2969 277.006C76.858 277.006 76.6985 277.781 76.9424 278.725Z" fill="#212121"/>
<path d="M187.141 277.35C187.141 277.546 187.806 278.192 188.693 278.853C190.072 279.884 190.106 279.842 189.003 278.467C187.831 277.006 187.141 276.592 187.141 277.35Z" fill="#212121"/>
<path d="M437 128.901C437 129.096 437.665 129.743 438.552 130.404C439.931 131.435 439.965 131.393 438.862 130.018C437.69 128.557 437 128.143 437 128.901Z" fill="#212121"/>
<path d="M623.111 278.853C623.731 279.455 624.434 279.701 624.708 279.412C624.977 279.126 624.485 278.648 623.6 278.339C622.357 277.904 622.25 278.018 623.112 278.853H623.111Z" fill="#212121"/>
<path d="M379.389 168.11C380.009 168.712 380.711 168.958 380.986 168.669C381.255 168.383 380.763 167.905 379.877 167.597C378.635 167.161 378.527 167.276 379.389 168.11H379.389Z" fill="#212121"/>
<path d="M263.871 280.443C263.581 280.907 263.687 281.389 264.14 281.646C264.542 281.875 264.893 281.475 264.893 280.787C264.893 279.326 264.626 279.237 263.871 280.443V280.443Z" fill="#212121"/>
<path d="M513.73 131.993C513.44 132.458 513.547 132.94 513.999 133.196C514.401 133.426 514.752 133.025 514.752 132.338C514.752 130.877 514.486 130.787 513.73 131.994V131.993Z" fill="#212121"/>
<path d="M255.406 284.738C255.406 285.23 255.805 285.597 256.337 285.597C256.869 285.597 257.039 285.23 256.736 284.738C256.417 284.223 256.044 283.88 255.805 283.88C255.566 283.88 255.406 284.223 255.406 284.738Z" fill="#212121"/>
<path d="M381.301 284.76C380.504 285.263 380.397 285.596 381.035 285.596C381.657 285.596 382.327 285.238 382.644 284.738C383.309 283.693 382.986 283.7 381.301 284.76Z" fill="#212121"/>
<path d="M505.266 136.289C505.266 136.781 505.664 137.147 506.196 137.147C506.729 137.147 506.899 136.781 506.595 136.289C506.276 135.774 505.904 135.43 505.664 135.43C505.425 135.43 505.266 135.774 505.266 136.289Z" fill="#212121"/>
<path d="M675.493 194.53C674.696 195.033 674.589 195.367 675.226 195.367C675.848 195.367 676.518 195.009 676.836 194.508C677.5 193.464 677.177 193.47 675.493 194.53Z" fill="#212121"/>
<path d="M631.161 136.31C630.364 136.814 630.257 137.147 630.894 137.147C631.516 137.147 632.186 136.789 632.504 136.289C633.168 135.244 632.845 135.25 631.161 136.31Z" fill="#212121"/>
<path d="M513.489 285.898C512.767 286.758 512.825 287.058 513.711 287.058C514.332 287.058 514.908 286.499 514.908 285.898C514.908 285.297 514.802 284.739 514.686 284.739C514.573 284.739 513.996 285.297 513.489 285.898Z" fill="#212121"/>
<path d="M269.766 175.156C269.044 176.015 269.102 176.315 269.988 176.315C270.61 176.315 271.186 175.757 271.186 175.156C271.186 174.554 271.079 173.996 270.964 173.996C270.85 173.996 270.273 174.554 269.766 175.156Z" fill="#212121"/>
<path d="M148.621 287.058C148.173 288.261 148.291 288.365 149.154 287.531C149.774 286.93 150.028 286.249 149.729 285.986C149.434 285.723 148.941 286.199 148.621 287.059V287.058Z" fill="#212121"/>
<path d="M298.848 287.316C298.848 287.807 299.246 288.175 299.778 288.175C300.31 288.175 300.481 287.807 300.178 287.316C299.858 286.8 299.487 286.457 299.246 286.457C299.007 286.457 298.848 286.8 298.848 287.316Z" fill="#212121"/>
<path d="M548.707 138.867C548.707 139.357 549.106 139.725 549.638 139.725C550.169 139.725 550.34 139.357 550.038 138.867C549.717 138.351 549.347 138.008 549.106 138.008C548.867 138.008 548.707 138.351 548.707 138.867Z" fill="#212121"/>
<path d="M568.456 287.832C568.512 288.862 568.709 289.051 568.987 288.347C569.228 287.745 569.186 286.991 568.9 286.715C568.619 286.442 568.409 286.972 568.456 287.832Z" fill="#212121"/>
<path d="M324.733 177.089C324.789 178.119 324.986 178.308 325.265 177.604C325.505 177.002 325.463 176.248 325.177 175.973C324.896 175.7 324.687 176.229 324.733 177.089Z" fill="#212121"/>
<path d="M407.455 291.612C407.774 292.126 408.146 292.47 408.385 292.47C408.624 292.47 408.785 292.126 408.785 291.612C408.785 291.12 408.385 290.752 407.853 290.752C407.321 290.752 407.151 291.12 407.455 291.612Z" fill="#212121"/>
<path d="M84.7438 288.175C84.4395 288.666 84.6107 289.034 85.142 289.034C85.6744 289.034 86.0736 288.666 86.0736 288.175C86.0736 287.66 85.9136 287.316 85.6744 287.316C85.4351 287.316 85.0623 287.66 84.7438 288.175Z" fill="#212121"/>
<path d="M160.543 288.132C160.543 288.567 161.163 288.729 161.872 288.476C162.581 288.224 163.202 287.843 163.202 287.66C163.202 287.476 162.581 287.316 161.872 287.316C161.164 287.316 160.543 287.696 160.543 288.132Z" fill="#212121"/>
<path d="M701.646 201.383C701.965 201.897 702.337 202.24 702.577 202.24C702.816 202.24 702.976 201.896 702.976 201.383C702.976 200.891 702.577 200.523 702.045 200.523C701.512 200.523 701.342 200.891 701.646 201.383Z" fill="#212121"/>
<path d="M657.314 143.163C657.633 143.677 658.005 144.02 658.245 144.02C658.484 144.02 658.644 143.677 658.644 143.163C658.644 142.671 658.245 142.303 657.713 142.303C657.18 142.303 657.01 142.671 657.314 143.163Z" fill="#212121"/>
<path d="M560.833 292.469C560.514 292.986 560.833 293.126 561.632 292.823C563.139 292.251 563.421 291.612 562.165 291.612C561.685 291.612 561.153 291.954 560.833 292.469V292.469Z" fill="#212121"/>
<path d="M317.111 181.727C316.792 182.243 317.11 182.384 317.909 182.08C319.416 181.508 319.698 180.869 318.442 180.869C317.962 180.869 317.431 181.212 317.111 181.726V181.727Z" fill="#212121"/>
<path d="M679.075 250.485C678.822 250.903 679.164 251.215 679.874 251.215C680.582 251.215 680.925 250.903 680.671 250.485C680.406 250.048 680.087 249.754 679.874 249.754C679.661 249.754 679.342 250.048 679.075 250.485Z" fill="#212121"/>
<path d="M349.96 299.772C350.22 300.46 350.86 301.061 351.334 301.061C351.866 301.061 351.795 300.546 351.157 299.772C350.589 299.086 349.948 298.484 349.783 298.484C349.617 298.484 349.7 299.086 349.96 299.772Z" fill="#212121"/>
<path d="M392.716 74.1981C392.463 74.6157 392.804 74.9281 393.514 74.9281C394.223 74.9281 394.565 74.6157 394.312 74.1981C394.046 73.7609 393.728 73.4673 393.514 73.4673C393.302 73.4673 392.983 73.7604 392.716 74.1981Z" fill="#212121"/>
<path d="M500.545 296.766C500.241 297.256 500.41 297.626 500.944 297.626C501.475 297.626 501.874 297.256 501.874 296.766C501.874 296.25 501.715 295.906 501.475 295.906C501.236 295.906 500.864 296.25 500.545 296.766Z" fill="#212121"/>
<path d="M256.822 186.024C256.518 186.513 256.688 186.883 257.221 186.883C257.753 186.883 258.152 186.513 258.152 186.024C258.152 185.507 257.992 185.164 257.753 185.164C257.514 185.164 257.141 185.508 256.822 186.024Z" fill="#212121"/>
<path d="M644.151 209.543C644.411 210.231 645.052 210.832 645.525 210.832C646.058 210.832 645.986 210.317 645.348 209.543C644.781 208.856 644.139 208.254 643.974 208.254C643.809 208.254 643.891 208.856 644.151 209.543Z" fill="#212121"/>
<path d="M599.819 151.323C600.079 152.011 600.72 152.612 601.193 152.612C601.726 152.612 601.654 152.097 601.016 151.323C600.449 150.637 599.807 150.035 599.642 150.035C599.477 150.035 599.559 150.637 599.819 151.323Z" fill="#212121"/>
<path d="M604.264 301.061C603.93 301.577 603.855 302.201 604.097 302.435C604.333 302.666 604.776 302.264 605.044 301.577C605.648 300.03 605.144 299.697 604.264 301.061Z" fill="#212121"/>
<path d="M360.541 190.319C360.208 190.834 360.132 191.459 360.375 191.693C360.61 191.923 361.053 191.521 361.322 190.834C361.926 189.288 361.421 188.955 360.541 190.319Z" fill="#212121"/>
<path d="M297.511 302.78C297.179 303.296 297.103 303.92 297.344 304.154C297.581 304.383 298.024 303.982 298.291 303.296C298.895 301.749 298.391 301.415 297.511 302.78Z" fill="#212121"/>
<path d="M315.34 309.781C315.607 310.219 316.12 310.511 316.626 310.511C317.131 310.511 317.468 310.219 317.468 309.781C317.468 309.378 316.891 309.051 316.182 309.051C315.473 309.051 315.095 309.378 315.34 309.781Z" fill="#212121"/>
<path d="M547.371 154.331C547.038 154.846 546.962 155.471 547.204 155.705C547.44 155.933 547.883 155.533 548.151 154.846C548.755 153.3 548.251 152.966 547.371 154.331Z" fill="#212121"/>
<path d="M149.596 304.928C149.856 305.615 150.249 306.216 150.439 306.216C150.628 306.216 150.793 305.615 150.793 304.928C150.793 304.24 150.401 303.638 149.951 303.638C149.502 303.638 149.336 304.24 149.596 304.928Z" fill="#212121"/>
<path d="M672.116 267.066C672.736 267.668 673.438 267.913 673.712 267.624C673.982 267.339 673.489 266.861 672.604 266.551C671.362 266.116 671.254 266.231 672.116 267.066Z" fill="#212121"/>
<path d="M385.756 90.779C386.376 91.3811 387.079 91.6255 387.353 91.3373C387.622 91.052 387.13 90.574 386.244 90.2641C385.002 89.8293 384.894 89.9444 385.756 90.779Z" fill="#212121"/>
<path d="M609.532 219.551C609.798 219.989 610.312 220.281 610.817 220.281C611.322 220.281 611.659 219.989 611.659 219.551C611.659 219.148 611.083 218.822 610.373 218.822C609.665 218.822 609.286 219.148 609.532 219.551Z" fill="#212121"/>
<path d="M366.583 316.165C364.936 317.442 364.943 317.449 366.893 316.525C367.957 316.021 368.889 315.381 368.889 315.15C368.889 314.527 368.445 314.722 366.583 316.165V316.165Z" fill="#212121"/>
<path d="M565.2 161.331C565.466 161.77 565.979 162.061 566.485 162.061C566.99 162.061 567.327 161.77 567.327 161.331C567.327 160.929 566.751 160.602 566.041 160.602C565.333 160.602 564.954 160.929 565.2 161.331Z" fill="#212121"/>
<path d="M326.332 316.01C326.332 316.206 326.997 316.85 327.884 317.513C329.263 318.545 329.298 318.502 328.194 317.127C327.022 315.667 326.332 315.253 326.332 316.01Z" fill="#212121"/>
<path d="M604.14 312.788C604.471 313.107 604.052 313.862 603.166 314.549C601.749 315.647 601.791 315.669 603.653 314.799C605.426 313.97 605.726 312.229 604.097 312.229C603.778 312.229 603.795 312.453 604.14 312.788Z" fill="#212121"/>
<path d="M360.418 202.045C360.748 202.364 360.329 203.119 359.443 203.807C358.026 204.904 358.068 204.926 359.931 204.057C361.703 203.228 362.004 201.486 360.374 201.486C360.055 201.486 360.072 201.71 360.418 202.045Z" fill="#212121"/>
<path d="M664.359 272.435C664.359 272.631 665.024 273.275 665.911 273.939C667.29 274.97 667.324 274.927 666.22 273.553C665.048 272.092 664.359 271.679 664.359 272.435Z" fill="#212121"/>
<path d="M378 96.1476C378 96.3443 378.664 96.9881 379.551 97.6517C380.93 98.6831 380.965 98.6398 379.861 97.266C378.689 95.8052 378 95.3916 378 96.1476Z" fill="#212121"/>
<path d="M660.774 225.935C659.128 227.212 659.135 227.22 661.084 226.296C662.148 225.791 663.08 225.151 663.08 224.921C663.08 224.297 662.637 224.493 660.774 225.936V225.935Z" fill="#212121"/>
<path d="M616.442 167.715C614.796 168.993 614.803 169 616.752 168.076C617.816 167.572 618.748 166.931 618.748 166.701C618.748 166.077 618.305 166.273 616.442 167.716V167.715Z" fill="#212121"/>
<path d="M620.523 225.781C620.523 225.976 621.189 226.62 622.076 227.284C623.455 228.315 623.489 228.273 622.386 226.898C621.214 225.437 620.523 225.024 620.523 225.781Z" fill="#212121"/>
<path d="M576.191 167.561C576.191 167.757 576.857 168.4 577.744 169.064C579.123 170.095 579.157 170.053 578.054 168.678C576.882 167.218 576.191 166.804 576.191 167.561Z" fill="#212121"/>
<path d="M513.4 317.385C513.4 317.848 513.755 318.363 514.287 318.672C514.819 318.982 514.966 318.672 514.653 317.899C514.061 316.439 513.4 316.166 513.4 317.385Z" fill="#212121"/>
<path d="M269.678 206.643C269.678 207.105 270.033 207.62 270.565 207.929C271.096 208.24 271.244 207.929 270.93 207.156C270.338 205.697 269.678 205.424 269.678 206.643Z" fill="#212121"/>
<path d="M579.895 317.728C579.895 317.928 580.47 318.289 581.269 318.588C582.066 318.887 582.412 318.742 582.093 318.244C581.597 317.47 579.895 317.07 579.895 317.728Z" fill="#212121"/>
<path d="M336.172 206.985C336.172 207.185 336.747 207.546 337.546 207.845C338.343 208.144 338.69 207.999 338.37 207.501C337.875 206.727 336.172 206.327 336.172 206.985Z" fill="#212121"/>
<path d="M291.303 319.103C290.972 319.618 290.896 320.243 291.138 320.477C291.374 320.707 291.815 320.305 292.084 319.618C292.69 318.071 292.184 317.738 291.303 319.103Z" fill="#212121"/>
<path d="M541.163 170.654C540.831 171.169 540.755 171.793 540.997 172.027C541.234 172.258 541.675 171.856 541.944 171.169C542.549 169.622 542.043 169.289 541.163 170.654Z" fill="#212121"/>
<path d="M241.167 320.133C240.604 321.937 240.674 323.298 241.309 322.924C241.788 322.641 241.929 322.161 241.664 321.723C241.416 321.314 241.708 320.804 242.329 320.564C243.214 320.219 243.214 320.116 242.329 320.048C241.709 320.001 241.197 320.038 241.167 320.133Z" fill="#212121"/>
<path d="M491.026 171.684C490.464 173.488 490.533 174.849 491.168 174.475C491.648 174.192 491.788 173.712 491.523 173.274C491.275 172.865 491.568 172.355 492.188 172.114C493.074 171.77 493.074 171.666 492.188 171.599C491.568 171.551 491.056 171.589 491.026 171.684Z" fill="#212121"/>
<path d="M253.193 320.82C252.873 321.336 253.193 321.478 253.99 321.174C255.498 320.603 255.778 319.962 254.522 319.962C254.044 319.962 253.511 320.305 253.193 320.821V320.82Z" fill="#212121"/>
<path d="M503.052 172.371C502.732 172.887 503.052 173.029 503.85 172.725C505.357 172.153 505.637 171.513 504.382 171.513C503.904 171.513 503.37 171.856 503.052 172.372V172.371Z" fill="#212121"/>
<path d="M674.821 278.706C675.441 278.939 676.219 278.899 676.505 278.621C676.785 278.348 676.24 278.146 675.353 278.192C674.288 278.245 674.092 278.436 674.821 278.706Z" fill="#212121"/>
<path d="M388.462 102.419C389.082 102.651 389.859 102.612 390.146 102.334C390.426 102.061 389.881 101.859 388.994 101.905C387.928 101.958 387.733 102.149 388.462 102.419Z" fill="#212121"/>
<path d="M126.455 322.281C126.007 323.484 126.125 323.589 126.987 322.754C127.607 322.152 127.861 321.472 127.563 321.208C127.268 320.944 126.775 321.421 126.455 322.281Z" fill="#212121"/>
<path d="M724.292 90.8773C724.026 90.4381 723.53 90.3343 723.051 90.6156C721.806 91.349 721.898 91.6072 723.405 91.6072C724.115 91.6072 724.528 91.2669 724.292 90.8778V90.8773Z" fill="#212121"/>
<path d="M728.37 90.1898C728.37 89.699 728.069 89.2007 727.617 88.944C727.201 88.7064 726.863 89.0728 726.863 89.7605C726.863 90.4466 727.201 91.0063 727.617 91.0063C728.069 91.0063 728.37 90.6783 728.37 90.1898Z" fill="#212121"/>
<path d="M747.876 78.8922C747.876 77.9464 747.498 77.4059 747.034 77.6882C746.552 77.9838 746.398 78.7196 746.673 79.4072C747.376 81.1671 747.876 80.9536 747.876 78.8922Z" fill="#212121"/>
<path d="M741.672 76.3897C742.812 75.6623 742.781 75.5413 741.449 75.5413C740.565 75.5413 739.898 75.9092 739.898 76.4C739.898 77.4615 739.988 77.4615 741.672 76.3892V76.3897Z" fill="#212121"/>
<path d="M704.433 60.5932C704.433 60.3581 703.635 59.7388 702.659 59.218C701.685 58.699 700.887 58.4664 700.887 58.703C700.887 58.9391 701.685 59.5583 702.659 60.0777C703.635 60.5976 704.433 60.8293 704.433 60.5932Z" fill="#212121"/>
<path d="M335.199 322.582C335.199 323.098 335.579 323.263 336.085 322.969C336.617 322.66 336.971 322.298 336.971 322.066C336.971 321.834 336.616 321.679 336.085 321.679C335.579 321.679 335.199 322.066 335.199 322.582Z" fill="#212121"/>
<path d="M707.979 59.7342C707.979 59.5375 707.315 58.8936 706.428 58.2311C705.049 57.1997 705.015 57.2425 706.119 58.6172C707.29 60.078 707.979 60.4917 707.979 59.7342Z" fill="#212121"/>
<path d="M773.852 53.2054C773.609 52.261 773.25 51.4863 773.054 51.4863C772.859 51.4863 772.699 52.261 772.699 53.2054C772.699 54.1497 773.058 54.9229 773.498 54.9229C773.936 54.9229 774.096 54.1497 773.852 53.2054Z" fill="#212121"/>
<path d="M702.17 44.8727C702.619 43.6687 702.501 43.5644 701.637 44.3991C701.017 45.0006 700.765 45.6813 701.062 45.9464C701.357 46.2081 701.849 45.7305 702.17 44.8727Z" fill="#212121"/>
<path d="M766.05 43.7543C766.355 43.2634 766.184 42.8955 765.651 42.8955C765.118 42.8955 764.721 43.2634 764.721 43.7543C764.721 44.2707 764.88 44.614 765.118 44.614C765.359 44.614 765.731 44.2702 766.05 43.7543Z" fill="#212121"/>
<path d="M690.249 43.798C690.249 43.3622 689.629 43.2019 688.92 43.4542C688.21 43.706 687.59 44.0862 687.59 44.2707C687.59 44.4541 688.21 44.6145 688.92 44.6145C689.629 44.6145 690.249 44.2333 690.249 43.798Z" fill="#212121"/>
<path d="M701.197 27.0028C700.937 26.3152 700.545 25.7146 700.354 25.7146C700.166 25.7146 700 26.3152 700 27.0028C700 27.6904 700.392 28.2919 700.842 28.2919C701.292 28.2919 701.457 27.6904 701.197 27.0028Z" fill="#212121"/>
<path d="M724.337 9.64914C724.784 8.44656 724.667 8.34032 723.804 9.17647C723.183 9.7785 722.93 10.4587 723.228 10.7229C723.523 10.986 724.015 10.5079 724.337 9.64914Z" fill="#212121"/>
<path d="M629.391 232.352C629.391 232.869 629.771 233.033 630.276 232.739C630.808 232.43 631.163 232.069 631.163 231.837C631.163 231.604 630.808 231.45 630.276 231.45C629.771 231.45 629.391 231.837 629.391 232.352Z" fill="#212121"/>
<path d="M585.059 174.133C585.059 174.649 585.439 174.814 585.944 174.52C586.476 174.211 586.831 173.849 586.831 173.617C586.831 173.384 586.476 173.23 585.944 173.23C585.439 173.23 585.059 173.617 585.059 174.133Z" fill="#212121"/>
<path d="M481.482 322.881C481.482 323.078 482.148 323.723 483.035 324.384C484.415 325.417 484.448 325.373 483.345 323.999C482.173 322.538 481.482 322.124 481.482 322.881Z" fill="#212121"/>
<path d="M237.76 212.138C237.76 212.336 238.425 212.981 239.312 213.642C240.692 214.674 240.726 214.631 239.622 213.256C238.45 211.795 237.76 211.382 237.76 212.138Z" fill="#212121"/>
<path d="M563.846 325.718C562.744 327.093 562.778 327.135 564.156 326.104C565.043 325.441 565.708 324.797 565.708 324.601C565.708 323.844 565.019 324.257 563.846 325.718Z" fill="#212121"/>
<path d="M320.123 214.975C319.021 216.35 319.056 216.392 320.433 215.361C321.32 214.699 321.985 214.055 321.985 213.859C321.985 213.101 321.297 213.515 320.123 214.975Z" fill="#212121"/>
<path d="M6.35256 132.632C6.67155 133.149 6.35256 133.29 5.55457 132.987C4.04749 132.413 3.7671 131.773 5.02326 131.773C5.50226 131.773 6.03357 132.117 6.35256 132.632Z" fill="#212121"/>
<path d="M136.321 132.632C136.64 133.149 136.321 133.29 135.523 132.987C134.016 132.413 133.736 131.773 134.992 131.773C135.471 131.773 136.002 132.117 136.321 132.632Z" fill="#212121"/>
<path d="M28.2527 142.683C27.6325 142.915 26.8538 142.875 26.5678 142.597C26.2879 142.326 26.8345 142.122 27.7203 142.168C28.7845 142.222 28.9805 142.412 28.2527 142.683Z" fill="#212121"/>
<path d="M158.221 142.683C157.601 142.915 156.823 142.875 156.537 142.597C156.257 142.326 156.803 142.122 157.689 142.168C158.753 142.222 158.949 142.412 158.221 142.683Z" fill="#212121"/>
<path d="M38.7139 153.251C38.7139 153.715 38.3588 154.231 37.827 154.539C37.2952 154.849 37.1489 154.539 37.4618 153.766C38.053 152.305 38.7139 152.034 38.7139 153.251Z" fill="#212121"/>
<path d="M168.683 153.251C168.683 153.715 168.328 154.231 167.796 154.539C167.264 154.849 167.118 154.539 167.431 153.766C168.022 152.305 168.683 152.034 168.683 153.251Z" fill="#212121"/>
<path d="M39.9982 156.085C39.6787 156.944 39.1855 157.421 38.8904 157.16C38.5922 156.895 38.8457 156.214 39.4669 155.613C40.3289 154.777 40.4473 154.882 39.9982 156.085Z" fill="#212121"/>
<path d="M169.967 156.085C169.647 156.944 169.154 157.421 168.859 157.16C168.561 156.895 168.814 156.214 169.436 155.613C170.298 154.777 170.416 154.882 169.967 156.085Z" fill="#212121"/>
<path d="M57.7751 167.856C58.0794 168.347 57.9077 168.715 57.3754 168.715C56.8441 168.715 56.4453 168.347 56.4453 167.856C56.4453 167.339 56.6048 166.996 56.8446 166.996C57.0833 166.996 57.4556 167.34 57.7751 167.856Z" fill="#212121"/>
<path d="M187.744 167.856C188.048 168.347 187.876 168.715 187.344 168.715C186.813 168.715 186.414 168.347 186.414 167.856C186.414 167.339 186.574 166.996 186.813 166.996C187.052 166.996 187.424 167.34 187.744 167.856Z" fill="#212121"/>
<path d="M69.2565 169.832C68.9365 170.691 68.4437 171.168 68.1481 170.905C67.85 170.641 68.1039 169.96 68.7246 169.358C69.5866 168.524 69.705 168.629 69.2565 169.831V169.832Z" fill="#212121"/>
<path d="M199.225 169.832C198.905 170.691 198.412 171.168 198.117 170.905C197.819 170.641 198.073 169.96 198.693 169.358C199.555 168.524 199.674 168.629 199.225 169.831V169.832Z" fill="#212121"/>
<path d="M28.9619 210.81C28.9619 211.274 28.6069 211.791 28.075 212.099C27.5432 212.408 27.3969 212.099 27.7098 211.326C28.3011 209.865 28.9619 209.592 28.9619 210.809V210.81Z" fill="#212121"/>
<path d="M158.931 210.81C158.931 211.274 158.576 211.791 158.044 212.099C157.512 212.408 157.366 212.099 157.679 211.326C158.27 209.865 158.931 209.592 158.931 210.809V210.81Z" fill="#212121"/>
<path d="M8.04057 232.416C7.7739 232.855 7.27763 232.959 6.79863 232.677C5.55416 231.945 5.64661 231.687 7.15369 231.687C7.8633 231.687 8.27677 232.027 8.04057 232.416V232.416Z" fill="#212121"/>
<path d="M14.7766 233.19C14.7766 233.706 14.3972 233.869 13.8908 233.576C13.3585 233.266 13.0039 232.906 13.0039 232.674C13.0039 232.443 13.3585 232.288 13.8908 232.288C14.3972 232.288 14.7766 232.674 14.7766 233.19V233.19Z" fill="#212121"/>
<path d="M86.9913 246.033C87.2813 246.498 87.1736 246.979 86.722 247.236C86.3197 247.465 85.9688 247.065 85.9688 246.377C85.9688 244.916 86.2354 244.826 86.9913 246.033Z" fill="#212121"/>
<path d="M50.6814 254.624C50.3629 255.14 49.9906 255.483 49.7508 255.483C49.5111 255.483 49.3516 255.14 49.3516 254.624C49.3516 254.133 49.7508 253.767 50.2821 253.767C50.8145 253.767 50.9851 254.133 50.6814 254.624Z" fill="#212121"/>
<path d="M87.1636 256.128C86.841 256.634 87.0752 257.219 87.6954 257.46C88.3725 257.723 88.1835 257.916 87.2082 257.957C85.435 258.034 85.116 256.77 86.6759 255.853C87.2961 255.487 87.4988 255.601 87.1636 256.128Z" fill="#212121"/>
<path d="M91.8166 274.684C92.5389 275.543 92.4815 275.843 91.5957 275.843C90.9745 275.843 90.3984 275.285 90.3984 274.684C90.3984 274.082 90.5056 273.524 90.6199 273.524C90.7347 273.524 91.3112 274.082 91.8166 274.684Z" fill="#212121"/>
<path d="M36.8517 276.618C36.7954 277.648 36.5988 277.838 36.3194 277.133C36.0812 276.532 36.1218 275.778 36.4078 275.5C36.6877 275.229 36.8975 275.757 36.8517 276.618Z" fill="#212121"/>
<path d="M44.4761 281.257C44.7951 281.772 44.4761 281.914 43.6776 281.61C42.1705 281.038 41.8901 280.398 43.1463 280.398C43.6253 280.398 44.1561 280.741 44.4761 281.257Z" fill="#212121"/>
<path d="M104.761 285.552C105.066 286.042 104.895 286.411 104.362 286.411C103.83 286.411 103.432 286.042 103.432 285.552C103.432 285.036 103.591 284.692 103.831 284.692C104.07 284.692 104.443 285.036 104.761 285.552Z" fill="#212121"/>
<path d="M1.04517 289.848C1.37737 290.362 1.45305 290.988 1.21127 291.222C0.974563 291.452 0.533156 291.05 0.264451 290.362C-0.340516 288.816 0.165401 288.483 1.04517 289.848Z" fill="#212121"/>
<path d="M1.16954 301.574C0.839879 301.894 1.25792 302.648 2.14429 303.335C3.56045 304.433 3.5188 304.456 1.65717 303.585C-0.115572 302.756 -0.41577 301.016 1.21424 301.016C1.53323 301.016 1.51596 301.239 1.17005 301.574H1.16954Z" fill="#212121"/>
<path d="M91.9086 306.171C91.9086 306.634 91.5536 307.149 91.0217 307.459C90.4904 307.768 90.3446 307.459 90.6565 306.686C91.2478 305.225 91.9086 304.953 91.9086 306.171Z" fill="#212121"/>
<path d="M25.4143 306.513C25.4143 306.714 24.8378 307.075 24.0398 307.374C23.2418 307.673 22.8964 307.528 23.2159 307.03C23.7107 306.255 25.4148 305.856 25.4148 306.513H25.4143Z" fill="#212121"/>
<path d="M41.4637 314.504C42.567 315.879 42.5324 315.921 41.1533 314.89C40.267 314.229 39.6016 313.583 39.6016 313.387C39.6016 312.629 40.2914 313.043 41.4637 314.504Z" fill="#212121"/>
</svg>
