<svg width="53" height="61" viewBox="0 0 53 61" fill="none" xmlns="http://www.w3.org/2000/svg">
<path d="M26.1336 26.1343C23.5491 26.1343 21.0227 25.3679 18.8738 23.9321C16.725 22.4963 15.0501 20.4554 14.0611 18.0677C13.0721 15.68 12.8133 13.0527 13.3175 10.5179C13.8217 7.9831 15.0662 5.65476 16.8937 3.82729C18.7212 1.99981 21.0495 0.755286 23.5843 0.251087C26.1191 -0.253111 28.7464 0.00566179 31.1341 0.994683C33.5219 1.9837 35.5627 3.65855 36.9985 5.80744C38.4343 7.95632 39.2007 10.4827 39.2007 13.0672C39.2007 16.5328 37.824 19.8565 35.3734 22.307C32.9229 24.7576 29.5992 26.1343 26.1336 26.1343ZM26.1336 5.22687C24.5829 5.22687 23.0671 5.68669 21.7777 6.54819C20.4884 7.40969 19.4835 8.63418 18.8901 10.0668C18.2967 11.4994 18.1414 13.0759 18.4439 14.5967C18.7464 16.1176 19.4932 17.5146 20.5896 18.6111C21.6861 19.7076 23.0831 20.4543 24.604 20.7568C26.1249 21.0593 27.7013 20.9041 29.1339 20.3106C30.5665 19.7172 31.791 18.7123 32.6525 17.423C33.514 16.1337 33.9739 14.6178 33.9739 13.0672C33.9739 10.9878 33.1478 8.99357 31.6775 7.52323C30.2071 6.05289 28.2129 5.22687 26.1336 5.22687Z" fill="#303030"/>
<path d="M49.6552 60.1087H2.61343C1.92031 60.1087 1.25557 59.8334 0.765456 59.3433C0.275343 58.8532 0 58.1884 0 57.4953V49.655C0 44.11 2.20274 38.7921 6.12365 34.8712C10.0446 30.9503 15.3624 28.7476 20.9074 28.7476H31.3612C36.9062 28.7476 42.2241 30.9503 46.145 34.8712C50.0659 38.7921 52.2686 44.11 52.2686 49.655V57.4953C52.2686 58.1884 51.9933 58.8532 51.5032 59.3433C51.013 59.8334 50.3483 60.1087 49.6552 60.1087ZM5.22686 54.8819H47.0417V49.655C47.0417 45.4963 45.3897 41.5078 42.449 38.5672C39.5083 35.6265 35.5199 33.9744 31.3612 33.9744H20.9074C16.7487 33.9744 12.7603 35.6265 9.8196 38.5672C6.87892 41.5078 5.22686 45.4963 5.22686 49.655V54.8819Z" fill="#303030"/>
</svg>
