<svg width="60" height="57" viewBox="0 0 60 57" fill="none" xmlns="http://www.w3.org/2000/svg">
<path d="M55.4348 17.6087H52.3246C52.3008 17.5823 52.2785 17.555 52.2531 17.5296L35.2966 0.573048C34.5326 -0.191016 33.2937 -0.191016 32.5297 0.573048C31.7656 1.33711 31.7656 2.5759 32.5297 3.33997L46.7983 17.6086H13.2017L27.4704 3.33997C28.2345 2.5759 28.2345 1.33711 27.4704 0.573048C26.7065 -0.191016 25.4676 -0.191016 24.7035 0.573048L7.74693 17.5296C7.7215 17.5551 7.69923 17.5824 7.67545 17.6087H4.56528C2.04797 17.6087 0 19.6567 0 22.1739V24.7826C0 27.1804 1.85801 29.1522 4.20985 29.3342L7.95986 51.8346C8.43365 54.6765 10.8685 56.7393 13.7496 56.7393H46.8235C49.7257 56.7393 52.2237 54.5727 52.6342 51.6997L55.8296 29.3309C58.1628 29.1301 60 27.1668 60 24.7826V22.1739C60.0001 19.6567 57.9521 17.6087 55.4348 17.6087ZM56.0871 24.7826C56.0871 25.1423 55.7945 25.4348 55.435 25.4348C54.8342 25.4348 36.7269 25.4348 35.8698 25.4348C34.7893 25.4348 33.9132 26.3108 33.9132 27.3913C33.9132 28.4718 34.7892 29.3479 35.8698 29.3479H51.8748L48.7606 51.1465C48.6238 52.1041 47.7911 52.8262 46.8236 52.8262H13.7496C12.7893 52.8262 11.9776 52.1387 11.8197 51.1914L8.17923 29.3479H24.1305C25.2109 29.3479 26.087 28.4719 26.087 27.3913C26.087 26.3109 25.2111 25.4348 24.1305 25.4348C23.2721 25.4348 5.16341 25.4348 4.56528 25.4348C4.20563 25.4348 3.91313 25.1422 3.91313 24.7826V22.1739C3.91313 21.8143 4.20575 21.5218 4.56528 21.5218H55.435C55.7946 21.5218 56.0871 21.8144 56.0871 22.1739V24.7826Z" fill="#303030"/>
<path d="M18.2632 33.2617C17.1827 33.2617 16.3066 34.1377 16.3066 35.2183V46.9574C16.3066 48.0379 17.1826 48.914 18.2632 48.914C19.3438 48.914 20.2198 48.038 20.2198 46.9574V35.2182C20.2198 34.1377 19.3438 33.2617 18.2632 33.2617Z" fill="#303030"/>
<path d="M29.9976 33.2617C28.9171 33.2617 28.041 34.1377 28.041 35.2183V46.9574C28.041 48.0379 28.917 48.914 29.9976 48.914C31.0781 48.914 31.9541 48.038 31.9541 46.9574V35.2182C31.9541 34.1377 31.0781 33.2617 29.9976 33.2617Z" fill="#303030"/>
<path d="M41.7378 33.2612C40.6573 33.2612 39.7812 34.1372 39.7812 35.2178V46.957C39.7812 48.0374 40.6572 48.9135 41.7378 48.9135C42.8183 48.9135 43.6944 48.0375 43.6944 46.957V35.2177C43.6944 34.1372 42.8183 33.2612 41.7378 33.2612Z" fill="#303030"/>
</svg>
