<svg width="49" height="63" viewBox="0 0 49 63" fill="none" xmlns="http://www.w3.org/2000/svg">
<path d="M42.5751 8.13539H36.9576V5.62231C36.9576 4.80924 36.0707 4.4397 35.2576 4.4397H30.8967C29.8619 1.48309 27.2748 0.00478588 24.3182 0.00478588C21.3942 -0.105143 18.7345 1.68781 17.7398 4.4397H13.4527C12.6396 4.4397 11.8266 4.80924 11.8266 5.62231V8.13539H6.2089C2.87993 8.1709 0.156475 10.797 0 14.1225V56.4757C0 59.728 2.95661 62.0933 6.2089 62.0933H42.5751C45.8274 62.0933 48.784 59.728 48.784 56.4757V14.1226C48.6276 10.797 45.9041 8.1709 42.5751 8.13539ZM14.783 7.39631H18.8484C19.5581 7.30972 20.1281 6.76984 20.2529 6.06585C20.6906 4.15957 22.363 2.7912 24.3182 2.7397C26.2554 2.79841 27.9026 4.17103 28.3096 6.06585C28.4422 6.79418 29.0498 7.34099 29.7879 7.39631H34.0011V13.3095H14.783V7.39631ZM45.8274 56.4759C45.8274 58.102 44.2013 59.1368 42.5751 59.1368H6.2089C4.58276 59.1368 2.95661 58.102 2.95661 56.4759V14.1226C3.10742 12.43 4.50975 11.1231 6.2089 11.0921H11.8264V14.8618C11.9045 15.69 12.6218 16.3096 13.4526 16.2663H35.2575C36.1035 16.3125 36.8433 15.7015 36.9575 14.8618V11.092H42.575C44.274 11.1231 45.6765 12.4298 45.8273 14.1225V56.4759H45.8274Z" fill="#303030"/>
<path d="M18.6994 33.0453C18.1449 32.4609 17.2245 32.4279 16.6297 32.9715L11.8991 37.4803L9.9034 35.4106C9.34895 34.8261 8.42849 34.7933 7.83372 35.3367C7.26116 35.9366 7.26116 36.8804 7.83372 37.4803L10.8642 40.5847C11.1265 40.8784 11.5054 41.0408 11.8989 41.0282C12.2889 41.0227 12.6608 40.8633 12.9337 40.5847L18.6991 35.115C19.2707 34.5907 19.3089 33.7022 18.7844 33.1308C18.7575 33.1009 18.7291 33.0725 18.6994 33.0453Z" fill="#303030"/>
<path d="M39.9162 36.2241H22.9158C22.0993 36.2241 21.4375 36.886 21.4375 37.7024C21.4375 38.5189 22.0993 39.1807 22.9158 39.1807H39.9162C40.7327 39.1807 41.3945 38.5189 41.3945 37.7024C41.3945 36.886 40.7327 36.2241 39.9162 36.2241Z" fill="#303030"/>
<path d="M18.6994 21.2187C18.1449 20.6342 17.2245 20.6013 16.6297 21.1448L11.8991 25.6536L9.9034 23.5839C9.34895 22.9995 8.42849 22.9665 7.83372 23.5101C7.26116 24.1099 7.26116 25.0537 7.83372 25.6536L10.8642 28.7581C11.1265 29.0518 11.5054 29.2142 11.8989 29.2016C12.2889 29.1961 12.6608 29.0366 12.9337 28.7581L18.6991 23.2884C19.2707 22.7641 19.3089 21.8756 18.7844 21.3041C18.7575 21.2743 18.7291 21.2459 18.6994 21.2187Z" fill="#303030"/>
<path d="M39.9162 24.397H22.9158C22.0993 24.397 21.4375 25.0588 21.4375 25.8753C21.4375 26.6917 22.0993 27.3536 22.9158 27.3536H39.9162C40.7327 27.3536 41.3945 26.6917 41.3945 25.8753C41.3945 25.0588 40.7327 24.397 39.9162 24.397Z" fill="#303030"/>
<path d="M18.6994 44.872C18.1449 44.2875 17.2245 44.2547 16.6297 44.7981L11.8991 49.3069L9.9034 47.2372C9.34895 46.6527 8.42849 46.6199 7.83372 47.1633C7.26116 47.7632 7.26116 48.707 7.83372 49.3069L10.8642 52.4113C11.1265 52.705 11.5054 52.8674 11.8989 52.8548C12.2889 52.8493 12.6608 52.6899 12.9337 52.4113L18.6991 46.9416C19.2707 46.4173 19.3089 45.5288 18.7844 44.9574C18.7575 44.9277 18.7291 44.8993 18.6994 44.872Z" fill="#303030"/>
<path d="M39.9162 48.0508H22.9158C22.0993 48.0508 21.4375 48.7126 21.4375 49.5291C21.4375 50.3456 22.0993 51.0074 22.9158 51.0074H39.9162C40.7327 51.0074 41.3945 50.3456 41.3945 49.5291C41.3945 48.7126 40.7327 48.0508 39.9162 48.0508Z" fill="#303030"/>
</svg>
