<svg width="42" height="56" viewBox="0 0 42 56" fill="none" xmlns="http://www.w3.org/2000/svg">
<path d="M32.2569 41.8813L9.02289 41.8779C8.38206 41.8779 7.86133 42.3975 7.86133 43.0395C7.86133 43.6803 8.38086 44.2011 9.02289 44.2011L32.2569 44.2044C32.8977 44.2044 33.4184 43.6849 33.4184 43.0429C33.4183 42.4019 32.8989 41.8813 32.2569 41.8813Z" fill="#303030"/>
<path d="M27.6096 46.5244H13.6713C13.0293 46.5244 12.5098 47.0439 12.5098 47.686C12.5098 48.328 13.0293 48.8475 13.6713 48.8475H27.6096C28.2517 48.8475 28.7712 48.328 28.7712 47.686C28.7711 47.0438 28.2517 46.5244 27.6096 46.5244Z" fill="#303030"/>
<path d="M20.9037 13.9385C13.8585 13.9385 8.12695 19.6701 8.12695 26.7152C8.12695 33.7604 13.8585 39.492 20.9037 39.492C27.9489 39.492 33.6805 33.7604 33.6805 26.7152C33.6805 19.6701 27.9489 13.9385 20.9037 13.9385ZM10.5674 27.8768H15.1198C15.2485 31.0408 15.9019 34.1874 17.0363 36.4077C13.5333 35.0048 11.0042 31.7602 10.5674 27.8768ZM15.12 25.5538H10.5675C11.0043 21.6703 13.5334 18.4259 17.0364 17.0229C15.902 19.2432 15.2486 22.3898 15.12 25.5538ZM20.9037 37.1691C19.5729 37.1691 17.7013 33.5705 17.4656 27.8769H24.3418C24.1061 33.5705 22.2345 37.1691 20.9037 37.1691ZM17.4656 25.5538C17.7013 19.8602 19.5729 16.2616 20.9037 16.2616C22.2345 16.2616 24.1061 19.8602 24.3418 25.5538H17.4656ZM24.7712 36.4078C25.9055 34.1874 26.559 31.0409 26.6876 27.8769H31.2401C30.8032 31.7602 28.2741 35.0048 24.7712 36.4078ZM26.6876 25.5538C26.559 22.3898 25.9055 19.2432 24.7712 17.0229C28.2741 18.4259 30.8033 21.6704 31.2401 25.5538H26.6876Z" fill="#303030"/>
<path d="M37.1687 6.96937H34.8456V4.56915C34.8456 2.0313 32.6982 -0.0253535 30.1995 0.000236237C29.8426 0.00393859 29.5302 0.0533758 29.1617 0.146588L4.3973 6.99452C1.95245 7.12693 0 9.1384 0 11.6155V51.1073C0 53.6696 2.08366 55.7534 4.64612 55.7534H37.1688C39.7311 55.7534 41.8149 53.6697 41.8149 51.1073V11.6155C41.8148 9.05313 39.7311 6.96937 37.1687 6.96937ZM29.7583 2.3913C31.1138 2.04535 32.5225 3.14331 32.5225 4.56915V6.96937H13.2041L29.7583 2.3913ZM39.4918 51.1073C39.4918 52.3878 38.4493 53.4303 37.1688 53.4303H4.64612C3.36554 53.4303 2.32312 52.3878 2.32312 51.1073V11.6155C2.32312 10.3349 3.36554 9.29248 4.64612 9.29248H37.1688C38.4493 9.29248 39.4918 10.3349 39.4918 11.6155V51.1073Z" fill="#303030"/>
</svg>
