<svg width="40" height="53" viewBox="0 0 40 53" fill="none" xmlns="http://www.w3.org/2000/svg">
<path d="M34.3013 52.2685H4.90018C2.19964 52.2685 0 50.071 0 47.3683V24.5008C0 21.798 2.19964 19.6006 4.90018 19.6006H34.3013C37.0018 19.6006 39.2015 21.798 39.2015 24.5008V47.3683C39.2015 50.071 37.0018 52.2685 34.3013 52.2685ZM4.90018 22.8674C4.00073 22.8674 3.26679 23.5991 3.26679 24.5008V47.3683C3.26679 48.2699 4.00073 49.0017 4.90018 49.0017H34.3013C35.2007 49.0017 35.9347 48.2699 35.9347 47.3683V24.5008C35.9347 23.5991 35.2007 22.8674 34.3013 22.8674H4.90018Z" fill="#303030"/>
<path d="M31.0341 22.8675C30.1325 22.8675 29.4007 22.1358 29.4007 21.2341V13.0672C29.4007 7.66388 25.0036 3.26679 19.6004 3.26679C14.1971 3.26679 9.79999 7.66388 9.79999 13.0672V21.2341C9.79999 22.1358 9.06823 22.8675 8.1666 22.8675C7.26496 22.8675 6.5332 22.1358 6.5332 21.2341V13.0672C6.5332 5.86062 12.3938 0 19.6004 0C26.8069 0 32.6675 5.86062 32.6675 13.0672V21.2341C32.6675 22.1358 31.9357 22.8675 31.0341 22.8675Z" fill="#303030"/>
<path d="M19.5999 37.0234C17.1977 37.0234 15.2441 35.0699 15.2441 32.6677C15.2441 30.2656 17.1977 28.312 19.5999 28.312C22.002 28.312 23.9556 30.2656 23.9556 32.6677C23.9556 35.0699 22.002 37.0234 19.5999 37.0234ZM19.5999 31.5788C19.0009 31.5788 18.5109 32.0666 18.5109 32.6677C18.5109 33.2688 19.0009 33.7567 19.5999 33.7567C20.1988 33.7567 20.6888 33.2688 20.6888 32.6677C20.6888 32.0666 20.1988 31.5788 19.5999 31.5788Z" fill="#303030"/>
<path d="M19.6002 43.5572C18.6986 43.5572 17.9668 42.8254 17.9668 41.9238V35.9347C17.9668 35.033 18.6986 34.3013 19.6002 34.3013C20.5018 34.3013 21.2336 35.033 21.2336 35.9347V41.9238C21.2336 42.8254 20.5018 43.5572 19.6002 43.5572Z" fill="#303030"/>
</svg>
