<svg width="18" height="17" viewBox="0 0 18 17" fill="none" xmlns="http://www.w3.org/2000/svg">
<path d="M16.3393 5.45106H15.4581C15.4514 5.44355 15.4451 5.43582 15.4378 5.42865L10.6335 0.624278C10.4171 0.407793 10.066 0.407793 9.84955 0.624278C9.63307 0.840762 9.63307 1.19175 9.84955 1.40824L13.8923 5.45103H4.37328L8.41611 1.40824C8.63259 1.19175 8.63259 0.840762 8.41611 0.624278C8.19965 0.407793 7.84863 0.407793 7.63214 0.624278L2.82778 5.42865C2.82057 5.43585 2.81426 5.44359 2.80752 5.45106H1.92631C1.21307 5.45106 0.632812 6.03132 0.632812 6.74452V7.48366C0.632812 8.16303 1.15925 8.72171 1.8256 8.77327L2.88811 15.1484C3.02235 15.9536 3.71221 16.538 4.52854 16.538H13.8995C14.7218 16.538 15.4295 15.9242 15.5458 15.1102L16.4512 8.77234C17.1123 8.71543 17.6328 8.15918 17.6328 7.48366V6.74452C17.6328 6.03132 17.0526 5.45106 16.3393 5.45106ZM16.5242 7.48366C16.5242 7.58556 16.4413 7.66843 16.3394 7.66843C16.1692 7.66843 11.0388 7.66843 10.7959 7.66843C10.4898 7.66843 10.2416 7.91663 10.2416 8.2228C10.2416 8.52893 10.4897 8.77715 10.7959 8.77715H15.3307L14.4483 14.9534C14.4095 15.2248 14.1736 15.4293 13.8995 15.4293H4.52854C4.25644 15.4293 4.02648 15.2345 3.98172 14.9661L2.95026 8.77715H7.46978C7.77591 8.77715 8.02414 8.52896 8.02414 8.2228C8.02414 7.91666 7.77595 7.66843 7.46978 7.66843C7.22657 7.66843 2.09578 7.66843 1.92631 7.66843C1.82441 7.66843 1.74153 7.58553 1.74153 7.48366V6.74452C1.74153 6.64262 1.82444 6.55975 1.92631 6.55975H16.3394C16.4413 6.55975 16.5242 6.64266 16.5242 6.74452V7.48366Z" fill="#303030"/>
<path d="M5.80827 9.88586C5.50213 9.88586 5.25391 10.1341 5.25391 10.4402V13.7663C5.25391 14.0725 5.5021 14.3207 5.80827 14.3207C6.11443 14.3207 6.36263 14.0725 6.36263 13.7663V10.4402C6.36263 10.1341 6.11443 9.88586 5.80827 9.88586Z" fill="#303030"/>
<path d="M9.13249 9.88586C8.82635 9.88586 8.57812 10.1341 8.57812 10.4402V13.7663C8.57812 14.0725 8.82632 14.3207 9.13249 14.3207C9.43862 14.3207 9.68685 14.0725 9.68685 13.7663V10.4402C9.68685 10.1341 9.43862 9.88586 9.13249 9.88586Z" fill="#303030"/>
<path d="M12.4567 9.88586C12.1506 9.88586 11.9023 10.1341 11.9023 10.4402V13.7663C11.9023 14.0725 12.1505 14.3207 12.4567 14.3207C12.7628 14.3207 13.0111 14.0725 13.0111 13.7663V10.4402C13.0111 10.1341 12.7628 9.88586 12.4567 9.88586Z" fill="#303030"/>
</svg>
