<svg width="15" height="19" viewBox="0 0 15 19" fill="none" xmlns="http://www.w3.org/2000/svg">
<path d="M12.849 2.92502H11.2369V2.20382C11.2369 1.97048 10.9824 1.86443 10.7491 1.86443H9.49756C9.2006 1.01595 8.45817 0.591705 7.60969 0.591705C6.77054 0.560158 6.00728 1.0747 5.72181 1.86443H4.49151C4.25817 1.86443 4.02484 1.97048 4.02484 2.20382V2.92502H2.41269C1.45734 2.93521 0.675764 3.68885 0.630859 4.64318V16.7977C0.630859 17.731 1.47934 18.4098 2.41269 18.4098H12.849C13.7824 18.4098 14.6309 17.731 14.6309 16.7977V4.64322C14.586 3.68885 13.8044 2.93521 12.849 2.92502ZM4.87328 2.71292H6.03996C6.24362 2.68807 6.4072 2.53314 6.44301 2.3311C6.56863 1.78404 7.04858 1.39135 7.60969 1.37657C8.1656 1.39342 8.63832 1.78733 8.75513 2.3311C8.79317 2.54012 8.96755 2.69704 9.17937 2.71292H10.3885V4.40989H4.87328V2.71292ZM13.7824 16.7977C13.7824 17.2644 13.3157 17.5614 12.849 17.5614H2.41269C1.94601 17.5614 1.47934 17.2644 1.47934 16.7977V4.64322C1.52263 4.15747 1.92506 3.78244 2.41269 3.77354H4.0248V4.85536C4.04721 5.09304 4.25306 5.27084 4.49147 5.25841H10.749C10.9918 5.27169 11.2041 5.09633 11.2369 4.85536V3.7735H12.849C13.3366 3.78244 13.7391 4.15743 13.7823 4.64318V16.7977H13.7824Z" fill="#303030"/>
<path d="M5.99731 10.0737C5.83819 9.90594 5.57404 9.89648 5.40335 10.0525L4.04577 11.3464L3.47305 10.7524C3.31393 10.5847 3.04978 10.5753 2.87909 10.7312C2.71478 10.9034 2.71478 11.1742 2.87909 11.3464L3.74877 12.2373C3.82405 12.3216 3.93278 12.3682 4.04573 12.3646C4.15763 12.363 4.26437 12.3173 4.34269 12.2373L5.99723 10.6676C6.16126 10.5172 6.17222 10.2622 6.02171 10.0982C6.014 10.0896 6.00584 10.0815 5.99731 10.0737Z" fill="#303030"/>
<path d="M12.0862 10.9858H7.20745C6.97314 10.9858 6.7832 11.1758 6.7832 11.4101C6.7832 11.6444 6.97314 11.8343 7.20745 11.8343H12.0862C12.3205 11.8343 12.5105 11.6444 12.5105 11.4101C12.5105 11.1758 12.3205 10.9858 12.0862 10.9858Z" fill="#303030"/>
<path d="M5.99731 6.67962C5.83819 6.5119 5.57404 6.50244 5.40335 6.65843L4.04577 7.95235L3.47305 7.3584C3.31393 7.19067 3.04978 7.18121 2.87909 7.3372C2.71478 7.50935 2.71478 7.7802 2.87909 7.95235L3.74877 8.84327C3.82405 8.92755 3.93278 8.97416 4.04573 8.97055C4.15763 8.96897 4.26437 8.92321 4.34269 8.84327L5.99723 7.27358C6.16126 7.12311 6.17222 6.86814 6.02171 6.70415C6.014 6.69558 6.00584 6.68742 5.99731 6.67962Z" fill="#303030"/>
<path d="M12.0862 7.5918H7.20745C6.97314 7.5918 6.7832 7.78173 6.7832 8.01604C6.7832 8.25035 6.97314 8.44028 7.20745 8.44028H12.0862C12.3205 8.44028 12.5105 8.25035 12.5105 8.01604C12.5105 7.78173 12.3205 7.5918 12.0862 7.5918Z" fill="#303030"/>
<path d="M5.99731 13.4677C5.83819 13.3 5.57404 13.2906 5.40335 13.4465L4.04577 14.7404L3.47305 14.1465C3.31393 13.9787 3.04978 13.9693 2.87909 14.1253C2.71478 14.2974 2.71478 14.5683 2.87909 14.7404L3.74877 15.6313C3.82405 15.7156 3.93278 15.7622 4.04573 15.7586C4.15763 15.757 4.26437 15.7113 4.34269 15.6313L5.99723 14.0617C6.16126 13.9112 6.17222 13.6562 6.02171 13.4922C6.014 13.4837 6.00584 13.4755 5.99731 13.4677Z" fill="#303030"/>
<path d="M12.0862 14.3799H7.20745C6.97314 14.3799 6.7832 14.5698 6.7832 14.8041C6.7832 15.0384 6.97314 15.2284 7.20745 15.2284H12.0862C12.3205 15.2284 12.5105 15.0384 12.5105 14.8041C12.5105 14.5698 12.3205 14.3799 12.0862 14.3799Z" fill="#303030"/>
</svg>
