<svg width="14" height="15" viewBox="0 0 14 15" fill="none" xmlns="http://www.w3.org/2000/svg">
<path d="M13.491 11.7861H7.23238C7.01938 10.9668 6.28028 10.3574 5.39509 10.3574C4.5099 10.3574 3.7708 10.9668 3.5578 11.7861H1.10904C0.845805 11.7861 0.632812 11.9993 0.632812 12.2623C0.632812 12.5253 0.845805 12.7385 1.10904 12.7385H3.5578C3.7708 13.5577 4.5099 14.1672 5.39509 14.1672C6.28028 14.1672 7.01938 13.5577 7.23238 12.7385H13.491C13.7542 12.7385 13.9672 12.5253 13.9672 12.2623C13.9672 11.9993 13.7542 11.7861 13.491 11.7861ZM5.39509 13.2147C4.87005 13.2147 4.44263 12.7876 4.44263 12.2623C4.44263 11.737 4.87005 11.3098 5.39509 11.3098C5.92013 11.3098 6.34754 11.737 6.34754 12.2623C6.34754 12.7876 5.92013 13.2147 5.39509 13.2147ZM13.491 7.02378H11.0422C10.8292 6.20455 10.0901 5.5951 9.20491 5.5951C8.31972 5.5951 7.58062 6.20455 7.36762 7.02378H1.10904C0.845805 7.02378 0.632812 7.23702 0.632812 7.50001C0.632812 7.76301 0.845805 7.97624 1.10904 7.97624H7.36762C7.58062 8.79547 8.31972 9.40492 9.20491 9.40492C10.0901 9.40492 10.8292 8.79547 11.0422 7.97624H13.491C13.7542 7.97624 13.9672 7.76301 13.9672 7.50001C13.9672 7.23702 13.7542 7.02378 13.491 7.02378ZM9.20491 8.45247C8.67987 8.45247 8.25246 8.02529 8.25246 7.50001C8.25246 6.97473 8.67987 6.54756 9.20491 6.54756C9.72995 6.54756 10.1574 6.97473 10.1574 7.50001C10.1574 8.02529 9.72995 8.45247 9.20491 8.45247ZM1.10904 3.21396H3.5578C3.7708 4.03319 4.5099 4.64265 5.39509 4.64265C6.28028 4.64265 7.01938 4.03319 7.23238 3.21396H13.491C13.7542 3.21396 13.9672 3.00073 13.9672 2.73774C13.9672 2.47474 13.7542 2.26151 13.491 2.26151H7.23238C7.01938 1.44228 6.28028 0.832825 5.39509 0.832825C4.5099 0.832825 3.7708 1.44228 3.5578 2.26151H1.10904C0.845805 2.26151 0.632812 2.47474 0.632812 2.73774C0.632812 3.00073 0.845805 3.21396 1.10904 3.21396ZM5.39509 1.78528C5.92013 1.78528 6.34754 2.21246 6.34754 2.73774C6.34754 3.26301 5.92013 3.69019 5.39509 3.69019C4.87005 3.69019 4.44263 3.26301 4.44263 2.73774C4.44263 2.21246 4.87005 1.78528 5.39509 1.78528Z" fill="#303030"/>
</svg>
