<svg width="16" height="17" viewBox="0 0 16 17" fill="none" xmlns="http://www.w3.org/2000/svg">
<path d="M13.25 8.72784V7.13867C13.25 4.82036 11.709 2.85544 9.59769 2.21365V1.49414C9.59769 0.670272 8.92742 0 8.10355 0C7.27969 0 6.60941 0.670272 6.60941 1.49414V2.21365C4.49803 2.85544 2.95707 4.82033 2.95707 7.13867V8.72784C2.95707 10.7643 2.18085 12.6952 0.771408 14.1651C0.633283 14.3091 0.594468 14.5216 0.672761 14.7052C0.751054 14.8887 0.931347 15.0078 1.1309 15.0078H5.66342C5.89478 16.1431 6.90097 17 8.10355 17C9.30617 17 10.3123 16.1431 10.5437 15.0078H15.0762C15.2758 15.0078 15.456 14.8887 15.5343 14.7052C15.6126 14.5216 15.5738 14.3091 15.4357 14.1651C14.0263 12.6952 13.25 10.7642 13.25 8.72784ZM7.60551 1.49414C7.60551 1.21952 7.82893 0.996094 8.10355 0.996094C8.37818 0.996094 8.6016 1.21952 8.6016 1.49414V2.01636C8.43768 2.00055 8.27156 1.99219 8.10355 1.99219C7.93555 1.99219 7.76943 2.00055 7.60551 2.01636V1.49414ZM8.10355 16.0039C7.45427 16.0039 6.90067 15.5875 6.69508 15.0078H9.51203C9.30644 15.5875 8.75284 16.0039 8.10355 16.0039ZM2.20436 14.0117C3.33861 12.4913 3.95316 10.6513 3.95316 8.72784V7.13867C3.95316 4.85015 5.81503 2.98828 8.10355 2.98828C10.3921 2.98828 12.2539 4.85015 12.2539 7.13867V8.72784C12.2539 10.6513 12.8685 12.4913 14.0028 14.0117H2.20436Z" fill="#303030"/>
<path d="M14.5774 7.13869C14.5774 7.41374 14.8004 7.63673 15.0754 7.63673C15.3505 7.63673 15.5735 7.41374 15.5735 7.13869C15.5735 5.14318 14.7964 3.2671 13.3854 1.85607C13.1909 1.6616 12.8755 1.66157 12.681 1.85607C12.4865 2.05057 12.4865 2.3659 12.681 2.56041C13.9039 3.78331 14.5774 5.40924 14.5774 7.13869Z" fill="#303030"/>
<path d="M1.13086 7.63671C1.40591 7.63671 1.62891 7.41372 1.62891 7.13867C1.62891 5.40925 2.3024 3.78333 3.52527 2.56042C3.71977 2.36592 3.71977 2.05059 3.52527 1.85608C3.3308 1.66158 3.01544 1.66158 2.82093 1.85608C1.4099 3.26712 0.632812 5.14316 0.632812 7.13867C0.632812 7.41372 0.855805 7.63671 1.13086 7.63671Z" fill="#303030"/>
</svg>
