<svg width="19" height="19" viewBox="0 0 19 19" fill="none" xmlns="http://www.w3.org/2000/svg">
<g clip-path="url(#clip0_74_1033)">
<path d="M9.63086 8.375C8.88918 8.375 8.16416 8.15507 7.54747 7.74301C6.93079 7.33096 6.45014 6.74529 6.16631 6.06006C5.88248 5.37484 5.80822 4.62084 5.95292 3.89341C6.09761 3.16598 6.45476 2.4978 6.97921 1.97335C7.50366 1.4489 8.17184 1.09175 8.89927 0.947057C9.6267 0.802362 10.3807 0.876625 11.0659 1.16045C11.7511 1.44428 12.3368 1.92493 12.7489 2.54161C13.1609 3.1583 13.3809 3.88332 13.3809 4.625C13.3809 5.61956 12.9858 6.57339 12.2825 7.27665C11.5792 7.97991 10.6254 8.375 9.63086 8.375ZM9.63086 2.375C9.18585 2.375 8.75084 2.50696 8.38083 2.75419C8.01082 3.00143 7.72243 3.35283 7.55213 3.76396C7.38183 4.1751 7.33728 4.6275 7.42409 5.06395C7.51091 5.50041 7.7252 5.90132 8.03987 6.21599C8.35454 6.53066 8.75545 6.74495 9.19191 6.83177C9.62836 6.91858 10.0808 6.87403 10.4919 6.70373C10.903 6.53343 11.2544 6.24504 11.5017 5.87503C11.7489 5.50502 11.8809 5.07001 11.8809 4.625C11.8809 4.02826 11.6438 3.45597 11.2219 3.03401C10.7999 2.61205 10.2276 2.375 9.63086 2.375Z" fill="#303030"/>
<path d="M16.3809 18.125H2.88086C2.68195 18.125 2.49118 18.046 2.35053 17.9053C2.20988 17.7647 2.13086 17.5739 2.13086 17.375V15.125C2.13086 13.5337 2.763 12.0076 3.88822 10.8824C5.01344 9.75714 6.53956 9.125 8.13086 9.125H11.1309C12.7222 9.125 14.2483 9.75714 15.3735 10.8824C16.4987 12.0076 17.1309 13.5337 17.1309 15.125V17.375C17.1309 17.5739 17.0518 17.7647 16.9112 17.9053C16.7705 18.046 16.5798 18.125 16.3809 18.125ZM3.63086 16.625H15.6309V15.125C15.6309 13.9315 15.1568 12.7869 14.3128 11.943C13.4689 11.0991 12.3243 10.625 11.1309 10.625H8.13086C6.93739 10.625 5.79279 11.0991 4.94888 11.943C4.10497 12.7869 3.63086 13.9315 3.63086 15.125V16.625Z" fill="#303030"/>
</g>
<defs>
<clipPath id="clip0_74_1033">
<rect width="18" height="18" fill="white" transform="translate(0.630859 0.5)"/>
</clipPath>
</defs>
</svg>
