<svg width="24" height="24" viewBox="0 0 24 24" fill="none" xmlns="http://www.w3.org/2000/svg">
<path d="M7.075 0.0131836H17.05C20.85 0.0131836 23.9375 3.10068 23.9375 6.90068V16.8757C23.9375 18.7024 23.2119 20.4542 21.9202 21.7459C20.6285 23.0375 18.8767 23.7632 17.05 23.7632H7.075C3.275 23.7632 0.1875 20.6757 0.1875 16.8757V6.90068C0.1875 5.07401 0.913145 3.32214 2.2048 2.03049C3.49646 0.738829 5.24832 0.0131836 7.075 0.0131836ZM6.8375 2.38818C5.7037 2.38818 4.61634 2.83858 3.81462 3.6403C3.0129 4.44202 2.5625 5.52938 2.5625 6.66318V17.1132C2.5625 19.4763 4.47437 21.3882 6.8375 21.3882H17.2875C18.4213 21.3882 19.5087 20.9378 20.3104 20.1361C21.1121 19.3343 21.5625 18.247 21.5625 17.1132V6.66318C21.5625 4.30006 19.6506 2.38818 17.2875 2.38818H6.8375ZM18.2969 4.16943C18.6906 4.16943 19.0681 4.32582 19.3465 4.6042C19.6249 4.88257 19.7812 5.26013 19.7812 5.65381C19.7812 6.04749 19.6249 6.42505 19.3465 6.70342C19.0681 6.98179 18.6906 7.13818 18.2969 7.13818C17.9032 7.13818 17.5256 6.98179 17.2473 6.70342C16.9689 6.42505 16.8125 6.04749 16.8125 5.65381C16.8125 5.26013 16.9689 4.88257 17.2473 4.6042C17.5256 4.32582 17.9032 4.16943 18.2969 4.16943ZM12.0625 5.95068C13.6372 5.95068 15.1474 6.57624 16.2609 7.68974C17.3744 8.80323 18 10.3135 18 11.8882C18 13.4629 17.3744 14.9731 16.2609 16.0866C15.1474 17.2001 13.6372 17.8257 12.0625 17.8257C10.4878 17.8257 8.97755 17.2001 7.86405 16.0866C6.75056 14.9731 6.125 13.4629 6.125 11.8882C6.125 10.3135 6.75056 8.80323 7.86405 7.68974C8.97755 6.57624 10.4878 5.95068 12.0625 5.95068ZM12.0625 8.32568C11.1177 8.32568 10.2115 8.70102 9.54343 9.36911C8.87533 10.0372 8.5 10.9433 8.5 11.8882C8.5 12.833 8.87533 13.7392 9.54343 14.4073C10.2115 15.0754 11.1177 15.4507 12.0625 15.4507C13.0073 15.4507 13.9135 15.0754 14.5816 14.4073C15.2497 13.7392 15.625 12.833 15.625 11.8882C15.625 10.9433 15.2497 10.0372 14.5816 9.36911C13.9135 8.70102 13.0073 8.32568 12.0625 8.32568Z" fill="url(#paint0_linear_66_615)"/>
<defs>
<linearGradient id="paint0_linear_66_615" x1="2.5625" y1="22.5757" x2="22.1563" y2="1.79443" gradientUnits="userSpaceOnUse">
<stop stop-color="#F2B918"/>
<stop offset="1" stop-color="#F2B918"/>
</linearGradient>
</defs>
</svg>
