<svg width="22" height="24" viewBox="0 0 22 24" fill="none" xmlns="http://www.w3.org/2000/svg">
<path d="M10.7777 4.26533C10.4068 4.26533 10.4068 4.85908 10.7777 4.86403C13.6558 4.88679 16.0261 6.9471 16.0522 10.7263C16.0522 11.1251 16.6207 11.1202 16.6158 10.7214C16.585 6.64924 13.996 4.28809 10.7777 4.26533Z" fill="#F2B918"/>
<path d="M14.5605 10.0999C14.5518 10.4938 15.1193 10.5126 15.1241 10.1138C15.1714 7.86839 13.8234 6.01886 11.2902 5.82392C10.9192 5.79621 10.8807 6.39491 11.2507 6.42261C13.4476 6.59381 14.6048 8.1336 14.5605 10.0999Z" fill="#F2B918"/>
<path d="M12.7947 12.8252C12.9951 12.5471 13.4798 12.371 13.9558 12.654C14.5975 13.039 15.4146 13.6377 15.9561 14.18C16.2615 14.4442 16.3309 14.8479 16.1218 15.2744V15.2814C15.6506 16.1631 14.768 17.1368 13.8604 16.8261L13.8517 16.8123C12.9306 16.5381 10.7607 15.3506 9.38954 14.1918C6.97786 12.1665 5.93423 9.59957 5.36346 8.19569C5.24373 7.90119 5.1448 7.65787 5.05842 7.48147C4.76647 6.51663 5.67895 5.57949 6.51241 5.07877H6.52108C6.92191 4.85611 7.30733 4.93033 7.56363 5.25986C7.62359 5.34603 7.69778 5.4386 7.78618 5.54891C8.05716 5.88705 8.46168 6.39182 8.99931 7.38944C9.26621 7.89512 9.10048 8.4097 8.8384 8.62345L8.31423 9.06877C8.04829 9.29538 8.08394 9.71793 8.08394 9.71793C8.08394 9.71793 8.86056 12.8391 11.7647 13.6278C11.7647 13.6278 12.1626 13.6654 12.3756 13.3824L12.7947 12.8252Z" fill="#F2B918"/>
<path d="M11.6902 8.03266C12.6162 8.08808 13.0652 8.58485 13.1134 9.60511C13.1307 10.0039 13.6944 9.9762 13.677 9.5774C13.6154 8.24542 12.939 7.50323 11.721 7.43396C11.3501 7.4112 11.3154 8.0099 11.6902 8.03266Z" fill="#F2B918"/>
<path fill-rule="evenodd" clip-rule="evenodd" d="M19.1357 2.3287C20.978 4.03177 21.9993 7.79713 21.3094 13.7614C20.7057 19.0235 17.2516 19.9555 16.0921 20.2684C15.9784 20.299 15.8868 20.3238 15.8221 20.346C15.5089 20.4529 12.7532 21.1852 9.16496 20.8656C9.03985 21.019 8.92098 21.1651 8.8079 21.304C6.98146 23.5481 6.66674 23.9347 6.01706 23.7185C5.41389 23.5236 5.44954 22.5538 5.44954 22.5538L5.45436 20.16H5.44954C0.206908 18.5925 0.280137 12.8143 0.341804 9.72979C0.403471 6.64625 0.966179 4.15547 2.56373 2.45833C6.12113 -1.01115 16.1632 -0.580679 19.1367 2.32771L19.1357 2.3287ZM6.54123 22.8447C7.24751 22.0897 9.51858 19.1813 9.51858 19.1813C12.5614 19.3901 14.9847 18.7498 15.2459 18.6608C15.3067 18.64 15.3945 18.6182 15.5037 18.5911C16.4912 18.3462 19.2352 17.6658 19.7427 13.323C19.7422 13.3014 19.7496 13.2249 19.7615 13.1017C19.8822 11.8527 20.4668 5.8046 17.9708 3.53203C15.7276 1.36682 6.92376 0.694894 3.80285 3.70026C2.45003 5.12031 1.99139 7.22911 1.94321 9.80401C1.94155 9.89246 1.93965 9.98369 1.93769 10.0774C1.88258 12.7118 1.7857 17.3431 6.07777 18.6064C6.07777 18.6064 6.06042 22.2609 6.06042 22.5805C6.05657 23.0674 6.30998 23.0902 6.54123 22.8447Z" fill="#F2B918"/>
</svg>
