<svg width="24" height="24" viewBox="0 0 24 24" fill="none" xmlns="http://www.w3.org/2000/svg">
<path d="M17.7031 14.2157C18 14.3701 18.19 14.4532 18.2494 14.5719C18.3206 14.7026 18.2969 15.2963 18 15.9732C17.7625 16.6382 16.5275 17.2794 15.9812 17.3032C15.435 17.3269 15.4231 17.7307 12.4663 16.4363C9.50938 15.1419 7.72812 11.9832 7.58562 11.7813C7.44312 11.5794 6.44562 10.1426 6.49312 8.68193C6.5525 7.23318 7.3125 6.54443 7.62125 6.25943C7.90625 5.95068 8.22687 5.91506 8.42875 5.95068H8.98687C9.165 5.95068 9.41438 5.87943 9.64 6.48506L10.4594 8.70568C10.5306 8.86006 10.5781 9.03818 10.4712 9.22818L10.1506 9.71506L9.6875 10.2138C9.545 10.3563 9.37875 10.5107 9.545 10.8076C9.6875 11.1163 10.2812 12.1019 11.1125 12.9213C12.1931 13.9663 13.1431 14.3107 13.4281 14.4651C13.7131 14.6313 13.8912 14.6076 14.0694 14.4176L15.0312 13.3013C15.2569 13.0044 15.4469 13.0757 15.72 13.1707L17.7031 14.2157ZM12.0625 0.0131836C13.6219 0.0131836 15.1661 0.32034 16.6069 0.917114C18.0476 1.51389 19.3567 2.38859 20.4594 3.49129C21.5621 4.59399 22.4368 5.90308 23.0336 7.34382C23.6303 8.78456 23.9375 10.3287 23.9375 11.8882C23.9375 15.0376 22.6864 18.0581 20.4594 20.2851C18.2324 22.5121 15.2119 23.7632 12.0625 23.7632C9.72312 23.7632 7.55 23.0863 5.70937 21.9226L0.1875 23.7632L2.02812 18.2413C0.864375 16.4007 0.1875 14.2276 0.1875 11.8882C0.1875 8.73874 1.43861 5.71829 3.66561 3.49129C5.8926 1.2643 8.91305 0.0131836 12.0625 0.0131836ZM12.0625 2.38818C9.54294 2.38818 7.12658 3.38907 5.34499 5.17067C3.56339 6.95226 2.5625 9.36863 2.5625 11.8882C2.5625 13.9307 3.20375 15.8188 4.29625 17.3626L3.15625 20.7944L6.58812 19.6544C8.13187 20.7469 10.02 21.3882 12.0625 21.3882C14.5821 21.3882 16.9984 20.3873 18.78 18.6057C20.5616 16.8241 21.5625 14.4077 21.5625 11.8882C21.5625 9.36863 20.5616 6.95226 18.78 5.17067C16.9984 3.38907 14.5821 2.38818 12.0625 2.38818Z" fill="#F2B918"/>
</svg>
