<svg width="211" height="222" viewBox="0 0 211 222" fill="none" xmlns="http://www.w3.org/2000/svg">
<path d="M114.98 28.2317C113.419 26.0833 111.58 24.1109 109.523 22.7763C108.499 22.1092 107.429 21.6213 106.362 21.3443C105.828 21.2089 105.296 21.1354 104.762 21.0986C104.23 21.0908 103.696 21.0932 103.164 21.1966C102.898 21.2237 102.632 21.3102 102.365 21.3639C102.104 21.4374 101.86 21.5298 101.606 21.6091C101.116 21.818 100.626 22.041 100.171 22.3512C99.2487 22.9458 98.4007 23.7423 97.6759 24.6852C96.9579 25.634 96.3646 26.7152 95.9171 27.854C95.6868 28.4207 95.5111 29.0074 95.3596 29.5962C95.2773 29.8879 95.2336 30.1894 95.1678 30.4811C95.1154 30.7845 95.0717 31.1025 95.0237 31.4132C94.952 32.0921 94.8501 32.858 94.8001 33.7111C94.7799 33.9199 94.7733 34.1403 94.7629 34.3597C94.7538 34.5816 94.7356 34.7991 94.7333 35.0432C94.7265 35.2965 94.7212 35.5522 94.7159 35.808C94.7246 36.3407 94.7323 36.8774 94.74 37.414C94.8152 39.5801 95.0446 41.8676 95.3122 44.1751C95.5793 46.4599 95.8389 48.6933 96.0812 50.7764C96.3289 52.9514 96.5728 55.1253 96.8223 57.3254C94.7544 55.0297 92.6812 52.7305 90.6104 50.4299C89.5805 49.2944 88.5496 48.1628 87.5197 47.0272C87.0098 46.4679 86.5229 45.9803 86.0268 45.4554C85.5365 44.973 85.0486 44.4728 84.5605 44.0219C84.0739 43.5734 83.5902 43.1133 83.0928 42.7073L82.3555 42.08C82.2306 41.9805 82.1082 41.8795 81.9771 41.7803L81.7529 41.6021C81.282 41.2296 80.8037 40.8778 80.3195 40.5492C79.3502 39.8959 78.3623 39.316 77.3612 38.8849C75.3558 37.9953 73.3589 37.6877 71.43 38.0678C70.4716 38.2707 69.5856 38.6011 68.7314 39.1224C67.8816 39.6347 67.0886 40.3197 66.3928 41.1404C65.4685 42.189 64.6165 43.552 64.1623 44.8063C64.0003 45.2012 63.8992 45.6156 63.7735 46.0217C63.7137 46.2245 63.6762 46.4371 63.6266 46.6405C63.5761 46.8477 63.5241 47.0525 63.4977 47.2617L63.3905 47.8864C63.3627 48.0932 63.3464 48.303 63.3224 48.5107C63.2649 48.9157 63.2719 49.374 63.2403 49.8061C63.2174 51.5647 63.4018 53.3575 63.805 55.1709C64.601 58.791 66.0823 62.4493 67.9114 66.0581C71.4472 73.3126 75.9068 80.1518 81.1534 86.3785C84.8787 90.7485 88.8143 94.9704 93.0646 98.9164C97.3218 102.852 101.817 106.57 106.565 109.997C111.828 113.77 118.08 118.323 124.035 122.317C128.524 125.308 133.054 128.34 137.601 131.043C142.154 133.756 146.806 136.132 151.633 137.806C154.041 138.639 156.519 139.238 159.03 139.758L160.931 140.07L161.881 140.227L162.842 140.337L164.764 140.558L166.704 140.693C171.881 141.047 177.157 140.768 182.439 140.236C189.012 139.54 194.755 138.563 195.742 139.429C196.021 139.666 197.545 139.642 199.051 139.642C200.554 139.633 202.041 139.65 202.234 139.981C202.736 140.847 200.802 142.067 196.572 143.448C194.456 144.13 191.764 144.866 188.488 145.529C185.214 146.195 181.358 146.82 176.912 147.149C168.973 147.759 160.576 147.285 152.564 145.088C150.642 144.608 148.763 143.958 146.921 143.273C145.083 142.576 143.277 141.817 141.518 140.983C137.997 139.326 134.631 137.452 131.375 135.479C128.107 133.51 124.97 131.447 121.818 129.347C120.247 128.294 118.691 127.2 117.135 126.112C115.58 125.016 114.052 123.869 112.52 122.727C108.175 119.427 102.747 115.559 98.0016 111.773C91.2518 106.372 84.925 100.479 79.2162 94.016C73.5127 87.5561 68.4427 80.5125 64.3024 72.9092C64.1242 72.6151 63.9711 72.3027 63.8156 71.9918C63.6601 71.6808 63.5046 71.3699 63.3516 71.0575C63.0406 70.4356 62.7306 69.8099 62.4192 69.1817L61.4863 67.2996C61.1942 66.6599 60.9031 66.0164 60.6242 65.3656C59.5083 62.7625 58.5117 60.0787 57.8189 57.3321C57.3527 55.5233 57.0304 53.642 56.9273 51.7156C56.902 51.2321 56.8757 50.7524 56.8867 50.2637L56.8913 49.5327L56.9327 48.8029C56.9827 47.8285 57.1281 46.8104 57.326 45.8365C57.7273 43.8757 58.4241 41.9817 59.3941 40.2106C60.3641 38.4395 61.6146 36.7868 63.1697 35.3761C64.7118 33.96 66.6163 32.8333 68.6966 32.1729C70.7566 31.4949 72.954 31.329 75.0749 31.5693C77.1919 31.8251 79.1745 32.4889 80.9716 33.3484C82.7644 34.2169 84.395 35.2705 85.8987 36.4194C86.6194 36.9746 87.2301 37.5822 87.8406 38.2554L87.8695 38.2874C87.8792 38.2981 87.8931 38.316 87.8864 38.2938L87.878 38.2135L87.8588 38.0544L87.8242 37.7371C87.8037 37.5263 87.7842 37.3115 87.7709 37.0964C87.7431 36.6636 87.7336 36.2231 87.7639 35.7393C87.7786 35.4222 87.7928 35.0989 87.8061 34.7794C87.8242 34.3192 87.8642 33.8296 87.8974 33.3507C87.9899 32.387 88.0979 31.4109 88.2814 30.4292C88.3615 29.9354 88.4798 29.4452 88.5841 28.9534C88.7194 28.453 88.8315 27.9468 88.9991 27.4567C89.2952 26.4605 89.6962 25.497 90.128 24.5414C91.0429 22.6555 92.2026 20.8338 93.7423 19.2649C94.4917 18.4681 95.3587 17.7587 96.2801 17.1186C97.212 16.4853 98.2302 15.9583 99.2943 15.5416C100.727 15.0108 102.184 14.7043 103.704 14.6234C105.217 14.5467 106.747 14.7153 108.185 15.103C111.076 15.8823 113.544 17.4283 115.606 19.1961C117.674 20.9798 119.391 23.0156 120.865 25.1627C122.34 27.3161 123.583 29.5875 124.621 31.9548C124.877 32.5441 125.127 33.1527 125.353 33.7468L125.981 35.4919C126.397 36.6546 126.835 37.8146 127.18 39.0003L127.728 40.7702C127.909 41.3612 128.101 41.9488 128.245 42.5488L129.181 46.1345C130.308 50.945 131.095 55.8234 131.56 60.7291C133.087 72.0985 132.71 83.9182 131.185 95.4856C129.661 107.076 127.008 118.41 124.243 129.37C123.397 132.777 122.32 136.458 121.124 140.247C119.909 144.027 118.551 147.902 117.095 151.681C113.678 160.524 111.646 165.334 110.593 167.037C109.534 168.736 109.422 167.307 109.71 163.563C109.843 161.775 110.186 159.479 110.629 156.932C111.254 153.329 112.431 149.129 114.886 141.544C118.301 130.961 120.954 120.326 122.815 109.831C123.548 105.622 124.141 101.497 124.665 97.2726C125.158 93.0399 125.586 88.7046 125.966 84.0504C126.071 82.3743 126.181 80.6193 126.163 78.8523C126.16 77.9714 126.161 77.0853 126.16 76.2069C126.13 75.3293 126.102 74.4605 126.074 73.6042L126.029 72.1387L125.938 70.6741C125.876 69.6978 125.828 68.7191 125.753 67.7437C125.567 65.7943 125.428 63.8402 125.16 61.8967C124.954 59.9463 124.621 58.0089 124.327 56.0648C124.167 55.0945 123.963 54.1297 123.786 53.1593L123.51 51.7031L123.178 50.2574C122.356 46.384 121.243 42.5558 119.961 38.7426C119.628 37.7962 119.295 36.846 118.959 35.8948C118.625 35.0041 118.245 34.1218 117.837 33.2492C117.022 31.5039 116.06 29.816 114.971 28.2336L114.98 28.2317Z" fill="#F92F22"/>
<path d="M179.754 124.879C180.656 125.353 181.499 126.065 182.718 126.051C183.044 126.048 183.368 126.344 183.6 126.602C184.304 127.387 185.041 128.12 185.942 128.647C186.077 128.724 186.181 128.878 186.326 128.907C187.827 129.201 188.742 130.458 190.008 131.131C190.9 131.604 191.637 132.336 192.732 132.489C193.336 132.572 193.863 133 194.372 133.35C195.915 134.4 197.441 135.48 198.954 136.567C199.425 136.907 199.796 137.267 199.341 138.161C199.085 138.667 199.275 139.269 198.919 139.904C197.991 141.565 196.59 142.359 195.204 141.793C194.584 141.539 194.029 141.147 193.437 140.83C192.306 140.231 191 139.932 190.17 138.802C189.872 138.399 189.326 138.215 188.856 138.003C187.52 137.401 186.425 136.438 185.292 135.531C184.93 135.242 184.584 134.893 184.158 134.733C183.031 134.322 181.99 133.763 180.978 133.138C180.499 132.84 180.013 132.585 179.585 132.18C179.146 131.762 178.498 131.6 177.95 131.312C176.498 130.553 174.947 129.964 173.677 128.889C171.735 128.414 170.364 126.799 168.3 126.528C167.66 126.443 167.018 126.143 166.557 125.571C165.477 124.236 165.517 123.835 167.083 122.431C167.455 122.098 167.86 121.797 168.272 121.536C168.856 121.166 169.346 121.074 169.967 121.364C170.835 121.769 171.876 121.859 172.867 121.997C173.66 122.106 174.457 122.15 175.085 122.688C175.312 122.881 175.655 122.929 175.959 123.004C177.35 123.347 178.615 123.923 179.749 124.882L179.754 124.879Z" fill="#F92F22"/>
<path d="M177.095 158.741C178.185 157.85 179.486 157.053 180.213 155.662C180.411 155.295 180.926 154.992 181.349 154.783C182.632 154.154 183.877 153.462 184.976 152.526C185.139 152.387 185.368 152.297 185.485 152.135C186.674 150.457 188.574 149.631 190.015 148.259C191.037 147.303 192.231 146.537 192.99 145.278C193.402 144.574 194.146 144.017 194.799 143.461L197.732 140.932C198.696 140.076 199.684 139.239 200.643 138.376C201.245 137.844 201.816 137.432 202.597 138.066C203.041 138.426 203.808 138.248 204.35 138.735C205.763 140.007 205.974 141.784 204.646 143.444C204.042 144.177 203.315 144.813 202.655 145.507C201.387 146.816 200.36 148.375 198.634 149.228C198.018 149.532 197.52 150.173 197.015 150.703C195.595 152.224 193.886 153.382 192.214 154.574C191.678 154.952 191.08 155.298 190.653 155.771C190.091 156.404 189.491 156.994 188.869 157.564C188.246 158.132 187.609 158.681 186.942 159.203C186.309 159.701 185.724 160.216 185.008 160.629C184.266 161.051 183.67 161.759 183.001 162.332C181.224 163.838 179.537 165.475 177.493 166.648C175.64 168.732 172.92 169.839 171.137 172.051C170.581 172.739 169.79 173.371 168.828 173.7C166.581 174.483 166.185 174.309 165.814 172.141C165.723 171.625 165.698 171.086 165.714 170.551C165.735 169.797 165.988 169.237 166.744 168.649C167.787 167.812 168.623 166.708 169.445 165.648C170.107 164.798 170.697 163.942 171.692 163.392C172.049 163.193 172.332 162.825 172.614 162.506C173.263 161.782 173.942 161.099 174.684 160.471C175.427 159.845 176.226 159.271 177.103 158.743L177.095 158.741Z" fill="#F92F22"/>
<path d="M93.5641 184.11C94.6805 181.956 96.0496 179.731 96.6302 177.25C96.7912 176.584 97.3358 175.718 97.7869 175.06C98.4722 174.061 99.1455 173.054 99.7889 172.018C100.427 170.979 101.018 169.906 101.571 168.79C101.735 168.459 101.981 168.133 102.085 167.812C103.132 164.506 105.162 161.694 106.533 158.562C107.517 156.363 108.716 154.259 109.333 151.878C109.657 150.553 110.388 149.131 111.017 147.795L113.812 141.743C114.717 139.713 115.656 137.698 116.545 135.663C117.101 134.398 117.656 133.329 118.648 133.542C119.212 133.663 120.024 132.756 120.723 132.971C122.544 133.534 123.14 135.816 122.02 139.231C121.506 140.754 120.829 142.246 120.241 143.76C119.098 146.641 118.28 149.644 116.508 152.289C115.878 153.231 115.453 154.534 114.991 155.681C114.336 157.321 113.604 158.908 112.801 160.458C111.997 162.006 111.163 163.532 110.325 165.061C109.785 166.035 109.175 167.021 108.781 168.029C108.267 169.365 107.694 170.674 107.094 171.969C106.491 173.266 105.871 174.556 105.2 175.831C104.569 177.047 103.995 178.238 103.248 179.414C102.465 180.624 101.916 182.076 101.25 183.417C100.374 185.191 99.4994 186.968 98.6077 188.738C97.7054 190.502 96.7336 192.231 95.6551 193.903C93.8892 198.218 90.8757 202.084 89.1864 206.461C88.6655 207.824 87.8454 209.328 86.7462 210.612C84.1888 213.63 83.6637 213.778 82.7446 211.445C82.5257 210.89 82.3787 210.246 82.285 209.57C82.1493 208.614 82.3388 207.681 83.1393 206.254C84.2321 204.242 85.0188 202.092 85.7967 199.992C86.4139 198.306 86.9623 196.681 88.043 195.057C88.4314 194.475 88.6952 193.744 88.9712 193.078C89.6058 191.559 90.2819 190.054 91.0362 188.566C91.4165 187.821 91.8161 187.082 92.2424 186.343C92.6608 185.602 93.1006 184.858 93.5698 184.119L93.5641 184.11Z" fill="#F92F22"/>
</svg>
