<svg width="18" height="18" viewBox="0 0 18 18" fill="none" xmlns="http://www.w3.org/2000/svg">
<path d="M1.16657 17.9996C0.868044 17.9996 0.5693 17.8854 0.342092 17.658C-0.114031 17.2021 -0.114031 16.4649 0.342092 16.009L16.0089 0.341932C16.4649 -0.113977 17.202 -0.113977 17.6579 0.341932C18.114 0.797842 18.114 1.53499 17.6579 1.99089L1.99105 17.658C1.76235 17.8864 1.4651 17.9996 1.16657 17.9996Z" fill="#303030"/>
<path d="M16.8334 17.9996C16.5349 17.9996 16.2364 17.8854 16.0089 17.658L0.342092 1.99089C-0.114031 1.53499 -0.114031 0.797842 0.342092 0.341932C0.798002 -0.113977 1.53493 -0.113977 1.99106 0.341932L17.6579 16.009C18.114 16.4649 18.114 17.2021 17.6579 17.658C17.4305 17.8864 17.132 17.9996 16.8334 17.9996Z" fill="#303030"/>
</svg>
